<svg width="34" height="34" viewBox="0 0 34 34" fill="none" xmlns="http://www.w3.org/2000/svg">
<path d="M5 20.5H13.5V29C13.5 29.9444 13.8358 30.8071 14.5143 31.4857C15.1929 32.1642 16.0556 32.5 17 32.5C17.9444 32.5 18.8071 32.1642 19.4857 31.4857C20.1642 30.8071 20.5 29.9444 20.5 29V20.5H29C29.9444 20.5 30.8071 20.1642 31.4857 19.4857C32.1642 18.8071 32.5 17.9444 32.5 17C32.5 16.0556 32.1642 15.1929 31.4857 14.5143C30.8071 13.8358 29.9444 13.5 29 13.5H20.5V5C20.5 4.05558 20.1642 3.19286 19.4857 2.51434C18.8071 1.83582 17.9444 1.5 17 1.5C16.0556 1.5 15.1929 1.83582 14.5143 2.51434C13.8358 3.19286 13.5 4.05558 13.5 5V13.5H5C4.05558 13.5 3.19286 13.8358 2.51434 14.5143C1.83582 15.1929 1.5 16.0556 1.5 17C1.5 17.9444 1.83582 18.8071 2.51434 19.4857C3.19286 20.1642 4.05558 20.5 5 20.5Z" fill="#FAC219" stroke="#FAC219" stroke-width="3"/>
</svg>
