<svg width="38" height="38" viewBox="0 0 38 38" fill="none" xmlns="http://www.w3.org/2000/svg">
<path fill-rule="evenodd" clip-rule="evenodd" d="M18.9998 0.666992C8.87484 0.666992 0.666504 8.87533 0.666504 19.0003C0.666504 29.1253 8.87484 37.3337 18.9998 37.3337C29.1248 37.3337 37.3332 29.1253 37.3332 19.0003C37.3332 8.87533 29.1248 0.666992 18.9998 0.666992ZM17.1532 13.892C17.5365 13.137 17.8198 12.7787 18.0548 12.592C18.2315 12.452 18.4715 12.3337 18.9998 12.3337C20.0415 12.3337 20.6665 13.117 20.6665 13.9637C20.6665 14.427 20.5765 14.657 20.3298 14.9503C19.9848 15.3603 19.3465 15.8587 18.0832 16.6937L17.3332 17.187V20.667C17.3332 21.109 17.5088 21.5329 17.8213 21.8455C18.1339 22.1581 18.5578 22.3337 18.9998 22.3337C19.4419 22.3337 19.8658 22.1581 20.1783 21.8455C20.4909 21.5329 20.6665 21.109 20.6665 20.667V18.972C21.5698 18.3487 22.3282 17.752 22.8782 17.0987C23.6732 16.1553 23.9998 15.1487 23.9998 13.9637C23.9998 11.5137 22.1115 9.00032 18.9998 9.00032C17.8598 9.00032 16.8515 9.29366 15.9865 9.97866C15.1798 10.617 14.6298 11.4953 14.1798 12.387C14.0753 12.5828 14.0109 12.7975 13.9904 13.0185C13.9699 13.2395 13.9938 13.4624 14.0606 13.674C14.1274 13.8857 14.2359 14.0818 14.3795 14.251C14.5232 14.4202 14.6992 14.559 14.8973 14.6592C15.0953 14.7595 15.3114 14.8191 15.5328 14.8347C15.7542 14.8503 15.9765 14.8216 16.1866 14.7501C16.3967 14.6786 16.5905 14.5659 16.7565 14.4186C16.9224 14.2712 17.0573 14.0922 17.1532 13.892ZM20.6665 26.5003C20.6665 26.0583 20.4909 25.6344 20.1783 25.3218C19.8658 25.0093 19.4419 24.8337 18.9998 24.8337C18.5578 24.8337 18.1339 25.0093 17.8213 25.3218C17.5088 25.6344 17.3332 26.0583 17.3332 26.5003V27.3337C17.3332 27.7757 17.5088 28.1996 17.8213 28.5122C18.1339 28.8247 18.5578 29.0003 18.9998 29.0003C19.4419 29.0003 19.8658 28.8247 20.1783 28.5122C20.4909 28.1996 20.6665 27.7757 20.6665 27.3337V26.5003Z" fill="#60C744"/>
</svg>
