<svg width="30" height="30" viewBox="0 0 30 30" fill="none" xmlns="http://www.w3.org/2000/svg">
<path d="M17.9513 5.09889C17.9513 5.09889 18.0951 7.56139 20.2676 9.73264C22.4401 11.9051 24.9013 12.0501 24.9013 12.0501L26.06 10.8914C26.9818 9.9696 27.4997 8.71938 27.4997 7.41576C27.4997 6.11215 26.9818 4.86193 26.06 3.94014C25.1383 3.01835 23.888 2.50049 22.5844 2.50049C21.2808 2.50049 20.0306 3.01835 19.1088 3.94014L17.9501 5.09889L15.0001 8.04889M24.9013 12.0489L18.3263 18.6264L14.4501 22.5001L14.2501 22.7014C13.5276 23.4226 13.1663 23.7839 12.7688 24.0939C12.2997 24.46 11.7921 24.774 11.2551 25.0301C10.8001 25.2464 10.3163 25.4076 9.34755 25.7301L5.2463 27.0976M5.2463 27.0976L4.2438 27.4326C4.01012 27.511 3.75921 27.5226 3.51929 27.4662C3.27936 27.4098 3.05992 27.2876 2.88564 27.1133C2.71136 26.939 2.58915 26.7196 2.53273 26.4797C2.47632 26.2397 2.48795 25.9888 2.5663 25.7551L2.9013 24.7526M5.2463 27.0976L2.9013 24.7526M2.9013 24.7526L4.2688 20.6514C4.5913 19.6826 4.75255 19.1989 4.9688 18.7439C5.22505 18.2064 5.5388 17.6989 5.90505 17.2301C6.21505 16.8326 6.5763 16.4714 7.29755 15.7501L10.6251 12.4239" stroke="#020D19" stroke-width="2.5" stroke-linecap="round"/>
</svg>
