<svg width="30" height="38" viewBox="0 0 30 38" fill="none" xmlns="http://www.w3.org/2000/svg">
<path d="M0.803711 25.7124C0.803711 32.5096 6.36157 37.3146 14.1966 37.3146C23.0859 37.3146 29.1966 31.5717 29.1966 22.1303C29.1966 7.39814 16.2723 0.68457 6.84728 0.68457C5.35728 0.68457 4.62085 1.42171 4.62085 2.27528C4.62085 2.961 4.98871 3.531 5.54157 4.31814C6.88085 6.15886 9.15728 8.83743 9.15728 12.2024C9.15728 12.4874 9.14085 12.7717 9.10728 13.0739C8.17014 11.3153 6.51228 10.0767 4.50371 10.0767C3.93443 10.0767 3.633 10.4117 3.633 10.8967C3.633 11.4824 3.76657 11.9017 3.76657 13.726C3.76657 17.2253 0.803711 19.5853 0.803711 25.7124ZM14.5316 32.6103C11.183 32.6103 8.95657 30.5846 8.95657 27.571C8.95657 24.4067 11.1994 23.2853 11.5016 21.2424C11.518 21.0753 11.6351 21.0253 11.7523 21.1424C12.5894 21.8624 13.1087 22.766 13.5101 23.8046C13.5937 23.9881 13.728 24.0046 13.8116 23.8546C14.7323 22.2474 14.8994 19.8531 14.6823 16.8403C14.6487 16.6724 14.7659 16.5889 14.9166 16.656C18.8844 18.4639 20.9094 22.3981 20.9094 25.9303C20.9094 29.4796 18.8173 32.6103 14.5316 32.6103Z" fill="#D23C48"/>
</svg>
