<svg width="109" height="213" viewBox="0 0 109 213" fill="none" xmlns="http://www.w3.org/2000/svg">
<path d="M2.25669 90.9123C2.25669 115.595 22.6134 133.044 51.3107 133.044C83.8694 133.044 106.251 112.19 106.251 77.9041C106.251 24.406 58.9134 0.0263672 24.3925 0.0263672C18.935 0.0263672 16.2377 2.70322 16.2377 5.80287C16.2377 8.29297 17.5851 10.3629 19.61 13.2213C24.5154 19.9056 32.8533 29.6326 32.8533 41.8522C32.8533 42.8871 32.7931 43.9195 32.6701 45.0167C29.2377 38.6306 23.1655 34.1329 15.8087 34.1329C13.7235 34.1329 12.6195 35.3494 12.6195 37.1106C12.6195 39.2376 13.1087 40.7602 13.1087 47.3849C13.1087 60.0922 2.25669 68.6622 2.25669 90.9123ZM52.5377 115.961C40.2729 115.961 32.1181 108.605 32.1181 97.6615C32.1181 86.1707 40.333 82.0984 41.4397 74.68C41.4999 74.073 41.9289 73.8914 42.358 74.3168C45.4242 76.9314 47.3262 80.2127 48.7965 83.9841C49.1026 84.6507 49.5944 84.7104 49.9005 84.1657C53.2728 78.3295 53.885 69.6349 53.0897 58.6941C52.9667 58.0845 53.3958 57.781 53.9478 58.0249C68.4808 64.5899 75.8978 78.8768 75.8978 91.7034C75.8978 104.592 68.2349 115.961 52.5377 115.961Z" fill="#D23C48"/>
<path d="M27.3315 91.2055C27.3315 107.088 40.4062 118.315 58.8377 118.315C79.7494 118.315 94.1247 104.896 94.1247 82.8355C94.1247 48.4125 63.7208 32.7256 41.5488 32.7256C38.0436 32.7256 36.3112 34.448 36.3112 36.4424C36.3112 38.0447 37.1766 39.3765 38.4772 41.2158C41.6278 45.5168 46.983 51.7755 46.983 59.6381C46.983 60.304 46.9443 60.9683 46.8654 61.6743C44.6608 57.5652 40.7607 54.6712 36.0356 54.6712C34.6964 54.6712 33.9873 55.4539 33.9873 56.5872C33.9873 57.9558 34.3015 58.9355 34.3015 63.1981C34.3015 71.3745 27.3315 76.8888 27.3315 91.2055ZM59.6258 107.323C51.7484 107.323 46.5108 102.59 46.5108 95.5482C46.5108 88.1545 51.7871 85.5342 52.4978 80.7609C52.5365 80.3704 52.8121 80.2535 53.0876 80.5272C55.057 82.2096 56.2786 84.3209 57.2229 86.7476C57.4195 87.1765 57.7354 87.2149 57.932 86.8644C60.098 83.1092 60.4912 77.5147 59.9804 70.4749C59.9014 70.0827 60.1769 69.8874 60.5315 70.0443C69.8657 74.2685 74.6295 83.4613 74.6295 91.7145C74.6295 100.008 69.7078 107.323 59.6258 107.323Z" fill="#FAC219"/>
<path d="M74.5461 167.082L109 122H9.15527e-05L34.4541 167.082L34.4541 222H74.5461V167.082Z" fill="#892626"/>
</svg>
