<svg width="93" height="111" viewBox="0 0 93 111" fill="none" xmlns="http://www.w3.org/2000/svg">
<mask id="mask0_99_985" style="mask-type:alpha" maskUnits="userSpaceOnUse" x="-18" y="0" width="112" height="112">
<rect x="-0.738403" width="95.3164" height="95.3164" transform="rotate(10.4337 -0.738403 0)" fill="#F1F1F1"/>
</mask>
<g mask="url(#mask0_99_985)">
<path d="M28.4341 72.0635C29.5319 66.1014 30.8586 61.9127 32.4141 59.4975C33.9696 57.0823 36.7732 54.6496 40.8248 52.1993C44.3505 50.1089 47.0894 48.235 49.0415 46.5778C50.9937 44.9205 52.2002 42.8406 52.661 40.338C53.2168 37.3201 52.6588 34.6299 50.9873 32.2673C49.3157 29.9047 46.6647 28.3892 43.0342 27.7206C39.2555 27.0248 36.1744 27.637 33.7908 29.5573C31.4072 31.4776 29.591 33.5404 28.3422 35.7457L17.7896 28.7797C20.213 24.3554 23.8178 20.7955 28.604 18.1C33.3902 15.4046 38.9322 14.6367 45.23 15.7964C53.0096 17.2289 58.596 20.4836 61.9893 25.5605C65.3826 30.6373 66.5235 36.1936 65.4121 42.2293C64.7343 45.9097 63.3584 48.9097 61.2843 51.2294C59.2101 53.5491 56.164 56.0513 52.1458 58.736C47.8783 61.527 45.1895 63.7525 44.0795 65.4126C42.9694 67.0728 42.0146 70.0742 41.2149 74.417L28.4341 72.0635ZM29.7783 99.7079C27.3333 99.2577 25.3994 98.0074 23.9768 95.957C22.5542 93.9067 22.0665 91.667 22.5138 89.2379C22.9611 86.8089 24.2145 84.8898 26.2742 83.4807C28.3339 82.0716 30.5862 81.5921 33.0313 82.0423C35.4763 82.4926 37.4101 83.7429 38.8328 85.7933C40.2554 87.8436 40.7431 90.0833 40.2958 92.5124C39.8485 94.9414 38.595 96.8605 36.5353 98.2696C34.4757 99.6787 32.2233 100.158 29.7783 99.7079Z" fill="#4785FF"/>
<path d="M54.1241 76.9687C55.5876 75.0388 56.8094 73.7793 57.7896 73.1904C58.7697 72.6015 60.1882 72.223 62.045 72.0549C63.6533 71.9235 64.948 71.7326 65.929 71.482C66.9101 71.2315 67.7078 70.7013 68.3221 69.8912C69.0629 68.9143 69.3559 67.8606 69.2013 66.7302C69.0467 65.5997 68.3971 64.6004 67.2524 63.7324C66.0609 62.8289 64.8756 62.5117 63.6964 62.7808C62.5173 63.05 61.5101 63.4683 60.675 64.0359L58.2581 59.7263C59.905 58.5735 61.8072 57.9332 63.9646 57.8055C66.122 57.6777 68.1936 58.3667 70.1793 59.8726C72.6323 61.7327 73.9902 63.8601 74.2532 66.2549C74.5161 68.6496 73.9068 70.8239 72.4253 72.7776C71.5219 73.9689 70.4984 74.797 69.3547 75.2619C68.211 75.7269 66.6953 76.0879 64.8077 76.3452C62.8138 76.597 61.4728 76.9217 60.7849 77.3194C60.0969 77.7171 59.22 78.6189 58.154 80.0246L54.1241 76.9687ZM49.5821 87.0341C48.8111 86.4495 48.3635 85.669 48.2391 84.6928C48.1147 83.7166 48.3506 82.8354 48.9468 82.0491C49.5431 81.2629 50.328 80.7979 51.3016 80.6543C52.2752 80.5107 53.1474 80.7313 53.9183 81.3159C54.6893 81.9005 55.1369 82.6809 55.2613 83.6571C55.3857 84.6333 55.1498 85.5146 54.5536 86.3008C53.9573 87.0871 53.1724 87.552 52.1988 87.6956C51.2253 87.8392 50.353 87.6187 49.5821 87.0341Z" fill="#D23C48"/>
<path d="M12.1668 64.3374C11.2884 61.5193 10.904 59.4156 11.0137 58.0264C11.1233 56.6371 11.7521 54.962 12.8999 53.001C13.9082 51.3126 14.6353 49.8931 15.0814 48.7426C15.5274 47.592 15.5661 46.4253 15.1974 45.2424C14.7528 43.8159 13.915 42.7792 12.6841 42.1323C11.4532 41.4853 10.002 41.4224 8.33047 41.9434C6.59072 42.4856 5.43694 43.4369 4.86912 44.7972C4.30131 46.1575 4.00329 47.4528 3.97507 48.6831L-2.01108 48.0296C-1.98875 45.5797 -1.27726 43.2395 0.123368 41.0088C1.524 38.7782 3.67411 37.211 6.57369 36.3072C10.1555 35.1908 13.2273 35.3498 15.7891 36.7843C18.3509 38.2188 20.0763 40.3625 20.9656 43.2154C21.5078 44.9549 21.6047 46.5566 21.2562 48.0202C20.9078 49.4839 20.193 51.2431 19.1118 53.2978C17.9499 55.454 17.3227 57.0141 17.2302 57.9782C17.1378 58.9422 17.4114 60.4505 18.0512 62.5032L12.1668 64.3374ZM18.9362 75.969C17.8105 76.3199 16.7194 76.2114 15.6629 75.6437C14.6064 75.076 13.8992 74.2181 13.5413 73.07C13.1835 71.9219 13.278 70.8141 13.8248 69.7467C14.3716 68.6792 15.2078 67.97 16.3336 67.6191C17.4593 67.2682 18.5504 67.3767 19.6069 67.9444C20.6634 68.5121 21.3705 69.37 21.7284 70.5181C22.0863 71.6662 21.9918 72.774 21.445 73.8415C20.8982 74.9089 20.0619 75.6181 18.9362 75.969Z" fill="#FAC219"/>
</g>
</svg>
