<?xml version="1.0" encoding="utf-8"?>
<!-- Generator: Adobe Illustrator 27.8.1, SVG Export Plug-In . SVG Version: 6.00 Build 0)  -->
<svg version="1.1" id="Calque_1" xmlns="http://www.w3.org/2000/svg" xmlns:xlink="http://www.w3.org/1999/xlink" x="0px" y="0px"
	 viewBox="0 0 500 300" style="enable-background:new 0 0 500 300;" xml:space="preserve">
<style type="text/css">
	.st0{fill:#FAC219;}
	.st1{fill:#D23C48;}
	.st2{fill-rule:evenodd;clip-rule:evenodd;fill:#F1F1F1;}
</style>
<g>
	<path class="st0" d="M474.5,183.5l-320.3,53.6l15.1-34L126.2,69.8l320.3-53.6c10.4-1.7,20.2,4.8,21.9,14.6l22.1,131.8
		C492.1,172.4,484.9,181.8,474.5,183.5z"/>
	<g>
		<path class="st1" d="M26.6,227.3c12.3,45,58.1,66.7,110.4,52.4c59.4-16.2,89.8-65.4,72.7-127.9C183.1,54.2,84.6,33.3,21.7,50.5
			c-9.9,2.7-13.5,8.9-12,14.6c1.2,4.5,4.7,7.6,9.8,11.9c12.3,9.7,32.3,23.3,38.4,45.6c0.5,1.9,0.9,3.8,1.2,5.9
			c-9.4-9.9-22.7-15.1-36.2-11.5c-3.8,1-5.2,3.8-4.3,7c1.1,3.9,2.7,6.4,6,18.5C31,165.7,15.5,186.7,26.6,227.3z M130.7,247.9
			c-22.4,6.1-40.9-3.3-46.3-23.2c-5.7-21,7.2-32.5,5.5-46.6c-0.2-1.1,0.5-1.7,1.5-1.1c6.9,3.2,12,8.3,16.6,14.4
			c0.9,1.1,1.8,0.9,2.1-0.2c3.2-12.3,0-28.5-6.9-48c-0.5-1.1,0.1-1.8,1.2-1.6c29.8,4.7,50.4,27.1,56.8,50.5
			C167.6,215.6,159.3,240.1,130.7,247.9z"/>
		<path class="st0" d="M71.5,213.6c7.9,29,37.3,42.9,70.9,33.8c38.1-10.4,57.6-42,46.7-82.3c-17.1-62.8-80.4-76.3-120.8-65.2
			c-6.4,1.7-8.7,5.7-7.7,9.4c0.8,2.9,3,4.9,6.3,7.6c7.9,6.3,20.8,15,24.7,29.4c0.3,1.2,0.6,2.4,0.8,3.8c-6.1-6.4-14.6-9.7-23.2-7.4
			c-2.4,0.7-3.3,2.4-2.8,4.5c0.7,2.5,1.7,4.1,3.9,11.9C74.3,173.9,64.3,187.5,71.5,213.6z M138.4,226.9
			c-14.4,3.9-26.3-2.1-29.8-14.9c-3.7-13.5,4.6-20.9,3.6-29.9c-0.1-0.7,0.3-1.1,1-0.7c4.4,2.1,7.7,5.3,10.6,9.3
			c0.6,0.7,1.2,0.6,1.4-0.1c2.1-7.9,0-18.3-4.4-30.9c-0.3-0.7,0.1-1.2,0.8-1.1c19.1,3.1,32.4,17.5,36.5,32.5
			C162.1,206.1,156.7,221.9,138.4,226.9z"/>
	</g>
	<g>
		<g>
			<g>
				<path class="st2" d="M373.3,106.5c0.4,0.7,0.8,1.3,1.2,2l0.1,0.1l0.1,0.1c3,4.5,6.7,8.3,11.2,11.1l0.1,0l0.1,0
					c4.4,2.7,9.2,4.4,14.3,5.3l0.1,0l0.1,0c5.1,0.7,10.2,0.6,15.4-0.3c3.1-0.5,6.3-1.3,9.5-2.4c3.8-1.2,7.4-3.1,10.6-5.5
					c2.6-2,5-4.7,6.4-8.1c1.5-3.5,1.7-7.2,1.1-10.6c-0.6-3.4-2-6.4-4.1-9c3-4.5,3.3-9.4,2.6-13.7c-0.8-4.7-2.5-9.1-5.2-13.1
					c-2.6-3.9-5.8-7.1-9.8-9.6c-3.9-2.5-8.1-4-12.7-4.9c-4.7-0.9-9.6-0.8-14.5,0c-4.5,0.8-8.8,2.2-12.9,4.3
					c-4.4,2.2-8.1,5.3-11.2,9.1c-3.3,4-5.5,8.6-6.8,13.5l0,0.1l0,0.1c-0.4,1.4-0.6,2.8-0.8,4.2c0.7,1.6,1.2,3.4,1.5,5.5L373.3,106.5
					z M392.3,62.4c-3,1.5-5.6,3.6-7.7,6.2c-2.1,2.5-3.7,5.7-4.7,9.3c-0.9,3.6-1,7.7-0.2,12.4c0.8,4.8,2.2,8.8,4.3,12.1
					c2.2,3.3,4.7,5.9,7.8,7.8c3.1,1.9,6.5,3.1,10.3,3.8c3.8,0.5,7.8,0.4,12-0.3c2.5-0.4,5.1-1.1,7.9-2c2.8-0.9,5.2-2.1,7.3-3.7
					c1.5-1.1,2.5-2.4,3-3.8c0.4-1.2,0.5-2.6,0.3-4c0-0.1,0-0.3-0.1-0.4c-0.3-1.2-0.8-2.3-1.6-3.3c0-0.1-0.1-0.1-0.1-0.2
					c-1-1.1-2.1-2-3.4-2.5c-0.1,0.1-0.2,0.1-0.2,0.2c0,0,0,0,0,0c-1.4,1.2-3.3,2.4-5.7,3.5c-2.4,1.1-5.1,2-8,2.4
					c-3.1,0.5-6,0.4-8.6-0.3c-2.6-0.8-4.5-2.3-5.7-4.5l25.7-8.4c2.4-0.8,4.1-1.9,5.2-3.4c0.1-0.2,0.2-0.3,0.4-0.5
					c0.9-1.4,1.1-3.2,0.7-5.4c-0.5-3.3-1.7-6.2-3.4-8.7c-1.7-2.6-3.8-4.7-6.4-6.3c-2.5-1.6-5.5-2.7-8.8-3.3c-3.2-0.6-6.8-0.6-10.5,0
					C398.5,59.7,395.3,60.8,392.3,62.4z M413.4,77.4c0,0,0-0.1,0-0.1c-0.5-1.3-1.5-2.6-3-3.7c-1.6-1.2-3.7-1.6-6.3-1.1
					c-1.7,0.3-3.1,0.8-4.3,1.6c-1.1,0.8-2,1.7-2.6,2.7c-0.6,1-1.1,2.1-1.3,3.3c-0.2,1.1-0.2,2.3-0.1,3.4L413.4,77.4z"/>
				<path class="st2" d="M283.6,124.3l0.3,1.7c0.4,2.5,1.2,5.4,2.7,8l0.2,0.4l0.2,0.4c1.6,2.3,3.8,4.4,6.6,5.8c2.8,1.4,5.6,2,8.4,2
					h0.1h0.1c2,0,4.1-0.2,6.2-0.6c2.1-0.4,4.2-0.8,6.2-1.5c1.6-0.5,3.4-1.1,4.9-1.9l5.7-2.8c2.5,1.1,5,1.5,7.4,1.6l0.1,0h0.1
					c2,0,4.1-0.2,6.2-0.6c2.1-0.3,4.1-0.8,6-1.5c1.6-0.5,3.3-1.1,4.7-1.7l6.2-2.8c2.4,1,4.9,1.5,7.2,1.5h0.1h0.1
					c2,0,4.1-0.2,6.2-0.5c2.1-0.4,4.2-0.8,6.2-1.5c1.6-0.5,3.4-1.1,4.9-1.9l7.5-3.7l-3.7-22.2c0,0,0-0.1-0.1-0.1
					c-2.1-3.3-3.5-7.3-4.3-12.1c-0.4-2.5-0.6-4.9-0.5-7.1c0.1-1.7,0.3-3.3,0.6-4.8c-0.9-3.2-2.3-6.2-4.2-9c-2.5-3.7-5.8-6.7-9.9-8.8
					c-3.6-1.9-7.5-3.1-11.6-3.5c-3.7-0.4-7.4-0.3-11.1,0.4c-4.6,0.8-9,2.1-13,4.2l0,0l0,0c-1,0.6-2.1,1.2-3,1.8
					c-1.5-0.4-3.1-0.7-4.7-0.8c-4-0.5-8-0.4-11.9,0.2c-4.9,0.8-9.6,2.3-14.1,4.5l0,0l0,0c-4.2,2.1-8,4.6-11.2,7.7
					c-1.9,1.9-3.7,4.1-5,6.6l-0.1,0.2l-0.1,0.2c-1.9,4-1.9,8.1-1.3,11.4l0.8,4.8c0.1,0.4,0.1,0.7,0.2,1.1l4,23.9
					C283.5,123.8,283.6,124.1,283.6,124.3z M292.9,83.4c-1.3,1.2-2.2,2.5-2.9,3.8c-0.6,1.3-0.7,2.9-0.4,4.8l5.4,32.2
					c0.3,1.8,0.8,3.2,1.4,4.3c0.7,1,1.5,1.7,2.5,2.2c1,0.5,2.1,0.8,3.3,0.8c1.3,0,2.8-0.1,4.3-0.4c1.6-0.3,3.2-0.6,4.6-1.1
					c1.5-0.5,2.6-0.9,3.3-1.2l-6.3-37.4c0.6-0.5,1.3-0.9,2.2-1.5c0.9-0.6,1.9-1,3.2-1.2c1.8-0.3,3.5-0.1,4.9,0.7
					c0.1,0.1,0.2,0.1,0.3,0.2c0.2,0.1,0.4,0.2,0.6,0.4c1,0.8,1.6,2,1.9,3.7l4.3,25.5c0.3,1.8,0.8,3.2,1.4,4.3c0.7,1,1.5,1.7,2.5,2.2
					c1,0.5,2.1,0.7,3.3,0.8c1.3,0,2.8-0.1,4.3-0.4c1.6-0.3,3.1-0.6,4.5-1.1c1.5-0.5,2.7-0.9,3.4-1.2l-6.1-36.1
					c0-0.3-0.1-0.6-0.2-0.8c0.5-0.6,1.3-1.2,2.3-1.8c1.1-0.7,2.1-1.1,3.1-1.3c0.7-0.1,1.4-0.2,2.1-0.2c1.2,0,2.2,0.3,3.1,0.8
					c0.2,0.1,0.4,0.2,0.6,0.4c1,0.8,1.7,2.1,2,3.9l4.3,25.5c0.3,1.8,0.8,3.2,1.4,4.3c0.7,1,1.5,1.7,2.5,2.2c1,0.5,2.1,0.7,3.3,0.8
					c1.3,0,2.8-0.1,4.3-0.4c1.6-0.3,3.2-0.6,4.6-1.1c1.5-0.5,2.6-0.9,3.3-1.2l-5.6-33.6c-0.6-3.6-1.7-6.6-3.3-8.9
					c-1.6-2.4-3.6-4.1-5.9-5.3c-2.3-1.2-4.8-2-7.5-2.2c-2.7-0.3-5.4-0.2-8.1,0.3c-3.8,0.6-6.9,1.6-9.5,3c-2.5,1.4-4.7,2.9-6.5,4.7
					c-2.3-1.3-5-2.1-8-2.4c-2.9-0.4-5.8-0.3-8.7,0.2c-3.9,0.7-7.6,1.8-11,3.5C297.7,79.4,295,81.3,292.9,83.4z M340.6,90.3
					L340.6,90.3C340.6,90.3,340.6,90.3,340.6,90.3z"/>
				<path class="st2" d="M222.3,116.3l3.8,22.7c0.3,0.5,0.6,0.9,1,1.4l0.1,0.1l0.1,0.1c2.7,3.5,6.2,6.1,10.1,7.9l0.1,0l0.1,0
					c3.8,1.6,7.8,2.5,12,2.8l0,0l0,0c4.2,0.3,8.5,0,13-0.8c9.4-1.6,17.9-4.6,24.2-10c2.1-1.8,3.9-3.8,5.4-6.2
					c2.3-3.7,3-7.8,2.5-11.7l-4.4-26.2c-0.9-4.2-2.4-8.2-5-11.7c-2.7-3.8-6.2-6.7-10.4-8.7c-4-2-8.3-3-12.8-3.4
					c-4.3-0.3-8.8-0.1-13.4,0.7c-3,0.5-6.1,1.2-9.3,2.2l0,0l0,0c-3.3,1-6.5,2.3-9.4,4l-0.2,0.1l-0.2,0.1c-2.7,1.7-5.5,4.1-7.4,7.5
					l0,0l0,0c-2.3,4.1-2.4,8.4-1.8,11.9c0.5,3.1,1.8,6,3.5,8.6l0.1,0.1l0.1,0.1c0.3,0.5,0.7,0.9,1.1,1.4
					C223.8,111.6,222.9,113.9,222.3,116.3z M233.2,101.4C233.2,101.5,233.2,101.5,233.2,101.4c0.9,1.2,1.8,2,2.9,2.5
					c1.9-1.2,4.1-2.3,6.6-3.3c1.2-0.5,2.3-0.9,3.5-1.2c0,0,0,0,0,0c1.4-0.4,2.8-0.7,4.2-0.9c3.4-0.6,6.1-0.5,8,0.1
					c1.4,0.4,2.4,1.1,2.9,2.2c0.3,0.5,0.5,1.1,0.6,1.7l0.1,0.7l-13.7,3.8c-1,0.3-1.9,0.6-2.7,0.9c-2.1,0.7-3.9,1.6-5.5,2.5
					c-1.9,1.1-3.4,2.4-4.5,3.8c-0.4,0.5-0.7,1-1,1.5c-1.7,2.9-2.2,6.4-1.5,10.6c0.5,2.9,1.5,5.4,3,7.4c1.6,2,3.5,3.5,5.9,4.6
					c2.4,1.1,5.2,1.7,8.3,1.9c3.2,0.2,6.6,0,10.4-0.7c8.4-1.4,14.7-3.9,18.8-7.4c1.3-1.1,2.3-2.3,3.1-3.6c0.9-1.4,1.1-3,0.8-4.8
					l-4-23.9c-0.6-3.3-1.6-6.1-3.3-8.3c-1.6-2.3-3.7-4-6.2-5.2c-2.5-1.3-5.4-2-8.7-2.3c-3.3-0.3-6.8-0.1-10.6,0.6
					c-2.5,0.4-5.1,1-7.9,1.9c-2.7,0.8-5,1.8-7,2.9c-1.7,1.1-2.9,2.3-3.7,3.6c-0.1,0.1-0.2,0.3-0.2,0.4c-0.4,0.9-0.5,2-0.4,3.3
					c0,0.3,0.1,0.6,0.1,0.9C231.8,98.9,232.4,100.2,233.2,101.4z M256.6,117.1c-1.3,0.3-2.4,0.7-3.3,1.2c-0.5,0.3-1,0.6-1.4,0.9
					c-1.2,0.9-1.6,2.1-1.4,3.5c0.2,1.4,1,2.5,2.2,3.2c1.1,0.6,2.8,0.7,5,0.5c0.3,0,0.6-0.1,0.9-0.1c0.1,0,0.2,0,0.2,0
					c0,0,0.1,0,0.1,0c0.6-0.1,1.2-0.2,1.8-0.4c0.6-0.1,1.1-0.3,1.7-0.5c1.4-0.5,2.5-1.1,3.1-1.6l-1.4-8.5L256.6,117.1z"/>
				<path class="st2" d="M239.1,148.1c0.3,1.5-0.6,3-2,3.5l-6.4,2.3c-0.9,0.3-2.2,0.7-3.6,1.2c-2,0.7-4.1,1.3-6.3,1.6
					c-2.1,0.3-4.1,0.5-6.2,0.5l-0.1,0l-0.1,0c-2.7,0-5.6-0.6-8.4-2c-2.8-1.4-4.9-3.5-6.6-5.8l-0.2-0.4l-0.2-0.4
					c-1.5-2.6-2.3-5.5-2.7-8l-6.9-41.4c-0.1-0.9,0.1-1.8,0.7-2.5c0,0,0,0,0,0c1-1.4,1.3-3.5,0.8-6.3c-0.2-1.4-0.7-2.7-1.3-3.9
					c-0.6-1.3-1.2-2.3-1.8-3l-0.9,0.2l-1.9-11.6c-0.3-1.5,0.6-3,2-3.5l6.4-2.3c0.9-0.3,2.1-0.7,3.5-1.2c2.1-0.7,4.2-1.3,6.4-1.6
					c2-0.3,4.1-0.5,6.1-0.5c2.7,0,5.7,0.5,8.5,2c3,1.5,5.2,3.8,6.7,6.3c1.8,2.7,2.6,5.7,3,8.3l6.1,36.7c0.1,0.5,0,1.1-0.2,1.6
					c-0.8,2.4-1,5.2-0.5,8.3c0.5,2.9,1.5,5.4,3,7.4c0.2,0.3,0.4,0.5,0.7,0.8L239.1,148.1z M209.2,74.3c-1.2,0-2.6,0.1-4.2,0.4
					c-1.6,0.3-3.1,0.7-4.6,1.2c-0.3,0.1-0.5,0.2-0.7,0.2c-1.5,0.5-2.4,2-2.1,3.5l9.9,59.2c0.3,1.7,0.7,3,1.2,4
					c0.1,0.2,0.2,0.3,0.3,0.4c0.6,0.9,1.4,1.5,2.3,2c1,0.5,2.1,0.7,3.3,0.8c1.3,0,2.8-0.1,4.3-0.4c1.6-0.3,3.1-0.7,4.5-1.2
					c0.3-0.1,0.6-0.2,0.8-0.3c1.5-0.5,2.4-2,2.1-3.5l-9.9-59.2c-0.3-1.8-0.8-3.2-1.5-4.1c-0.6-1.1-1.4-1.8-2.4-2.3
					C211.7,74.5,210.6,74.3,209.2,74.3z"/>
				<path class="st2" d="M192,71.5l4.1,4.6c0.4,0.4,0.7,0.8,1,1.2l3.8,22.9c-0.4,1.1-1,2.1-1.7,3.1c-0.4,0.5-0.8,1-1.2,1.5
					c1.1,1.4,1.9,2.8,2.6,4.2c1.2,2.3,1.9,4.6,2.3,7.1c0.7,4,0.8,9.6-2.8,14.6c-3.1,4.3-7.5,6.4-11.7,7.1L181,139l3.3,19.9l-7.8,3.6
					c-1.5,0.7-3.3,1.3-5.1,1.8c-2,0.6-4.1,1.1-6.2,1.5c-2.2,0.4-4.4,0.6-6.7,0.5c-2.7-0.1-5.5-0.6-8.1-2c-3.1-1.6-5.4-4-6.9-6.7
					c-1.5-2.7-2.3-5.6-2.7-8.1l-7.8-46.4c-0.9-5.3-0.2-11.1,3.4-16.1c3.6-5,8.8-7.6,14.1-8.4L192,71.5z M158.9,154.9
					c1.3,0.1,2.8,0,4.4-0.3c1.6-0.3,3.2-0.7,4.8-1.1c1.7-0.5,2.9-0.9,3.6-1.3l-3.8-22.5l18.6-3.1c2-0.3,3.5-1.2,4.4-2.5
					c1-1.4,1.3-3.5,0.8-6.2c-0.2-1.4-0.7-2.7-1.3-3.9c-0.6-1.2-1.2-2.2-1.9-2.9l-23.3,3.9l-2-12l22.4-3.8c2-0.3,3.5-1.2,4.4-2.5
					c1-1.4,1.3-3.5,0.8-6.3c-0.2-1.4-0.7-2.7-1.3-3.9c-0.6-1.3-1.2-2.3-1.8-3l-35.5,6c-3.1,0.5-5.3,1.8-6.8,3.9
					c-1.5,2.1-2,4.6-1.4,7.7l7.8,46.4c0.3,1.8,0.8,3.3,1.4,4.4c0.6,1.1,1.4,1.8,2.4,2.3C156.5,154.7,157.6,154.9,158.9,154.9z"/>
			</g>
			<g>
				<path class="st2" d="M401.1,158.9c0.4,0.7,0.8,1.3,1.2,2l0.1,0.1l0.1,0.1c3,4.5,6.7,8.3,11.2,11.1l0.1,0l0.1,0
					c4.4,2.7,9.2,4.4,14.3,5.3l0.1,0l0.1,0c5.1,0.7,10.2,0.6,15.4-0.3c3.1-0.5,6.3-1.3,9.5-2.4c3.8-1.3,7.4-3.1,10.6-5.5
					c2.6-2,5-4.7,6.4-8.1c1.5-3.5,1.7-7.2,1.1-10.5c-0.6-3.4-2-6.4-4.1-9c3-4.5,3.3-9.4,2.6-13.7c-0.8-4.7-2.5-9.1-5.2-13.1
					c-2.6-3.9-5.8-7.1-9.8-9.6c-3.9-2.5-8.1-4-12.7-4.9c-4.7-0.9-9.6-0.8-14.5,0c-4.5,0.8-8.8,2.2-12.9,4.3
					c-4.4,2.2-8.1,5.3-11.2,9.1c-3.3,4-5.5,8.6-6.8,13.5l0,0.1l0,0.1c-0.4,1.4-0.6,2.8-0.8,4.2c0.7,1.6,1.2,3.4,1.5,5.5L401.1,158.9
					z M420.1,114.8c-3,1.5-5.6,3.6-7.7,6.2c-2.1,2.5-3.7,5.7-4.7,9.3c-0.9,3.6-1,7.7-0.2,12.4c0.8,4.8,2.2,8.8,4.3,12.1
					c2.2,3.3,4.7,5.9,7.8,7.8c3.1,1.9,6.5,3.1,10.3,3.8c3.8,0.5,7.8,0.4,12-0.3c2.5-0.4,5.1-1.1,7.9-2c2.8-0.9,5.2-2.1,7.3-3.7
					c1.5-1.1,2.5-2.4,3-3.8c0.4-1.2,0.5-2.6,0.3-4c0-0.1,0-0.3-0.1-0.4c-0.3-1.2-0.8-2.3-1.6-3.3c0-0.1-0.1-0.1-0.1-0.2
					c-1-1.1-2.1-2-3.4-2.5c-0.1,0.1-0.2,0.1-0.2,0.2c0,0,0,0,0,0c-1.4,1.2-3.3,2.4-5.7,3.5c-2.4,1.1-5.1,2-8,2.4
					c-3.1,0.5-6,0.4-8.6-0.3c-2.6-0.8-4.5-2.3-5.7-4.5l25.7-8.4c2.4-0.8,4.1-1.9,5.2-3.4c0.1-0.2,0.2-0.3,0.4-0.5
					c0.9-1.4,1.1-3.2,0.7-5.4c-0.5-3.3-1.7-6.2-3.4-8.7c-1.7-2.6-3.8-4.7-6.4-6.3c-2.5-1.6-5.5-2.7-8.8-3.3c-3.2-0.6-6.8-0.6-10.5,0
					C426.3,112.1,423.1,113.2,420.1,114.8z M441.2,129.8c0,0,0-0.1,0-0.1c-0.5-1.3-1.5-2.6-3-3.7c-1.6-1.2-3.7-1.6-6.3-1.1
					c-1.7,0.3-3.1,0.8-4.3,1.6c-1.1,0.8-2,1.7-2.6,2.7c-0.6,1-1.1,2.1-1.3,3.3c-0.2,1.1-0.2,2.3-0.1,3.4L441.2,129.8z"/>
				<path class="st2" d="M311.4,176.7l0.3,1.7c0.4,2.5,1.2,5.4,2.7,8l0.2,0.4l0.2,0.4c1.6,2.3,3.8,4.4,6.6,5.8c2.8,1.4,5.6,2,8.4,2
					l0.1,0h0.1c2,0,4.1-0.2,6.2-0.6c2.1-0.4,4.2-0.8,6.2-1.5c1.6-0.5,3.4-1.1,4.9-1.9l5.7-2.8c2.5,1.1,5,1.5,7.4,1.6h0.1h0.1
					c2,0,4.1-0.2,6.2-0.6c2.1-0.3,4.1-0.8,6-1.5c1.6-0.5,3.3-1.1,4.7-1.7l6.2-2.8c2.4,1,4.9,1.5,7.2,1.5h0.1h0.1
					c2,0,4.1-0.2,6.2-0.6c2.1-0.4,4.2-0.8,6.2-1.5c1.6-0.5,3.4-1.1,4.9-1.9l7.5-3.7l-3.7-22.2c0,0,0-0.1-0.1-0.1
					c-2.1-3.3-3.5-7.3-4.3-12.1c-0.4-2.5-0.6-4.9-0.5-7.1c0.1-1.7,0.3-3.3,0.6-4.8c-0.9-3.2-2.3-6.2-4.2-9c-2.5-3.7-5.8-6.7-9.9-8.8
					c-3.6-1.9-7.5-3.1-11.6-3.5c-3.7-0.4-7.4-0.3-11.1,0.4c-4.6,0.8-9,2.1-13,4.2l0,0l0,0c-1,0.6-2.1,1.2-3,1.8
					c-1.5-0.4-3.1-0.7-4.7-0.8c-4-0.5-8-0.4-11.9,0.2c-4.9,0.8-9.6,2.3-14.1,4.5l0,0l0,0c-4.2,2.1-8,4.6-11.2,7.7
					c-1.9,1.9-3.7,4.1-5,6.6l-0.1,0.2l-0.1,0.2c-1.9,4-1.9,8.1-1.3,11.4l0.8,4.8c0.1,0.4,0.1,0.7,0.2,1.1l4,23.9
					C311.3,176.2,311.4,176.5,311.4,176.7z M320.7,135.8c-1.3,1.2-2.2,2.5-2.9,3.8c-0.6,1.3-0.7,2.9-0.4,4.8l5.4,32.2
					c0.3,1.8,0.8,3.2,1.4,4.3c0.7,1,1.5,1.7,2.5,2.2c1,0.5,2.1,0.7,3.3,0.8c1.3,0,2.8-0.1,4.3-0.4c1.6-0.3,3.2-0.6,4.6-1.1
					c1.5-0.5,2.6-0.9,3.3-1.2l-6.3-37.4c0.6-0.5,1.3-0.9,2.2-1.5c0.9-0.6,1.9-1,3.2-1.2c1.8-0.3,3.5-0.1,4.9,0.7
					c0.1,0.1,0.2,0.1,0.3,0.2c0.2,0.1,0.4,0.2,0.6,0.4c1,0.8,1.6,2,1.9,3.7l4.3,25.5c0.3,1.8,0.8,3.2,1.4,4.3c0.7,1,1.5,1.7,2.5,2.2
					c1,0.5,2.1,0.7,3.3,0.8c1.3,0,2.8-0.1,4.3-0.4c1.6-0.3,3.1-0.6,4.5-1.1c1.5-0.5,2.7-0.9,3.4-1.2l-6.1-36.1
					c0-0.3-0.1-0.6-0.2-0.8c0.5-0.6,1.3-1.2,2.3-1.8c1.1-0.7,2.1-1.1,3.1-1.3c0.7-0.1,1.4-0.2,2.1-0.2c1.2,0,2.2,0.3,3.1,0.8
					c0.2,0.1,0.4,0.2,0.6,0.4c1,0.8,1.7,2.1,2,3.9l4.3,25.5c0.3,1.8,0.8,3.2,1.4,4.3c0.7,1,1.5,1.7,2.5,2.2c1,0.5,2.1,0.8,3.3,0.8
					c1.3,0,2.8-0.1,4.3-0.4c1.6-0.3,3.2-0.6,4.6-1.1c1.5-0.5,2.6-0.9,3.3-1.2l-5.6-33.6c-0.6-3.6-1.7-6.6-3.3-8.9
					c-1.6-2.4-3.6-4.1-5.9-5.3c-2.3-1.2-4.8-2-7.5-2.2c-2.7-0.3-5.4-0.2-8.1,0.3c-3.8,0.6-6.9,1.6-9.5,3c-2.5,1.4-4.7,2.9-6.5,4.7
					c-2.3-1.3-5-2.1-8-2.4c-2.9-0.4-5.8-0.3-8.7,0.2c-3.9,0.7-7.6,1.8-11,3.5C325.5,131.8,322.8,133.7,320.7,135.8z M368.4,142.7
					L368.4,142.7C368.3,142.7,368.3,142.7,368.4,142.7z"/>
				<path class="st2" d="M252.9,189.6c0.3-1.1,0.4-2.6,0.1-4.4l-2.8-16.6c0.6-2.3,1.5-4.6,2.9-6.8c-0.4-0.4-0.7-0.9-1.1-1.4
					l-0.1-0.1l-0.1-0.1c-1.8-2.5-3-5.4-3.5-8.6c-0.6-3.5-0.5-7.8,1.8-11.9l0,0l0,0c1.9-3.4,4.7-5.8,7.4-7.5l0.2-0.1l0.2-0.1
					c2.9-1.7,6-3,9.4-4l0,0l0,0c3.2-0.9,6.3-1.7,9.3-2.2c4.6-0.8,9-1,13.4-0.7c4.5,0.3,8.8,1.4,12.8,3.4c4.2,2,7.7,4.9,10.4,8.7
					c2.6,3.5,4.1,7.5,5,11.7l4.4,26.2c0.5,3.8-0.2,7.9-2.5,11.7c-1.5,2.4-3.3,4.5-5.4,6.2c-6.3,5.4-14.9,8.4-24.2,10
					c-4.4,0.7-8.8,1-13,0.8l0,0l0,0c-4.2-0.3-8.2-1.2-12-2.8l-0.1,0l-0.1,0c-4-1.8-7.4-4.4-10.1-7.9l-0.1-0.1l-0.1-0.1
					C254.1,191.8,253.5,190.7,252.9,189.6z M310.5,180.9c0.9-1.4,1.1-3,0.8-4.8l-4-23.9c-0.6-3.3-1.6-6.1-3.3-8.3
					c-1.6-2.3-3.7-4-6.2-5.2c-2.5-1.3-5.4-2-8.7-2.3c-3.3-0.3-6.8-0.1-10.6,0.6c-2.5,0.4-5.1,1-7.9,1.9c-2.7,0.8-5,1.8-7,2.9
					c-1.7,1.1-2.9,2.3-3.7,3.6c-0.1,0.1-0.2,0.3-0.2,0.4c-0.4,0.9-0.5,2-0.4,3.3c0,0.3,0.1,0.6,0.1,0.9c0.2,1.4,0.8,2.7,1.6,4
					c0,0,0,0,0,0c0.9,1.2,1.8,2,2.8,2.5c1.9-1.2,4.1-2.3,6.6-3.3c1.2-0.5,2.3-0.9,3.5-1.2c0,0,0,0,0,0c1.4-0.4,2.8-0.7,4.2-0.9
					c3.4-0.6,6.1-0.5,8,0.1c1.4,0.4,2.4,1.1,2.9,2.2c0.3,0.5,0.5,1.1,0.6,1.7l0.1,0.7l-13.7,3.8c-1,0.3-1.9,0.6-2.7,0.9
					c-2.1,0.7-3.9,1.6-5.5,2.5c-1.9,1.1-3.4,2.4-4.5,3.8c-0.4,0.5-0.7,1-1,1.5c-1.7,2.9-2.2,6.4-1.5,10.6c0.5,2.9,1.5,5.4,3,7.4
					c1.6,2,3.5,3.5,5.9,4.6c2.4,1.1,5.2,1.7,8.3,1.9c3.2,0.2,6.6,0,10.4-0.7c8.4-1.4,14.7-3.9,18.8-7.4
					C308.6,183.4,309.7,182.2,310.5,180.9z M284.3,169.5c-1.3,0.3-2.4,0.7-3.3,1.2c-0.5,0.3-1,0.6-1.4,0.9c-1.2,0.9-1.6,2.1-1.4,3.5
					c0.2,1.4,1,2.5,2.2,3.2c1.1,0.6,2.8,0.7,5,0.5c0.3,0,0.6-0.1,0.9-0.1c0.1,0,0.2,0,0.2,0c0,0,0.1,0,0.1,0
					c0.6-0.1,1.2-0.2,1.8-0.4c0.6-0.1,1.1-0.3,1.7-0.5c1.4-0.5,2.5-1.1,3.1-1.6l-1.4-8.5L284.3,169.5z"/>
				<path class="st2" d="M231.3,148.2c-2.5-0.4-5.3-0.4-8.3,0.1c-6,1-10.4,3.5-13.4,7.5c-2.9,4-3.9,9-2.8,15c0.5,3.3,1.5,6,2.8,8.3
					c0.6,1,1.3,1.8,2,2.6c0.4,0.4,0.7,0.8,1.1,1.1c0.6,0.5,1.2,1,1.8,1.5c1.9,1.2,4,2,6.2,2.5c0.8,0.1,1.6,0.2,2.5,0.2
					c0.3,0,0.5,0,0.8,0c1.2,0,2.5-0.1,3.8-0.3c1.3-0.2,2.5-0.5,3.5-0.9c0.2-0.1,0.4-0.1,0.6-0.2c1.2-0.5,2-1,2.6-1.4l-1.7-10
					l-11.4,1.9c-0.2-0.3-0.4-0.5-0.6-0.9c-0.1-0.1-0.1-0.2-0.2-0.2c-0.1-0.1-0.1-0.2-0.2-0.3c-0.3-0.4-0.6-0.9-0.8-1.5
					c-0.6-1.2-1-2.5-1.2-4c-0.4-2.6-0.2-4.5,0.8-5.8c1-1.3,2.4-2.2,4.3-2.5l18-3c2.1-0.4,3.9,0,5.2,1c0,0,0.1,0,0.1,0.1
					c1.3,0.9,2.2,2.4,2.5,4.5l3.6,21.7c0.4,2.2,0.3,3.9-0.4,5.1c-0.6,1.2-1.7,2.4-3.2,3.7c-0.9,0.7-2,1.5-3.4,2.3
					c-1.4,0.7-3,1.4-4.7,2.1c-1.7,0.7-3.5,1.4-5.5,1.9c-1.9,0.5-3.8,1-5.7,1.3c-5.1,0.9-10,1-14.7,0.4c-4.7-0.7-9-2.1-12.8-4.3
					c-3.7-2.3-6.9-5.4-9.5-9.2c-2.6-3.9-4.4-8.6-5.3-14.1c-1-5.8-0.8-11.1,0.5-15.8c1.4-4.7,3.6-8.7,6.5-12.2
					c3-3.5,6.6-6.3,10.7-8.5c4.2-2.2,8.7-3.6,13.4-4.4c6.7-1.1,12.3-0.9,16.5,0.6c3.3,1.1,5.5,2.8,6.6,5.1c0.3,0.7,0.6,1.5,0.7,2.3
					c0,0.1,0,0.2,0.1,0.4c0.2,1.7,0,3.2-0.6,4.6c0,0,0,0.1,0,0.1c-0.6,1.2-1.3,2.3-2.1,3.2c-0.2,0.2-0.4,0.4-0.6,0.6
					c-2-0.8-4.4-1.4-7.2-2C232,148.3,231.7,148.3,231.3,148.2z M186.2,139.2c4-4.6,8.7-8.3,14.1-11.1l0,0l0,0
					c5.3-2.7,10.8-4.5,16.7-5.5c7.7-1.3,15.4-1.3,22.1,1.1c6.9,2.3,13.3,7.4,14.8,16.2c0.5,3.2,0.4,6.6-0.8,9.9c0,0,0.1,0.1,0.1,0.1
					c4.5,3.1,6.5,7.7,7.2,11.9l1.3,7.8c-1.1,2.6-1.4,5.7-0.8,9.2c0.3,1.8,0.8,3.5,1.5,5c0.4,0.9,0.9,1.7,1.4,2.4
					c0.2,0.2,0.3,0.4,0.5,0.6c0.1,2.7-0.2,5.8-1.7,8.8c-1.6,3.1-3.9,5.5-6.1,7.3l0,0l0,0c-1.5,1.2-3.2,2.3-4.9,3.3l-0.2,0.1
					l-0.2,0.1c-1.8,1-3.7,1.8-5.8,2.6c-2.1,0.9-4.3,1.7-6.6,2.3c-2.3,0.6-4.6,1.2-6.9,1.6c-6.1,1-12.1,1.2-18,0.5l-0.1,0l-0.1,0
					c-6-0.9-11.7-2.7-16.8-5.7l-0.1-0.1l-0.1-0.1c-5.2-3.2-9.5-7.4-13-12.5c-3.7-5.4-6-11.7-7.1-18.6c-1.2-7.1-1.1-14.1,0.8-20.7
					l0-0.1l0-0.1C179.2,149.4,182.1,143.9,186.2,139.2z"/>
			</g>
		</g>
		<g>
			<g>
				<path class="st0" d="M414.1,113.8c-4.2,0.7-8.2,0.8-12,0.3c-3.8-0.6-7.2-1.9-10.3-3.8c-3-1.9-5.6-4.5-7.8-7.8
					c-2.1-3.3-3.5-7.3-4.3-12.1c-0.8-4.7-0.7-8.8,0.2-12.4c1-3.7,2.6-6.8,4.7-9.3c2.1-2.6,4.7-4.7,7.7-6.2c3-1.6,6.2-2.7,9.5-3.2
					c3.8-0.6,7.3-0.6,10.5,0c3.3,0.6,6.2,1.7,8.8,3.3c2.6,1.6,4.7,3.7,6.4,6.3c1.7,2.6,2.9,5.5,3.4,8.7c0.4,2.4,0,4.4-1.1,5.9
					c-1.1,1.5-2.9,2.6-5.2,3.4L399,95.2c1.2,2.2,3.1,3.7,5.7,4.5c2.6,0.7,5.5,0.8,8.6,0.3c2.9-0.5,5.6-1.3,8-2.4
					c2.5-1.2,4.5-2.5,5.9-3.7c1.3,0.5,2.4,1.4,3.4,2.5c1,1.1,1.6,2.4,1.9,3.9c0.5,3.2-0.6,5.8-3.3,7.9c-2.1,1.6-4.5,2.8-7.3,3.7
					C419.2,112.7,416.5,113.4,414.1,113.8z M404,72.4c-1.7,0.3-3.1,0.8-4.3,1.6c-1.1,0.8-2,1.7-2.6,2.7c-0.6,1-1.1,2.1-1.3,3.3
					c-0.2,1.1-0.2,2.3-0.1,3.4l17.7-6c-0.5-1.4-1.5-2.7-3.1-3.9C408.8,72.3,406.7,72,404,72.4z"/>
				<path class="st0" d="M312.1,74.2c2.9-0.5,5.8-0.5,8.7-0.2c3,0.3,5.6,1.1,8,2.4c1.9-1.8,4.1-3.3,6.5-4.7c2.5-1.4,5.7-2.4,9.5-3
					c2.7-0.5,5.4-0.5,8.1-0.3c2.7,0.3,5.2,1,7.5,2.2c2.3,1.1,4.3,2.9,5.9,5.3c1.6,2.3,2.7,5.2,3.3,8.9l5.6,33.6
					c-0.7,0.3-1.8,0.7-3.3,1.2c-1.5,0.5-3,0.8-4.6,1.1c-1.6,0.3-3,0.4-4.3,0.4c-1.2,0-2.3-0.3-3.3-0.8c-1-0.5-1.8-1.2-2.5-2.2
					c-0.6-1.1-1.1-2.5-1.4-4.3l-4.3-25.5c-0.4-2.1-1.2-3.6-2.6-4.3c-1.4-0.8-3.1-1-5.2-0.7c-1,0.2-2,0.6-3.1,1.3
					c-1.1,0.6-1.8,1.2-2.3,1.8c0.1,0.3,0.2,0.6,0.2,0.8c0,0.2,0.1,0.4,0.1,0.6l6,35.5c-0.7,0.3-1.9,0.8-3.4,1.2
					c-1.5,0.5-3,0.8-4.5,1.1c-1.6,0.3-3,0.4-4.3,0.4c-1.2,0-2.3-0.3-3.3-0.8c-1-0.5-1.8-1.2-2.5-2.2c-0.6-1.1-1.1-2.5-1.4-4.3
					l-4.3-25.5c-0.4-2.1-1.3-3.5-2.8-4.2c-1.4-0.8-3.1-1-4.9-0.7c-1.3,0.2-2.3,0.6-3.2,1.2c-0.9,0.5-1.6,1-2.2,1.5l6.3,37.4
					c-0.7,0.3-1.8,0.7-3.3,1.2c-1.5,0.5-3,0.8-4.6,1.1c-1.6,0.3-3,0.4-4.3,0.4c-1.2,0-2.3-0.3-3.3-0.8c-1-0.5-1.8-1.2-2.5-2.2
					c-0.6-1.1-1.1-2.5-1.4-4.3l-5.4-32.2c-0.3-1.9-0.2-3.5,0.4-4.8c0.7-1.3,1.6-2.5,2.9-3.8c2.1-2.1,4.9-4,8.3-5.7
					C304.6,76,308.2,74.9,312.1,74.2z"/>
				<path class="st0" d="M258.5,126.3c1.2-0.2,2.5-0.5,3.9-1c1.4-0.5,2.5-1.1,3.1-1.6l-1.4-8.5l-7.6,1.9c-2,0.5-3.5,1.2-4.7,2.1
					c-1.2,0.9-1.6,2.1-1.4,3.5c0.2,1.4,1,2.5,2.2,3.2C253.9,126.6,255.9,126.7,258.5,126.3z M250.7,84.5c3.8-0.6,7.4-0.8,10.6-0.6
					c3.3,0.2,6.2,1,8.7,2.3c2.5,1.2,4.6,2.9,6.2,5.2c1.6,2.2,2.7,5,3.3,8.3l4,23.9c0.3,1.8,0,3.5-0.8,4.9c-0.8,1.3-1.8,2.5-3.1,3.6
					c-4.2,3.5-10.4,6-18.8,7.4c-3.8,0.6-7.2,0.8-10.4,0.6c-3.1-0.2-5.9-0.8-8.3-1.9c-2.4-1.1-4.3-2.6-5.9-4.6c-1.5-2-2.5-4.5-3-7.4
					c-0.8-4.9,0-8.9,2.5-12c2.5-3.1,6.7-5.5,12.7-7.2l13.7-3.8l-0.1-0.7c-0.3-2.1-1.5-3.4-3.5-3.9c-1.9-0.6-4.6-0.7-8-0.1
					c-2.7,0.5-5.3,1.2-7.7,2.2c-2.5,1-4.7,2.1-6.6,3.3c-1-0.5-2-1.3-2.8-2.5c-0.9-1.2-1.4-2.6-1.7-4c-0.3-1.8-0.1-3.4,0.5-4.6
					c0.7-1.3,2-2.5,3.7-3.6c1.9-1.1,4.2-2.1,7-2.9C245.5,85.6,248.2,85,250.7,84.5z"/>
				<path class="st0" d="M226.8,143.3c-0.8,0.3-1.9,0.6-3.4,1.1c-1.4,0.5-2.9,0.9-4.5,1.2c-1.6,0.3-3,0.4-4.3,0.4
					c-1.2,0-2.3-0.3-3.3-0.8c-1-0.5-1.8-1.2-2.5-2.2c-0.6-1.1-1.1-2.5-1.4-4.3L197.1,77c0.8-0.3,1.9-0.6,3.3-1.1
					c1.5-0.5,3.1-1,4.6-1.2c1.6-0.3,3-0.4,4.2-0.4c1.3,0,2.5,0.2,3.4,0.7c1,0.5,1.7,1.3,2.4,2.3c0.7,1,1.2,2.4,1.5,4.1L226.8,143.3z
					"/>
				<path class="st0" d="M187.8,83.6c0.6,0.7,1.2,1.7,1.8,3c0.6,1.2,1.1,2.5,1.3,3.9c0.5,2.8,0.2,4.9-0.8,6.3
					c-0.9,1.3-2.4,2.2-4.4,2.5l-22.4,3.8l2,12l23.3-3.9c0.7,0.7,1.3,1.6,1.9,2.9c0.6,1.2,1.1,2.5,1.3,3.9c0.5,2.7,0.2,4.8-0.8,6.2
					c-0.9,1.3-2.4,2.2-4.4,2.5l-18.6,3.1l3.8,22.5c-0.7,0.3-2,0.8-3.6,1.3c-1.6,0.5-3.2,0.9-4.8,1.1c-1.6,0.3-3.1,0.4-4.4,0.3
					c-1.2,0-2.3-0.3-3.3-0.8c-1-0.5-1.7-1.3-2.4-2.3c-0.6-1.1-1.1-2.5-1.4-4.4l-7.8-46.4c-0.5-3.1,0-5.6,1.4-7.7
					c1.5-2.1,3.7-3.4,6.8-3.9L187.8,83.6z"/>
			</g>
			<g>
				<path class="st0" d="M441.8,166.2c-4.2,0.7-8.2,0.8-12,0.3c-3.8-0.6-7.2-1.9-10.3-3.8c-3-1.9-5.6-4.5-7.8-7.8
					c-2.1-3.3-3.5-7.3-4.3-12.1c-0.8-4.7-0.7-8.8,0.2-12.4c1-3.7,2.6-6.8,4.7-9.3c2.1-2.6,4.7-4.7,7.7-6.2c3-1.6,6.2-2.7,9.5-3.2
					c3.8-0.6,7.3-0.6,10.5,0c3.3,0.6,6.2,1.7,8.8,3.3c2.6,1.6,4.7,3.7,6.4,6.3c1.7,2.6,2.9,5.5,3.4,8.7c0.4,2.4,0,4.4-1.1,5.9
					c-1.1,1.5-2.9,2.6-5.2,3.4l-25.7,8.4c1.2,2.2,3.1,3.7,5.7,4.5c2.6,0.7,5.5,0.8,8.6,0.3c2.9-0.5,5.6-1.3,8-2.4
					c2.5-1.2,4.5-2.5,5.9-3.7c1.3,0.5,2.4,1.4,3.4,2.5c1,1.1,1.6,2.4,1.9,3.9c0.5,3.2-0.6,5.8-3.3,7.9c-2.1,1.6-4.5,2.8-7.3,3.7
					C447,165.1,444.3,165.8,441.8,166.2z M431.8,124.8c-1.7,0.3-3.1,0.8-4.3,1.6c-1.1,0.8-2,1.7-2.6,2.7c-0.6,1-1.1,2.1-1.3,3.3
					c-0.2,1.1-0.2,2.3-0.1,3.4l17.7-6c-0.5-1.4-1.5-2.7-3.1-3.9C436.6,124.7,434.5,124.4,431.8,124.8z"/>
				<path class="st0" d="M339.9,126.6c2.9-0.5,5.8-0.5,8.7-0.2c3,0.3,5.6,1.1,8,2.4c1.9-1.8,4.1-3.3,6.5-4.7c2.5-1.4,5.7-2.4,9.5-3
					c2.7-0.5,5.4-0.5,8.1-0.3c2.7,0.3,5.2,1,7.5,2.2c2.3,1.1,4.3,2.9,5.9,5.3c1.6,2.3,2.7,5.2,3.3,8.9l5.6,33.6
					c-0.7,0.3-1.8,0.7-3.3,1.2c-1.5,0.5-3,0.8-4.6,1.1c-1.6,0.3-3,0.4-4.3,0.4c-1.2,0-2.3-0.3-3.3-0.8c-1-0.5-1.8-1.2-2.5-2.2
					c-0.6-1.1-1.1-2.5-1.4-4.3l-4.3-25.5c-0.4-2.1-1.2-3.6-2.6-4.3c-1.4-0.8-3.1-1-5.2-0.7c-1,0.2-2,0.6-3.1,1.3
					c-1.1,0.6-1.8,1.2-2.3,1.8c0.1,0.3,0.2,0.6,0.2,0.8c0,0.2,0.1,0.4,0.1,0.6l6,35.5c-0.7,0.3-1.9,0.8-3.4,1.2
					c-1.5,0.5-3,0.8-4.5,1.1c-1.6,0.3-3,0.4-4.3,0.4c-1.2,0-2.3-0.3-3.3-0.8c-1-0.5-1.8-1.2-2.5-2.2c-0.6-1.1-1.1-2.5-1.4-4.3
					l-4.3-25.5c-0.4-2.1-1.3-3.5-2.8-4.2c-1.4-0.8-3.1-1-4.9-0.7c-1.3,0.2-2.3,0.6-3.2,1.2c-0.9,0.5-1.6,1-2.2,1.5l6.3,37.4
					c-0.7,0.3-1.8,0.7-3.3,1.2c-1.5,0.5-3,0.8-4.6,1.1c-1.6,0.3-3,0.4-4.3,0.4c-1.2,0-2.3-0.3-3.3-0.8c-1-0.5-1.8-1.2-2.5-2.2
					c-0.6-1.1-1.1-2.5-1.4-4.3l-5.4-32.2c-0.3-1.9-0.2-3.5,0.4-4.8c0.7-1.3,1.6-2.5,2.9-3.8c2.1-2.1,4.9-4,8.3-5.7
					C332.3,128.4,336,127.3,339.9,126.6z"/>
				<path class="st0" d="M286.3,178.7c1.2-0.2,2.5-0.5,3.9-1c1.4-0.5,2.5-1.1,3.1-1.6l-1.4-8.5l-7.6,1.9c-2,0.5-3.5,1.2-4.7,2.1
					c-1.2,0.9-1.6,2.1-1.4,3.5c0.2,1.4,1,2.5,2.2,3.2C281.7,179,283.7,179.1,286.3,178.7z M278.5,136.9c3.8-0.6,7.4-0.8,10.6-0.6
					c3.3,0.2,6.2,1,8.7,2.3c2.5,1.2,4.6,2.9,6.2,5.2c1.6,2.2,2.7,5,3.3,8.3l4,23.9c0.3,1.8,0,3.5-0.8,4.8c-0.8,1.3-1.8,2.5-3.1,3.6
					c-4.2,3.5-10.4,6-18.8,7.4c-3.8,0.6-7.2,0.8-10.4,0.7c-3.1-0.2-5.9-0.8-8.3-1.9c-2.4-1.1-4.3-2.6-5.9-4.6c-1.5-2-2.5-4.5-3-7.4
					c-0.8-4.9,0-8.9,2.5-12c2.5-3.1,6.7-5.5,12.7-7.2l13.7-3.8l-0.1-0.7c-0.3-2.1-1.5-3.4-3.5-3.9c-1.9-0.6-4.6-0.7-8-0.1
					c-2.7,0.5-5.3,1.2-7.7,2.2c-2.5,1-4.7,2.1-6.6,3.3c-1-0.5-2-1.3-2.8-2.5c-0.9-1.2-1.4-2.6-1.7-4c-0.3-1.8-0.1-3.4,0.5-4.6
					c0.7-1.3,2-2.5,3.7-3.6c1.9-1.1,4.2-2.1,7-2.9C273.3,138,276,137.4,278.5,136.9z"/>
				<path class="st0" d="M252.9,185.3c0.4,2.2,0.3,3.9-0.4,5.1c-0.6,1.2-1.7,2.4-3.2,3.7c-0.9,0.7-2,1.5-3.4,2.3
					c-1.4,0.7-3,1.4-4.7,2.1c-1.7,0.7-3.5,1.4-5.5,1.9c-1.9,0.5-3.8,1-5.7,1.3c-5.1,0.9-10,1-14.7,0.4c-4.7-0.7-9-2.1-12.8-4.3
					c-3.7-2.3-6.9-5.4-9.5-9.2c-2.6-3.9-4.4-8.6-5.3-14.1c-1-5.8-0.8-11.1,0.5-15.8c1.4-4.7,3.6-8.7,6.5-12.2
					c3-3.5,6.6-6.3,10.7-8.5c4.2-2.2,8.7-3.6,13.4-4.4c6.7-1.1,12.3-0.9,16.5,0.6c4.3,1.5,6.8,3.9,7.4,7.4c0.3,1.8,0.1,3.5-0.6,5
					c-0.7,1.5-1.6,2.7-2.7,3.7c-2-0.8-4.4-1.4-7.2-2c-2.8-0.6-5.9-0.7-9.2-0.1c-6,1-10.4,3.5-13.4,7.5c-2.9,4-3.9,9-2.8,15
					c0.5,3.3,1.5,6,2.8,8.3c1.4,2.2,3,3.9,4.9,5.2c1.9,1.2,4,2,6.2,2.5c2.3,0.4,4.6,0.3,7-0.1c1.6-0.3,2.9-0.6,4.1-1.1
					c1.2-0.5,2-1,2.6-1.4l-1.7-10l-11.4,1.9c-0.6-0.7-1.2-1.7-1.8-2.9c-0.6-1.2-1-2.5-1.2-4c-0.4-2.6-0.2-4.5,0.8-5.8
					c1-1.3,2.4-2.2,4.3-2.5l18-3c2.1-0.4,3.9,0,5.2,1c1.4,0.9,2.3,2.5,2.6,4.6L252.9,185.3z"/>
			</g>
		</g>
	</g>
</g>
</svg>
