<svg width="47" height="47" viewBox="0 0 47 47" fill="none" xmlns="http://www.w3.org/2000/svg">
<path d="M23.0329 5.38525H7.34375C6.82437 5.38525 6.32626 5.59158 5.959 5.95884C5.59174 6.3261 5.38541 6.8242 5.38541 7.34359V39.6561C5.38541 40.1755 5.59174 40.6736 5.959 41.0408C6.32626 41.4081 6.82437 41.6144 7.34375 41.6144H39.6562C40.1756 41.6144 40.6737 41.4081 41.041 41.0408C41.4083 40.6736 41.6146 40.1755 41.6146 39.6561V7.34359C41.6146 6.8242 41.4083 6.3261 41.041 5.95884C40.6737 5.59158 40.1756 5.38525 39.6562 5.38525H34.8113" stroke="#020D19" stroke-width="3" stroke-linecap="round" stroke-linejoin="round"/>
<path d="M34.0652 24.536L41.6146 23.3727M5.38541 28.9559L24.7925 25.9646M17.5349 27.0838L13.8728 5.38544M28.9226 3.29688C27.694 3.29687 26.4775 3.53888 25.3424 4.00907C24.2073 4.47926 23.176 5.16843 22.3073 6.03722C21.4386 6.90602 20.7496 7.93742 20.2795 9.07252C19.8094 10.2076 19.5675 11.4242 19.5677 12.6528C19.5677 19.974 26.7283 28.7993 28.5829 30.9613C28.6362 31.0237 28.7025 31.0738 28.7771 31.108C28.8518 31.1422 28.933 31.1598 29.0151 31.1594C29.0972 31.159 29.1782 31.1407 29.2526 31.1058C29.3269 31.071 29.3927 31.0203 29.4455 30.9574C31.2687 28.7875 38.2776 19.9691 38.2776 12.6528C38.2777 11.4242 38.0358 10.2076 37.5658 9.07252C37.0957 7.93742 36.4066 6.90602 35.5379 6.03722C34.6692 5.16843 33.6379 4.47926 32.5028 4.00907C31.3678 3.53888 30.1512 3.29687 28.9226 3.29688ZM28.9226 16.1484C28.2313 16.1484 27.5554 15.9434 26.9806 15.5593C26.4057 15.1752 25.9577 14.6293 25.6931 13.9905C25.4285 13.3518 25.3593 12.6489 25.4942 11.9709C25.629 11.2928 25.962 10.6699 26.4508 10.181C26.9397 9.69216 27.5626 9.35923 28.2407 9.22435C28.9187 9.08948 29.6216 9.1587 30.2603 9.42328C30.8991 9.68785 31.445 10.1359 31.8291 10.7107C32.2132 11.2856 32.4182 11.9614 32.4182 12.6528C32.4182 13.1119 32.3278 13.5664 32.1522 13.9905C31.9765 14.4146 31.719 14.8 31.3944 15.1246C31.0698 15.4492 30.6845 15.7067 30.2603 15.8823C29.8362 16.058 29.3817 16.1484 28.9226 16.1484Z" stroke="#020D19" stroke-width="3" stroke-linecap="round" stroke-linejoin="round"/>
</svg>
