<svg width="38" height="36" viewBox="0 0 38 36" fill="none" xmlns="http://www.w3.org/2000/svg">
<path d="M14.2368 33.9755C11.4802 33.1525 8.98365 31.6298 6.99017 29.5555C7.63156 28.7948 8.03139 27.86 8.13849 26.8708C8.24559 25.8815 8.05509 24.8828 7.59137 24.0024C7.12764 23.122 6.41179 22.4 5.5354 21.9288C4.65902 21.4576 3.66197 21.2586 2.67183 21.3572C2.44626 20.2523 2.33291 19.1274 2.3335 17.9997C2.3335 16.258 2.60016 14.578 3.09683 12.9997H3.16683C4.01663 13 4.85247 12.7837 5.59544 12.3712C6.33841 11.9587 6.96399 11.3636 7.41311 10.6422C7.86222 9.92078 8.12006 9.0968 8.16227 8.24805C8.20447 7.3993 8.02966 6.5538 7.65433 5.79138C9.60816 3.97207 11.971 2.64957 14.5435 1.93555C14.9621 2.75755 15.6 3.44771 16.3866 3.92967C17.1731 4.41164 18.0777 4.66661 19.0002 4.66638C19.9226 4.66661 20.8272 4.41164 21.6137 3.92967C22.4003 3.44771 23.0382 2.75755 23.4568 1.93555C26.0293 2.64957 28.3922 3.97207 30.346 5.79138C29.9679 6.55914 29.7933 7.41109 29.8387 8.26568C29.8841 9.12026 30.1481 9.94889 30.6055 10.6722C31.0628 11.3956 31.6982 11.9894 32.4507 12.397C33.2033 12.8045 34.0478 13.012 34.9035 12.9997C35.411 14.6178 35.6684 16.3039 35.6668 17.9997C35.6668 19.1497 35.5502 20.273 35.3285 21.358C34.3384 21.2594 33.3413 21.4584 32.4649 21.9296C31.5885 22.4009 30.8727 23.1229 30.409 24.0032C29.9452 24.8836 29.7547 25.8823 29.8618 26.8716C29.9689 27.8608 30.3688 28.7956 31.0102 29.5564C29.0166 31.6303 26.52 33.1527 23.7635 33.9755C23.4398 32.9666 22.8041 32.0865 21.948 31.4622C21.092 30.8378 20.0597 30.5013 19.0002 30.5013C17.9406 30.5013 16.9084 30.8378 16.0523 31.4622C15.1962 32.0865 14.5605 32.9666 14.2368 33.9755Z" stroke="#948686" stroke-width="3.33333" stroke-linejoin="round"/>
<path d="M19.0003 23.8327C19.7664 23.8327 20.5249 23.6818 21.2326 23.3886C21.9404 23.0955 22.5834 22.6658 23.1251 22.1241C23.6668 21.5825 24.0965 20.9394 24.3896 20.2317C24.6828 19.5239 24.8337 18.7654 24.8337 17.9993C24.8337 17.2333 24.6828 16.4748 24.3896 15.767C24.0965 15.0593 23.6668 14.4162 23.1251 13.8746C22.5834 13.3329 21.9404 12.9032 21.2326 12.6101C20.5249 12.3169 19.7664 12.166 19.0003 12.166C17.4532 12.166 15.9695 12.7806 14.8755 13.8746C13.7816 14.9685 13.167 16.4523 13.167 17.9993C13.167 19.5464 13.7816 21.0302 14.8755 22.1241C15.9695 23.2181 17.4532 23.8327 19.0003 23.8327Z" stroke="#948686" stroke-width="3.33333" stroke-linejoin="round"/>
</svg>
