<svg width="24" height="28" viewBox="0 0 24 28" fill="none" xmlns="http://www.w3.org/2000/svg">
<path d="M12.0002 26.0003L7.50021 27.5003C7.34466 27.5448 7.20021 27.5781 7.06688 27.6003C6.93355 27.6225 6.80021 27.6337 6.66688 27.6337C5.95577 27.6337 5.33355 27.3837 4.80021 26.8837C4.26688 26.3837 4.00021 25.7448 4.00021 24.967V17.7003L0.533545 12.067C0.400212 11.8448 0.300212 11.617 0.233545 11.3837C0.166878 11.1503 0.133545 10.9114 0.133545 10.667C0.133545 10.4225 0.166878 10.1837 0.233545 9.95033C0.300212 9.71699 0.400212 9.48921 0.533545 9.26699L5.06688 1.93366C5.31132 1.53366 5.63355 1.22255 6.03355 1.00033C6.43355 0.778103 6.86688 0.666992 7.33355 0.666992H16.6669C17.1335 0.666992 17.5669 0.778103 17.9669 1.00033C18.3669 1.22255 18.6891 1.53366 18.9335 1.93366L23.4669 9.26699C23.6002 9.48921 23.7002 9.71699 23.7669 9.95033C23.8335 10.1837 23.8669 10.4225 23.8669 10.667C23.8669 10.9114 23.8335 11.1503 23.7669 11.3837C23.7002 11.617 23.6002 11.8448 23.4669 12.067L20.0002 17.7003V24.967C20.0002 25.7448 19.7335 26.3837 19.2002 26.8837C18.6669 27.3837 18.0447 27.6337 17.3335 27.6337C17.2002 27.6337 17.0669 27.6225 16.9335 27.6003C16.8002 27.5781 16.6558 27.5448 16.5002 27.5003L12.0002 26.0003ZM12.0002 23.2003L17.3335 24.967V20.667H6.66688V24.967L12.0002 23.2003ZM7.33355 18.0003H16.6669L21.2002 10.667L16.6669 3.33366H7.33355L2.80021 10.667L7.33355 18.0003ZM10.6002 12.3337L15.3002 7.60033C15.5447 7.33366 15.8502 7.20588 16.2169 7.21699C16.5835 7.2281 16.9002 7.35588 17.1669 7.60033C17.4335 7.86699 17.5724 8.18366 17.5835 8.55033C17.5947 8.91699 17.4669 9.23366 17.2002 9.50033L11.5335 15.167C11.2669 15.4337 10.9558 15.567 10.6002 15.567C10.2447 15.567 9.93355 15.4337 9.66688 15.167L6.83355 12.3337C6.56688 12.067 6.43355 11.7503 6.43355 11.3837C6.43355 11.017 6.56688 10.7003 6.83355 10.4337C7.10021 10.167 7.41688 10.0337 7.78355 10.0337C8.15021 10.0337 8.46688 10.167 8.73355 10.4337L10.6002 12.3337Z" fill="#FAC219"/>
</svg>
