<svg width="36" height="31" viewBox="0 0 36 31" fill="none" xmlns="http://www.w3.org/2000/svg">
<path d="M20.9375 30.125C23.8301 30.125 26.6576 29.2673 29.0627 27.6602C31.4678 26.0532 33.3423 23.7691 34.4492 21.0968C35.5562 18.4244 35.8458 15.4838 35.2815 12.6468C34.7172 9.80984 33.3243 7.20391 31.2789 5.15857C29.2336 3.11323 26.6277 1.72033 23.7907 1.15602C20.9537 0.591713 18.0131 0.881337 15.3408 1.98827C12.6684 3.0952 10.3843 4.96972 8.77726 7.37479C7.17024 9.77986 6.3125 12.6075 6.3125 15.5V23.0563L1.925 18.6688L0.21875 20.375L7.53125 27.6875L14.8438 20.375L13.1375 18.6688L8.75 23.0563V15.5C8.75 13.0895 9.46478 10.7332 10.804 8.72899C12.1431 6.72477 14.0466 5.16267 16.2735 4.24022C18.5005 3.31778 20.951 3.07643 23.3152 3.54669C25.6793 4.01694 27.8509 5.17769 29.5554 6.88214C31.2598 8.5866 32.4206 10.7582 32.8908 13.1223C33.3611 15.4865 33.1197 17.937 32.1973 20.164C31.2748 22.3909 29.7127 24.2944 27.7085 25.6335C25.7043 26.9727 23.348 27.6875 20.9375 27.6875V30.125Z" fill="#D23C48"/>
</svg>
