<svg width="80" height="80" viewBox="0 0 80 80" fill="none" xmlns="http://www.w3.org/2000/svg">
<path d="M59.97 20C65.265 20 69.59 24.09 69.97 29.28L70 30.03V39.97C70.0007 42.5003 69.0445 44.9373 67.3234 46.792C65.6022 48.6467 63.2433 49.782 60.72 49.97L60 50H17.42L26.97 59.1C27.2384 59.3437 27.4529 59.6409 27.5997 59.9724C27.7465 60.3039 27.8223 60.6624 27.8223 61.025C27.8223 61.3876 27.7465 61.7461 27.5997 62.0776C27.4529 62.4091 27.2384 62.7063 26.97 62.95C26.403 63.4658 25.664 63.7516 24.8975 63.7516C24.131 63.7516 23.392 63.4658 22.825 62.95L12.575 53.2C11.7635 52.4727 11.1143 51.5824 10.6699 50.5874C10.2255 49.5923 9.99585 48.5148 9.99585 47.425C9.99585 46.3352 10.2255 45.2577 10.6699 44.2626C11.1143 43.2676 11.7635 42.3773 12.575 41.65L22.825 31.9C23.3928 31.3839 24.1326 31.0979 24.9 31.0979C25.6674 31.0979 26.4072 31.3839 26.975 31.9C27.2434 32.1437 27.4579 32.4409 27.6047 32.7724C27.7515 33.1039 27.8273 33.4624 27.8273 33.825C27.8273 34.1876 27.7515 34.5461 27.6047 34.8776C27.4579 35.2091 27.2434 35.5063 26.975 35.75L17.25 45H60C62.57 44.985 64.675 43.05 64.965 40.56L65 39.97V30.03C65 27.45 63.06 25.325 60.56 25.03L59.97 25H47.5C46.8753 25.0012 46.2728 24.7684 45.8111 24.3475C45.3494 23.9266 45.0621 23.3481 45.0056 22.7259C44.9492 22.1037 45.1277 21.483 45.5061 20.9858C45.8845 20.4887 46.4353 20.1513 47.05 20.04L47.5 20H59.97Z" fill="#020D19"/>
</svg>
