<svg width="38" height="36" viewBox="0 0 38 36" fill="none" xmlns="http://www.w3.org/2000/svg">
<path d="M24 0.5H14C13.337 0.5 12.7011 0.763392 12.2322 1.23223C11.7634 1.70107 11.5 2.33696 11.5 3V35.1875C11.5 35.2704 11.5329 35.3499 11.5915 35.4085C11.6501 35.4671 11.7296 35.5 11.8125 35.5H26.1875C26.2704 35.5 26.3499 35.4671 26.4085 35.4085C26.4671 35.3499 26.5 35.2704 26.5 35.1875V3C26.5 2.33696 26.2366 1.70107 25.7678 1.23223C25.2989 0.763392 24.663 0.5 24 0.5ZM35.25 13H29.625C29.4592 13 29.3003 13.0658 29.1831 13.1831C29.0658 13.3003 29 13.4592 29 13.625V34.875C29 35.0408 29.0658 35.1997 29.1831 35.3169C29.3003 35.4342 29.4592 35.5 29.625 35.5H35.875C36.3723 35.5 36.8492 35.3025 37.2008 34.9508C37.5525 34.5992 37.75 34.1223 37.75 33.625V15.5C37.75 14.837 37.4866 14.2011 37.0178 13.7322C36.5489 13.2634 35.913 13 35.25 13ZM2.75 8C2.08696 8 1.45107 8.26339 0.982233 8.73223C0.513392 9.20107 0.25 9.83696 0.25 10.5V33.625C0.25 34.1223 0.447544 34.5992 0.799175 34.9508C1.15081 35.3025 1.62772 35.5 2.125 35.5H8.375C8.54076 35.5 8.69973 35.4342 8.81694 35.3169C8.93415 35.1997 9 35.0408 9 34.875V8.625C9 8.45924 8.93415 8.30027 8.81694 8.18306C8.69973 8.06585 8.54076 8 8.375 8H2.75Z" fill="#FAC219"/>
</svg>
