<?xml version="1.0" encoding="UTF-8"?>
<svg id="Calque_1" data-name="Calque 1" xmlns="http://www.w3.org/2000/svg" xmlns:xlink="http://www.w3.org/1999/xlink" viewBox="0 0 951.83 594.12">
  <defs>
    <style>
      .cls-1 {
        fill: #f9f9f9;
      }

      .cls-1, .cls-2, .cls-3, .cls-4, .cls-5, .cls-6 {
        stroke-width: 0px;
      }

      .cls-2 {
        fill: url(#Dégradé_sans_nom_7);
      }

      .cls-3 {
        fill: #a4b8ea;
      }

      .cls-4 {
        fill: #fff;
      }

      .cls-5 {
        opacity: .46;
      }

      .cls-5, .cls-6 {
        fill: #050505;
      }

      .cls-6 {
        opacity: .21;
      }
    </style>
    <linearGradient id="Dégradé_sans_nom_7" data-name="Dégradé sans nom 7" x1="246.44" y1="357.84" x2="951.76" y2="357.84" gradientUnits="userSpaceOnUse">
      <stop offset="0" stop-color="#8eb0dd"/>
      <stop offset="1" stop-color="#a4b8ea"/>
    </linearGradient>
  </defs>
  <path class="cls-3" d="M526.46,33.61s4.5,5.24,4.5,17.69c0,0-10.67,31.03-8.89,43.07,0,0,0,25.67,34.37,33.96l67.56,2.96,16.59-13.04s21.33-11.77,30.81,3.3c0,0,14.22,22.77,16,59.51l-2.37,7.11s22.52-2.96,16,30.81l9.48,14.81s23.7,13.04,14.22,32c0,0,13.04,8.89,9.48,16,0,0,20.15,2.37,13.63,29.04,0,0,11.26,7.11,10.67,16.59,0,0,22.52,5.93,17.19,40.3l28.44,33.78,7.7,7.11,7.11,5.93s29.63-5.33,33.19,2.37c0,0,10.07,8.3,7.11,19.56,0,0,11.85,8.89,27.85,7.7,0,0,23.11,1.19,44.44,11.26,0,0,21.6,10.13,20.21,23.95s-15.47,47.76-15.47,47.76h-40.89l-154.07-39.7-84.15-113.19-80-74.07-110.81-147.56-8.89-55.16,24.58-56.99,44.4-6.86Z"/>
  <polygon class="cls-4" points="254.22 154.41 251.85 168.04 263.7 203 295.7 244.48 331.26 283.59 392.89 333.37 466.96 372.48 526.81 410.41 576 454.26 627.56 512.93 664.3 552.04 693.33 578.11 740.74 582.26 757.33 582.26 804.74 588.78 862.22 582.85 900.74 569.81 926.81 540.78 931.56 525.96 859.26 537.22 767.41 533.67 709.93 515.89 666.67 485.07 628.74 434.11 535.11 347 426.07 251.52 368 191.74 327.7 143.74 305.78 121.56 299.95 121.56 295.85 123 273.78 138.7 254.22 154.41"/>
  <path class="cls-4" d="M506.84,40.47s-35.73,31.56-35.13,52.3c0,0-4.76,26.07,0,42.67,0,0,24.9,30.22,59.27,42.07,0,0,55.11,27.26,71.7,56.3l43.85,62.22,39.7,64.59s23.11,32,42.07,44.44c0,0,17.78,17.19,40.3,21.33,0,0,20.15,5.93,35.56-7.7,0,0,15.41,13.63,33.78,14.81,0,0,1.19,32-90.07,24.3,0,0,19.56,27.26,110.81-2.37,0,0,43.85-1.78,61.04,10.67,0,0,20.72,3.56,7.4,30.81,0,0,6.79,40.26-95.71,30.79l-37.31,6.54-93.49-18.96-53.47-65.19-43.85-85.93-32.59-43.85-110.81-112-33.19-96,22.52-49.78,42.07-22.08h15.58Z"/>
  <path class="cls-3" d="M299.95,121.56s62.65-21.69,115.66-74.7l44.58-36.14s21.18-20.48,41.92-4.82l24.35,27.71s-61.87,26.58-79.52,61.45c0,0-19.28,22.89,8.43,81.93,0,0,38.55,77.11,143.37,154.22,0,0,78.31,55.15,101.2,159.04,0,0,39.76,51.81,206.02,33.73l9.64-7.23,11.49,9.91s-91,39.48-212.69.93c0,0-45.78-12.05-65.06-49.4,0,0-71.08-89.16-95.18-103.61l-187.95-160.24s-60.24-53.01-66.27-92.77Z"/>
  <path class="cls-2" d="M299.95,121.56s-48.19,6.02-53.01,33.73,26.51,68.67,26.51,68.67c0,0,32.53,49.4,54.22,61.45,0,0,22.41,28.92,43.73,39.76,0,0,23.74,24.1,56.27,37.35,0,0,16.87,10.84,50.6,24.1,0,0,56.63,33.73,72.29,53.01l84.34,91.57,39.76,42.17s7.23,13.25,39.76,14.46h40.96s18.07,6.3,38.55,6.3l81.93-8.71s15.66-2.41,39.76-21.69c0,0,24.1-18.07,28.92-36.14s7.23-48.19,7.23-48.19l-28.92,55.42s-14.99,18.41-22.7,24.33c0,0-15.41,11.26-26.07,12.44,0,0-8.3-4.15-13.63-10.07,0,0-1.19,14.81-14.81,17.19l-76.44,1.19s-14.25-1.65-20.74-23.11c0,0,1.19,18.37-11.85,19.56,0,0-48,7.93-68.74-29.51l-100.15-116.26s-45.04-46.22-60.44-50.37l-75.26-34.37-5.69-6.5c-1.7-1.94-2.33-4.59-1.67-7.08,1.6-6.08,5.54-17.91,13.88-28.49,0,0-22.52,27.85-34.37,24.3,0,0-34.63-17.54-46.42-31.44-2.41-2.84-3.22-6.68-2.22-10.26,2.18-7.84,8.09-23.37,22.57-34.81,0,0-20.69,14.35-33.87,19.81-4.46,1.85-9.43,1.94-13.96.27-8.8-3.25-24.47-11.89-32.15-33.49-.67-1.87-1.55-3.66-2.44-5.44-1.83-3.67-3.5-13.67,12.5-35,0,0-19.62,14.81-38.52,0,0,0-24.3-20.15-5.33-42.67l35.66-33.44Z"/>
  <path class="cls-1" d="M512.27,40.47l-23.97,43.42s-10.07,22.01,2.96,37.67c0,0,10.07,24.55,48,31.07l71.7-2.96,8.3-9.48s-53.93,7.7-84.74-5.33c0,0-29.63-16.75-29.63-38.3l16.59-45.85-.46-14.6-8.75,4.37Z"/>
  <path class="cls-4" d="M589.04,168.63s59.26,55.52,74.67,103.61c0,0,36.15,79.5,65.19,98.46,0,0,24.3,29.04,36.74,36.74,0,0,8.3,3.56,15.41,3.56,0,0,22.52.59,6.52-15.41l-19.56-26.67s-8.3,16.59-18.37,1.78c0,0-11.26-8.3,0-27.26l2.96-7.7-11.85-16s-7.11,16-18.37,4.74c0,0-14.22-13.63,1.78-31.41l1.78-5.71s-7.7-6.74-7.11-12.07c0,0-10.07,14.81-22.52,2.96,0,0-8.3-20.28,6.52-36.22l-7.7-14.75s-10.67,11.85-21.93,2.37c0,0-11.24-13.63,5.93-31.41,0,0-18.97-32-43.86-33.78,0,0-38.52-1.78-46.22,4.15Z"/>
  <polygon class="cls-6" points="233.48 164.23 42.67 164.23 240.59 188.78 233.48 164.23"/>
  <polygon class="cls-5" points="249.5 210.36 261.35 231.6 0 220.92 249.5 210.36"/>
</svg>