<?xml version="1.0" encoding="UTF-8"?>
<svg id="Calque_1" data-name="Calque 1" xmlns="http://www.w3.org/2000/svg" viewBox="0 0 957.59 895.77">
  <defs>
    <style>
      .cls-1 {
        fill: none;
        opacity: .65;
        stroke-width: 2px;
      }

      .cls-1, .cls-2 {
        stroke: #350505;
        stroke-miterlimit: 10;
      }

      .cls-2 {
        fill: #660e0e;
        opacity: .8;
        stroke-width: 4px;
      }
    </style>
  </defs>
  <path class="cls-2" d="M522.44,329.05L787.18,44.82l7.83-34.34s1.96-19.08,29.37,0l15.66,11.45s29.37,20.98,0,30.52l-28.51,13.59-270.13,282.89-195.01,208.3s-15.89,87.26-57.78,144.96l-157.45,173.11s-34.67,35.19-73.67,8.44l-39.83-32.92c-10.55-8.72-16.61-21.77-15.53-35.21.8-9.98,5.34-21.59,17.8-33.2l151.68-163.26s65-56.3,154.57-80.22l196.28-209.88Z"/>
  <line class="cls-1" x1="154.27" y1="720.48" x2="326.71" y2="540.72"/>
  <line class="cls-1" x1="174.21" y1="737.68" x2="344.7" y2="556.76"/>
  <path class="cls-2" d="M445.13,329.05L185.47,44.82l-7.68-34.34s-1.92-19.08-28.81,0l-15.36,11.45s-28.81,20.98,0,30.52l27.97,13.59,264.95,282.89,191.27,208.3s15.59,87.26,56.67,144.96l154.44,173.11s34,35.19,72.26,8.44l39.06-32.92c10.35-8.72,16.29-21.77,15.23-35.21-.79-9.98-5.24-21.59-17.46-33.2l-148.77-163.26s-63.76-56.3-151.6-80.22l-192.51-209.88Z"/>
  <line class="cls-1" x1="806.24" y1="720.48" x2="637.11" y2="540.72"/>
  <line class="cls-1" x1="786.69" y1="737.68" x2="619.46" y2="556.76"/>
</svg>