<?xml version="1.0" encoding="UTF-8"?>
<svg id="Calque_1" data-name="Calque 1" xmlns="http://www.w3.org/2000/svg" viewBox="0 0 826.71 950.04">
  <defs>
    <style>
      .cls-1 {
        fill: #750000;
      }

      .cls-1, .cls-2, .cls-3, .cls-4 {
        stroke-width: 0px;
      }

      .cls-2 {
        fill: #a20000;
      }

      .cls-5 {
        fill: none;
        opacity: .64;
        stroke: #dbdbdb;
        stroke-miterlimit: 10;
        stroke-width: 2px;
      }

      .cls-3 {
        fill: #dbdbdb;
      }

      .cls-4 {
        fill: #c9c9c9;
      }
    </style>
  </defs>
  <path class="cls-4" d="M712.67,388.89l-17.82-11.85,41.13-107.86-18.52-7.88-45.49,100.53-19.83-13.18,49.72-99.53-17.68-9.64-54.54,94.21-23.55-15.65,61.81-99.57-15.72-11.08-68.19,95.96-23.53-15.64,65.73-86.78-15.72-12.55-72.51,84.37-19.84-13.18,75.09-80.87-14.44-14.02-83.53,79.68-17.82-11.85,87.83-74.94-12.74-15.6L13.4,549.14l3.52,36.1,34.68,10.63,293.81-250.7,26.06,17.31L97.55,623.86l7.64,35.48,35.7,6.57,262.18-282.41,25.3,16.81-244.56,284.61,11.04,34.56,36.14,3.11,228.49-301.58,27.78,18.46-217,305.35,13.99,33.47,36.29-.06,197.51-318.29,27.8,18.47-189.62,327.43,16.86,32.13,36.14-3.2,167.73-335.67,25.28,16.81-158.89,351.08,19.9,30.36,35.66-6.68,134.95-353.76,26.04,17.32-117.4,367.95,23.22,27.88,34.65-10.73,152.4-653.5-5.01-6.92-35.1,110.01ZM389.08,345.69l-24.9-16.55,94.48-80.6,18.99,12.62-88.57,84.53ZM443.94,382.17l-24.51-16.3,82.32-88.67,20.6,13.7-78.42,91.28ZM501.02,420.11l-27.18-18.07,72.25-95.37,24.16,16.05-69.24,97.39ZM557.77,457.82l-27.18-18.07,62.98-101.53,24.15,16.05-59.95,103.56ZM612.17,493.98l-24.51-16.29,53.8-107.64,20.6,13.7-49.9,110.24ZM667.43,530.71l-24.9-16.54,43.65-114.4,18.99,12.63-37.74,118.31Z"/>
  <g>
    <path class="cls-3" d="M699.27,373.59l-17.82-11.85,41.13-107.86-18.52-7.88-45.49,100.53-19.83-13.18,49.72-99.53-17.68-9.64-54.54,94.21-23.55-15.65,54.2-87.32-16.77-11.15-59.53,83.78-23.53-15.64,65.73-86.78-15.72-12.55-72.51,84.37-19.84-13.18,75.09-80.87-14.44-14.02-83.53,79.68-17.82-11.85,87.83-74.94-12.74-15.6L0,533.84l3.52,36.1,34.68,10.63,293.81-250.7,26.06,17.31L84.15,608.55l7.64,35.48,35.7,6.57,262.18-282.41,25.3,16.81-244.56,284.61,11.04,34.56,36.14,3.11,228.49-301.58,27.78,18.46-217,305.35,13.99,33.47,36.29-.06,197.51-318.29,27.8,18.47-189.62,327.43,16.86,32.13,36.14-3.2,167.73-335.67,25.28,16.81-158.89,351.08,19.9,30.36,35.66-6.68,134.95-353.76,26.04,17.32-117.4,367.95,23.22,27.88,34.65-10.73,166.7-654.7-19.32-5.72-35.1,110.01ZM375.68,330.39l-24.9-16.55,94.48-80.6,18.99,12.62-88.57,84.53ZM430.54,366.87l-24.51-16.3,82.32-88.67,20.6,13.7-78.42,91.28ZM487.62,404.8l-27.18-18.07,72.25-95.37,24.16,16.05-69.24,97.39ZM544.36,442.52l-27.18-18.07,62.98-101.53,24.15,16.05-59.95,103.56ZM598.76,478.67l-24.51-16.29,53.8-107.64,20.6,13.7-49.9,110.24ZM654.03,515.4l-24.9-16.54,43.65-114.4,18.99,12.63-37.74,118.31Z"/>
    <g>
      <path class="cls-3" d="M545.18,147.94l6.67-5.67-12.31-15.05c1.32,6.93,3.14,13.87,5.64,20.71Z"/>
      <path class="cls-3" d="M578.52,194.63c6.65,5.16,12.54,9.33,17.78,12.76l16.48-21.76-15.72-12.55-18.54,21.55Z"/>
      <path class="cls-3" d="M551.61,162.49c3.36,6.29,7.43,12.35,12.27,18.07l15.92-17.16-14.44-14.02-13.75,13.11Z"/>
      <path class="cls-3" d="M704.2,375.37l-22.75-13.63,41.13-107.86-18.52-7.88-35.93,106.38-29.39-19.03,49.72-99.53-17.68-9.64-47.6,98.83-30.49-20.27,54.2-87.32-16.77-11.15-11.01,15.51c20.44,8.34,14.13-3.49-1.27,24.69-18.83,34.42-263.03,415.06-329.43,518.47l18.72-.04,197.51-318.29,36.61,24.35-185.93,345.36,4.35,8.33,36.14-3.2,167.73-335.67,33.94,22.55-156.67,361.93,9.02,13.76,35.66-6.68,134.95-353.76,30.81,20.49-114.85,373.59,15.9,19.07,34.65-10.73,166.7-654.7-19.32-5.72-30.16,111.79ZM552.43,447.65l-35.24-23.21,62.98-101.53,28.39,19.09-56.13,105.64ZM609.57,485.14l-35.31-22.76,53.8-107.64,27.78,19.16-46.27,111.25ZM659.18,518.83l-30.05-19.97,43.65-114.4,22.39,14.89-35.98,119.48Z"/>
    </g>
    <path class="cls-5" d="M764.4,23.97c-63.15-41.97-148.38-24.8-190.34,38.34-4.03,6.07-24.05,37.55-27.02,43.95l225.65,149.99c4.75-5.2,26.03-35.87,30.05-41.93,41.97-63.15,24.8-148.38-38.35-190.35Z"/>
    <path class="cls-3" d="M780.05,145.76c-48.34,65.96-70.43,26.78-89.69,55.76l82.34,54.72c4.75-5.2,26.03-35.87,30.05-41.93,28.29-42.55,29.62-95.08,8.19-137.67-7.03-13.97-3.9,32.27-30.89,69.11Z"/>
    <rect class="cls-2" x="632.18" y="60.83" width="35.64" height="270.52" transform="translate(126.89 628.88) rotate(-56.39)"/>
    <rect class="cls-1" x="703.75" y="194.34" width="35.64" height="98.65" transform="translate(119.26 709.77) rotate(-56.39)"/>
  </g>
</svg>