<?xml version="1.0" encoding="UTF-8"?>
<svg xmlns="http://www.w3.org/2000/svg" viewBox="0 0 903.61 903.61">
  <defs>
    <style>
      .cls-1 {
        fill: #ff3700;
        mix-blend-mode: multiply;
        opacity: .4;
      }

      .cls-1, .cls-2, .cls-3 {
        stroke-width: 0px;
      }

      .cls-4 {
        isolation: isolate;
      }

      .cls-2 {
        fill: #f68340;
      }

      .cls-3 {
        fill: #231f20;
      }
    </style>
  </defs>
  <g class="cls-4">
    <g id="Calque_1" data-name="Calque 1">
      <g>
        <path class="cls-2" d="M451.81,0C202.29,0,0,202.28,0,451.81s202.29,451.81,451.81,451.81,451.81-202.28,451.81-451.81S701.32,0,451.81,0Z"/>
        <path class="cls-3" d="M880.77,399.32c5.61-12.36,10.24-24.61,14.07-36.48-3.3-16.49-7.5-32.67-12.53-48.45-4.28,22.63-11.43,48.65-23.38,75.01-17.77,39.2-28.34,95.15-34.21,148.9-13.99,1.49-30.41,2.53-48.91,3.08,12.1-92.56,7.14-178.95-14.88-256.93-18.55-65.73-49.12-125.63-90.88-178.03-31-38.91-63.32-67.73-90.22-87.97-21.57-6.37-43.8-11.17-66.58-14.27,18.9,9.88,81.2,45.88,138.04,117.2,61.59,77.3,128.4,212.63,100.29,420.44-23.95.19-50.58-.3-79.28-1.44,1.82-32.12-1.49-65.91-10.26-100.22-16.03-62.68-78-127.67-127.16-171.17-59.54-52.68-134.4-104.21-205.39-141.36-65.01-34.03-113.89-40.74-147.6-38.15-15.09,11.25-29.45,23.45-43,36.47l.42.54c.54-.43,55.77-42.12,179.04,22.4,138.7,72.6,296.47,203.62,320.42,297.23,8.17,31.99,11.25,63.41,9.54,93.18-126.73-6.43-287.65-24.88-434.37-55.03C65.84,453.8,18.78,415.16,3.9,392.41c-1.43,10.77-2.45,21.67-3.1,32.69,29.15,26.71,88.51,58.05,208.32,82.68,150.96,31.02,310.57,49.27,436.69,55.6-7.35,48.49-28.19,91.33-61.33,123.14-52.66,50.52-187.94,120.25-311.14,109.54-69.88-6.08-151.27-55.92-189.3-81.77,14.98,20.96,31.72,40.57,49.98,58.64,40.82,21.94,90.68,43,137.24,47.04,9.44.82,18.93,1.21,28.42,1.21,123.23,0,248.05-66.15,301.41-117.33,37.64-36.1,61.05-84.69,68.82-139.37,24.85.98,48.22,1.48,69.68,1.48,2.81,0,5.57-.01,8.31-.03-21.11,125.1-71.64,217.97-150.37,276.18-48.83,36.12-101.76,53.48-146.75,61.48.35.01.67.03,1.02.03,40.9,0,80.53-5.48,118.19-15.67,13.95-7.53,27.87-16.23,41.54-26.33,84.97-62.72,139.02-162.31,160.75-296.08,18.74-.51,35.53-1.45,50.07-2.87-3.9,46.07-4.5,88.24-3.41,113.87.5,11.98,1.39,23.75,2.52,35.08,7.66-10.9,14.86-22.16,21.58-33.72-.04-.81-.1-1.58-.12-2.38-1.09-25.91-.46-69.22,3.69-115.89,18.83-2.99,34.17-6.93,46.65-11.4,2.01-9.22,3.76-18.55,5.2-27.97-11,5.36-26.75,10.64-49.34,14.62,5.68-49.51,15.55-100.02,31.65-135.55Z"/>
        <path class="cls-1" d="M802.79,283.78c0,286.63-232.37,519.01-519.01,519.01-47.76,0-93.99-6.49-137.92-18.55,80.49,74.11,187.91,119.38,305.95,119.38,249.52,0,451.81-202.28,451.81-451.81,0-118.03-45.27-225.46-119.38-305.95,12.07,43.93,18.55,90.15,18.55,137.92Z"/>
      </g>
    </g>
  </g>
</svg>