<?xml version="1.0" encoding="UTF-8"?>
<svg id="Calque_1" data-name="Calque 1" xmlns="http://www.w3.org/2000/svg" viewBox="0 0 706.04 951.16">
  <defs>
    <style>
      .cls-1 {
        fill: #c03a2b;
      }

      .cls-1, .cls-2, .cls-3 {
        stroke-width: 0px;
      }

      .cls-2 {
        fill: #e64c3c;
      }

      .cls-3 {
        fill: #fff;
      }
    </style>
  </defs>
  <path class="cls-2" d="M99.52,902.43s-8,53.27,55.11,48.41l288,.31s39.11-.72,34.67-48.72l-.19-182.14H97.59l1.93,182.14Z"/>
  <path class="cls-1" d="M97.59,720.29S13.08,553.38,11.36,297.68s557.68-71.08,557.68-71.08c0,0,52.65-29.2,75.54-23.17,0,0,62.65-6.02,61.45,108.43,0,0-8.43,132.53-61.45,209.64,0,0-63.86,115.66-167.47,198.8H97.59Z"/>
  <path class="cls-2" d="M0,251.62s13.25,86.75,57.83,128.92c0,0,71.08,78.75,165.06,96,0,0,143.37,32.92,224.1-26.12,0,0,97.59-66.27,106.02-136.14,0,0,28.92-93.98,10.84-156.63,0,0-24.1-97.59-114.46-126.51,0,0-107.23-40.96-189.16-28.92,0,0-120.48,7.23-169.88,50.6,0,0-90.36,56.63-90.36,198.8Z"/>
  <path class="cls-3" d="M295.97,579.47c-19.63-13.83-39.25-27.65-58.88-41.48-4.29-3.02-8.4-6.84-13.11-9.19-4.92-2.45-9.89-1.82-15.01-.43-6.88,1.86-10.3,8.43-9.29,15.25,1.35,9.12,8.85,12.5,15.58,17.42,5.52,4.03,11.03,8.06,16.55,12.09,10.24,7.48,20.48,14.96,30.72,22.44,1.57,1.15,3.14,2.29,4.7,3.44-20.06,13.99-40.08,28.11-60.34,41.75-7.09,4.77-11.37,15.45-7.2,23.37,4.57,8.66,17.7,10.86,25.62,5.67,22.97-15.05,44.97-31.89,67.4-47.75,1.05-.74,2.11-1.71,3.26-2.3,15.95,11.38,31.89,22.77,47.84,34.15,5.45,3.89,10.9,7.78,16.34,11.67,5.15,3.68,11,7.78,17.82,7.19,5.96-.52,12.7-3.39,14.67-9.48,1.84-5.73-.05-12.44-3.1-17.4-3.33-5.4-11.24-9.11-16.44-12.75-6.12-4.28-12.23-8.56-18.35-12.83-9.4-6.57-18.8-13.15-28.2-19.72-.31-.22-.64-.43-.94-.66,20.39-14.53,38.27-27.6,58.74-42.01,1.12-.79,4.5-3.49,5.41-4.52,3.52-4.02,4.34-11.97,3.61-17.02-1.65-11.3-13.79-11.81-22.56-8.82-5.79,1.98-10.36,5.82-15.27,9.36-7.25,5.22-14.57,10.34-21.84,15.55-12.57,9-25.15,18.01-37.72,27.01Z"/>
</svg>