<?xml version="1.0" encoding="UTF-8"?>
<svg xmlns="http://www.w3.org/2000/svg" viewBox="0 0 1408.85 1963.01">
  <defs>
    <style>
      .cls-1 {
        fill: #df9c29;
      }

      .cls-1, .cls-2, .cls-3, .cls-4, .cls-5, .cls-6, .cls-7 {
        stroke-width: 0px;
      }

      .cls-2 {
        fill: #000;
      }

      .cls-8 {
        opacity: .28;
      }

      .cls-9 {
        isolation: isolate;
      }

      .cls-3 {
        fill: #e4032b;
      }

      .cls-4 {
        fill: #f8ac2d;
      }

      .cls-5 {
        fill: #003e82;
      }

      .cls-6 {
        fill: #fff;
      }

      .cls-7 {
        fill: #895a13;
      }

      .cls-10 {
        mix-blend-mode: multiply;
      }
    </style>
  </defs>
  <g class="cls-9">
    <g id="ombres">
      <g class="cls-8">
        <line class="cls-2" x1="6.24" y1="197.84" x2="43.7" y2="188.64"/>
        <line class="cls-2" x1="6.24" y1="197.84" x2="43.7" y2="188.64"/>
        <rect class="cls-2" x="215.71" y="167.06" width="51.42" height="1815.99" transform="translate(-249.42 88.59) rotate(-13.8)"/>
        <g class="cls-10">
          <rect class="cls-2" x="248.34" y="163.12" width="18.32" height="1815.99" transform="translate(-248.04 92.33) rotate(-13.8)"/>
        </g>
        <g class="cls-10">
          <rect class="cls-2" x="215.71" y="167.06" width="51.42" height="1815.99" transform="translate(-249.42 88.59) rotate(-13.8)"/>
        </g>
        <g>
          <path class="cls-2" d="M599.98,919.87c-138.39,10.79-271.42,43.44-388.35,141.67-61.9-252.21-123.82-504.43-185.72-756.63,116.93-98.23,249.95-130.88,388.35-141.68,61.92,252.21,123.82,504.42,185.73,756.64Z"/>
          <path class="cls-2" d="M1020.51,909.34c-138.39,10.8-282.15-.27-420.53,10.53-61.91-252.22-123.81-504.43-185.73-756.64,138.39-10.79,282.14.27,420.53-10.52,61.92,252.21,123.82,504.42,185.73,756.64Z"/>
          <path class="cls-2" d="M1408.85,767.67c-116.93,98.23-249.95,130.89-388.34,141.67-61.91-252.21-123.81-504.43-185.73-756.64,138.38-10.79,271.42-43.44,388.35-141.67,61.91,252.21,123.81,504.42,185.72,756.64Z"/>
        </g>
      </g>
    </g>
    <g id="Capa_1" data-name="Capa 1">
      <g>
        <line class="cls-4" x1="11.1" y1="182.3" x2="47.96" y2="173.25"/>
        <line class="cls-4" x1="11.1" y1="182.3" x2="47.96" y2="173.25"/>
        <rect class="cls-4" x="220.37" y="151.64" width="50.6" height="1813.42" transform="translate(-245.31 89.13) rotate(-13.8)"/>
        <g class="cls-10">
          <rect class="cls-1" x="252.48" y="147.75" width="18.03" height="1813.42" transform="translate(-243.96 92.8) rotate(-13.8)"/>
        </g>
        <g class="cls-10">
          <rect class="cls-7" x="220.37" y="151.64" width="50.6" height="1813.42" transform="translate(-245.31 89.13) rotate(-13.8)"/>
        </g>
        <g>
          <path class="cls-5" d="M598.3,904.71c-136.27,10.31-267.18,42.44-382.02,140.05-61.81-251.85-123.64-503.71-185.46-755.56,114.84-97.61,245.74-129.75,382.01-140.06,61.83,251.85,123.65,503.71,185.47,755.57Z"/>
          <path class="cls-6" d="M1012.45,895.62c-136.27,10.31-277.9-1.21-414.15,9.09-61.82-251.86-123.64-503.72-185.47-755.57,136.26-10.31,277.88,1.21,414.15-9.09,61.83,251.85,123.65,503.71,185.47,755.57Z"/>
          <path class="cls-3" d="M1394.46,755.57c-114.84,97.61-245.74,129.75-382,140.05-61.82-251.86-123.64-503.71-185.47-755.57,136.26-10.3,267.18-42.43,382.01-140.05,61.82,251.85,123.64,503.71,185.45,755.57Z"/>
        </g>
      </g>
    </g>
  </g>
</svg>