<?xml version="1.0" encoding="UTF-8"?>
<svg xmlns="http://www.w3.org/2000/svg" viewBox="0 0 1080 1080">
  <defs>
    <style>
      .cls-1 {
        fill: #000;
      }

      .cls-1, .cls-2, .cls-3, .cls-4, .cls-5, .cls-6, .cls-7, .cls-8, .cls-9 {
        stroke-width: 0px;
      }

      .cls-10 {
        opacity: .28;
      }

      .cls-2 {
        fill: #885914;
      }

      .cls-11 {
        isolation: isolate;
      }

      .cls-3 {
        fill: #00853f;
      }

      .cls-4 {
        fill: #f7ab2d;
      }

      .cls-5 {
        fill: #f9ed42;
      }

      .cls-6 {
        fill: #de9b29;
      }

      .cls-7 {
        fill: #06873f;
      }

      .cls-8 {
        fill: #e31b23;
      }

      .cls-9 {
        fill: #fdef42;
      }

      .cls-12 {
        mix-blend-mode: multiply;
      }
    </style>
  </defs>
  <g class="cls-11">
    <g id="Calque_1" data-name="Calque 1">
      <g class="cls-10">
        <line class="cls-1" x1="178.56" y1="160.88" x2="197.37" y2="156.26"/>
        <line class="cls-1" x1="178.56" y1="160.88" x2="197.37" y2="156.26"/>
        <rect class="cls-1" x="283.76" y="145.42" width="25.83" height="912.1" transform="translate(-134.88 88.11) rotate(-13.8)"/>
        <g class="cls-12">
          <rect class="cls-1" x="300.15" y="143.44" width="9.2" height="912.09" transform="translate(-134.19 89.99) rotate(-13.8)"/>
        </g>
        <g class="cls-12">
          <rect class="cls-1" x="283.76" y="145.42" width="25.83" height="912.1" transform="translate(-134.88 88.11) rotate(-13.8)"/>
        </g>
        <g>
          <path class="cls-1" d="M476.77,523.52c-69.51,5.42-136.32,21.82-195.05,71.15-31.09-126.67-62.19-253.35-93.28-380.02,58.73-49.33,125.54-65.74,195.05-71.16,31.1,126.67,62.19,253.35,93.28,380.03Z"/>
          <path class="cls-1" d="M687.98,518.24c-69.51,5.42-141.71-.13-211.21,5.29-31.09-126.68-62.19-253.35-93.28-380.03,69.51-5.42,141.7.13,211.21-5.28,31.1,126.67,62.19,253.35,93.28,380.03Z"/>
          <path class="cls-1" d="M883.03,447.08c-58.73,49.33-125.54,65.74-195.05,71.15-31.09-126.68-62.19-253.35-93.28-380.03,69.5-5.42,136.32-21.82,195.05-71.16,31.09,126.67,62.19,253.35,93.28,380.03Z"/>
        </g>
      </g>
      <g>
        <line class="cls-4" x1="182.5" y1="153.62" x2="201.01" y2="149.07"/>
        <line class="cls-4" x1="182.5" y1="153.62" x2="201.01" y2="149.07"/>
        <rect class="cls-4" x="287.61" y="138.22" width="25.42" height="910.81" transform="translate(-132.9 88.75) rotate(-13.8)"/>
        <g class="cls-12">
          <rect class="cls-6" x="303.73" y="136.27" width="9.05" height="910.8" transform="translate(-132.22 90.6) rotate(-13.8)"/>
        </g>
        <g class="cls-12">
          <rect class="cls-2" x="287.61" y="138.22" width="25.42" height="910.81" transform="translate(-132.9 88.75) rotate(-13.8)"/>
        </g>
        <g>
          <path class="cls-3" d="M477.42,516.45c-68.44,5.18-134.19,21.31-191.87,70.34-31.05-126.49-62.1-252.99-93.15-379.49,57.68-49.03,123.43-65.17,191.87-70.34,31.05,126.5,62.1,252.99,93.15,379.49Z"/>
          <path class="cls-9" d="M685.43,511.89c-68.44,5.18-139.57-.61-208.01,4.57-31.05-126.5-62.1-252.99-93.15-379.49,68.44-5.18,139.57.61,208.01-4.56,31.05,126.5,62.1,252.99,93.15,379.49Z"/>
          <path class="cls-8" d="M877.3,441.55c-57.68,49.03-123.42,65.17-191.86,70.34-31.05-126.5-62.1-252.99-93.15-379.49,68.44-5.17,134.19-21.31,191.87-70.34,31.05,126.5,62.1,252.99,93.15,379.49Z"/>
        </g>
      </g>
      <g>
        <path class="cls-5" d="M638.18,415.79l-167.69,27.92c-10.32-61.99-20.64-123.99-30.96-185.98,55.9-9.31,111.79-18.61,167.69-27.92,10.32,61.99,20.64,123.99,30.96,185.98Z"/>
        <path class="cls-7" d="M520.55,316.3c2.9-17.19,5.82-34.48,9.05-53.63,7.39,13.39,13.98,24.97,20.12,36.79,1.12,2.16,2.44,4.22,3.43,6.24,1.92,3.93,3.8,4.74,7.92,3.97,13.14-2.47,26.36-4.56,39.57-6.63,2.17-.34,5.11-2.41,6.43,1.38,1.04,2.98-1.17,5.43-2.94,6.49-9.4,5.61-14.57,15.6-23.32,21.88-2.37,1.7-3.59,4.97-5.49,7.4-2.88,3.66-2.62,6.65,0,10.79,5.35,8.42,9.45,17.63,14.68,26.14,1.48,2.4,1.41,4.73,2.13,7.06.58,1.89,1.23,4.24-1.49,4.96-1.22.32-2.9-.25-4.12-.9-10.44-5.56-20.83-11.23-31.23-16.89-2.56-1.39-6.07-.25-8.07-3.08-.99,3.31-4.66,3.39-6.64,5.52-7.7,8.3-15.54,16.48-23.06,24.94-1.79,2.02-3.35,3.55-6.13,3.74-3.22.22-3.5.49-2.55-3.62,2.88-12.51,3.91-25.43,6.29-38.07.88-4.65.14-7.45-3.76-10.18-10.57-7.42-22.57-11.99-34.09-17.49-1.66-.79-3.7-1.32-5.17-2.52-1.04-.84-1.98-2.32-2.14-3.61-.19-1.56.95-2.58,2.78-2.76,2.55-.26,5.08-.8,7.62-1.23,13.18-2.19,26.36-4.39,40.17-6.69Z"/>
      </g>
    </g>
  </g>
</svg>