<?xml version="1.0" encoding="UTF-8"?>
<svg xmlns="http://www.w3.org/2000/svg" viewBox="0 0 1080 1080">
  <defs>
    <style>
      .cls-1 {
        fill: #ef3340;
      }

      .cls-1, .cls-2, .cls-3, .cls-4, .cls-5, .cls-6, .cls-7 {
        stroke-width: 0px;
      }

      .cls-2 {
        fill: #000;
      }

      .cls-8 {
        opacity: .28;
      }

      .cls-3 {
        fill: #885914;
      }

      .cls-9 {
        isolation: isolate;
      }

      .cls-4 {
        fill: #f7ab2d;
      }

      .cls-5 {
        fill: #009246;
      }

      .cls-6 {
        fill: #fff;
      }

      .cls-7 {
        fill: #de9b29;
      }

      .cls-10 {
        mix-blend-mode: multiply;
      }
    </style>
  </defs>
  <g class="cls-9">
    <g id="Calque_1" data-name="Calque 1">
      <g class="cls-8">
        <line class="cls-2" x1="176.56" y1="159.88" x2="195.37" y2="155.26"/>
        <line class="cls-2" x1="176.56" y1="159.88" x2="195.37" y2="155.26"/>
        <rect class="cls-2" x="281.76" y="144.42" width="25.83" height="912.1" transform="translate(-134.7 87.6) rotate(-13.8)"/>
        <g class="cls-10">
          <rect class="cls-2" x="298.15" y="142.44" width="9.2" height="912.09" transform="translate(-134.01 89.48) rotate(-13.8)"/>
        </g>
        <g class="cls-10">
          <rect class="cls-2" x="281.76" y="144.42" width="25.83" height="912.1" transform="translate(-134.7 87.6) rotate(-13.8)"/>
        </g>
        <g>
          <path class="cls-2" d="M474.77,522.52c-69.51,5.42-136.32,21.82-195.05,71.15-31.09-126.67-62.19-253.35-93.28-380.02,58.73-49.33,125.54-65.74,195.05-71.16,31.1,126.67,62.19,253.35,93.28,380.03Z"/>
          <path class="cls-2" d="M685.98,517.24c-69.51,5.42-141.71-.13-211.21,5.29-31.09-126.68-62.19-253.35-93.28-380.03,69.51-5.42,141.7.13,211.21-5.28,31.1,126.67,62.19,253.35,93.28,380.03Z"/>
          <path class="cls-2" d="M881.03,446.08c-58.73,49.33-125.54,65.74-195.05,71.15-31.09-126.68-62.19-253.35-93.28-380.03,69.5-5.42,136.32-21.82,195.05-71.16,31.09,126.67,62.19,253.35,93.28,380.03Z"/>
        </g>
      </g>
      <g>
        <line class="cls-4" x1="179" y1="152.08" x2="197.51" y2="147.53"/>
        <line class="cls-4" x1="179" y1="152.08" x2="197.51" y2="147.53"/>
        <rect class="cls-4" x="284.11" y="136.67" width="25.42" height="910.81" transform="translate(-132.64 87.87) rotate(-13.8)"/>
        <g class="cls-10">
          <rect class="cls-7" x="300.23" y="134.72" width="9.05" height="910.8" transform="translate(-131.96 89.72) rotate(-13.8)"/>
        </g>
        <g class="cls-10">
          <rect class="cls-3" x="284.11" y="136.67" width="25.42" height="910.81" transform="translate(-132.64 87.87) rotate(-13.8)"/>
        </g>
        <g>
          <path class="cls-5" d="M473.93,514.91c-68.44,5.18-134.19,21.31-191.87,70.34-31.05-126.49-62.1-252.99-93.15-379.49,57.68-49.03,123.43-65.17,191.87-70.34,31.05,126.5,62.1,252.99,93.15,379.49Z"/>
          <path class="cls-6" d="M681.94,510.34c-68.44,5.18-139.57-.61-208.01,4.57-31.05-126.5-62.1-252.99-93.15-379.49,68.44-5.18,139.57.61,208.01-4.56,31.05,126.5,62.1,252.99,93.15,379.49Z"/>
          <path class="cls-1" d="M873.8,440c-57.68,49.03-123.42,65.17-191.86,70.34-31.05-126.5-62.1-252.99-93.15-379.49,68.44-5.17,134.19-21.31,191.87-70.34,31.05,126.5,62.1,252.99,93.15,379.49Z"/>
        </g>
      </g>
    </g>
  </g>
</svg>