<?xml version="1.0" encoding="UTF-8"?>
<svg xmlns="http://www.w3.org/2000/svg" viewBox="0 0 1080 1080">
  <defs>
    <style>
      .cls-1 {
        fill: #000;
      }

      .cls-1, .cls-2, .cls-3, .cls-4, .cls-5, .cls-6, .cls-7 {
        stroke-width: 0px;
      }

      .cls-2 {
        fill: #e52320;
      }

      .cls-8 {
        opacity: .28;
      }

      .cls-3 {
        fill: #885914;
      }

      .cls-9 {
        isolation: isolate;
      }

      .cls-4 {
        fill: #f7ab2d;
      }

      .cls-5 {
        fill: #e42320;
      }

      .cls-6 {
        fill: #de9b29;
      }

      .cls-10 {
        mix-blend-mode: multiply;
      }

      .cls-7 {
        fill: #fefefe;
      }
    </style>
  </defs>
  <g class="cls-9">
    <g id="Calque_1" data-name="Calque 1">
      <g class="cls-8">
        <line class="cls-1" x1="178.56" y1="160.88" x2="197.37" y2="156.26"/>
        <line class="cls-1" x1="178.56" y1="160.88" x2="197.37" y2="156.26"/>
        <rect class="cls-1" x="283.76" y="145.42" width="25.83" height="912.1" transform="translate(-134.88 88.11) rotate(-13.8)"/>
        <g class="cls-10">
          <rect class="cls-1" x="300.15" y="143.44" width="9.2" height="912.09" transform="translate(-134.19 89.99) rotate(-13.8)"/>
        </g>
        <g class="cls-10">
          <rect class="cls-1" x="283.76" y="145.42" width="25.83" height="912.1" transform="translate(-134.88 88.11) rotate(-13.8)"/>
        </g>
        <g>
          <path class="cls-1" d="M476.77,523.52c-69.51,5.42-136.32,21.82-195.05,71.15-31.09-126.67-62.19-253.35-93.28-380.02,58.73-49.33,125.54-65.74,195.05-71.16,31.1,126.67,62.19,253.35,93.28,380.03Z"/>
          <path class="cls-1" d="M687.98,518.24c-69.51,5.42-141.71-.13-211.21,5.29-31.09-126.68-62.19-253.35-93.28-380.03,69.51-5.42,141.7.13,211.21-5.28,31.1,126.67,62.19,253.35,93.28,380.03Z"/>
          <path class="cls-1" d="M883.03,447.08c-58.73,49.33-125.54,65.74-195.05,71.15-31.09-126.68-62.19-253.35-93.28-380.03,69.5-5.42,136.32-21.82,195.05-71.16,31.09,126.67,62.19,253.35,93.28,380.03Z"/>
        </g>
      </g>
      <line class="cls-4" x1="182.5" y1="153.62" x2="201.01" y2="149.07"/>
      <line class="cls-4" x1="182.5" y1="153.62" x2="201.01" y2="149.07"/>
      <rect class="cls-4" x="287.61" y="138.22" width="25.42" height="910.81" transform="translate(-132.9 88.75) rotate(-13.8)"/>
      <g class="cls-10">
        <rect class="cls-6" x="303.73" y="136.27" width="9.05" height="910.8" transform="translate(-132.22 90.6) rotate(-13.8)"/>
      </g>
      <g class="cls-10">
        <rect class="cls-3" x="287.61" y="138.22" width="25.42" height="910.81" transform="translate(-132.9 88.75) rotate(-13.8)"/>
      </g>
    </g>
    <g id="Calque_4" data-name="Calque 4">
      <path class="cls-2" d="M192.4,207.31l93.15,379.49s52.19-84.9,306.73-72.58c0,0,202.35,9.31,285.02-72.67l-93.15-379.49s-77.82,76.41-229.82,70.34c0,0-203.1-8.26-278.22,26.17,0,0-72.31,28.38-83.71,48.74Z"/>
      <g>
        <path class="cls-5" d="M298.27,197.8c147.88-15.85,295.76-31.65,443.61-47.76,6.87-.75,8.39.47,9.11,7.36,9.92,95.54,20.14,191.05,30.59,286.54.66,6-.44,7.34-6.42,7.97-145.89,15.43-291.76,31.07-437.61,46.92-5.99.65-7.34-.43-7.96-6.43-10.26-98.22-20.82-196.4-31.31-294.6Z"/>
        <path class="cls-7" d="M481.12,359.23c-8.36.9-16.77,1.48-25.06,2.8-5.4.86-6.97-1.04-7.41-6.17-1.21-14.1-2.52-28.21-4.58-42.19-.99-6.71,1.66-7.87,7.35-8.36,15.75-1.36,31.41-3.95,47.18-4.69,9.5-.45,10.76-4.07,9.53-12.41-2.3-15.65-3.32-31.49-5.34-47.19-.77-5.96.56-8.45,6.97-8.92,13.75-1,27.47-2.54,41.13-4.39,5.78-.78,7.7,1.04,8.2,6.67,1.47,16.44,3.88,32.81,4.97,49.27.55,8.24,3.61,9.75,11.19,8.67,15.97-2.27,32.12-3.29,48.11-5.49,6.36-.87,8.11,1.07,8.56,7.11.97,13.1,2.25,26.2,4.22,39.18,1.09,7.18-.18,10.09-8.13,10.58-15.43.93-30.75,3.78-46.18,4.48-9.51.43-10.76,4.07-9.53,12.41,2.3,15.65,3.32,31.49,5.34,47.19.77,5.96-.56,8.45-6.97,8.92-13.75,1-27.47,2.54-41.13,4.39-5.78.78-7.7-1.04-8.2-6.67-1.47-16.44-3.88-32.81-4.97-49.27-.55-8.24-3.63-10.05-11.19-8.64-7.91,1.48-16.03,1.86-24.05,2.72Z"/>
      </g>
    </g>
  </g>
</svg>