<?xml version="1.0" encoding="UTF-8"?>
<svg xmlns="http://www.w3.org/2000/svg" viewBox="0 0 1080 1080">
  <defs>
    <style>
      .cls-1 {
        fill: #eaf7f1;
      }

      .cls-1, .cls-2, .cls-3, .cls-4, .cls-5, .cls-6, .cls-7, .cls-8, .cls-9, .cls-10, .cls-11, .cls-12, .cls-13, .cls-14, .cls-15, .cls-16, .cls-17, .cls-18, .cls-19, .cls-20 {
        stroke-width: 0px;
      }

      .cls-2 {
        fill: #caecdb;
      }

      .cls-3 {
        fill: #daf1e6;
      }

      .cls-4 {
        fill: #000;
      }

      .cls-5 {
        fill: #17ad61;
      }

      .cls-21 {
        opacity: .28;
      }

      .cls-6 {
        fill: #885914;
      }

      .cls-7 {
        fill: #b3e4cb;
      }

      .cls-22 {
        isolation: isolate;
      }

      .cls-8 {
        fill: #f7ab2d;
      }

      .cls-9 {
        fill: #ceeddd;
      }

      .cls-10 {
        fill: #d90012;
      }

      .cls-11 {
        fill: #c9ecda;
      }

      .cls-12 {
        fill: #4bbf84;
      }

      .cls-13 {
        fill: #d6f0e3;
      }

      .cls-14 {
        fill: #a4dfc1;
      }

      .cls-15 {
        fill: #00a551;
      }

      .cls-16 {
        fill: #fff;
      }

      .cls-17 {
        fill: #de9b29;
      }

      .cls-18 {
        fill: #e7f6ee;
      }

      .cls-23 {
        mix-blend-mode: multiply;
      }

      .cls-19 {
        fill: #d2efe0;
      }

      .cls-20 {
        fill: #dbf2e6;
      }
    </style>
  </defs>
  <g class="cls-22">
    <g id="Calque_1" data-name="Calque 1">
      <g class="cls-21">
        <line class="cls-4" x1="178.56" y1="160.88" x2="197.37" y2="156.26"/>
        <line class="cls-4" x1="178.56" y1="160.88" x2="197.37" y2="156.26"/>
        <rect class="cls-4" x="283.76" y="145.42" width="25.83" height="912.1" transform="translate(-134.88 88.11) rotate(-13.8)"/>
        <g class="cls-23">
          <rect class="cls-4" x="300.15" y="143.44" width="9.2" height="912.09" transform="translate(-134.19 89.99) rotate(-13.8)"/>
        </g>
        <g class="cls-23">
          <rect class="cls-4" x="283.76" y="145.42" width="25.83" height="912.1" transform="translate(-134.88 88.11) rotate(-13.8)"/>
        </g>
        <g>
          <path class="cls-4" d="M476.77,523.52c-69.51,5.42-136.32,21.82-195.05,71.15-31.09-126.67-62.19-253.35-93.28-380.02,58.73-49.33,125.54-65.74,195.05-71.16,31.1,126.67,62.19,253.35,93.28,380.03Z"/>
          <path class="cls-4" d="M687.98,518.24c-69.51,5.42-141.71-.13-211.21,5.29-31.09-126.68-62.19-253.35-93.28-380.03,69.51-5.42,141.7.13,211.21-5.28,31.1,126.67,62.19,253.35,93.28,380.03Z"/>
          <path class="cls-4" d="M883.03,447.08c-58.73,49.33-125.54,65.74-195.05,71.15-31.09-126.68-62.19-253.35-93.28-380.03,69.5-5.42,136.32-21.82,195.05-71.16,31.09,126.67,62.19,253.35,93.28,380.03Z"/>
        </g>
      </g>
      <line class="cls-8" x1="182.5" y1="153.62" x2="201.01" y2="149.07"/>
      <line class="cls-8" x1="182.5" y1="153.62" x2="201.01" y2="149.07"/>
      <rect class="cls-8" x="287.61" y="138.22" width="25.42" height="910.81" transform="translate(-132.9 88.75) rotate(-13.8)"/>
      <g class="cls-23">
        <rect class="cls-17" x="303.73" y="136.27" width="9.05" height="910.8" transform="translate(-132.22 90.6) rotate(-13.8)"/>
      </g>
      <g class="cls-23">
        <rect class="cls-6" x="287.61" y="138.22" width="25.42" height="910.81" transform="translate(-132.9 88.75) rotate(-13.8)"/>
      </g>
    </g>
    <g id="Drapeau_3_horizontal" data-name="Drapeau 3 horizontal">
      <path class="cls-10" d="M225.02,335.31s56.42-59.79,191.58-74.25c13.23-1.42,39.11,1.3,52.41,1.08l110.2-1.84s150.22,9.88,236.16-71l-31.23-127.24s-71.6,86.63-278.71,70.34c0,0-167.99-5.15-229.33,26.17,0,0-65.2,25.27-83.71,48.74l32.62,128Z"/>
      <path class="cls-16" d="M255.96,463.23s54.46-55.18,192.01-69.42c13.24-1.37,40.36-1.25,53.66-1.48l110.2-1.91s179.66-.4,238.29-59.55l-35.41-144.28s-68.39,81.52-276.66,70.82c0,0-167.99-5.35-229.33,27.22,0,0-65.2,26.27-83.71,50.68l30.94,127.92Z"/>
      <g>
        <path class="cls-15" d="M540.64,260.3l1.67-.26c2.91,6.51,7.81,9.69,15.03,10.28,10.29.84,10.7,1.52,14.43,10.45.37.87,1.73,1.32,2.61,1.99,1.79,1.34,4.63,1.19,5.71,3.53-4.02,2.86-8.83-2.03-13.66,2.34,11.23,5.28,20.34,12.3,32.6,15.56-5.13,4.11-9.96.16-14.15,4.18,6.26,3.31,13.25.87,19.17,4.76-5.25,3.84-11.83,2.19-17.84,7.28,8.18-.61,13.29,2.16,17.81,5.99,2.49,2.11,8.5,2.65,7.38,5.52-1.72,4.4-6.11.2-9.37-.14-2.72-.29-5.53.08-6.22,2.98-.68,2.88,2.29,3.39,4.3,4.23,5.44,2.3,10.98,4.37,16.3,6.9,2.05.97,5.76,2.01,4.41,5.07-1.47,3.35-4.73.94-6.56-.12-7.59-4.41-15.46-4.68-23.66-2.55-3.95,1.03-7.76.53-11.62-.63-6.09-1.82-8.1.87-7.94,6.87.23,8.75,4.87,14.62,11.37,19.57.09.62.19,1.24.28,1.87-3.57-.73-8.78-2.74-10.44-.15-4.06,6.3-7.25,1.77-9.75-.19-6.32-4.96-12.59-3.27-17.2,1.01-5.22,4.84-10.98,7.59-17.45,9.57-.06-.59-.12-1.18-.17-1.77,5.98-3.07,10.46-7.6,13-13.83,1.79-4.38,4.4-9.03-.05-13.26-4.75-4.52-8.87-.84-12.85,1.62-5.5,3.39-10.74,7.31-17.16,8.8-1.99.46-4.89,2.13-6.06-.48-1.36-3.04,2.11-3.22,3.87-4.24,4.37-2.54,8.84-4.91,13.12-7.59,1.93-1.21,3.81-3.24,1.87-5.55-1.43-1.7-3.66-.87-5.39.3-2.1,1.42-4.06,3.04-6.21,4.36-4.49,2.75-8.64,6.58-15.41,5.76,6.63-6.99,11.26-14.42,18.61-19.33,2.24-1.5,3.55-3.86,1.24-6.43-2.22-2.47-4-.55-5.74.87-.87.71-1.65,1.55-2.58,2.15-1.62,1.05-3.44,2.59-5.2.49-1.53-1.83.62-2.92,1.38-4.23,2.91-5.01,7.53-8.12,12.15-11.4,2.98-2.12,5.51-5.56,3.29-9.48-2.32-4.11-5.36-.51-8.1.06-1.31.27-2.76.76-3.99-2.02,5.98-5.14,12.26-10.51,17.33-17.04.88-1.14,3.93-2.32,2.33-3.3-7.75-4.76.48-5.48,1.81-7.7.93-1.56,4.47-3.22,3.51-4.04-5.68-4.86,1.07-6.09,2.39-8.48,1.87-3.39,4.87-6.14,5.79-10.12ZM524.11,327.66c-1.76,1.23-5.73-.42-5.56,3.43.12,2.65,2.39,3.8,4.99,2.71,2.45-1.03,6.21-1.44,5.73-5.02-.35-2.62-3.19-1.21-5.16-1.12ZM578.91,326.61c-1.9,1.04-4.87,1.57-4.71,4.7.07,1.41,1.99,1.9,3.38,1.66,2.57-.44,5.02-1.46,4.79-4.61-.1-1.39-1.6-2.14-3.46-1.75ZM590.53,334.35c1.82-1,3.96-2.04,3.6-4.75-.2-1.5-1.62-2.29-3.15-1.95-2.31.51-4.25,1.86-4.32,4.37-.06,2.21,1.92,2.29,3.86,2.33ZM568.89,299.9c-1.04-1.97-2.63-2.7-4.77-2.01-1.73.56-2.94,1.73-2.24,3.61.69,1.86,2.52,1.93,4.18,1.59,1.65-.34,3.22-.94,2.82-3.19ZM524.93,312.73c1.87-.27,3.13-1.02,2.85-2.66-.43-2.51-2.42-3.59-4.75-3.79-1.7-.14-2.51,1.13-2.32,2.66.33,2.57,2.08,3.69,4.21,3.79ZM538.22,293.58c-.21-1.41-1.38-1.93-2.34-1.46-1.71.85-3.27,2.21-3.54,4.25-.12.93.27,2.38,1.85,1.83,2.16-.76,3.85-2.07,4.03-4.63ZM544.08,291.01c1.78-.63,3.91-1.1,3.35-3.69-.24-1.11-1.4-1.67-2.57-1.09-1.65.81-3.9,1.32-3.44,3.85.24,1.3,1.56,1.15,2.66.93ZM556.81,319.63c-.92-.78-1.99-2.2-3.38-2.68-.96-.33-1.77,1.14-1.73,2.34.05,1.99,1.29,3.13,3.14,3.15,1.12.02,1.92-.98,1.97-2.82ZM536.75,339.86c-1.2.26-1.75,1.09-1.23,2.31.63,1.48.95,3.52,2.85,3.73,1.9.21,2.06-1.44,1.75-2.85-.37-1.69-1.22-3.08-3.37-3.2ZM533.85,304.86c-.58-1.27-1.68-1.81-3.17-1.05-1.35.69-2.1,1.81-1.44,3.36.53,1.23,1.7,1.3,2.76.97,1.4-.44,2.4-1.33,1.85-3.28ZM556.18,340.05c-.69-1.24-1.62-2.19-3.16-1.95-1.44.23-1.53,1.49-1.35,2.51.27,1.55,1.4,2.24,2.96,1.86,1.2-.29,1.71-1.17,1.56-2.42ZM578.81,308.73c-1.02-1.53-1.83-2.67-3.56-2.2-1.37.37-1.82,1.68-1.59,2.61.34,1.36,1.52,2.56,3.15,1.79.86-.41,1.39-1.5,2-2.2Z"/>
        <path class="cls-5" d="M586.88,379.97c-1.39-1.34-2.79-2.67-4.18-4.01-.09-.62-.19-1.24-.28-1.87,3.21.9,6.66,1.45,7.81,5.35l-3.35.53Z"/>
        <path class="cls-12" d="M527.85,386.21c-.41,1.08-.83,2.16-1.24,3.23l-3.35.53c.76-2.41,1.55-4.8,4.41-5.53.06.59.12,1.18.17,1.77Z"/>
        <path class="cls-1" d="M524.11,327.66c1.97-.09,4.8-1.5,5.16,1.12.48,3.58-3.27,4-5.73,5.02-2.6,1.09-4.88-.06-4.99-2.71-.17-3.85,3.8-2.21,5.56-3.43Z"/>
        <path class="cls-2" d="M578.91,326.61c1.85-.38,3.35.36,3.46,1.75.23,3.14-2.22,4.17-4.79,4.61-1.39.24-3.31-.25-3.38-1.66-.16-3.13,2.81-3.66,4.71-4.7Z"/>
        <path class="cls-9" d="M590.53,334.35c-1.94-.04-3.92-.12-3.86-2.33.07-2.51,2.01-3.86,4.32-4.37,1.53-.34,2.95.45,3.15,1.95.36,2.71-1.78,3.75-3.6,4.75Z"/>
        <path class="cls-18" d="M568.9,299.9c.39,2.24-1.18,2.84-2.82,3.18-1.67.34-3.49.27-4.18-1.59-.7-1.88.5-3.05,2.24-3.61,2.14-.69,3.73.04,4.77,2.02Z"/>
        <path class="cls-14" d="M524.93,312.73c-2.14-.1-3.89-1.22-4.21-3.79-.19-1.52.62-2.8,2.32-2.66,2.33.2,4.32,1.28,4.75,3.79.28,1.63-.98,2.39-2.85,2.66Z"/>
        <path class="cls-2" d="M538.22,293.58c-.18,2.55-1.86,3.87-4.03,4.62-1.58.55-1.98-.9-1.85-1.83.27-2.04,1.83-3.4,3.54-4.25.96-.48,2.13.04,2.34,1.46Z"/>
        <path class="cls-13" d="M544.07,291c-1.09.23-2.41.37-2.65-.92-.47-2.53,1.79-3.04,3.44-3.85,1.17-.58,2.33-.02,2.57,1.09.56,2.59-1.57,3.05-3.36,3.68Z"/>
        <path class="cls-11" d="M556.81,319.63c-.05,1.84-.86,2.84-1.97,2.82-1.85-.03-3.09-1.17-3.14-3.15-.03-1.21.78-2.67,1.73-2.34,1.39.48,2.45,1.89,3.38,2.68Z"/>
        <path class="cls-19" d="M536.75,339.86c2.16.12,3,1.5,3.37,3.2.31,1.41.15,3.06-1.75,2.85-1.9-.21-2.22-2.26-2.85-3.73-.52-1.23.03-2.06,1.23-2.31Z"/>
        <path class="cls-20" d="M533.85,304.86c.55,1.95-.44,2.84-1.85,3.28-1.05.33-2.23.26-2.76-.97-.66-1.55.09-2.67,1.44-3.36,1.49-.76,2.59-.22,3.17,1.05Z"/>
        <path class="cls-7" d="M556.17,340.05c.16,1.25-.35,2.13-1.55,2.42-1.55.37-2.69-.31-2.96-1.86-.18-1.03-.09-2.29,1.35-2.51,1.55-.24,2.48.71,3.16,1.96Z"/>
        <path class="cls-3" d="M578.81,308.73c-.61.7-1.14,1.79-2,2.2-1.63.77-2.8-.42-3.15-1.79-.23-.92.21-2.23,1.59-2.61,1.73-.47,2.54.66,3.56,2.2Z"/>
      </g>
      <path class="cls-10" d="M285.55,586.79s49.47-54.6,190.39-66.64c11.6-.99,31.33-.28,54.13-2.09,7.43-.59,36.07-.23,43.52-.19,63.7.37,97.5-1.63,113.55-3.04,22.13-1.94,103.19.39,190.22-70.76l-27.23-113.2s-81.66,61.53-289.42,56.82c0,0-118.82-7.13-231.27,33.02,0,0-56.46,16.92-73.48,42.53l29.59,123.56Z"/>
    </g>
  </g>
</svg>