<?xml version="1.0" encoding="UTF-8"?>
<svg xmlns="http://www.w3.org/2000/svg" viewBox="0 0 1080 1080">
  <defs>
    <style>
      .cls-1 {
        fill: #000;
      }

      .cls-1, .cls-2, .cls-3, .cls-4, .cls-5, .cls-6 {
        stroke-width: 0px;
      }

      .cls-7 {
        opacity: .28;
      }

      .cls-2 {
        fill: #885914;
      }

      .cls-8 {
        isolation: isolate;
      }

      .cls-3 {
        fill: #f7ab2d;
      }

      .cls-4 {
        fill: #f9f9f7;
      }

      .cls-5 {
        fill: #bc002d;
      }

      .cls-6 {
        fill: #de9b29;
      }

      .cls-9 {
        mix-blend-mode: multiply;
      }
    </style>
  </defs>
  <g class="cls-8">
    <g id="Calque_1" data-name="Calque 1">
      <g class="cls-7">
        <line class="cls-1" x1="178.56" y1="160.88" x2="197.37" y2="156.26"/>
        <line class="cls-1" x1="178.56" y1="160.88" x2="197.37" y2="156.26"/>
        <rect class="cls-1" x="283.76" y="145.42" width="25.83" height="912.1" transform="translate(-134.88 88.11) rotate(-13.8)"/>
        <g class="cls-9">
          <rect class="cls-1" x="300.15" y="143.44" width="9.2" height="912.09" transform="translate(-134.19 89.99) rotate(-13.8)"/>
        </g>
        <g class="cls-9">
          <rect class="cls-1" x="283.76" y="145.42" width="25.83" height="912.1" transform="translate(-134.88 88.11) rotate(-13.8)"/>
        </g>
        <g>
          <path class="cls-1" d="M476.77,523.52c-69.51,5.42-136.32,21.82-195.05,71.15-31.09-126.67-62.19-253.35-93.28-380.02,58.73-49.33,125.54-65.74,195.05-71.16,31.1,126.67,62.19,253.35,93.28,380.03Z"/>
          <path class="cls-1" d="M687.98,518.24c-69.51,5.42-141.71-.13-211.21,5.29-31.09-126.68-62.19-253.35-93.28-380.03,69.51-5.42,141.7.13,211.21-5.28,31.1,126.67,62.19,253.35,93.28,380.03Z"/>
          <path class="cls-1" d="M883.03,447.08c-58.73,49.33-125.54,65.74-195.05,71.15-31.09-126.68-62.19-253.35-93.28-380.03,69.5-5.42,136.32-21.82,195.05-71.16,31.09,126.67,62.19,253.35,93.28,380.03Z"/>
        </g>
      </g>
      <line class="cls-3" x1="182.5" y1="153.62" x2="201.01" y2="149.07"/>
      <line class="cls-3" x1="182.5" y1="153.62" x2="201.01" y2="149.07"/>
      <rect class="cls-3" x="287.61" y="138.22" width="25.42" height="910.81" transform="translate(-132.9 88.75) rotate(-13.8)"/>
      <g class="cls-9">
        <rect class="cls-6" x="303.73" y="136.27" width="9.05" height="910.8" transform="translate(-132.22 90.6) rotate(-13.8)"/>
      </g>
      <g class="cls-9">
        <rect class="cls-2" x="287.61" y="138.22" width="25.42" height="910.81" transform="translate(-132.9 88.75) rotate(-13.8)"/>
      </g>
    </g>
    <g id="Calque_4" data-name="Calque 4">
      <path class="cls-4" d="M192.4,207.31l93.15,379.49s52.19-84.9,306.73-72.58c0,0,202.35,9.31,285.02-72.67l-93.15-379.49s-77.82,76.41-229.82,70.34c0,0-203.1-8.26-278.22,26.17,0,0-72.31,28.38-83.71,48.74Z"/>
      <circle class="cls-5" cx="535.73" cy="324.42" r="82"/>
    </g>
  </g>
</svg>