<?xml version="1.0" encoding="UTF-8"?>
<svg xmlns="http://www.w3.org/2000/svg" viewBox="0 0 1080 1080">
  <defs>
    <style>
      .cls-1 {
        fill: #ef3340;
      }

      .cls-1, .cls-2, .cls-3, .cls-4, .cls-5, .cls-6 {
        stroke-width: 0px;
      }

      .cls-2 {
        fill: #000;
      }

      .cls-3 {
        fill: #fdda25;
      }

      .cls-7 {
        opacity: .28;
      }

      .cls-4 {
        fill: #885914;
      }

      .cls-8 {
        isolation: isolate;
      }

      .cls-5 {
        fill: #f7ab2d;
      }

      .cls-6 {
        fill: #de9b29;
      }

      .cls-9 {
        mix-blend-mode: multiply;
      }
    </style>
  </defs>
  <g class="cls-8">
    <g id="Calque_1" data-name="Calque 1">
      <g class="cls-7">
        <line class="cls-2" x1="202.39" y1="200.21" x2="219.57" y2="195.99"/>
        <line class="cls-2" x1="202.39" y1="200.21" x2="219.57" y2="195.99"/>
        <rect class="cls-2" x="298.46" y="186.09" width="23.59" height="832.91" transform="translate(-134.75 91.38) rotate(-13.8)"/>
        <g class="cls-9">
          <rect class="cls-2" x="313.43" y="184.28" width="8.4" height="832.91" transform="translate(-134.11 93.09) rotate(-13.8)"/>
        </g>
        <g class="cls-9">
          <rect class="cls-2" x="298.46" y="186.09" width="23.59" height="832.91" transform="translate(-134.75 91.38) rotate(-13.8)"/>
        </g>
        <g>
          <path class="cls-2" d="M474.71,531.37c-63.47,4.95-124.49,19.93-178.12,64.98-28.39-115.68-56.79-231.36-85.18-347.03,53.63-45.05,114.64-60.03,178.12-64.98,28.4,115.68,56.79,231.36,85.18,347.03Z"/>
          <path class="cls-2" d="M667.58,526.54c-63.47,4.95-129.41-.12-192.88,4.83-28.39-115.68-56.79-231.36-85.18-347.03,63.47-4.95,129.4.12,192.88-4.83,28.4,115.68,56.79,231.36,85.18,347.03Z"/>
          <path class="cls-2" d="M845.7,461.56c-53.63,45.05-114.64,60.03-178.11,64.98-28.39-115.68-56.79-231.36-85.18-347.03,63.47-4.95,124.49-19.92,178.12-64.98,28.39,115.68,56.79,231.36,85.18,347.03Z"/>
        </g>
      </g>
      <g>
        <line class="cls-5" x1="204.62" y1="193.08" x2="221.52" y2="188.93"/>
        <line class="cls-5" x1="204.62" y1="193.08" x2="221.52" y2="188.93"/>
        <rect class="cls-5" x="300.6" y="179.02" width="23.21" height="831.73" transform="translate(-132.86 91.62) rotate(-13.8)"/>
        <g class="cls-9">
          <rect class="cls-6" x="315.33" y="177.24" width="8.27" height="831.73" transform="translate(-132.24 93.31) rotate(-13.8)"/>
        </g>
        <g class="cls-9">
          <rect class="cls-4" x="300.6" y="179.02" width="23.21" height="831.73" transform="translate(-132.86 91.62) rotate(-13.8)"/>
        </g>
        <g>
          <path class="cls-2" d="M473.94,524.41c-62.5,4.73-122.54,19.46-175.21,64.23-28.35-115.51-56.71-231.03-85.06-346.54,52.67-44.77,112.71-59.51,175.21-64.24,28.36,115.51,56.71,231.03,85.06,346.54Z"/>
          <path class="cls-3" d="M663.89,520.24c-62.5,4.73-127.46-.56-189.95,4.17-28.35-115.52-56.71-231.03-85.06-346.54,62.5-4.73,127.45.56,189.95-4.17,28.36,115.51,56.71,231.03,85.06,346.54Z"/>
          <path class="cls-1" d="M839.1,456.01c-52.67,44.77-112.71,59.51-175.21,64.23-28.35-115.51-56.71-231.03-85.06-346.54,62.5-4.73,122.54-19.46,175.21-64.24,28.35,115.51,56.71,231.03,85.06,346.54Z"/>
        </g>
      </g>
    </g>
  </g>
</svg>