<?xml version="1.0" encoding="UTF-8"?>
<svg xmlns="http://www.w3.org/2000/svg" viewBox="0 0 707.64 985.38">
  <defs>
    <style>
      .cls-1 {
        fill: #ce1126;
      }

      .cls-1, .cls-2, .cls-3, .cls-4, .cls-5, .cls-6, .cls-7, .cls-8 {
        stroke-width: 0px;
      }

      .cls-2 {
        fill: #000;
      }

      .cls-3 {
        fill: #885914;
      }

      .cls-9 {
        isolation: isolate;
      }

      .cls-4 {
        fill: #f7ab2d;
      }

      .cls-5 {
        fill: none;
      }

      .cls-10 {
        opacity: .28;
      }

      .cls-6 {
        fill: #002b7f;
      }

      .cls-7 {
        fill: #de9b29;
      }

      .cls-8 {
        fill: #fdef42;
      }

      .cls-11 {
        mix-blend-mode: multiply;
      }
    </style>
  </defs>
  <g class="cls-9">
    <g id="Calque_1" data-name="Calque 1">
      <g class="cls-10">
        <line class="cls-5" x1="3.17" y1="98.83" x2="21.99" y2="94.21"/>
        <line class="cls-5" x1="3.17" y1="98.83" x2="21.99" y2="94.21"/>
        <rect class="cls-2" x="108.41" y="83.36" width="25.83" height="912.1" transform="translate(-125.17 44.51) rotate(-13.8)"/>
        <g class="cls-11">
          <rect class="cls-2" x="124.78" y="81.38" width="9.2" height="912.09" transform="translate(-124.46 46.38) rotate(-13.8)"/>
        </g>
        <g class="cls-11">
          <rect class="cls-2" x="108.41" y="83.36" width="25.83" height="912.1" transform="translate(-125.17 44.51) rotate(-13.8)"/>
        </g>
        <g>
          <path class="cls-2" d="M301.38,461.47c-69.51,5.42-136.32,21.82-195.05,71.15-31.09-126.67-62.19-253.35-93.28-380.02,58.73-49.33,125.54-65.74,195.05-71.16,31.1,126.67,62.19,253.35,93.28,380.03h0Z"/>
          <path class="cls-2" d="M512.6,456.18c-69.51,5.42-141.71-.13-211.21,5.29-31.09-126.68-62.19-253.35-93.28-380.03,69.51-5.42,141.7.13,211.21-5.28,31.1,126.67,62.19,253.35,93.28,380.03h0Z"/>
          <path class="cls-2" d="M707.64,385.03c-58.73,49.33-125.54,65.74-195.05,71.15-31.09-126.68-62.19-253.35-93.28-380.03,69.5-5.42,136.32-21.82,195.05-71.16,31.09,126.67,62.19,253.35,93.28,380.03h0Z"/>
        </g>
      </g>
      <line class="cls-5" x1="7.11" y1="91.56" x2="25.63" y2="87.02"/>
      <line class="cls-5" x1="7.11" y1="91.56" x2="25.63" y2="87.02"/>
      <rect class="cls-4" x="112.24" y="76.15" width="25.42" height="910.81" transform="translate(-123.19 45.15) rotate(-13.8)"/>
      <g class="cls-11">
        <rect class="cls-7" x="128.36" y="74.2" width="9.05" height="910.8" transform="translate(-122.49 46.98) rotate(-13.8)"/>
      </g>
      <g class="cls-11">
        <rect class="cls-3" x="112.24" y="76.15" width="25.42" height="910.81" transform="translate(-123.19 45.15) rotate(-13.8)"/>
      </g>
      <g id="Drapeau_3_vertical" data-name="Drapeau 3 vertical">
        <g id="Couleurs">
          <g>
            <path class="cls-6" d="M302.04,454.4c-68.44,5.18-134.19,21.31-191.87,70.34-31.05-126.49-62.1-252.99-93.15-379.49,57.68-49.03,123.43-65.17,191.87-70.34,31.05,126.5,62.1,252.99,93.15,379.49Z"/>
            <path class="cls-8" d="M510.05,449.83c-68.44,5.18-139.57-.61-208.01,4.57-31.05-126.5-62.1-252.99-93.15-379.49,68.44-5.18,139.57.61,208.01-4.56,31.05,126.5,62.1,252.99,93.15,379.49h0Z"/>
            <path class="cls-1" d="M701.91,379.49c-57.68,49.03-123.42,65.17-191.86,70.34-31.05-126.5-62.1-252.99-93.15-379.49,68.44-5.17,134.19-21.31,191.87-70.34,31.05,126.5,62.1,252.99,93.15,379.49h-.01Z"/>
          </g>
        </g>
      </g>
    </g>
  </g>
</svg>