<?xml version="1.0" encoding="UTF-8"?>
<svg xmlns="http://www.w3.org/2000/svg" viewBox="0 0 1080 1080">
  <defs>
    <style>
      .cls-1 {
        fill: #006e3b;
      }

      .cls-1, .cls-2, .cls-3, .cls-4, .cls-5, .cls-6, .cls-7 {
        stroke-width: 0px;
      }

      .cls-2 {
        fill: #fe0002;
      }

      .cls-3 {
        fill: #000;
      }

      .cls-8 {
        opacity: .28;
      }

      .cls-4 {
        fill: #885914;
      }

      .cls-9 {
        isolation: isolate;
      }

      .cls-5 {
        fill: #fee600;
      }

      .cls-6 {
        fill: #f7ab2d;
      }

      .cls-7 {
        fill: #de9b29;
      }

      .cls-10 {
        mix-blend-mode: multiply;
      }
    </style>
  </defs>
  <g class="cls-9">
    <g id="Calque_1" data-name="Calque 1">
      <g class="cls-8">
        <line class="cls-3" x1="178.56" y1="160.88" x2="197.37" y2="156.26"/>
        <line class="cls-3" x1="178.56" y1="160.88" x2="197.37" y2="156.26"/>
        <rect class="cls-3" x="283.76" y="145.42" width="25.83" height="912.1" transform="translate(-134.88 88.11) rotate(-13.8)"/>
        <g class="cls-10">
          <rect class="cls-3" x="300.15" y="143.44" width="9.2" height="912.09" transform="translate(-134.19 89.99) rotate(-13.8)"/>
        </g>
        <g class="cls-10">
          <rect class="cls-3" x="283.76" y="145.42" width="25.83" height="912.1" transform="translate(-134.88 88.11) rotate(-13.8)"/>
        </g>
        <g>
          <path class="cls-3" d="M476.77,523.52c-69.51,5.42-136.32,21.82-195.05,71.15-31.09-126.67-62.19-253.35-93.28-380.02,58.73-49.33,125.54-65.74,195.05-71.16,31.1,126.67,62.19,253.35,93.28,380.03Z"/>
          <path class="cls-3" d="M687.98,518.24c-69.51,5.42-141.71-.13-211.21,5.29-31.09-126.68-62.19-253.35-93.28-380.03,69.51-5.42,141.7.13,211.21-5.28,31.1,126.67,62.19,253.35,93.28,380.03Z"/>
          <path class="cls-3" d="M883.03,447.08c-58.73,49.33-125.54,65.74-195.05,71.15-31.09-126.68-62.19-253.35-93.28-380.03,69.5-5.42,136.32-21.82,195.05-71.16,31.09,126.67,62.19,253.35,93.28,380.03Z"/>
        </g>
      </g>
      <line class="cls-6" x1="182.5" y1="153.62" x2="201.01" y2="149.07"/>
      <line class="cls-6" x1="182.5" y1="153.62" x2="201.01" y2="149.07"/>
      <rect class="cls-6" x="287.61" y="138.22" width="25.42" height="910.81" transform="translate(-132.9 88.75) rotate(-13.8)"/>
      <g class="cls-10">
        <rect class="cls-7" x="303.73" y="136.27" width="9.05" height="910.8" transform="translate(-132.22 90.6) rotate(-13.8)"/>
      </g>
      <g class="cls-10">
        <rect class="cls-4" x="287.61" y="138.22" width="25.42" height="910.81" transform="translate(-132.9 88.75) rotate(-13.8)"/>
      </g>
    </g>
    <g id="Drapeau_3_horizontal" data-name="Drapeau 3 horizontal">
      <path class="cls-5" d="M225.02,335.31s56.42-59.79,191.58-74.25c13.23-1.42,39.11,1.3,52.41,1.08l110.2-1.84s150.22,9.88,236.16-71l-31.23-127.24s-71.6,86.63-278.71,70.34c0,0-167.99-5.15-229.33,26.17,0,0-65.2,25.27-83.71,48.74l32.62,128Z"/>
      <path class="cls-1" d="M255.96,463.23s54.46-55.18,192.01-69.42c13.24-1.37,40.36-1.25,53.66-1.48l110.2-1.91s179.66-.4,238.29-59.55l-35.41-144.28s-68.39,81.52-276.66,70.82c0,0-167.99-5.35-229.33,27.22,0,0-65.2,26.27-83.71,50.68l30.94,127.92Z"/>
      <path class="cls-2" d="M285.55,586.79s49.47-54.6,190.39-66.64c11.6-.99,31.33-.28,54.13-2.09,7.43-.59,36.07-.23,43.52-.19,63.7.37,97.5-1.63,113.55-3.04,22.13-1.94,103.19.39,190.22-70.76l-27.23-113.2s-81.66,61.53-289.42,56.82c0,0-118.82-7.13-231.27,33.02,0,0-56.46,16.92-73.48,42.53l29.59,123.56Z"/>
    </g>
  </g>
</svg>