<?xml version="1.0" encoding="UTF-8"?>
<svg xmlns="http://www.w3.org/2000/svg" viewBox="0 0 707.64 985.38">
  <defs>
    <style>
      .cls-1 {
        fill: #bd282d;
      }

      .cls-1, .cls-2, .cls-3, .cls-4, .cls-5, .cls-6, .cls-7, .cls-8, .cls-9, .cls-10, .cls-11 {
        stroke-width: 0px;
      }

      .cls-2 {
        fill: #000;
      }

      .cls-3 {
        fill: #c1272d;
      }

      .cls-4 {
        fill: #885914;
      }

      .cls-12 {
        isolation: isolate;
      }

      .cls-5 {
        fill: #f7ab2d;
      }

      .cls-6 {
        fill: none;
      }

      .cls-7 {
        fill: #c0272d;
      }

      .cls-8 {
        fill: #ba292d;
      }

      .cls-9 {
        fill: #016133;
      }

      .cls-10 {
        fill: #b9292d;
      }

      .cls-13 {
        opacity: .28;
      }

      .cls-11 {
        fill: #de9b29;
      }

      .cls-14 {
        mix-blend-mode: multiply;
      }
    </style>
  </defs>
  <g class="cls-12">
    <g id="Calque_1" data-name="Calque 1">
      <g class="cls-13">
        <line class="cls-6" x1="3.17" y1="98.83" x2="21.99" y2="94.21"/>
        <line class="cls-6" x1="3.17" y1="98.83" x2="21.99" y2="94.21"/>
        <rect class="cls-2" x="108.41" y="83.36" width="25.83" height="912.1" transform="translate(-125.17 44.51) rotate(-13.8)"/>
        <g class="cls-14">
          <rect class="cls-2" x="124.78" y="81.38" width="9.2" height="912.09" transform="translate(-124.46 46.38) rotate(-13.8)"/>
        </g>
        <g class="cls-14">
          <rect class="cls-2" x="108.41" y="83.36" width="25.83" height="912.1" transform="translate(-125.17 44.51) rotate(-13.8)"/>
        </g>
        <g>
          <path class="cls-2" d="M301.38,461.47c-69.51,5.42-136.32,21.82-195.05,71.15-31.09-126.67-62.19-253.35-93.28-380.02,58.73-49.33,125.54-65.74,195.05-71.16,31.1,126.67,62.19,253.35,93.28,380.03h0Z"/>
          <path class="cls-2" d="M512.6,456.18c-69.51,5.42-141.71-.13-211.21,5.29-31.09-126.68-62.19-253.35-93.28-380.03,69.51-5.42,141.7.13,211.21-5.28,31.1,126.67,62.19,253.35,93.28,380.03h0Z"/>
          <path class="cls-2" d="M707.64,385.03c-58.73,49.33-125.54,65.74-195.05,71.15-31.09-126.68-62.19-253.35-93.28-380.03,69.5-5.42,136.32-21.82,195.05-71.16,31.09,126.67,62.19,253.35,93.28,380.03h0Z"/>
        </g>
      </g>
      <line class="cls-6" x1="7.11" y1="91.56" x2="25.63" y2="87.02"/>
      <line class="cls-6" x1="7.11" y1="91.56" x2="25.63" y2="87.02"/>
      <rect class="cls-5" x="112.24" y="76.15" width="25.42" height="910.81" transform="translate(-123.19 45.15) rotate(-13.8)"/>
      <g class="cls-14">
        <rect class="cls-11" x="128.36" y="74.2" width="9.05" height="910.8" transform="translate(-122.49 46.98) rotate(-13.8)"/>
      </g>
      <g class="cls-14">
        <rect class="cls-4" x="112.24" y="76.15" width="25.42" height="910.81" transform="translate(-123.19 45.15) rotate(-13.8)"/>
      </g>
      <g id="Calque_4" data-name="Calque 4">
        <path class="cls-3" d="M17.02,145.25l93.15,379.49s52.19-84.9,306.73-72.58c0,0,202.35,9.31,285.02-72.67L608.77,0s-77.82,76.41-229.82,70.34c0,0-203.1-8.26-278.22,26.17,0,0-72.31,28.38-83.71,48.74h0Z"/>
        <g>
          <path class="cls-7" d="M269.65,273.15c-5.06-33.25-10.05-66.51-15.23-99.74-.82-5.24-1.65-8.41,5.98-9.51,60.23-8.68,120.37-17.93,180.5-27.28,5.63-.88,7.52-.53,8.46,5.91,9.91,67.4,20.18,134.75,30.69,202.06.9,5.75-.61,6.63-5.76,7.39-60.62,8.99-121.23,18.04-181.74,27.74-7.53,1.21-7.08-2.19-7.77-6.81-4.99-33.26-10.08-66.5-15.13-99.75h0Z"/>
          <path class="cls-9" d="M351.64,165.23c9.95,19.67,18.69,35.95,26.43,52.7,3.58,7.74,8.12,9.62,16.18,8.17,17.67-3.19,35.49-5.54,53.25-8.24.57,1.02,1.15,2.05,1.72,3.07-11.4,11.3-22,23.6-34.44,33.6-11.18,8.99-10.93,16.94-4.33,28.25,8.14,13.94,14.71,28.8,20.11,45.05-16.34-8.45-32.89-16.54-48.94-25.49-7.3-4.07-12.09-3.39-17.78,2.76-9.95,10.75-20.74,20.72-31.2,31-2.45,2.41-5.22,5.78-8.75,3.55-2.88-1.82-.28-5.45.13-8.12,2.29-14.9,4.62-29.8,7.55-44.58,1.41-7.09-.5-10.94-7.14-14.15-16.59-8.02-32.8-16.84-49.17-25.34.05-1.17.1-2.33.15-3.5,16.33-2.48,32.59-5.75,49.02-7.17,11.91-1.03,17.26-5.47,18.45-17.78,1.63-16.9,5.35-33.59,8.75-53.8v.02Z"/>
          <path class="cls-7" d="M390,262.48c.47,3.92-16.5,22.38-20.78,22.61-5.25.28-24.98-12.95-25.23-16.92-1.24-19.62,4.22-26.08,24.14-28.62,8.94-1.14,20.42,10.9,21.87,22.94h0Z"/>
          <path class="cls-10" d="M334.97,320.43c2.26-13.05,3.78-21.84,5.31-30.62.42-2.43.53-6.39,3.37-5.87,6.27,1.17,12.25,4.17,16.77,8.68,2.08,2.08-1.37,4.41-3.07,6.09-6.56,6.49-13.24,12.87-22.37,21.71h0Z"/>
          <path class="cls-1" d="M422.96,234.01c-5.15,5.09-10.05,10.47-15.55,15.15-2.85,2.43-5.12,9.09-9.84,5.28-4.48-3.61-6.83-9.76-7.84-15.71-.49-2.89,2.69-2.79,4.59-3.1,9.17-1.5,18.36-2.84,27.55-4.23.36.87.73,1.74,1.09,2.61Z"/>
          <path class="cls-8" d="M408.76,306.05c-6.12-3.09-12.06-6.62-18.4-9.17-9.92-3.97-11.05-7.99-2.67-15.62,6.7-6.09,9.95-6.39,13.39,2.44,2.77,7.1,6.66,13.76,10.05,20.61-.79.58-1.58,1.15-2.37,1.73h0Z"/>
          <path class="cls-8" d="M355.59,196.99c6.35,6.38,8.37,13.48,11.64,19.81,1.83,3.54,6.55,8.01,3.36,11.21-4.21,4.22-11.17,3.59-17.11,3.55-4.02-.03-2.87-3.45-2.51-5.81,1.41-9.23,2.95-18.45,4.62-28.76h0Z"/>
          <path class="cls-1" d="M305.2,249.08c6.64-1.01,13.44-1.43,19.9-3.15,11.79-3.15,13.77,1.05,11.29,11.9-1.67,7.33-3.43,9.87-10.6,5.59-6.86-4.09-14.13-7.5-21.22-11.21.21-1.04.42-2.08.63-3.12h0Z"/>
        </g>
      </g>
    </g>
  </g>
</svg>