<?xml version="1.0" encoding="UTF-8"?>
<svg id="Calque_1" data-name="Calque 1" xmlns="http://www.w3.org/2000/svg" viewBox="0 0 976.44 876.9">
  <defs>
    <style>
      .cls-1 {
        fill: #000;
      }

      .cls-1, .cls-2, .cls-3 {
        stroke: #000;
        stroke-miterlimit: 10;
      }

      .cls-2 {
        fill: #fff;
      }

      .cls-3 {
        fill: #593d22;
      }
    </style>
  </defs>
  <g>
    <polygon class="cls-1" points="225.73 466.28 224.1 829.85 272.95 853.52 275.38 645.33 847.6 644.68 849.53 870.3 895.44 847.26 893.7 461.6 971.75 464.4 924.88 404.42 975.1 361.35 847.23 359.94 844.77 456.83 275.87 461.03 273.64 360.55 142.17 363.84 193.53 412.96 140.86 467.65 225.73 466.28"/>
    <polygon class="cls-2" points="274.94 489.89 274.7 539.4 848.96 539.5 847.29 485.11 274.94 489.89"/>
    <polygon class="cls-2" points="274.43 568.96 274.99 615.06 849.38 611.03 849.53 564.27 274.43 568.96"/>
  </g>
  <path class="cls-3" d="M276.07,876.06V287.36h197.3l45.53-82.39-242.83-121.41V1.17l-106.24,101.9S-28.42,215.25,4.1,467.16c0,0,52.14,289.32,271.96,408.91Z"/>
</svg>