<?xml version="1.0" encoding="UTF-8"?>
<svg id="Calque_1" data-name="Calque 1" xmlns="http://www.w3.org/2000/svg" viewBox="0 0 899.04 909.97">
  <defs>
    <style>
      .cls-1 {
        fill: #474747;
      }

      .cls-1, .cls-2, .cls-3 {
        stroke-width: 0px;
      }

      .cls-2 {
        fill: #9b9b9b;
      }

      .cls-3 {
        fill: #b2b2b2;
      }
    </style>
  </defs>
  <path class="cls-2" d="M124.25,713.44l70.52,70.52-111.7,111.7s-30.22,20.44-48,12.44c0,0-27.01-9.78-31.11-26.67,0,0-8.89-24,0-42.67l3.56-8.89,116.74-116.44Z"/>
  <path class="cls-2" d="M773.43,696.6l-70.83,70.21,111.21,112.2s30.13,20.58,47.94,12.66c0,0,27.06-9.66,31.23-26.53,0,0,9-23.96.19-42.67l-3.52-8.9-116.22-116.96Z"/>
  <path class="cls-1" d="M623.94,789.74l169.48-168.3s19.56-22.52,7.11-41.48c0,0-35.56-37.33-101.93-32,0,0-52.74-1.78-101.33,44.44,0,0-42.07,41.48-44.44,90.07,0,0-6.52,45.04,6.52,74.67l10.07,24.89s24.48,37.53,54.52,7.7Z"/>
  <path class="cls-3" d="M473.12,527.22l65.78,69.33s14.81-26.67,42.67-43.26l-71.11-67.56-37.33,41.48Z"/>
  <path class="cls-1" d="M274.12,801.41l-169.48-168.3s-19.56-22.52-7.11-41.48c0,0,35.56-37.33,101.93-32,0,0,52.74-1.78,101.33,44.44,0,0,42.07,41.48,44.44,90.07,0,0,6.52,45.04-6.52,74.67l-10.07,24.89s-24.48,37.53-54.52,7.7Z"/>
  <path class="cls-3" d="M306.6,553.59s34.67,26.07,42.07,42.96L892.38,23.22s12.74-10.37,2.96-20.15c0,0-8.89-8.59-18.96,2.96L306.6,553.59Z"/>
  <path class="cls-3" d="M389.87,433.44l36-32L34.76,25s-9.33-7.11-16.44,0c0,0-8.89,6.67,0,16.89l371.56,391.56Z"/>
</svg>