<?xml version="1.0" encoding="UTF-8"?>
<svg id="Calque_1" data-name="Calque 1" xmlns="http://www.w3.org/2000/svg" viewBox="0 0 972.06 980.72">
  <defs>
    <style>
      .cls-1 {
        fill: #704e37;
      }

      .cls-1, .cls-2, .cls-3, .cls-4, .cls-5 {
        stroke-width: 0px;
      }

      .cls-2 {
        fill: #acacaf;
      }

      .cls-3 {
        fill: #b9bbc1;
      }

      .cls-4 {
        fill: #8c6245;
      }

      .cls-5 {
        fill: #ff8b00;
      }
    </style>
  </defs>
  <path class="cls-4" d="M18.49,904.92s-32.88,28.77-10.96,63.01c0,0,32.88,28.77,60.27,0l493.15-361.64-187.67-183.56L18.49,904.92Z"/>
  <path class="cls-1" d="M373.29,422.73l-23.72-25.89s-9.48-7.7,0-18.96l26.37-25.19s8-7.41,16.3,0l233.78,232.89s10.96,10.07,0,21.93l-23.7,23.7s-8.3,10.07-19.56,0l-209.47-208.48Z"/>
  <path class="cls-3" d="M411.05,233.28s-28.38,78.16-2.41,135.75l202.83,202.06s77.36,29.36,133.8,0c0,0,25.78-5.81,0-31.14L431.05,228.84s-9.33-12.3-20,4.44Z"/>
  <path class="cls-5" d="M501.18,298.27s-31.91-126.77,50.76-177.44c0,0,68-69.33,188-40,0,0,120,36,162.67,2.67,0,0,36-31.98,36-81.32,0,0,10.67-9.34,12,10.66,0,0,30.67,38.67,18.67,109.33,0,0-1.33,92-173.33,140,0,0-69.33,40,2.67,64,0,0,65.33,12,102.67-8,0,0,53.33-37.55,21.33,31.23,0,0-46.56,155.36-257.28,111.4l-164.15-162.52Z"/>
  <path class="cls-2" d="M550.46,510.31s110.81,76.74,194.81,29.63c0,0,46.89,30.77-41.22,43.16,0,0-67.72,6.23-92.58-12.02l-61.01-60.77Z"/>
</svg>