<?xml version="1.0" encoding="UTF-8"?>
<svg id="Calque_1" data-name="Calque 1" xmlns="http://www.w3.org/2000/svg" viewBox="0 0 885.93 885.93">
  <defs>
    <style>
      .cls-1 {
        stroke-width: 0px;
      }

      .cls-1, .cls-2 {
        fill: #2e2e2c;
      }

      .cls-3 {
        fill: #000;
        opacity: .26;
        stroke: #000;
      }

      .cls-3, .cls-4, .cls-2, .cls-5, .cls-6, .cls-7, .cls-8 {
        stroke-miterlimit: 10;
      }

      .cls-4, .cls-2, .cls-5, .cls-6, .cls-7, .cls-8 {
        stroke: #2e2e2c;
      }

      .cls-4, .cls-5, .cls-6, .cls-7, .cls-8 {
        fill: none;
      }

      .cls-4, .cls-7 {
        stroke-width: 4px;
      }

      .cls-2, .cls-8 {
        stroke-width: 3px;
      }

      .cls-5 {
        stroke-width: 2px;
      }

      .cls-7 {
        opacity: .18;
      }
    </style>
  </defs>
  <circle class="cls-7" cx="442.96" cy="442.96" r="440.96"/>
  <path class="cls-1" d="M221.28,277.29s77.11-66.27,160.24-83.13c0,0,80.72,65.06,131.33,132.53,0,0-85.54,156.63-102.41,165.06l-189.16-45.78s-13.25-96.39,0-168.67Z"/>
  <path class="cls-1" d="M162.08,106.02s-48.04,84.53-48.04,108.62c0,0-80.37,81.17-94.4,107.45S58.31,182.94,162.08,106.02Z"/>
  <path class="cls-1" d="M7.47,515.55s83.69,53.31,113.81,54.51c0,0,37.35,113.25,83.13,157.83,0,0-27.92,42.03-52.51,49.33,0,0-110.04-82.45-144.43-261.67Z"/>
  <path class="cls-1" d="M389.95,777.22s37.35-68.6,91.57-122.82c0,0,136.14,9.64,177.11,0,0,0,20.48,90.22,10.84,122.82,0,0-108.43,71.16-174.7,72.36,0,0-57.83-7.37-104.82-72.36Z"/>
  <path class="cls-1" d="M687.77,324.89s51.81-82.12,55.42-109.44c0,0,85.54,19.67,103.61,79.91,0,0,27.71,130.12,19.28,166.87,0,0-38.55,29.52-108.43,29.52,0,0-42.17-133.71-69.88-166.85Z"/>
  <path class="cls-1" d="M332.43,17.35s93.66,21.39,110.53,50.3c0,0,134.94-10.84,173.49,6.02,0,0,13.2-9.53,7.2-30.07S430.76-20.82,332.43,17.35Z"/>
  <path class="cls-6" d="M457.81,883.68s27.32-13.62,36.96-34.1"/>
  <path class="cls-6" d="M669.47,777.22s48.3,2.62,84.39-21.55"/>
  <path class="cls-5" d="M658.63,654.4s84.8-80.72,99.02-162.65"/>
  <path class="cls-8" d="M481.52,654.4s-65.06-138.23-71.08-165.94"/>
  <path class="cls-8" d="M121.28,570.06s51.59-89.23,102.19-125.38"/>
  <path class="cls-4" d="M112.05,213.94s103.95,51.62,112.39,66.07"/>
  <path class="cls-4" d="M380.58,196.01s37.62-103.84,65.33-131.56"/>
  <path class="cls-5" d="M615.25,71.46s100.46,79.75,127.94,144"/>
  <line class="cls-2" x1="509.92" y1="326.72" x2="687.77" y2="324.89"/>
  <path class="cls-5" d="M204.41,727.89s136.14,54.08,185.54,49.33"/>
  <path class="cls-6" d="M866.08,462.23s7.27,1.62,16.22,18.82"/>
  <line class="cls-6" x1="846.81" y1="295.36" x2="861.61" y2="304.11"/>
  <path class="cls-3" d="M846.81,265.61s-182.06,546.64-315.81,609.52c0,0,234.39-34.11,323.21-272.73,0,0,72.38-171.87-7.4-336.8Z"/>
</svg>