<?xml version="1.0" encoding="UTF-8"?>
<svg id="Calque_1" data-name="Calque 1" xmlns="http://www.w3.org/2000/svg" viewBox="0 0 969.5 969.5">
  <defs>
    <style>
      .cls-1 {
        fill: #bdbec1;
      }

      .cls-1, .cls-2 {
        stroke-width: 0px;
      }

      .cls-2 {
        fill: #e8e8e8;
      }

      .cls-3 {
        fill: none;
        opacity: .27;
        stroke: #777;
        stroke-miterlimit: 10;
        stroke-width: 10px;
      }
    </style>
  </defs>
  <path class="cls-2" d="M148.67,142.4s-6.98,31.55-5.89,57.77c.5,12.12,4.93,23.72,12.01,33.57,3.56,4.95,8.33,12.58,13.41,23.55,7.62,16.45,7.97,35.38.95,52.09-4.65,11.07-9.38,25.15-10.76,39.14-1.39,14.07,3.95,27.96,14.34,37.55,11.57,10.68,29.87,28.74,45.46,49.36,9.04,11.96,13.04,26.98,11.22,41.86-1.54,12.61-2.86,29.22-1.8,44.39,1.34,19.08,14.08,35.47,32.32,41.24,13.16,4.16,30.87,10.47,47.4,18.67,19.6,9.72,33.6,27.82,38.3,49.18,2.6,11.85,6.81,25.62,13.51,36.57,4.03,6.58,9.6,12.07,16.06,16.28,13.41,8.74,44.46,24.96,82.46,18.4,10.99-1.9,22.38-.04,32.2,5.26,13.42,7.24,30.44,21.12,42.89,47.5,3.59,7.61,9.86,13.68,17.74,16.6,15.68,5.81,44.35,11.11,82.66-4.21,4.45-1.78,9.25-1.99,13.95-2.93,16.84-3.36,48.65,1.47,69.48,21.48,8.56,8.23,20.14,12.57,32.02,12.7,21.24.23,77.29-10.82,102.14-23.86,57.16-30-18.66,41.12-18.66,41.12,0,0-133.57,167.17-352.01,148.75C97.48,932.21,31.98,660.66,31.98,660.66c0,0,0,0,0,0L4.03,506.38s4.74-82.06,4.74-82.06l32.32-122.44s32.19-63.94,32.19-63.94l75.39-95.54s0,0,0,0Z"/>
  <circle class="cls-3" cx="484.75" cy="484.75" r="479.75"/>
  <path class="cls-1" d="M139.89,449.19l56.3,82.11s-111.43,29.32-56.3-82.11Z"/>
  <path class="cls-1" d="M253.67,622.79l71.55,55.13s-100.88,72.72-71.55-55.13Z"/>
  <path class="cls-1" d="M495.3,787.01l-92.3-44.57s-3.89,144.28,92.3,44.57Z"/>
  <path class="cls-1" d="M592.66,822.13h93.84s-37.54,125.44-93.84,0Z"/>
  <path class="cls-1" d="M481.18,848.86s51.74,19.32,87.43,28.78c27.2,7.2-75.86,94.04-87.43-28.78Z"/>
  <path class="cls-1" d="M354.55,850s24.93,50.59,82.11,43.75c0,0-99.7,101.35-82.11-43.75Z"/>
  <path class="cls-1" d="M286.77,734.23s29.06,53.96,73.64,60.99c0,0-105.05,72.72-73.64-60.99Z"/>
  <path class="cls-1" d="M160.39,710.77s23.76,55.02,72.17,58.65c0,0-71.62,46.92-72.17-58.65Z"/>
  <path class="cls-1" d="M204.41,642.73s-50.44-14.08-57.48-69.21c0,0-60.99,111.43,57.48,69.21Z"/>
  <path class="cls-1" d="M118.78,252.13l5.8,93.84s-128.96-56.3-5.8-93.84Z"/>
  <path class="cls-1" d="M98.58,598.15s-107.91,21.11-48.09-81.54l48.09,81.54Z"/>
  <path class="cls-2" d="M190.33,158.29l5.86,93.84s104.4-51.61-5.86-93.84Z"/>
  <path class="cls-2" d="M260.71,231.02s33.36,28.15,26.06,77.42c0,0,72.47-51.61-26.06-77.42Z"/>
  <path class="cls-2" d="M204.41,325.87s47.75,34.01,36.5,86.96c0,0,103.09-105.89-36.5-86.96Z"/>
  <path class="cls-2" d="M304.11,389.37s48.62,12.9,48.36,65.69c0,0,53.98-91.88-48.36-65.69Z"/>
  <path class="cls-2" d="M272.44,476.17s71.27,44.29,62.96,82.11c0,0,75.45-103.22-62.96-82.11Z"/>
  <path class="cls-2" d="M394.56,509.01s59.69,29.32,59.69,55.13c0,0,27.24-70.38-59.69-55.13Z"/>
  <path class="cls-2" d="M495.6,598.67s59.82,16.42,64.51,48.09c0,0,19.94-79.76-64.51-48.09Z"/>
  <path class="cls-2" d="M578.59,581.34s55.13,2.74,72.72,41.45c0,0-2.35-78.21-72.72-41.45Z"/>
  <path class="cls-2" d="M726.38,636.87s60.99-3.18,63.34,15.42c0,0-10.56-62.34-63.34-15.42Z"/>
  <path class="cls-2" d="M800.28,689.65s64.89-7.87,63.53,14.83c0,0-9.57-68.79-63.53-14.83Z"/>
  <path class="cls-2" d="M697.06,734.23s62.51-5.81,87.97,19.94c0,0-19.94-86.8-87.97-19.94Z"/>
  <path class="cls-2" d="M697.06,686.74s-46.92-31.37-70.38-17.75c0,0,46.92-52.03,70.38,17.75Z"/>
  <path class="cls-2" d="M614.95,731.55s-48.07-30.55-85.98-27.06c0,0,73.07-72.98,85.98,27.06Z"/>
  <path class="cls-2" d="M458.29,668.54s-27.59-51.89-74.42-55.64c0,0,116-53.44,74.42,55.64Z"/>
  <path class="cls-1" d="M79.71,391.13l5.8,57.48s-86.04-28.74-5.8-57.48Z"/>
</svg>