<?xml version="1.0" encoding="UTF-8"?>
<svg id="Calque_1" data-name="Calque 1" xmlns="http://www.w3.org/2000/svg" viewBox="0 0 973.78 736.45">
  <defs>
    <style>
      .cls-1 {
        fill: #592502;
      }

      .cls-1, .cls-2, .cls-3, .cls-4 {
        stroke-width: 0px;
      }

      .cls-2 {
        fill: #ab4a45;
      }

      .cls-3 {
        fill: #492207;
      }

      .cls-4 {
        fill: #e96660;
      }

      .cls-5 {
        fill: none;
        stroke: #592502;
        stroke-miterlimit: 10;
      }
    </style>
  </defs>
  <path class="cls-2" d="M638.55,356.8s36.91,36.91-75.58,84.37c0,0-149.79,75.58-259.45,75.58,0,0,180.97-170.65,335.02-159.94Z"/>
  <path class="cls-2" d="M37.44,411.29s205.1,19.57,249.3-3.28c0,0-111.98,86.27-131.54,108.73,0,0-86.82-26.41-117.76-67.63v-37.83Z"/>
  <path class="cls-4" d="M53.25,688.99s-12.57-75.58,152.78-221.46c0,0,191.72-144.13,221.6-152.91l64.33-26.67c3.91-1.62,7.78-3.36,11.61-5.16,10.66-5,40.83-16.61,59.39,1.96l75.58,72.06s-61.52-10.55-177.52,54.49l-202.13,135.34s-103.7,87.88-107.22,105.46c0,0-29.88,47.46-31.64,84.37l-31.64-56.24-35.15,8.79Z"/>
  <path class="cls-4" d="M337.99,21.09c-91.4,47.46-209.16,142.37-209.16,142.37,0,0-87.88,94.91-110.73,138.85C-4.75,346.25.53,381.41.53,381.41c0,0,19.33,52.73,52.73,86.12,0,0-10.55-49.21,36.91-112.49,0,0,103.7-117.76,151.16-149.4,0,0,107.22-86.12,175.76-107.22,0,0,86.12-47.46,108.97-42.18,22.85,5.27,36.91-35.15,36.91-35.15,0,0-133.58-47.46-224.98,0ZM543.24,42.91c-3.25,0-5.89-2.64-5.89-5.89s2.64-5.89,5.89-5.89,5.89,2.64,5.89,5.89-2.64,5.89-5.89,5.89Z"/>
  <path class="cls-5" d="M557.6,49.31s-16.21-3.1-14.11-10,11.67-1.51,11.67-1.51c0,0,7.15-.06,2.44,11.51Z"/>
  <polygon class="cls-1" points="552.87 48.07 559.19 42.91 973.78 652.32 946.41 669.43 552.87 48.07"/>
  <polygon class="cls-3" points="958.2 662.06 973.78 652.32 831.62 443.36 958.2 662.06"/>
</svg>