<?xml version="1.0" encoding="UTF-8"?>
<svg xmlns="http://www.w3.org/2000/svg" viewBox="0 0 981.54 751.2">
  <defs>
    <style>
      .cls-1 {
        fill: #eaeaea;
      }

      .cls-1, .cls-2, .cls-3 {
        stroke-width: 0px;
      }

      .cls-2 {
        fill: #322f34;
      }

      .cls-4 {
        fill: #dededf;
      }

      .cls-4, .cls-5, .cls-6, .cls-7 {
        stroke: #262e44;
        stroke-miterlimit: 10;
        stroke-width: 11px;
      }

      .cls-5 {
        fill: #6a676e;
      }

      .cls-3 {
        fill: #6a676d;
      }

      .cls-6 {
        fill: #4d4a50;
      }

      .cls-7 {
        fill: none;
      }
    </style>
  </defs>
  <g id="DROITE">
    <path class="cls-5" d="M881.14,332.46s38.04,24.87,47.34,45.54c0,0,23.78,47.95,19.64,95.31,0,0-1.03,54.59-11.37,75.27,0,0-6.49,44.03-50.8,63.88,0,0,44-164.27-4.81-280.01Z"/>
    <path class="cls-5" d="M693.4,201.5s83.57-5.86,121.41,19.8c1.48,1.01,2.57,2.5,3.88,3.73,11.69,10.98,59.34,60.81,73.21,155.49,0,0,7.57,36.76,10.1,88.65,2.36,48.32-2.75,96.78-16.05,143.29-5.06,17.7-11.49,35.92-19.56,51.84,0,0-32.39,90.05-133.71,80.6,0,0-39.69,3.42-56.27-3.96-16.58-7.38,16.98-539.44,16.98-539.44Z"/>
    <path class="cls-6" d="M556.31,421.45s13.44-120.99,72.37-186.12c0,0,49.62-59.96,108.55-20.68,0,0,62.03,44.45,83.74,166.44,0,0,17.57,75.47,0,165.41,0,0-10.34,110.62-58.93,161.28,0,0-46.52,72.76-125.09,11.05,0,0-71.33-78.25-80.64-195.07-9.3-116.82,0-102.32,0-102.32Z"/>
    <path class="cls-3" d="M691.65,246.53s-76.34,1.52-92.44,217.2c0,0,1.48,16.05-6.96,16.53,0,0-12.24,2.19-9.91-18.48,0,0,10.16-197.93,97.14-229.95,0,0,14.08-8.55,21.27,2.85,0,0,5.91,8.81-9.1,11.85Z"/>
    <path class="cls-2" d="M696.54,701.4s76.32-2.31,90.2-218.14c0,0-1.65-16.04,6.79-16.6,0,0,12.22-2.31,10.1,18.38,0,0-8.13,198.03-94.78,230.93,0,0-13.99,8.7-21.3-2.63,0,0-6-8.75,8.98-11.94Z"/>
  </g>
  <g id="MILIEU">
    <path class="cls-4" d="M420.63,421.45h244.23s58.93-.06,64.1,50.61c0,0-2.07,51.7-50.66,51.7h-253.47s4.31-42.21-4.2-102.32Z"/>
  </g>
  <g id="GAUCHE">
    <path class="cls-5" d="M215.84,200.36s83.57-5.86,121.41,19.8c1.48,1.01,2.57,2.5,3.88,3.73,11.69,10.98,59.34,60.81,73.21,155.49,0,0,14.3,69.44,10.17,152.14,0,0-8.79,78.57-35.67,131.64,0,0-32.39,90.05-133.71,80.6,0,0-39.69,3.42-56.27-3.96-16.58-7.38,16.98-539.44,16.98-539.44Z"/>
    <path class="cls-1" d="M214.37,245.32s-76.28,3.43-86.97,219.44c0,0,1.88,16.01-6.55,16.7,0,0-12.18,2.49-10.37-18.23,0,0,5.21-198.13,91.36-232.31,0,0,13.86-8.9,21.33,2.32,0,0,6.12,8.66-8.8,12.07Z"/>
    <path class="cls-6" d="M97.15,332.73c7.46-34.92,55.74-130.69,111.03-131.87,1.61-.03,3.22-.15,4.82-.3,13.84-1.28,84.93-.73,122.77,138.84,0,0,16.02,56.72,16.53,118.3.02,1.83.09,3.65.25,5.47,1.12,12.39,5.1,69.12-10.42,116.34-.52,1.57-1,3.14-1.4,4.74-3.79,14.91-26.52,100.07-57.74,129.28-1.17,1.09-2.26,2.26-3.33,3.46-8.82,9.84-51.85,51.57-112.29,5.62,0,0-52.34-38.77-67.75-113.46-13.21-64.06-12.68-213.83-6.99-254.72,2.08-14.97-2.04,9.1,4.53-21.69Z"/>
    <path class="cls-5" d="M118.34,332.46h49.01s33.32,9.7,46.42,36.58c0,0,22.27,32.39,22.05,94.42,0,0,1.18,48.76-6.55,80.18-.55,2.23-1.05,4.47-1.51,6.72-1.86,8.98-10.34,37.51-45.28,56.46,0,0-47.5,7.32-68.76,7.11l4.61-281.47Z"/>
    <path class="cls-6" d="M57.39,511.34s3.06,70.48,38.23,95.17c0,0,29.06,23.92,54.29-12.78,0,0,57.35-77.99,19.88-198.04,0,0-32.11-111.63-89.46-38.23,0,0-28.29,43.29-26,78.99,2.29,35.7,3.06,74.89,3.06,74.89Z"/>
    <path class="cls-1" d="M220.84,701.07s76.33-1.85,91.49-217.6c0,0-1.55-16.04,6.89-16.56,0,0,12.23-2.24,9.99,18.44,0,0-9.3,197.98-96.14,230.37,0,0-14.04,8.62-21.28-2.76,0,0-5.94-8.79,9.05-11.89Z"/>
    <path class="cls-4" d="M24.93,474.83v-18.35s-.24-15.99,16.46-16.94h60.68s15.29.47,16.23,13.17v39.99s1.41,13.41-13.64,14.35H38.81s-12,.94-12.94-15.05l-.94-17.17Z"/>
    <path class="cls-7" d="M948.13,474.83v-18.35s-.07-15.99,4.92-16.94h18.13s4.57.47,4.85,13.17v39.99s.42,13.41-4.08,14.35h-19.68s-3.58.94-3.87-15.05l-.28-17.17Z"/>
  </g>
</svg>