<?xml version="1.0" encoding="UTF-8"?>
<svg id="Calque_1" data-name="Calque 1" xmlns="http://www.w3.org/2000/svg" viewBox="0 0 900.44 852.49">
  <defs>
    <style>
      .cls-1 {
        fill: #e7e8ea;
      }

      .cls-1, .cls-2, .cls-3, .cls-4 {
        stroke-width: 0px;
      }

      .cls-2 {
        fill: #fd7d60;
      }

      .cls-3 {
        fill: #d8491d;
      }

      .cls-5 {
        fill: none;
        stroke: #e7e8ea;
        stroke-width: .25px;
      }

      .cls-5, .cls-6 {
        stroke-miterlimit: 10;
      }

      .cls-4 {
        fill: #30312d;
      }

      .cls-6 {
        fill: #000;
        opacity: .19;
        stroke: #000;
      }
    </style>
  </defs>
  <path class="cls-3" d="M71.55,726.63S-26.11,470.52,248.55,217.18c0,0,280-250.67,576-90.67,0,0,66.67,258.67-144,464,0,0-303.35,333.56-609.01,136.11Z"/>
  <path class="cls-2" d="M71.55,726.63s50.22-207.22,150.22-291.22l11.72,13.31s-91,69.11-147.45,286.89l-14.49-8.97Z"/>
  <path class="cls-2" d="M562.63,169.18s162.64-64.34,262.74-41.53l2.44,11.47s-92.44-25.91-255.7,42.06l-9.48-12Z"/>
  <path class="cls-1" d="M60.92,538.44l.41.51,202.48,249.94s59.19,4.08,91.72-7.73c0,0-185.97-266.42-272.64-325.31l-21.97,82.59Z"/>
  <path class="cls-1" d="M537.89,79.52s44.44-9,105.37-5.55c0,0,164.85,169,187.52,225,0,0-3.11,39.56-26.64,101.95,0,0-85.65-178.25-266.25-321.39Z"/>
  <path class="cls-1" d="M60.91,538.44s9.09-54.92,21.85-82.71"/>
  <path class="cls-1" d="M73.15,495.87c1.93,0,1.93-3,0-3s-1.93,3,0,3h0Z"/>
  <path class="cls-1" d="M75.35,492.64c.65-3.63,2.42-6.93,3.11-10.54.15-.8-.22-1.62-1.05-1.85-.73-.2-1.69.25-1.85,1.05-.68,3.62-2.46,6.92-3.11,10.54-.14.8.22,1.62,1.05,1.85.73.2,1.7-.25,1.85-1.05h0Z"/>
  <path class="cls-1" d="M78.05,479.61c.33-1.37.63-2.77,1.02-4.13s1.22-2.46,1.67-3.78.66-2.64,1.13-3.93c.49-1.36,1.09-2.67,1.69-3.98.34-.74.21-1.62-.54-2.05-.65-.38-1.71-.2-2.05.54-.65,1.41-1.29,2.82-1.84,4.27-.51,1.34-.79,2.72-1.2,4.09s-1.25,2.44-1.67,3.77c-.45,1.44-.74,2.94-1.1,4.41-.46,1.88,2.44,2.68,2.89.8h0Z"/>
  <path class="cls-1" d="M82.33,462.9c1.93,0,1.93-3,0-3s-1.93,3,0,3h0Z"/>
  <path class="cls-1" d="M82.92,461.28c1.93,0,1.93-3,0-3s-1.93,3,0,3h0Z"/>
  <path class="cls-1" d="M83.52,460.09c1.93,0,1.93-3,0-3s-1.93,3,0,3h0Z"/>
  <path class="cls-1" d="M71.96,494.39c-1.65,3.25-2.96,6.35-2.94,10.05.02,3.48-1.79,6.66-2.56,10.02s-1.51,6.82-2.74,10.16-1.43,7.16-1.94,10.69c-.12.81.2,1.6,1.05,1.85.7.2,1.73-.25,1.85-1.05.49-3.39.66-7.03,1.79-10.28.59-1.7,1.24-3.34,1.68-5.09s.74-3.37,1.12-5.05.81-3.33,1.41-4.94,1.17-3.02,1.32-4.68c.16-1.78-.05-3.48.44-5.23s1.31-3.34,2.13-4.94c.87-1.72-1.71-3.24-2.59-1.51h0Z"/>
  <path class="cls-1" d="M62.87,537.55c1.93,0,1.93-3,0-3s-1.93,3,0,3h0Z"/>
  <path class="cls-1" d="M62.83,538.15c1.93,0,1.93-3,0-3s-1.93,3,0,3h0Z"/>
  <path class="cls-1" d="M62.61,538.92c1.93,0,1.93-3,0-3s-1.93,3,0,3h0Z"/>
  <path class="cls-1" d="M83.16,460.56c1.93,0,1.93-3,0-3s-1.93,3,0,3h0Z"/>
  <path class="cls-1" d="M83.3,460.07c1.93,0,1.93-3,0-3s-1.93,3,0,3h0Z"/>
  <path class="cls-1" d="M83.39,459.77c1.93,0,1.93-3,0-3s-1.93,3,0,3h0Z"/>
  <path class="cls-1" d="M82.53,462.38c1.93,0,1.93-3,0-3s-1.93,3,0,3h0Z"/>
  <path class="cls-1" d="M84.05,461.45c1.93,0,1.93-3,0-3s-1.93,3,0,3h0Z"/>
  <path class="cls-5" d="M82.85,455.83c-.14.22-.38,1.2-.33,1.34"/>
  <path class="cls-4" d="M232.57,447.76l14.83,15.77c2.75,2.93,6.74,4.5,10.71,3.9,3.07-.47,5.95-2.22,6.21-7.08.2-3.66-1.2-7.22-3.61-9.98l-14.25-16.34,28.6-27.39,15.14,15.14c1.81,1.81,4.03,3.16,6.49,3.89,4.77,1.42,11.89,1.96,12.37-7.13.2-3.89-1.34-7.67-4.14-10.37l-14.86-15.44,37.31-34.18,13.65,15.52c2.69,2.23,5.4,5.1,8.89,4.89,4.5-.28,5.22-1.33,6.82-4.88,1.97-4.37-.72-9.4-3.38-12.89l-12.72-13.28,27.96-23.58,11.1,13.52c3.65,3.79,7.14,6.01,12.34,5.2,3.94-.62,7.57-2.8,7.8-8.66.17-4.38-1.78-8.58-5.02-11.54l-9.66-11.8,36.1-27.63,10.71,12.9c2.44,2.93,5.9,4.91,9.69,5.27s7.77-.8,8.1-7.04c.22-4.17-1.34-8.25-4.1-11.39l-9.34-11.65,31.71-22.99,11.88,16.45c3.68,3.57,6.23,7.54,11.36,7.57,4.54.02,9.06-1.65,9.6-8.17.38-4.54-2.31-7.83-5.41-11.18l-11.87-15.53,28.37-19.06,13.81,14.55c3.1,2.41,6.82,3.95,10.74,4.21,4.16.27,8.58-.89,9.15-6.84.38-3.95-1.24-7.83-4.12-10.56l-13.9-11.46,27.94-17.15,16.34,14.83c3.06,2.62,6.9,4.26,10.93,4.38s8.61-1.19,9.99-7.06c1.07-4.58-.54-9.37-3.93-12.63l-12.05-11.61s2.11-1.58,2.28-4.57-2.08-5.88-5.13-6.56-7.5-1.06-11.37,1.05l-15.55-16.58c-2.15-2.29-5.11-3.74-8.26-3.78-2.73-.04-5.73.9-7.42,4.48s-.93,8.08,1.77,11.13l12.83,14.49-28,16.96-18.6-17.02c-2.49-1.95-5.58-3.06-8.74-2.91-3.49.17-7.14,1.83-7.05,8.07.05,4.22,1.96,8.2,5.01,11.12l12.08,11.58-25.25,16.34-16.61-18.12c-3.3-3.6-8.41-5.12-13.03-3.55-1.96.66-3.79,1.86-4.99,3.95-1.85,3.2-1.3,7.25,1.05,10.1l15.98,19.4-32,22-12.59-16.53c-3.42-3.68-8.49-7.16-13.27-5.62s-7.56,4.1-7.45,10.54c.05,3.15,2.01,5.97,3.87,8.51l12.99,15.23-35.85,27.05-15.27-16.33c-3.3-3.53-8.04-5.5-12.84-5.02-3.8.38-7.39,2.24-7.63,7.83-.14,3.41,1.18,6.72,3.45,9.28l15.54,17.46-27.89,23.54-16.15-18.48c-2.51-2.3-5.62-3.91-8.99-4.41-3.55-.53-7.51.09-8.83,4.85-1.11,3.97.19,8.23,3.07,11.19l16.08,18.28-36.98,34.11-16.9-21.47c-2.54-2.61-6.04-4.18-9.68-4.07-3.4.1-6.93,1.57-7.63,6.94-.47,3.57.67,7.17,2.92,9.98l16.68,22.11-27.26,28.48-12.22-15.15c-3.36-3.49-7.12-6.33-11.94-5.93-4.54.38-8.74,2.67-7.01,10.42.66,2.96,2.06,5.71,3.92,8.1l11.07,14.2c4.26,5.47,8.77,10.73,13.52,15.78Z"/>
  <path class="cls-4" d="M221.77,435.4s109.01-132,340.86-266.22l14.22,10.07s-158.74,83.39-344.28,268.51l-10.8-12.36Z"/>
  <path class="cls-6" d="M827.81,139.12s-326.2,534.01-472.28,642.04c0,0,193.74-26.86,364.27-233.2,0,0,145.05-149.13,108.01-408.84Z"/>
</svg>