<?xml version="1.0" encoding="UTF-8"?>
<svg id="Calque_1" data-name="Calque 1" xmlns="http://www.w3.org/2000/svg" viewBox="0 0 1018.67 513.78">
  <defs>
    <style>
      .cls-1 {
        fill: #545454;
      }

      .cls-1, .cls-2, .cls-3, .cls-4 {
        stroke-width: 0px;
      }

      .cls-2 {
        fill: #303030;
      }

      .cls-3 {
        fill: #9e9e9e;
      }

      .cls-4 {
        fill: #696969;
      }
    </style>
  </defs>
  <path class="cls-1" d="M379.34,261.71c-70.88-15.05-137.88-19.76-205.8-16.61l85.33,254.54,230.23-83.42c35.11-6.78,68.72-23.24,97.05-47.85,1.45-.92,2.9-1.93,4.32-2.95l25.2,15.74c-28.04-30.54-78.82-59.58-97.71-69.64-43.61-23.2-90.25-39.56-138.63-49.82Z"/>
  <path class="cls-3" d="M554.53,16.75c-3.88-1.79-7.82-3.42-11.75-4.92h0c-47.49-18.03-98.98-14.85-144.61,5.39l-.03-.02L129.09,112.45l35.29,105.3c101.26-6.38,202.88,2.41,300.05,39.44,51.61,19.68,99.25,45.95,141.08,82.37,21.91,19.08,46.84,36.89,54.54,62.52l75.23,17.68,162.67-81.75c33.78,15.6,59.01,27.24,59.01,27.24l61.7-133.74L565.9,22.51c-3.7-2.03-7.49-3.95-11.37-5.76Z"/>
  <path class="cls-4" d="M288.12,110.79c-3.88-1.79-7.79-3.42-11.75-4.91-95.84-36.37-207.97,13.5-255.25,115.92-49.21,106.66-9.47,229.86,88.76,275.2,70.23,32.44,151.33,16.26,209.86-34.57,49.83-32.45,106.8-125.02,170.45-95.63,63.66,29.4,200.36,92.48,200.36,92.48l61.73-133.75L299.49,116.55c-3.7-2.03-7.49-3.97-11.37-5.76Z"/>
  <polygon class="cls-1" points="690.55 459.27 956.96 365.24 1018.67 231.5 752.28 325.52 690.55 459.27"/>
  <polygon class="cls-2" points="752.28 409.13 938.25 345.37 972.6 274.82 781.54 337.5 752.28 409.13"/>
  <polygon class="cls-2" points="400.95 131.54 514.38 188.26 690.55 116.61 581.56 65.86 400.95 131.54"/>
  <polygon class="cls-1" points="430.83 146.48 514.38 188.26 649.04 133.5 577.21 99.54 430.83 146.48"/>
</svg>