<?xml version="1.0" encoding="UTF-8"?>
<svg id="Calque_1" data-name="Calque 1" xmlns="http://www.w3.org/2000/svg" viewBox="0 0 916.79 619.49">
  <defs>
    <style>
      .cls-1 {
        fill: #362c3c;
      }

      .cls-1, .cls-2, .cls-3, .cls-4 {
        stroke-width: 0px;
      }

      .cls-2 {
        fill: #5f757d;
      }

      .cls-3 {
        fill: #333e49;
      }

      .cls-5 {
        fill: #c4cdce;
        stroke: #000;
        stroke-miterlimit: 10;
      }

      .cls-4 {
        fill: #28202d;
      }
    </style>
  </defs>
  <g>
    <polygon class="cls-4" points="216.68 532.18 259.25 539.68 285.98 525.04 296.33 485.35 216.68 532.18"/>
    <circle class="cls-2" cx="288.25" cy="556.08" r="38.68"/>
    <circle class="cls-3" cx="288.25" cy="556.08" r="14.26"/>
  </g>
  <path class="cls-1" d="M8.89,549.73s37.12,67.42,221.83-19.73l235.56-138.5,174.42-101.54,110.54-64.82,84.08-56.73s44.35-38.06,62.57-69.83c0,0,30.3-45.87,14.19-75.62L8.89,549.73Z"/>
  <path class="cls-5" d="M173.45,426.26L720.88,108.27s92.53-48.22,114.77-82.4c0,0,38.36-37.59,64.56-21.25,0,0,32.92,20.27-5.89,77.57,0,0-46.13,63.82-142.01,124.5l-457.91,264.06s-96.28,67.6-188.11,85.8c0,0-63.81,18.48-101.44-9.59,0,0-15.47-20.8,11.98-42.98,7.5-6.06,16.13-10.55,25.27-13.62,22.46-7.55,89.03-31.57,131.36-64.09Z"/>
  <polygon class="cls-4" points="230.72 530 291.6 540.72 329.83 519.79 344.63 463.02 230.72 530"/>
  <g>
    <polygon class="cls-4" points="655.8 277.59 699.7 285.32 727.27 270.23 737.94 229.3 655.8 277.59"/>
    <circle class="cls-2" cx="729.6" cy="302.23" r="39.88"/>
    <circle class="cls-3" cx="729.6" cy="302.23" r="14.7"/>
  </g>
  <circle class="cls-2" cx="333.06" cy="564.17" r="55.31"/>
  <circle class="cls-3" cx="333.06" cy="564.17" r="20.39"/>
  <polygon class="cls-4" points="672.57 270.42 730.42 280.6 766.74 260.71 780.8 206.78 672.57 270.42"/>
  <circle class="cls-2" cx="769.82" cy="302.89" r="52.55"/>
  <circle class="cls-3" cx="769.82" cy="302.89" r="19.37"/>
</svg>