<?xml version="1.0" encoding="UTF-8"?>
<svg id="Calque_1" data-name="Calque 1" xmlns="http://www.w3.org/2000/svg" viewBox="0 0 899.74 910.68">
  <defs>
    <style>
      .cls-1 {
        fill: #ddd;
      }

      .cls-1, .cls-2, .cls-3 {
        stroke-width: 0px;
      }

      .cls-2 {
        fill: #fff;
      }

      .cls-3 {
        fill: #d9d50b;
      }
    </style>
  </defs>
  <g>
    <path class="cls-1" d="M386.76,21.67C142.64,58.09-25.72,285.55,10.73,529.69c36.43,244.12,263.88,412.5,508.02,376.03,244.1-36.43,412.5-263.88,376.03-508.02C858.35,153.58,630.92-14.78,386.76,21.67Z"/>
    <g>
      <path class="cls-1" d="M658.63,454.02c-6.65-44.42-17.69-86.01-28.33-126.27-17.71-66.86-34.45-129.99-28.88-196.55,2.55-30.45,6.11-58.78,10.32-85.15-69.37-26.5-146.29-36.13-224.98-24.38-82.32,12.27-155.99,46.37-216.17,95.45,10.95,22.65,21.85,47.12,32.41,73.56,24.73,62.04,27.17,127.31,29.74,196.41,1.56,41.59,3.17,84.63,9.78,129.04l1.34,9.18c21.14,109.67,125.41,184.52,236.91,168.32l1.9-.28c112.4-17.26,190.67-121.06,177-233.37l-1.04-5.96Z"/>
      <path class="cls-1" d="M657.86,66.72c-3.18,21.49-5.87,44.36-7.88,68.53-4.86,58.18,10.84,117.37,27.43,180.02,10.3,38.79,20.91,78.83,27.99,122.34l.09.07,1.62,9.35c21.12,141.37-76.75,273.55-218.12,294.66l-.91.15c-141.11,20.67-272.9-77.08-293.98-218.25l-1.12-9.5c-5.92-43.69-7.47-85.07-8.98-125.21-2.42-64.77-4.71-125.95-26.3-180.13-8.08-20.32-16.43-39.24-24.81-57.17C38.83,248.21-10.73,386.02,10.73,529.69c36.43,244.12,263.88,412.5,508.02,376.03,244.1-36.43,412.5-263.88,376.03-508.02-22.03-147.52-113.87-267.27-236.91-330.98Z"/>
    </g>
  </g>
  <g>
    <path class="cls-2" d="M380.99,4.96C136.87,41.39-31.49,268.84,4.96,512.98c36.43,244.12,263.88,412.5,508.02,376.03,244.1-36.43,412.5-263.88,376.03-508.02C852.58,136.87,625.15-31.49,380.99,4.96Z"/>
    <g>
      <path class="cls-3" d="M652.86,437.31c-6.65-44.42-17.69-86.01-28.33-126.27-17.71-66.86-34.45-129.99-28.88-196.55,2.55-30.45,6.11-58.78,10.32-85.15C536.59,2.84,459.68-6.79,380.99,4.96c-82.32,12.27-155.99,46.37-216.17,95.45,10.95,22.65,21.85,47.12,32.41,73.56,24.73,62.04,27.17,127.31,29.74,196.41,1.56,41.59,3.17,84.63,9.78,129.04l1.34,9.18c21.14,109.67,125.41,184.52,236.91,168.32l1.9-.28c112.4-17.26,190.67-121.06,177-233.37l-1.04-5.96Z"/>
      <path class="cls-3" d="M652.1,50.01c-3.18,21.49-5.87,44.36-7.88,68.53-4.86,58.18,10.84,117.37,27.43,180.02,10.3,38.79,20.91,78.83,27.99,122.34l.09.07,1.62,9.35c21.12,141.37-76.75,273.55-218.12,294.66l-.91.15c-141.11,20.67-272.9-77.08-293.98-218.25l-1.12-9.5c-5.92-43.69-7.47-85.07-8.98-125.21-2.42-64.77-4.71-125.95-26.3-180.13-8.08-20.32-16.43-39.24-24.81-57.17C33.06,231.5-16.49,369.32,4.96,512.98c36.43,244.12,263.88,412.5,508.02,376.03,244.1-36.43,412.5-263.88,376.03-508.02-22.03-147.52-113.87-267.27-236.91-330.98Z"/>
    </g>
  </g>
</svg>