<?xml version="1.0" encoding="UTF-8"?>
<svg id="Calque_1" data-name="Calque 1" xmlns="http://www.w3.org/2000/svg" xmlns:xlink="http://www.w3.org/1999/xlink" viewBox="0 0 946.47 948.09">
  <defs>
    <style>
      .cls-1 {
        fill: #d6c7ab;
      }

      .cls-1, .cls-2, .cls-3, .cls-4, .cls-5, .cls-6 {
        stroke-width: 0px;
      }

      .cls-2 {
        fill: #eb5060;
      }

      .cls-3 {
        fill: #edddbb;
      }

      .cls-4 {
        fill: #bf4058;
      }

      .cls-5 {
        fill: #c1b6a3;
      }

      .cls-6 {
        fill: #d13f54;
        filter: url(#outer-glow-1);
      }
    </style>
    <filter id="outer-glow-1" filterUnits="userSpaceOnUse">
      <feOffset dx="0" dy="0"/>
      <feGaussianBlur result="blur" stdDeviation="5"/>
      <feFlood flood-color="#000" flood-opacity=".5"/>
      <feComposite in2="blur" operator="in"/>
      <feComposite in="SourceGraphic"/>
    </filter>
  </defs>
  <path class="cls-3" d="M256.85,872.09l89.33,76,111-129.33s42.33-46.67,81-36c0,0,111.11,13.78,190.22-11.11l-271.22-220.26-76.33,51.37-6.53,5.32,12.75,40.01s13.33,28.44-2.67,70.22l-127.56,153.78Z"/>
  <path class="cls-2" d="M558.96,218.91s146.33-64.79,269,21.75c0,0,140.44,93.65,115.56,262.54-5.54,37.56-13.98,75.34-30.34,109.8-17.12,36.07-46.09,64.78-72.83,93.88-22.99,25.03-51.72,41.03-83.3,53.47-2.79,1.1-26.56,12.98-28.65,11.28,0,0-271.22-220.26-271.22-220.26l101.78-332.48Z"/>
  <path class="cls-3" d="M278.18,849.42h62.67v-168s8-60,40-78.67c0,0,144-74.67,173.33-189.33,0,0,54.67-146.67-40-284C419.52-7.91,299.52.09,264.85.09c0,0-137.33,14.67-200,117.33,0,0-82.67,109.33-61.33,233.33,0,0,20,132,78.67,170.67l90.67,72s52,33.33,52,78.67l2.67,177.33h50.67Z"/>
  <polygon class="cls-5" points="384.41 640.98 481.52 571.2 457.18 551.38 370.88 597.23 384.41 640.98"/>
  <path class="cls-2" d="M46.61,480.96h475.69s84.61-99.51,28.92-279.53c0,0-47.25-139.57-173.69-184.46,0,0-122.41-54.2-246.88,33.12,0,0-110.1,72.17-127.28,216.41,0,0-17.67,97.99,43.24,214.45Z"/>
  <path class="cls-4" d="M582.63,210.75s23.11,56.89,12.44,158.22c0,0-15.11,81.75-35.56,111.98,0,0-47.78,68.02-78,90.24l-24.34-19.82,92.56-328.19,32.89-12.44Z"/>
  <path class="cls-1" d="M278.18,849.42l100-368.46h144.11s-41.94,61.72-108.43,101.83c0,0-41.67,22.43-49.65,35.56,0,0-21.87,35.42-22.62,58.5l-.75,172.56h-62.67Z"/>
  <path class="cls-6" d="M378.18,480.96l96.06-400.9s93,78.24,94.47,207.8c0,0,9.17,98-21.7,150.1l-24.72,43h-144.11Z"/>
</svg>