<?xml version="1.0" encoding="UTF-8"?>
<svg id="Dessin" xmlns="http://www.w3.org/2000/svg" viewBox="0 0 975.85 1000">
  <defs>
    <style>
      .cls-1 {
        fill: #384650;
      }

      .cls-1, .cls-2, .cls-3, .cls-4, .cls-5, .cls-6, .cls-7 {
        stroke-width: 0px;
      }

      .cls-2 {
        fill: #5fb6eb;
      }

      .cls-3 {
        fill: #c27d22;
      }

      .cls-4 {
        fill: #fd3938;
      }

      .cls-5 {
        fill: #cfc1ac;
      }

      .cls-6 {
        fill: #fee63a;
      }

      .cls-7 {
        fill: #f0e8db;
      }
    </style>
  </defs>
  <path class="cls-3" d="M193.75,837.32l41.35-108.53c2.41-6.33,6.61-11.86,12.18-15.7,7.87-5.42,18.79-9.32,24.68,4.56,3.32,7.82,3.22,16.67.22,24.62l-86.84,230.05c-2.07,5.5-4.25,14.66-9.73,17.91-11.14,6.62-35.11,3.83-31.02-24.43"/>
  <path class="cls-3" d="M485.12,795.32l16.39,191.38s0,15.16,19.67,13.11c0,0,19.67,2.87,19.67-15.16l-15.7-190.97-40.03,1.64Z"/>
  <path class="cls-3" d="M656.01,761.71l59.01,224.16s3.28,15.98,23.77,10.04c0,0,18.24-1.02,15.16-21.11l-59.22-230.93-38.73,17.83Z"/>
  <path class="cls-7" d="M540.85,25.91s329.07,24.52,349.97,387.54c0,0-2.87,353.8-349.97,388.84,0,0-387.32,42.46-383.81-370.34,0,0-69.44-412.8,383.81-406.04Z"/>
  <path class="cls-5" d="M540.85,25.91S135.35-23.89,89.25,385.51c0,0-35.45,429.68,451.61,416.77,0,0-251.27,25-356.28-246.68-36.59-94.67-38.5-199.62-2.31-294.45,40.53-106.21,136.02-221.65,358.59-235.25Z"/>
  <path class="cls-1" d="M228.17,423.62s-18.44-195.48,183.18-303.67c0,0,158.59-76.22,303.67,38.11,0,0,109.42,73.77,120.48,247.11,0,0,6.09,184.41-130.35,270.47,0,0-167.17,135.24-365.11-14.75,0,0-106.96-83.6-111.88-237.28Z"/>
  <path class="cls-2" d="M324.06,437.15s-17.21-164.74,130.32-236.05c0,0,105.73-54.09,223.75,29.51,0,0,102.04,71.31,83.6,218.84,0,0-9.84,145.07-153.68,183.18,0,0-86.06,41.8-191.79-29.51,0,0-79.91-43.03-92.21-165.97Z"/>
  <path class="cls-4" d="M419.96,419.93s-7.38-132.78,135.85-151.83c0,0,84.22-6.76,126.02,75.92,0,0,38.11,75.92-3.07,144.15,0,0-43.03,93.44-154.29,67.62,0,0-99.58-22.13-104.5-135.85Z"/>
  <path class="cls-6" d="M506.28,392.4c2.81-8.2,7.9-18.75,17.02-28.11,18.57-19.07,47.06-24.16,71.69-14.08,18.08,7.4,38.36,22.37,41.34,52.5,0,0,8.8,56.68-39.71,76.84-6.02,2.5-12.43,3.95-18.93,4.49-22.02,1.86-72.65-1.23-74.77-68.37-.25-7.9.79-15.81,3.35-23.29Z"/>
</svg>