<?xml version="1.0" encoding="UTF-8"?>
<svg id="Calque_1" data-name="Calque 1" xmlns="http://www.w3.org/2000/svg" viewBox="0 0 737.76 959.04">
  <defs>
    <style>
      .cls-1 {
        fill: #fff4b0;
      }

      .cls-1, .cls-2, .cls-3, .cls-4, .cls-5 {
        stroke-width: 0px;
      }

      .cls-2 {
        fill: #682f16;
      }

      .cls-3 {
        fill: #ffc21a;
      }

      .cls-4 {
        fill: #ffe01a;
      }

      .cls-5 {
        fill: #7c3918;
      }
    </style>
  </defs>
  <g>
    <polygon class="cls-5" points="549.28 782.13 188.48 782.13 188.48 928.15 169.41 928.15 169.41 959.04 568.36 959.04 568.36 928.15 549.28 928.15 549.28 782.13"/>
    <path class="cls-4" d="M704.69,59.55c-16.77-10.56-36.15-15.9-57.63-15.9-18.65,0-35.46,4.13-47.35,8.06-.49-13.17-1.14-22.66-1.46-27.14h12.5V0H127.02v24.57h12.5c-.33,4.47-.97,13.96-1.48,27.14-11.86-3.93-28.68-8.06-47.33-8.06-21.5,0-40.88,5.35-57.63,15.9C14.58,71.19,3.34,90.5.63,115.42c-5.35,49.16,23.65,114.36,72.21,162.24,31.02,30.56,86.37,62.2,124.66,78.81,49.96,72.21,123.51,111.26,127.39,163.21,4.84,64.78-21.97,91.57-10.8,100.52,11.18,8.93,0,40.19,0,40.19,0,0,0,29.04-17.88,46.9-17.86,17.89-13.39,29.06-6.68,42.45,5.15,10.29-4.18,25.75-8.8,32.4h176.32c-4.64-6.64-13.96-22.1-8.81-32.4,6.69-13.39,11.15-24.55-6.71-42.45-17.86-17.86-17.86-46.9-17.86-46.9,0,0-11.18-31.26,0-40.19,11.17-8.95-15.66-35.74-10.79-100.52,3.88-51.95,77.43-91,127.37-163.21,38.3-16.61,93.66-48.25,124.68-78.81,48.55-47.87,77.56-113.08,72.2-162.24-2.7-24.92-13.93-44.22-32.43-55.87ZM97.94,252.21c-40.56-39.98-65.95-94.65-61.79-132.93,1.53-13.86,6.87-23.8,15.94-29.49,10.99-6.89,23.98-10.41,38.62-10.41,15.99,0,30.57,4.18,39.54,7.42,1.15,11.27,3.95,24.56,7.86,39.14,2.02,52.76,9.05,116.75,28.16,170.38.71,1.97,1.5,3.9,2.24,5.85-25.23-14.11-52.07-31.74-70.55-49.96ZM639.83,252.21c-18.48,18.22-45.32,35.85-70.59,49.96.76-1.96,1.55-3.88,2.27-5.85,19.11-53.63,26.12-117.62,28.17-170.38,3.9-14.59,6.69-27.88,7.86-39.14,8.93-3.24,23.5-7.42,39.52-7.42,14.62,0,27.63,3.52,38.62,10.41,9.06,5.69,14.41,15.62,15.92,29.49,4.18,38.29-21.22,92.95-61.77,132.93Z"/>
    <path class="cls-3" d="M704.69,59.55c-16.77-10.56-36.15-15.9-57.63-15.9-18.65,0-35.46,4.13-47.35,8.06-.49-13.17-1.14-22.66-1.46-27.14h12.5V0h-133.38v24.57l-.72,10.76-.59,12.15s-1.68,137.16-16.2,253.32c-14.52,116.14-58.63,140.15-72.05,180.36-13.39,40.21-11.15,104.4-10.03,116.14,1.12,11.71,3.91,23.45,6.15,30.15,2.24,6.71-2.24,23.45-1.12,36.29,1.12,12.84,5.59,31.84,5,40.21-.54,8.39-15.62,15.64-14.49,29.03,1.1,13.4,12.29,20.11,12.29,32.38,0,5.2-3.03,11.35-6.48,16.77h77.92c-4.64-6.64-13.96-22.1-8.81-32.4,6.69-13.39,11.15-24.55-6.71-42.45-17.86-17.86-17.86-46.9-17.86-46.9,0,0-11.18-31.26,0-40.19,11.17-8.95-15.66-35.74-10.79-100.52,3.88-51.95,77.43-91,127.37-163.21,38.3-16.61,93.66-48.25,124.68-78.81,48.55-47.87,77.56-113.08,72.2-162.24-2.7-24.92-13.93-44.22-32.43-55.87ZM639.83,252.21c-18.48,18.22-45.32,35.85-70.59,49.96.76-1.96,1.55-3.88,2.27-5.85,19.11-53.63,26.12-117.62,28.17-170.38,3.9-14.59,6.69-27.88,7.86-39.14,8.93-3.24,23.5-7.42,39.52-7.42,14.62,0,27.63,3.52,38.62,10.41,9.06,5.69,14.41,15.62,15.92,29.49,4.18,38.29-21.22,92.95-61.77,132.93Z"/>
    <path class="cls-1" d="M252.12,93.81c-.87-8.82,17.63-34.34,4.41-34.34s-78.35-4.41-78.35-4.41c-14.24-.92-3.44,49.19.9,93.54,9.67,99.25,39.6,163.52,95.95,220.75-54.58-80.12-22.02-266.75-22.91-275.55Z"/>
  </g>
  <rect class="cls-2" x="169.41" y="928.15" width="398.94" height="30.89"/>
</svg>