<?xml version="1.0" encoding="UTF-8"?>
<svg id="Calque_1" data-name="Calque 1" xmlns="http://www.w3.org/2000/svg" viewBox="0 0 779.29 997">
  <defs>
    <style>
      .cls-1 {
        fill: none;
        opacity: .34;
      }

      .cls-1, .cls-2 {
        stroke: #000;
      }

      .cls-1, .cls-2, .cls-3 {
        stroke-miterlimit: 10;
      }

      .cls-4 {
        fill: #1f3437;
      }

      .cls-4, .cls-5 {
        stroke-width: 0px;
      }

      .cls-2 {
        fill: #e0baba;
      }

      .cls-5 {
        fill: #1f2830;
      }

      .cls-3 {
        fill: #fffdff;
        stroke: #cfd1d1;
      }
    </style>
  </defs>
  <path class="cls-3" d="M298.17,901.45l339.63-176.5,134.05-579.86s11.96-24.85,4.47-47.44l-15.31-86.74-466.61,882.74,3.77,7.81Z"/>
  <path class="cls-5" d="M310.45,980.13s125.09,28.63,250.92,11.3c0,0,97.96-17.33,113.03-28.63,0,0,12.81.75,14.32-17.33,0,0-556.86-48.6-688.72-90.42,0,0,6.78,78.37,310.45,125.09Z"/>
  <path class="cls-4" d="M762.06.88l-481.77,903.96,14.38,1.84,70.43-135.04,195.14.75-3.39-4.89-187.14-4.52,102.79-196.93s119.74,87.73,159.65,158.52c0,0,6.02,12.8-5.27,5.27l-11.67,7.53s3.39,9.04,17.32,7.91c0,0,22.22-1.51,9.04-30.88,0,0-54.22-78.32-161.91-161.53l40.49-81.71,160.58,77.19s7.15,1.88,2.26-3.77l-157.77-81.71,106.94-204.08,95.64,71.16s7.15,3.77,1.88-4.52l-92.63-76.44,89.24-170.57,45.56,44.81s8.66,3.39,1.88-4.14l-42.92-47.44,33.13-66.65s2.64-7.53-1.88-4.14Z"/>
  <path class="cls-2" d="M4.33,855.04s37.86,72.34,322.7,116.42c0,0,218.15,44.08,361.69-26,0,0-544.8-48.6-684.39-90.42Z"/>
  <path class="cls-1" d="M637.86,946.59s-440.81-36.17-578.71-71.21"/>
</svg>