<?xml version="1.0" encoding="UTF-8"?>
<svg xmlns="http://www.w3.org/2000/svg" viewBox="0 0 848.96 848.96">
  <defs>
    <style>
      .cls-1 {
        isolation: isolate;
      }

      .cls-2 {
        fill: #fdfdfd;
      }

      .cls-2, .cls-3, .cls-4 {
        stroke-width: 0px;
      }

      .cls-5 {
        fill: #000;
        opacity: .08;
        stroke: #000;
        stroke-miterlimit: 10;
      }

      .cls-3 {
        fill: #595959;
      }

      .cls-4 {
        fill: #c4c4c4;
        mix-blend-mode: multiply;
      }
    </style>
  </defs>
  <g class="cls-1">
    <g id="Calque_1" data-name="Calque 1">
      <circle class="cls-5" cx="424.48" cy="424.48" r="423.98"/>
      <g>
        <path class="cls-3" d="M684.04,92.19C500.9-51.39,236.04-19.32,92.47,163.84-51.09,346.98-19.01,611.83,164.12,755.4c183.15,143.57,448,111.48,591.56-71.65,143.58-183.14,111.49-447.99-71.65-591.56Z"/>
        <g>
          <path class="cls-2" d="M193.92,523.52c-6.93-5.29-13.71-10.53-20.24-15.64-3.34-2.63-6.62-5.22-9.82-7.8-24.94-19.85-49.42-41.33-71.92-62.15-16.63,27.59-52.83,99.67-39.64,186.21,26.76,49.74,63.98,94.91,111.27,131.99,5.43,4.27,10.98,8.36,16.52,12.31-13.68-34.48-24-77.5-22.52-127.37,1.87-63.2,23.14-100.37,36.36-117.54Z"/>
          <path class="cls-2" d="M772.64,252.61c5.09,34.86,9.61,117.25-40.7,200.52l-.05.07c-25.43,44.97-69.46,91.21-89.03,110.75l-18.17,16.39c-77.89,61.55-177.79,91.04-200.99,97.3-34.8,51.46-38.37,92.26-32.2,121.19,48.86-4.69,257.63-33.66,363.94-192.99,52.58-78.81,81.68-155.53,86.51-228.04.24-3.79.41-7.45.52-11.03-3.69-27.1-9.99-53.82-18.86-79.77-19.39-23.31-38.58-31.56-50.96-34.38Z"/>
          <path class="cls-2" d="M455.96,197.69c-14.66-11.48-29.63-22.73-44.46-33.42-103.28-74.27-156.52-103.58-182.4-115.14-41.48,21.57-79.88,50.34-113.24,86.04,33.54,34.36,90.55,89.08,174.08,157.54,20.52,16.8,44.37,35.88,70.91,56.65,105.86,82.99,228.85,173.58,262.26,198.09,16.74-16.69,57.3-58.81,82.25-99.72-21.35-28.19-110.96-141.49-249.4-250.02Z"/>
          <path class="cls-2" d="M214.39,539c-10.4,13.52-29.53,45.92-31.21,102.83-1.94,64.28,17.98,116.66,37.37,151.98,50.85,28.06,105.81,44.65,161.35,50.16-5.05-8.44-10.04-18.93-13.59-31.48-8.78-30.83-10.22-80.03,29.81-142.61-28.8-19.73-111.66-76.87-183.72-130.89Z"/>
          <path class="cls-2" d="M690.96,96.56c-25.99-11.67-50.07-14.5-67.68-14.41,78.25,64.84,126.27,125.2,140.05,143.46,8.5.29,22.82,2.36,39.44,11.11-26-52.7-63.42-100.72-111.82-140.16Z"/>
          <path class="cls-2" d="M530.81,795.37c-56.9,18.66-105.68,25.76-130.71,28.39,5.26,10.73,11.15,18.17,14.8,22.23,128.29,2.7,256.25-52.9,341.51-161.66,43.14-55.03,70.44-117.41,82.56-181.67-14,35.92-34.06,75.16-62.25,117.4-66.82,100.16-170.64,150.65-245.92,175.31Z"/>
          <path class="cls-2" d="M594.32,59.11c7.54-1.38,21.22-3.15,38.68-2.32-34.95-19.97-71.93-34.44-109.76-43.54,21.7,11.65,45.66,26.64,71.08,45.86Z"/>
          <path class="cls-2" d="M7.47,354.46c-11.44,69.08-5.46,140.01,17.07,206.04,6.01-68,35.03-119.99,48.27-140.54-26.68-25.47-49.45-48.81-65.33-65.5Z"/>
          <path class="cls-2" d="M345.02,369.53c-26.66-20.9-50.64-40.08-71.33-57-83.85-68.72-140.83-123.18-174.88-158.01-2.4,2.88-4.76,5.79-7.08,8.76-38.36,48.93-64.2,103.7-78,160.45,25.94,27.87,94.1,99.02,166.07,156.32,82.39,65.63,211.81,154.43,238.35,172.5,22.9-6.38,113.59-33.96,184.99-87.98-39.22-28.79-156.51-115.37-258.11-195.02h-.03Z"/>
          <path class="cls-2" d="M586.93,85.75C514.01,28.6,452.47,8.32,424.31,1.5c-56.68.03-113.09,11.4-165.59,33.69,33.24,17.15,85.58,49.18,167.74,108.29,15.14,10.88,30.37,22.36,45.3,34.05,129.18,101.26,216.75,206.82,247.34,246.01,43.37-84.33,29.06-165.14,25.98-179.51-9.54-12.87-65.49-85.67-158.15-158.28Z"/>
        </g>
        <path class="cls-4" d="M681.39,89.42c3.44,9.97,6.69,20.07,9.58,30.37,80.52,286.82-86.73,584.61-373.54,665.14-27.26,7.64-54.59,13.03-81.86,16.32,90.49,45.21,197.44,58.24,302.52,28.74,224.34-62.98,355.15-295.9,292.17-520.23-25.58-91.13-79.2-166.8-148.87-220.34Z"/>
      </g>
    </g>
  </g>
</svg>