<?xml version="1.0" encoding="UTF-8"?><svg xmlns="http://www.w3.org/2000/svg" xmlns:xlink="http://www.w3.org/1999/xlink" viewBox="0 0 1125 2197.66"><defs><style>.cls-1{fill:#1c14c1;}.cls-1,.cls-2,.cls-3,.cls-4,.cls-5,.cls-6,.cls-7,.cls-8,.cls-9,.cls-10,.cls-11,.cls-12,.cls-13,.cls-14,.cls-15,.cls-16,.cls-17,.cls-18,.cls-19,.cls-20,.cls-21,.cls-22,.cls-23,.cls-24,.cls-25,.cls-26,.cls-27,.cls-28,.cls-29,.cls-30,.cls-31,.cls-32,.cls-33,.cls-34,.cls-35,.cls-36,.cls-37,.cls-38,.cls-39,.cls-40,.cls-41,.cls-42,.cls-43,.cls-44,.cls-45,.cls-46,.cls-47,.cls-48,.cls-49,.cls-50,.cls-51,.cls-52,.cls-53,.cls-54,.cls-55,.cls-56,.cls-57{stroke-width:0px;}.cls-2{fill:#bda189;}.cls-3{fill:#ffe799;}.cls-4{fill:#cfbea4;}.cls-5{fill:#e0735a;}.cls-58,.cls-59,.cls-60,.cls-61,.cls-62,.cls-63,.cls-64,.cls-65,.cls-66,.cls-67,.cls-68,.cls-69,.cls-70,.cls-71,.cls-72,.cls-73,.cls-74,.cls-75,.cls-76,.cls-77,.cls-78,.cls-79{stroke-miterlimit:10;}.cls-58,.cls-60,.cls-61,.cls-62,.cls-63,.cls-64,.cls-65,.cls-68,.cls-69,.cls-71,.cls-72,.cls-73,.cls-74,.cls-77,.cls-79{fill:none;}.cls-58,.cls-60,.cls-61,.cls-63,.cls-64,.cls-65,.cls-70,.cls-72,.cls-73,.cls-74,.cls-77,.cls-78,.cls-79{stroke:#fff;}.cls-58,.cls-78{stroke-width:6.13px;}.cls-6{fill:#d88e5d;}.cls-7{fill:#5e4a4c;}.cls-8{fill:#3ec3f7;}.cls-9{fill:#668834;}.cls-10{fill:#b5d87c;}.cls-59,.cls-66,.cls-67,.cls-68,.cls-71,.cls-76{stroke:#878787;}.cls-59,.cls-66,.cls-68,.cls-76{stroke-width:.57px;}.cls-59,.cls-80{fill:#626262;}.cls-60{stroke-width:.81px;}.cls-61{stroke-width:4.81px;}.cls-11{fill:#654644;}.cls-12{fill:#bcab8d;}.cls-13{fill:#898989;}.cls-14{fill:#98c95c;}.cls-15{fill:#f4f5fa;}.cls-62{stroke:#f94f40;}.cls-62,.cls-69{stroke-width:3.68px;}.cls-63{stroke-width:.97px;}.cls-16,.cls-81{fill:#505050;}.cls-82{clip-path:url(#clippath-2);}.cls-17{fill:#3a4549;}.cls-18{fill:#58792a;}.cls-64{stroke-width:8.41px;}.cls-19{fill:#775029;}.cls-20{fill:#f7af49;}.cls-65,.cls-70{stroke-width:3.23px;}.cls-21{fill:#392d2d;}.cls-66,.cls-67{fill:#757575;}.cls-22{fill:#fff5bb;}.cls-23{fill:#ce8828;}.cls-67{stroke-width:.28px;}.cls-24{fill:url(#Dégradé_sans_nom_46-2);}.cls-69{stroke:#f2563f;}.cls-83{clip-path:url(#clippath-1);}.cls-25{fill:#b27226;}.cls-26{fill:#5e656d;}.cls-27{fill:#f6cc82;}.cls-28{fill:#2b2b2b;}.cls-70{fill:url(#Dégradé_sans_nom_46-3);}.cls-29,.cls-75{fill:#fff;}.cls-30{fill:#303320;}.cls-31{fill:#4b585e;}.cls-32{fill:#ecac55;}.cls-71{stroke-width:1.7px;}.cls-72{stroke-width:7.35px;}.cls-33{fill:#3d3d3d;}.cls-34{fill:#c8ad9c;}.cls-35{fill:#727c7e;}.cls-36{fill:#f1805e;}.cls-37{fill:#0740cb;}.cls-38{fill:#cc6756;}.cls-84{clip-path:url(#clippath);}.cls-39{fill:#9c9084;}.cls-40{fill:#6dc9f8;}.cls-41{fill:#a89286;}.cls-42{fill:#47433f;}.cls-73{stroke-width:6px;}.cls-74{stroke-width:2.15px;}.cls-43{fill:#513837;}.cls-44{fill:#ccb595;}.cls-75{stroke:#000;}.cls-85{clip-path:url(#clippath-3);}.cls-45{fill:#ece8cf;}.cls-76{fill:#878787;}.cls-46{fill:#ebdebc;}.cls-77{stroke-width:3.6px;}.cls-47{fill:#7d1600;}.cls-48{fill:#828282;}.cls-49{fill:#bca78e;}.cls-78{fill:#f25738;}.cls-50{fill:#d0d82b;}.cls-51{fill:#364645;}.cls-79{stroke-width:1.23px;}.cls-52{fill:#58534d;}.cls-53{fill:url(#Dégradé_sans_nom_46);}.cls-54{fill:#cecece;}.cls-55{fill:#35b2d8;}.cls-56{fill:#dacea4;}.cls-57{fill:#adadad;}</style><clipPath id="clippath"><path class="cls-72" d="M347.05,1968.78l379.34-246.3c3.84-2.72,3.65-8.6-.35-10.62l-236.31-119.42c-11.15-5.63-24.66-4.4-35.36,3.22l-370.57,250.82c-2.64,1.88-2.49,5.93.26,7.31l234.88,117.55c8.87,4.44,19.59,3.46,28.11-2.55Z"/></clipPath><linearGradient id="Dégradé_sans_nom_46" x1="-7049.36" y1="1824.55" x2="-7039.24" y2="1824.55" gradientTransform="translate(7649.51 3417.08) scale(1 -1)" gradientUnits="userSpaceOnUse"><stop offset="0" stop-color="#f27726"/><stop offset=".55" stop-color="#f27527"/><stop offset=".76" stop-color="#f26e2a"/><stop offset=".91" stop-color="#f26231"/><stop offset="1" stop-color="#f25738"/></linearGradient><linearGradient id="Dégradé_sans_nom_46-2" x1="-6639.11" y1="2088.62" x2="-6615.77" y2="2088.62" gradientTransform="translate(-6540.17 216.04) rotate(176.38) scale(1 -1)" xlink:href="#Dégradé_sans_nom_46"/><linearGradient id="Dégradé_sans_nom_46-3" x1="656.82" y1="602.64" x2="113.36" y2="607.69" gradientTransform="translate(-13.31 -76.12) rotate(-1.3)" xlink:href="#Dégradé_sans_nom_46"/><clipPath id="clippath-1"><polygon class="cls-64" points="438.64 1119.47 840.2 1322.85 1098.14 1151.14 694.45 949.56 438.64 1119.47"/></clipPath><clipPath id="clippath-2"><polygon class="cls-59" points="114.23 398.54 114.23 469.58 42.8 512.91 42.8 440.13 114.23 398.54"/></clipPath><clipPath id="clippath-3"><polygon class="cls-16" points="100.38 443.51 100.19 405.81 117.45 396.06 116.7 436.57 100.75 444.64 100.38 443.51"/></clipPath></defs><g id="route"><g id="repere"><ellipse id="EL1" class="cls-75" cx="429.14" cy="2163.72" rx="41.71" ry="22.34"/><ellipse id="EL2" class="cls-75" cx="669.87" cy="2005.15" rx="41.71" ry="22.34"/><ellipse id="EL3" class="cls-75" cx="931.3" cy="1822.3" rx="41.71" ry="22.34"/><ellipse id="EL4" class="cls-75" cx="820.32" cy="1546.71" rx="41.71" ry="22.34"/><ellipse id="EL5" class="cls-75" cx="547.72" cy="1429.03" rx="41.71" ry="22.34"/><ellipse id="EL6" class="cls-75" cx="239.36" cy="1266.66" rx="41.71" ry="22.34"/><ellipse id="EL7" class="cls-75" cx="224.46" cy="1032.78" rx="41.71" ry="22.34"/><ellipse id="EL8" class="cls-75" cx="517.92" cy="853.28" rx="41.71" ry="22.34"/><ellipse id="EL9" class="cls-75" cx="803.94" cy="692.39" rx="41.71" ry="22.34"/><ellipse id="EL10" class="cls-75" cx="929.28" cy="497.62" rx="41.71" ry="22.34"/><ellipse id="EL11" class="cls-75" cx="780.85" cy="305.08" rx="41.71" ry="22.34"/><ellipse id="EL12" class="cls-75" cx="481.43" cy="142.71" rx="41.71" ry="22.34"/><ellipse id="EL13" class="cls-75" cx="243.83" cy="23.54" rx="41.71" ry="22.34"/></g><rect id="background" class="cls-3" x="-5.48" y="-14.08" width="1135.12" height="2448.99"/><polygon class="cls-48" points="-111.25 -24.5 -111.25 -9.61 800.42 499.86 862.99 435.8 -39.74 -66.21 -111.25 -24.5"/><path class="cls-48" d="M330.19,1126.5s-16.88,6.46-16.88,27.31-55.61-38.73-55.61-38.73l81.43-40.72-8.94,52.14Z"/><path class="cls-48" d="M1074.02,474.03s19.86,168.33-133.77,274.1l-57.9-46.18,9.93-101.3,181.74-126.62Z"/><polygon class="cls-48" points="940.25 733.37 940.25 748.13 330.19 1126.5 261.66 1023.72 907.68 699.47 940.25 733.37"/><path class="cls-48" d="M36.23,2588.35v16.39l987.64-657.43s117.19-89.88,102.29-246.29l-185.71,115.7L36.23,2588.35Z"/><path class="cls-48" d="M29.11,1132.96s-9.28,44.73,13.99,110.33c26.91,75.86,83.25,137.68,155.73,172.69l613.84,296.45s26.81,13.41,14.9,26.81c-11.92,13.41,52.14,25.32,52.14,25.32l40.22-65.54-31.28-81.93s-71.5-65.54-105.77-83.42c-34.26-17.88-183.23-93.85-183.23-93.85L29.11,1132.96Z"/><path id="trotoire" class="cls-57" d="M-99.33-28.97l882.79,493.45c17.66,9.87,18.24,35.07,1.06,45.74L162.74,896.61c-189.69,117.88-174.55,398.74,26.72,495.54l626.82,301.47c18.59,8.94,20.34,34.75,3.11,46.11L-117.21,2357.46l154.92,232.39,964.57-636.81c183.43-121.1,164.88-395.94-33.16-491.29l-632.96-304.76c-18.91-9.11-20.29-35.51-2.42-46.53l618.42-381.56c183.79-113.4,178.02-382.55-10.46-487.97L43.68-261.36-99.33-28.97Z"/><path id="route-2" class="cls-28" d="M874.72,1480.57l-582.31-280.93c-15.41-7.43-27.84-20.07-34.42-35.85-8.38-20.09-8.87-48.04,27.18-75.83l595.25-357.66c40.01-24.04,74.61-56.27,100.67-94.99,80.21-119.19,33.38-223.15-19.89-289.31-30.25-37.57-67.69-68.72-109.73-92.35L1.44-224.12-87.48-65.93l879.73,494.46c.77.53,1.52,1.07,2.27,1.61,50.11,36.31,46.12,112.35-6.92,144.22L218.15,916.51c-37.87,22.75-71.21,52.44-97.56,87.89-48.22,64.88-87.93,167.37,5.15,281.39,31.36,38.41,71.04,69.2,115.71,90.74l573.03,276.45c13.45,6.49,25.66,15.38,35.66,26.46,19.43,21.52,36.84,57.38-2.32,99.33-7.55,8.09-16.15,15.13-25.42,21.17L-112.11,2409.84l99.18,151.97,942.71-615.23s288.1-203.41,36.53-408.12c-28.11-22.87-58.95-42.16-91.59-57.9Z"/><path id="ligne" class="cls-73" d="M-71.03-149.63l836.97,440.44c78.92,41.53,155.14,111.71,163.33,206.81v14.15c0,87.06-82.12,158.87-158.13,201.3l-508.08,283.55c-53.47,29.84-108.58,87.03-107.66,148.25l1.49,9.68c.92,61.65,56.69,107.66,111.61,135.69l622.79,298.54c53.05,27.08,79.93,83.95,78.46,143.5l-.07,7.34c-1.28,51.74-42.1,99.64-85.85,127.28L-124.66,2527.28"/></g><g id="carte1"><path class="cls-1" d="M19.53,1878.57l-1.78-23.99,38.56-2.03,393.06-263.39c12.57-8.42,28.7-9.43,42.21-2.63l273.18,137.38-.6-9.56,21.3-1.35,1.71,27.12h-.11c-.18,2.02-1.2,3.98-3.12,5.26l-429.93,285.66c-10.01,6.65-22.8,7.44-33.55,2.08L22.03,1884.27c-2.24-1.12-3.1-3.58-2.5-5.7Z"/><path class="cls-37" d="M352.4,2005.39l429.93-285.66c4.52-3,4.11-9.76-.74-12.2l-291.63-146.66c-13.52-6.8-29.65-5.79-42.21,2.63L19.87,1850.22c-3.1,2.08-2.8,6.73.54,8.39l298.44,148.85c10.75,5.36,23.55,4.57,33.55-2.08Z"/><g class="cls-84"><ellipse class="cls-58" cx="406.79" cy="1783.69" rx="58.1" ry="34.33" transform="translate(-111.72 29.22) rotate(-3.62)"/><line class="cls-58" x1="533.26" y1="1848.46" x2="276.94" y2="1717.81"/><ellipse class="cls-58" cx="523.74" cy="1705.97" rx="53.62" ry="30.82" transform="translate(-106.59 36.44) rotate(-3.62)"/><path class="cls-78" d="M640.38,1671.22l-79.9,55.49c-.3.21-.69.24-1.02.07l-75.22-38.41c-.67-.34-.73-1.28-.11-1.71l81.19-55.57c.3-.21.7-.23,1.02-.06l73.93,38.49c.66.35.72,1.27.11,1.7Z"/><ellipse class="cls-58" cx="589.48" cy="1660.02" rx="153.16" ry="89.45" transform="translate(-103.56 40.5) rotate(-3.62)"/><ellipse class="cls-58" cx="285.6" cy="1861.06" rx="53.62" ry="30.82" transform="translate(-98.27 17.76) rotate(-3.04)"/><path class="cls-78" d="M168.28,1894.86l80.92-54.99c.23-.15.52-.17.77-.04l75.33,39.42c.5.26.54.97.07,1.28l-82.21,55.06c-.23.15-.52.17-.77.04l-74.04-39.49c-.5-.26-.53-.96-.07-1.28Z"/><ellipse class="cls-58" cx="219.4" cy="1906.34" rx="153.16" ry="89.45" transform="translate(-100.76 14.31) rotate(-3.04)"/></g><path class="cls-72" d="M347.05,1968.78l379.34-246.3c3.84-2.72,3.65-8.6-.35-10.62l-236.31-119.42c-11.15-5.63-24.66-4.4-35.36,3.22l-370.57,250.82c-2.64,1.88-2.49,5.93.26,7.31l234.88,117.55c8.87,4.44,19.59,3.46,28.11-2.55Z"/><ellipse class="cls-79" cx="576.38" cy="1565.08" rx="8.12" ry="5.15" transform="translate(-97.59 39.48) rotate(-3.62)"/><line class="cls-79" x1="587.37" y1="1547.5" x2="584.15" y2="1566.23"/><line class="cls-79" x1="584.86" y1="1542.66" x2="582.99" y2="1561.82"/><line class="cls-79" x1="581.91" y1="1540.2" x2="580.41" y2="1560.58"/><line class="cls-79" x1="578.18" y1="1539.26" x2="578.16" y2="1559.92"/><line class="cls-79" x1="574.06" y1="1539.23" x2="575.54" y2="1560.3"/><line class="cls-79" x1="569.43" y1="1540.4" x2="572.2" y2="1560.95"/><line class="cls-79" x1="566.31" y1="1542.22" x2="569.73" y2="1562.51"/><line class="cls-79" x1="563.58" y1="1545.48" x2="568.33" y2="1565.79"/><line class="cls-79" x1="584.96" y1="1552.28" x2="582.59" y2="1568.31"/><line class="cls-79" x1="582.19" y1="1553.86" x2="580.97" y2="1569.44"/><line class="cls-79" x1="579.03" y1="1555.08" x2="578.89" y2="1570.23"/><line class="cls-79" x1="575.4" y1="1555.83" x2="576.1" y2="1570.26"/><line class="cls-79" x1="572.53" y1="1555.64" x2="573.45" y2="1570.21"/><line class="cls-79" x1="569.43" y1="1554.37" x2="571.11" y2="1569.33"/><line class="cls-79" x1="566.49" y1="1553.16" x2="569.29" y2="1567.86"/><rect class="cls-53" x="600.15" y="1546.76" width="10.12" height="91.55" rx="4.13" ry="4.13" transform="translate(1309.69 3143.71) rotate(176.38)"/><polygon class="cls-54" points="563.16 1492.22 607.62 1514.68 610.02 1559.54 610.06 1560.19 608.9 1560.11 608.73 1558.97 565.95 1536.36 563.29 1494.27 561.54 1494.38 561.41 1492.33 563.16 1492.22"/><polygon class="cls-15" points="606.46 1514.62 608.9 1560.11 564.18 1536.47 561.39 1492.33 606.46 1514.62"/><path class="cls-69" d="M591.74,1529.57l.66,12.31c.09,1.71-1.71,2.86-3.22,2.06l-12.64-6.68c-.68-.36-1.12-1.04-1.17-1.8l-.75-11.92c-.11-1.69,1.65-2.86,3.17-2.11l12.74,6.3c.71.35,1.18,1.06,1.22,1.85Z"/><ellipse class="cls-62" cx="575.1" cy="1546.92" rx="12.65" ry="8.03" transform="translate(-96.45 39.36) rotate(-3.62)"/><polygon class="cls-29" points="189.25 1791.79 233.71 1814.25 236.11 1859.11 236.15 1859.76 234.99 1859.68 234.82 1858.54 192.04 1835.93 189.38 1793.84 187.63 1793.95 187.5 1791.9 189.25 1791.79"/><polygon class="cls-54" points="232.55 1814.19 234.99 1859.68 190.28 1836.04 187.48 1791.9 232.55 1814.19"/><path class="cls-24" d="M191.7,1839.92c.23-2.27,1.38-8,7.13-10.9,7.27-3.66,12.5-2.77,12.5-2.77,0,0,2.49,1.06,2.94,4.67.45,3.61-1.49,4.28-2.03,4.54-.54.25-7.6.15-11.82,4.88-.02.02-.07.04-.12.07,0,.05.02.11.03.16l5.98,94.55c.11,1.78-1.25,3.33-3.03,3.44l-2.31.15c-1.78.11-3.33-1.25-3.44-3.03l-5.98-94.55c-.03-.42.03-.82.16-1.2Z"/><polygon class="cls-8" points="329.36 753.51 325.4 579.37 758.19 478.32 758.52 492.67 329.36 753.51"/><polygon class="cls-55" points="23.42 566.86 23.81 583.73 329.36 753.51 325.03 563.32 23.42 566.86"/><polygon class="cls-40" points="23.42 566.86 329.03 739.15 758.19 478.32 446.41 305.49 23.42 566.86"/><polygon class="cls-70" points="115.16 569.91 312.65 680.34 655.76 471.41 455.18 360.02 115.16 569.91"/><line class="cls-65" x1="198.57" y1="477.37" x2="469.46" y2="627.18"/><line class="cls-65" x1="577.51" y1="565.2" x2="305.79" y2="409.25"/><line class="cls-65" x1="289.38" y1="462.22" x2="485.75" y2="576.18"/><line class="cls-74" x1="272.64" y1="365.31" x2="504.17" y2="498.69"/><line class="cls-74" x1="273.49" y1="402.49" x2="505.01" y2="535.87"/><line class="cls-60" x1="273.39" y1="398.36" x2="504.92" y2="531.74"/><line class="cls-60" x1="273.3" y1="394.23" x2="504.82" y2="527.61"/><line class="cls-60" x1="273.2" y1="390.1" x2="504.73" y2="523.48"/><line class="cls-60" x1="273.11" y1="385.97" x2="504.64" y2="519.34"/><line class="cls-60" x1="273.02" y1="381.84" x2="504.54" y2="515.21"/><line class="cls-60" x1="272.92" y1="377.71" x2="504.45" y2="511.08"/><line class="cls-60" x1="272.83" y1="373.57" x2="504.35" y2="506.95"/><line class="cls-60" x1="272.73" y1="369.44" x2="504.26" y2="502.82"/><line class="cls-60" x1="494.48" y1="493.89" x2="495.32" y2="530.82"/><line class="cls-60" x1="489.23" y1="488.88" x2="490.12" y2="527.86"/><line class="cls-60" x1="483.38" y1="487.3" x2="484.22" y2="524.23"/><line class="cls-60" x1="477.84" y1="484.34" x2="478.68" y2="521.26"/><line class="cls-60" x1="472.6" y1="479.33" x2="473.49" y2="518.3"/><line class="cls-60" x1="439.72" y1="462.29" x2="440.56" y2="499.21"/><line class="cls-60" x1="467.45" y1="478.43" x2="468.29" y2="515.35"/><line class="cls-60" x1="462.2" y1="473.42" x2="463.09" y2="512.39"/><line class="cls-60" x1="456.35" y1="471.84" x2="457.19" y2="508.77"/><line class="cls-60" x1="450.81" y1="468.88" x2="451.65" y2="505.8"/><line class="cls-60" x1="445.57" y1="463.87" x2="446.45" y2="502.84"/><line class="cls-60" x1="434.17" y1="459.17" x2="435.01" y2="496.09"/><line class="cls-60" x1="429.66" y1="456.2" x2="430.5" y2="493.13"/><line class="cls-60" x1="424.41" y1="451.19" x2="425.3" y2="490.17"/><line class="cls-60" x1="418.56" y1="449.61" x2="419.4" y2="486.54"/><line class="cls-60" x1="413.02" y1="446.65" x2="413.86" y2="483.57"/><line class="cls-60" x1="407.78" y1="441.64" x2="408.66" y2="480.61"/><line class="cls-60" x1="374.89" y1="424.6" x2="375.73" y2="461.52"/><line class="cls-60" x1="402.63" y1="440.74" x2="403.47" y2="477.66"/><line class="cls-60" x1="397.38" y1="435.73" x2="398.27" y2="474.7"/><line class="cls-60" x1="391.53" y1="434.15" x2="392.37" y2="471.08"/><line class="cls-60" x1="385.99" y1="431.19" x2="386.83" y2="468.11"/><line class="cls-60" x1="380.75" y1="426.18" x2="381.63" y2="465.15"/><line class="cls-60" x1="369.35" y1="421.48" x2="370.19" y2="458.4"/><line class="cls-60" x1="364.17" y1="419.38" x2="365.01" y2="456.31"/><line class="cls-60" x1="358.93" y1="414.37" x2="359.81" y2="453.35"/><line class="cls-60" x1="353.08" y1="412.79" x2="353.92" y2="449.72"/><line class="cls-60" x1="347.54" y1="409.83" x2="348.38" y2="446.76"/><line class="cls-60" x1="342.29" y1="404.82" x2="343.18" y2="443.79"/><line class="cls-60" x1="309.41" y1="387.78" x2="310.25" y2="424.71"/><line class="cls-60" x1="337.14" y1="403.92" x2="337.98" y2="440.84"/><line class="cls-60" x1="331.9" y1="398.91" x2="332.78" y2="437.88"/><line class="cls-60" x1="326.04" y1="397.33" x2="326.89" y2="434.26"/><line class="cls-60" x1="320.5" y1="394.37" x2="321.34" y2="431.29"/><line class="cls-60" x1="315.26" y1="389.36" x2="316.15" y2="428.33"/><line class="cls-60" x1="303.87" y1="384.66" x2="304.71" y2="421.58"/><line class="cls-60" x1="282.19" y1="371.81" x2="283.03" y2="408.73"/><line class="cls-60" x1="298.83" y1="381.36" x2="299.67" y2="418.29"/><line class="cls-60" x1="293.29" y1="378.4" x2="294.13" y2="415.32"/><line class="cls-60" x1="288.05" y1="373.39" x2="288.93" y2="412.36"/><line class="cls-60" x1="276.65" y1="368.69" x2="277.49" y2="405.61"/><rect class="cls-47" x="269.62" y="364.41" width="6.38" height="96.66" transform="translate(-9.32 6.31) rotate(-1.3)"/><rect class="cls-47" x="500.37" y="493.93" width="6.38" height="96.66" transform="translate(-12.2 11.6) rotate(-1.3)"/><polygon class="cls-2" points="396.21 1134.3 396.95 1146.52 842.76 1368.43 1141.02 1171.61 1140.22 1158.27 750.24 1147.74 396.21 1134.3"/><polygon class="cls-18" points="395.54 1123.1 396.28 1135.33 842.09 1357.24 1140.35 1160.42 1139.54 1147.08 840.94 1344.29 395.54 1123.1"/><polyline class="cls-9" points="395.54 1123.1 695.59 925.14 1139.54 1147.08 840.94 1344.29 395.54 1123.1"/><g class="cls-83"><polygon class="cls-61" points="493.07 1069.34 591.09 1122.56 724.69 1034.75 613.22 980.67 493.07 1069.34"/><path class="cls-61" d="M1075.66,1139.1s-19.73,15.13,2.68,26.05"/><path class="cls-61" d="M815.57,1312.06s23.21-22.04,47.27-2.29"/><path class="cls-61" d="M457.84,1104.93s19.73,12.76,2.23,27.75"/><path class="cls-61" d="M674.01,961.95s24.51,18.04,43.97-1.53"/><ellipse class="cls-61" cx="767.61" cy="1136.19" rx="54.56" ry="38.14" transform="translate(-66.93 48.21) rotate(-3.45)"/><line class="cls-61" x1="638.83" y1="1220.64" x2="896.8" y2="1049.48"/><polygon class="cls-61" points="1007.06 1211.51 926.87 1264.48 876.57 1234.71 956.76 1181.74 1007.06 1211.51"/><polygon class="cls-61" points="820.87 1233.28 910.41 1284.59 1043.87 1194.56 951.67 1145.46 820.87 1233.28"/><polygon class="cls-61" points="527.74 1058.51 581.77 1088.17 660.93 1035.06 599.24 1004.75 518.5 1053.31 527.74 1058.51"/></g><polygon class="cls-64" points="438.64 1119.47 840.2 1322.85 1098.14 1151.14 694.45 949.56 438.64 1119.47"/><polyline class="cls-77" points="896.27 1244.36 893.87 1192.07 973.7 1140.78 976.12 1193.44"/><path class="cls-77" d="M931.04,1259.74s-11.33-46.17-37.17-67.67"/><path class="cls-77" d="M1009.75,1208.52s-11.9-56.42-35.36-69.22"/><path class="cls-61" d="M624.37,1100.85s24.3,23.82,61.72,2.98c37.42-20.85,5.72-47.01,5.72-47.01l-67.44,44.03Z"/><path class="cls-61" d="M845.67,1215.99s-26.6-27.96,1.29-46.56c27.88-18.6,60.73-4.22,64.73.56"/><polyline class="cls-61" points="561.77 1077.1 557.8 1023.61 638.33 971.53 640.76 1024.19"/><path class="cls-61" d="M527.98,1059.43s1.31-33.73,29.12-35.03"/><path class="cls-61" d="M609.48,1004.88s-.77-34.35,30.99-34.96"/><path class="cls-19" d="M4.53,1914.57l-.36,35.63-24.11-18.36,23.39,26.63.36,47.87s6.36,3.72,12.48.72c.34-.17,1.2-36.35,1.2-36.35l15.12-16.2-15.12,9-1.08-50.03-11.88,1.08Z"/><ellipse class="cls-14" cx="9.57" cy="1873.18" rx="53.99" ry="50.9"/><ellipse class="cls-10" cx="-7.61" cy="1854.61" rx="30.68" ry="23.37" transform="translate(-1120.52 371.02) rotate(-37.11)"/><ellipse class="cls-14" cx="-41.54" cy="1914.19" rx="53.99" ry="50.9"/><path class="cls-19" d="M34.85,2039.63l-.36,35.63-24.11-18.36,23.39,26.63.36,47.87s6.36,3.72,12.48.72c.34-.17,1.2-36.35,1.2-36.35l15.12-16.2-15.12,9-1.08-50.03-11.88,1.08Z"/><ellipse class="cls-14" cx="39.89" cy="1998.24" rx="53.99" ry="50.9"/><ellipse class="cls-10" cx="22.71" cy="1979.67" rx="30.68" ry="23.37" transform="translate(-1189.84 414.64) rotate(-37.11)"/><path class="cls-19" d="M83.54,1993.55l-.59,58.5-39.59-30.14,38.41,43.73.59,78.59s10.44,6.11,20.49,1.18c.56-.27,1.97-59.68,1.97-59.68l24.82-26.59-24.82,14.77-1.77-82.14-19.5,1.77Z"/><ellipse class="cls-14" cx="91.82" cy="1925.6" rx="88.64" ry="83.57"/><ellipse class="cls-10" cx="63.62" cy="1895.11" rx="50.37" ry="38.37" transform="translate(-1130.53 422.19) rotate(-37.11)"/><path class="cls-19" d="M201.13,2009.4l-.36,35.63-24.11-18.36,23.39,26.63.36,47.87s6.36,3.72,12.48.72c.34-.17,1.2-36.35,1.2-36.35l15.12-16.2-15.12,9-1.08-50.03-11.88,1.08Z"/><ellipse class="cls-14" cx="206.17" cy="1968.01" rx="53.99" ry="50.9"/><ellipse class="cls-10" cx="188.99" cy="1949.44" rx="30.68" ry="23.37" transform="translate(-1137.92 508.84) rotate(-37.11)"/><path class="cls-19" d="M150.02,2050.42l-.36,35.63-24.11-18.36,23.39,26.63.36,47.87s6.36,3.72,12.48.72c.34-.17,1.2-36.35,1.2-36.35l15.12-16.2-15.12,9-1.08-50.03-11.88,1.08Z"/><ellipse class="cls-14" cx="155.06" cy="2009.02" rx="53.99" ry="50.9"/><ellipse class="cls-10" cx="137.89" cy="1990.46" rx="30.68" ry="23.37" transform="translate(-1173.02 486.31) rotate(-37.11)"/><ellipse class="cls-14" cx="-46.96" cy="1999.61" rx="88.64" ry="83.57"/><path class="cls-19" d="M62.35,2083.42l-.36,35.63-24.11-18.36,23.39,26.63.36,47.87s6.36,3.72,12.48.72c.34-.17,1.2-36.35,1.2-36.35l15.12-16.2-15.12,9-1.08-50.03-11.88,1.08Z"/><ellipse class="cls-14" cx="67.39" cy="2042.03" rx="53.99" ry="50.9"/><ellipse class="cls-10" cx="50.22" cy="2023.46" rx="30.68" ry="23.37" transform="translate(-1210.69 440.1) rotate(-37.11)"/><path class="cls-19" d="M11.25,2124.43l-.36,35.63-24.11-18.36,23.39,26.63.36,47.87s6.36,3.72,12.48.72c.34-.17,1.2-36.35,1.2-36.35l15.12-16.2-15.12,9-1.08-50.03-11.88,1.08Z"/><ellipse class="cls-14" cx="16.29" cy="2083.04" rx="53.99" ry="50.9"/><ellipse class="cls-10" cx="-.89" cy="2064.47" rx="30.68" ry="23.37" transform="translate(-1245.78 417.57) rotate(-37.11)"/><path class="cls-19" d="M16.38,632.15l-.36,35.63-24.11-18.36,23.39,26.63.36,47.87s6.36,3.72,12.48.72c.34-.17,1.2-36.35,1.2-36.35l15.12-16.2-15.12,9-1.08-50.03-11.88,1.08Z"/><ellipse class="cls-14" cx="21.42" cy="590.76" rx="53.99" ry="50.9"/><ellipse class="cls-10" cx="4.25" cy="572.19" rx="30.68" ry="23.37" transform="translate(-344.37 118.44) rotate(-37.11)"/><ellipse class="cls-14" cx="-29.69" cy="631.77" rx="53.99" ry="50.9"/><path class="cls-19" d="M46.7,757.21l-.36,35.63-24.11-18.36,23.39,26.63.36,47.87s6.36,3.72,12.48.72c.34-.17,1.2-36.35,1.2-36.35l15.12-16.2-15.12,9-1.08-50.03-11.88,1.08Z"/><ellipse class="cls-14" cx="51.74" cy="715.82" rx="53.99" ry="50.9"/><ellipse class="cls-10" cx="34.56" cy="697.25" rx="30.68" ry="23.37" transform="translate(-413.69 162.07) rotate(-37.11)"/><path class="cls-19" d="M95.39,711.13l-.59,58.5-39.59-30.14,38.41,43.73.59,78.59s10.44,6.11,20.49,1.18c.56-.27,1.97-59.68,1.97-59.68l24.82-26.59-24.82,14.77-1.77-82.14-19.5,1.77Z"/><ellipse class="cls-14" cx="103.67" cy="643.18" rx="88.64" ry="83.57"/><ellipse class="cls-10" cx="75.47" cy="612.69" rx="50.37" ry="38.37" transform="translate(-354.38 169.62) rotate(-37.11)"/><path class="cls-19" d="M212.98,726.98l-.36,35.63-24.11-18.36,23.39,26.63.36,47.87s6.36,3.72,12.48.72c.34-.17,1.2-36.35,1.2-36.35l15.12-16.2-15.12,9-1.08-50.03-11.88,1.08Z"/><ellipse class="cls-14" cx="218.02" cy="685.59" rx="53.99" ry="50.9"/><ellipse class="cls-10" cx="200.85" cy="667.02" rx="30.68" ry="23.37" transform="translate(-361.77 256.27) rotate(-37.11)"/><path class="cls-19" d="M161.87,767.99l-.36,35.63-24.11-18.36,23.39,26.63.36,47.87s6.36,3.72,12.48.72c.34-.17,1.2-36.35,1.2-36.35l15.12-16.2-15.12,9-1.08-50.03-11.88,1.08Z"/><ellipse class="cls-14" cx="166.91" cy="726.6" rx="53.99" ry="50.9"/><ellipse class="cls-10" cx="149.74" cy="708.03" rx="30.68" ry="23.37" transform="translate(-396.87 233.74) rotate(-37.11)"/><path class="cls-19" d="M-43.38,785.15l-.59,58.5-39.59-30.14,38.41,43.73.59,78.59s10.44,6.11,20.49,1.18c.56-.27,1.97-59.68,1.97-59.68l24.82-26.59-24.82,14.77-1.77-82.14-19.5,1.77Z"/><ellipse class="cls-14" cx="-35.11" cy="717.19" rx="88.64" ry="83.57"/><path class="cls-19" d="M74.21,800.99l-.36,35.63-24.11-18.36,23.39,26.63.36,47.87s6.36,3.72,12.48.72c.34-.17,1.2-36.35,1.2-36.35l15.12-16.2-15.12,9-1.08-50.03-11.88,1.08Z"/><ellipse class="cls-14" cx="79.24" cy="759.6" rx="53.99" ry="50.9"/><ellipse class="cls-10" cx="62.07" cy="741.03" rx="30.68" ry="23.37" transform="translate(-434.53 187.53) rotate(-37.11)"/><path class="cls-19" d="M23.1,842.01l-.36,35.63-24.11-18.36,23.39,26.63.36,47.87s6.36,3.72,12.48.72c.34-.17,1.2-36.35,1.2-36.35l15.12-16.2-15.12,9-1.08-50.03-11.88,1.08Z"/><ellipse class="cls-14" cx="28.14" cy="800.62" rx="53.99" ry="50.9"/><ellipse class="cls-10" cx="10.96" cy="782.05" rx="30.68" ry="23.37" transform="translate(-469.63 165) rotate(-37.11)"/><path class="cls-19" d="M1110.35,1261.22l-.36,35.63-24.11-18.36,23.39,26.63.36,47.87s6.36,3.72,12.48.72c.34-.17,1.2-36.35,1.2-36.35l15.12-16.2-15.12,9-1.08-50.03-11.88,1.08Z"/><ellipse class="cls-14" cx="1115.39" cy="1219.83" rx="53.99" ry="50.9"/><ellipse class="cls-10" cx="1098.21" cy="1201.26" rx="30.68" ry="23.37" transform="translate(-502.37 905.89) rotate(-37.11)"/><path class="cls-19" d="M1159.04,1215.14l-.59,58.5-39.59-30.14,38.41,43.73.59,78.59s10.44,6.11,20.49,1.18c.56-.27,1.97-59.68,1.97-59.68l24.82-26.59-24.82,14.77-1.77-82.14-19.5,1.77Z"/><ellipse class="cls-14" cx="1167.32" cy="1147.19" rx="88.64" ry="83.57"/><ellipse class="cls-10" cx="1139.12" cy="1116.7" rx="50.37" ry="38.37" transform="translate(-443.06 913.45) rotate(-37.11)"/><path class="cls-19" d="M976.2,1349.12l-.36,35.63-24.11-18.36,23.39,26.63.36,47.87s6.36,3.72,12.48.72c.34-.17,1.2-36.35,1.2-36.35l15.12-16.2-15.12,9-1.08-50.03-11.88,1.08Z"/><ellipse class="cls-14" cx="981.24" cy="1307.72" rx="53.99" ry="50.9"/><ellipse class="cls-10" cx="964.06" cy="1289.16" rx="30.68" ry="23.37" transform="translate(-582.57 842.75) rotate(-37.11)"/><path class="cls-19" d="M1024.89,1303.03l-.59,58.5-39.59-30.14,38.41,43.73.59,78.59s10.44,6.11,20.49,1.18c.56-.27,1.97-59.68,1.97-59.68l24.82-26.59-24.82,14.77-1.77-82.14-19.5,1.77Z"/><ellipse class="cls-14" cx="1033.16" cy="1235.08" rx="88.64" ry="83.57"/><ellipse class="cls-10" cx="1004.96" cy="1204.59" rx="50.37" ry="38.37" transform="translate(-523.26 850.31) rotate(-37.11)"/><path class="cls-19" d="M1142.48,1318.88l-.36,35.63-24.11-18.36,23.39,26.63.36,47.87s6.36,3.72,12.48.72c.34-.17,1.2-36.35,1.2-36.35l15.12-16.2-15.12,9-1.08-50.03-11.88,1.08Z"/><ellipse class="cls-14" cx="1147.52" cy="1277.49" rx="53.99" ry="50.9"/><ellipse class="cls-10" cx="1130.34" cy="1258.92" rx="30.68" ry="23.37" transform="translate(-530.65 936.96) rotate(-37.11)"/><path class="cls-19" d="M1091.37,1359.9l-.36,35.63-24.11-18.36,23.39,26.63.36,47.87s6.36,3.72,12.48.72c.34-.17,1.2-36.35,1.2-36.35l15.12-16.2-15.12,9-1.08-50.03-11.88,1.08Z"/><ellipse class="cls-14" cx="1096.41" cy="1318.51" rx="53.99" ry="50.9"/><ellipse class="cls-10" cx="1079.23" cy="1299.94" rx="30.68" ry="23.37" transform="translate(-565.75 914.43) rotate(-37.11)"/><ellipse class="cls-14" cx="1173.21" cy="1388.68" rx="53.99" ry="50.9"/><path class="cls-19" d="M-5.35,165.78l-.36,35.63-24.11-18.36,23.39,26.63.36,47.87s6.36,3.72,12.48.72c.34-.17,1.2-36.35,1.2-36.35l15.12-16.2-15.12,9-1.08-50.03-11.88,1.08Z"/><ellipse class="cls-14" cx="-.31" cy="124.38" rx="53.99" ry="50.9"/><ellipse class="cls-10" cx="-17.48" cy="105.81" rx="30.68" ry="23.37" transform="translate(-67.38 10.88) rotate(-37.11)"/><path class="cls-19" d="M43.35,119.69l-.59,58.5L3.16,148.06l38.41,43.73.59,78.59s10.44,6.11,20.49,1.18c.56-.27,1.97-59.68,1.97-59.68l24.82-26.59-24.82,14.77-1.77-82.14-19.5,1.77Z"/><ellipse class="cls-14" cx="51.62" cy="51.74" rx="88.64" ry="83.57"/><ellipse class="cls-10" cx="23.42" cy="21.25" rx="50.37" ry="38.37" transform="translate(-8.08 18.43) rotate(-37.11)"/><path class="cls-19" d="M160.93,135.54l-.36,35.63-24.11-18.36,23.39,26.63.36,47.87s6.36,3.72,12.48.72c.34-.17,1.2-36.35,1.2-36.35l15.12-16.2-15.12,9-1.08-50.03-11.88,1.08Z"/><ellipse class="cls-14" cx="165.97" cy="94.15" rx="53.99" ry="50.9"/><ellipse class="cls-10" cx="148.8" cy="75.58" rx="30.68" ry="23.37" transform="translate(-15.47 105.08) rotate(-37.11)"/><path class="cls-19" d="M109.83,176.56l-.36,35.63-24.11-18.36,23.39,26.63.36,47.87s6.36,3.72,12.48.72c.34-.17,1.2-36.35,1.2-36.35l15.12-16.2-15.12,9-1.08-50.03-11.88,1.08Z"/><ellipse class="cls-14" cx="114.87" cy="135.17" rx="53.99" ry="50.9"/><ellipse class="cls-10" cx="97.69" cy="116.6" rx="30.68" ry="23.37" transform="translate(-50.56 82.55) rotate(-37.11)"/><path class="cls-19" d="M191.25,260.61l-.36,35.63-24.11-18.36,23.39,26.63.36,47.87s6.36,3.72,12.48.72c.34-.17,1.2-36.35,1.2-36.35l15.12-16.2-15.12,9-1.08-50.03-11.88,1.08Z"/><ellipse class="cls-14" cx="196.29" cy="219.22" rx="53.99" ry="50.9"/><ellipse class="cls-10" cx="179.12" cy="200.65" rx="30.68" ry="23.37" transform="translate(-84.78 148.71) rotate(-37.11)"/><path class="cls-19" d="M239.95,214.52l-.59,58.5-39.59-30.14,38.41,43.73.59,78.59s10.44,6.11,20.49,1.18c.56-.27,1.97-59.68,1.97-59.68l24.82-26.59-24.82,14.77-1.77-82.14-19.5,1.77Z"/><ellipse class="cls-14" cx="248.22" cy="146.57" rx="88.64" ry="83.57"/><ellipse class="cls-10" cx="220.02" cy="116.08" rx="50.37" ry="38.37" transform="translate(-25.48 156.26) rotate(-37.11)"/><path class="cls-19" d="M357.53,230.37l-.36,35.63-24.11-18.36,23.39,26.63.36,47.87s6.36,3.72,12.48.72c.34-.17,1.2-36.35,1.2-36.35l15.12-16.2-15.12,9-1.08-50.03-11.88,1.08Z"/><ellipse class="cls-14" cx="362.57" cy="188.98" rx="53.99" ry="50.9"/><ellipse class="cls-10" cx="345.4" cy="170.41" rx="30.68" ry="23.37" transform="translate(-32.87 242.91) rotate(-37.11)"/><path class="cls-19" d="M306.43,271.39l-.36,35.63-24.11-18.36,23.39,26.63.36,47.87s6.36,3.72,12.48.72c.34-.17,1.2-36.35,1.2-36.35l15.12-16.2-15.12,9-1.08-50.03-11.88,1.08Z"/><ellipse class="cls-14" cx="311.47" cy="230" rx="53.99" ry="50.9"/><ellipse class="cls-10" cx="294.29" cy="211.43" rx="30.68" ry="23.37" transform="translate(-67.96 220.38) rotate(-37.11)"/><ellipse class="cls-14" cx="-82.53" cy="139.63" rx="88.64" ry="83.57"/><path class="cls-19" d="M26.78,223.43l-.36,35.63-24.11-18.36,23.39,26.63.36,47.87s6.36,3.72,12.48.72c.34-.17,1.2-36.35,1.2-36.35l15.12-16.2-15.12,9-1.08-50.03-11.88,1.08Z"/><ellipse class="cls-14" cx="31.82" cy="182.04" rx="53.99" ry="50.9"/><ellipse class="cls-10" cx="14.65" cy="163.47" rx="30.68" ry="23.37" transform="translate(-95.67 41.94) rotate(-37.11)"/><path class="cls-19" d="M-24.32,264.45l-.36,35.63-24.11-18.36,23.39,26.63.36,47.87s6.36,3.72,12.48.72c.34-.17,1.2-36.35,1.2-36.35l15.12-16.2-15.12,9-1.08-50.03-11.88,1.08Z"/><ellipse class="cls-14" cx="-19.29" cy="223.06" rx="53.99" ry="50.9"/><path class="cls-19" d="M52.48,334.62l-.36,35.63-24.11-18.36,23.39,26.63.36,47.87s6.36,3.72,12.48.72c.34-.17,1.2-36.35,1.2-36.35l15.12-16.2-15.12,9-1.08-50.03-11.88,1.08Z"/><ellipse class="cls-14" cx="57.52" cy="293.23" rx="53.99" ry="50.9"/><ellipse class="cls-10" cx="40.34" cy="274.66" rx="30.68" ry="23.37" transform="translate(-157.55 79.96) rotate(-37.11)"/><path class="cls-19" d="M101.17,288.54l-.59,58.5-39.59-30.14,38.41,43.73.59,78.59s10.44,6.11,20.49,1.18c.56-.27,1.97-59.68,1.97-59.68l24.82-26.59-24.82,14.77-1.77-82.14-19.5,1.77Z"/><ellipse class="cls-14" cx="109.44" cy="220.58" rx="88.64" ry="83.57"/><ellipse class="cls-10" cx="81.24" cy="190.09" rx="50.37" ry="38.37" transform="translate(-98.24 87.52) rotate(-37.11)"/><path class="cls-19" d="M218.76,304.39l-.36,35.63-24.11-18.36,23.39,26.63.36,47.87s6.36,3.72,12.48.72c.34-.17,1.2-36.35,1.2-36.35l15.12-16.2-15.12,9-1.08-50.03-11.88,1.08Z"/><ellipse class="cls-14" cx="223.8" cy="263" rx="53.99" ry="50.9"/><ellipse class="cls-10" cx="206.62" cy="244.43" rx="30.68" ry="23.37" transform="translate(-105.63 174.17) rotate(-37.11)"/><path class="cls-19" d="M167.65,345.4l-.36,35.63-24.11-18.36,23.39,26.63.36,47.87s6.36,3.72,12.48.72c.34-.17,1.2-36.35,1.2-36.35l15.12-16.2-15.12,9-1.08-50.03-11.88,1.08Z"/><ellipse class="cls-14" cx="172.69" cy="304.01" rx="53.99" ry="50.9"/><ellipse class="cls-10" cx="155.51" cy="285.44" rx="30.68" ry="23.37" transform="translate(-140.73 151.64) rotate(-37.11)"/><path class="cls-19" d="M-2.48,1435.81l-.36,35.63-24.11-18.36,23.39,26.63.36,47.87s6.36,3.72,12.48.72c.34-.17,1.2-36.35,1.2-36.35l15.12-16.2-15.12,9-1.08-50.03-11.88,1.08Z"/><ellipse class="cls-14" cx="2.56" cy="1394.42" rx="53.99" ry="50.9"/><ellipse class="cls-10" cx="-14.62" cy="1375.85" rx="30.68" ry="23.37" transform="translate(-833.08 269.82) rotate(-37.11)"/><path class="cls-19" d="M46.21,1389.73l-.59,58.5-39.59-30.14,38.41,43.73.59,78.59s10.44,6.11,20.49,1.18c.56-.27,1.97-59.68,1.97-59.68l24.82-26.59-24.82,14.77-1.77-82.14-19.5,1.77Z"/><ellipse class="cls-14" cx="54.49" cy="1321.78" rx="88.64" ry="83.57"/><ellipse class="cls-10" cx="26.29" cy="1291.29" rx="50.37" ry="38.37" transform="translate(-773.78 277.38) rotate(-37.11)"/><path class="cls-19" d="M163.8,1405.58l-.36,35.63-24.11-18.36,23.39,26.63.36,47.87s6.36,3.72,12.48.72c.34-.17,1.2-36.35,1.2-36.35l15.12-16.2-15.12,9-1.08-50.03-11.88,1.08Z"/><ellipse class="cls-14" cx="168.84" cy="1364.19" rx="53.99" ry="50.9"/><ellipse class="cls-10" cx="151.66" cy="1345.62" rx="30.68" ry="23.37" transform="translate(-781.17 364.03) rotate(-37.11)"/><path class="cls-19" d="M112.69,1446.59l-.36,35.63-24.11-18.36,23.39,26.63.36,47.87s6.36,3.72,12.48.72c.34-.17,1.2-36.35,1.2-36.35l15.12-16.2-15.12,9-1.08-50.03-11.88,1.08Z"/><ellipse class="cls-14" cx="117.73" cy="1405.2" rx="53.99" ry="50.9"/><ellipse class="cls-10" cx="100.56" cy="1386.63" rx="30.68" ry="23.37" transform="translate(-816.26 341.5) rotate(-37.11)"/><path class="cls-19" d="M194.12,1530.64l-.36,35.63-24.11-18.36,23.39,26.63.36,47.87s6.36,3.72,12.48.72c.34-.17,1.2-36.35,1.2-36.35l15.12-16.2-15.12,9-1.08-50.03-11.88,1.08Z"/><ellipse class="cls-14" cx="199.16" cy="1489.25" rx="53.99" ry="50.9"/><ellipse class="cls-10" cx="181.98" cy="1470.68" rx="30.68" ry="23.37" transform="translate(-850.48 407.65) rotate(-37.11)"/><path class="cls-19" d="M242.81,1484.56l-.59,58.5-39.59-30.14,38.41,43.73.59,78.59s10.44,6.11,20.49,1.18c.56-.27,1.97-59.68,1.97-59.68l24.82-26.59-24.82,14.77-1.77-82.14-19.5,1.77Z"/><ellipse class="cls-14" cx="251.09" cy="1416.61" rx="88.64" ry="83.57"/><ellipse class="cls-10" cx="222.89" cy="1386.12" rx="50.37" ry="38.37" transform="translate(-791.18 415.2) rotate(-37.11)"/><path class="cls-19" d="M360.4,1500.41l-.36,35.63-24.11-18.36,23.39,26.63.36,47.87s6.36,3.72,12.48.72c.34-.17,1.2-36.35,1.2-36.35l15.12-16.2-15.12,9-1.08-50.03-11.88,1.08Z"/><ellipse class="cls-14" cx="365.44" cy="1459.02" rx="53.99" ry="50.9"/><ellipse class="cls-10" cx="348.26" cy="1440.45" rx="30.68" ry="23.37" transform="translate(-798.57 501.85) rotate(-37.11)"/><path class="cls-19" d="M309.29,1541.43l-.36,35.63-24.11-18.36,23.39,26.63.36,47.87s6.36,3.72,12.48.72c.34-.17,1.2-36.35,1.2-36.35l15.12-16.2-15.12,9-1.08-50.03-11.88,1.08Z"/><ellipse class="cls-14" cx="314.33" cy="1500.03" rx="53.99" ry="50.9"/><ellipse class="cls-10" cx="297.16" cy="1481.46" rx="30.68" ry="23.37" transform="translate(-833.66 479.32) rotate(-37.11)"/><ellipse class="cls-14" cx="-79.67" cy="1409.67" rx="88.64" ry="83.57"/><path class="cls-19" d="M29.65,1493.47l-.36,35.63-24.11-18.36,23.39,26.63.36,47.87s6.36,3.72,12.48.72c.34-.17,1.2-36.35,1.2-36.35l15.12-16.2-15.12,9-1.08-50.03-11.88,1.08Z"/><ellipse class="cls-14" cx="34.69" cy="1452.08" rx="53.99" ry="50.9"/><ellipse class="cls-10" cx="17.51" cy="1433.51" rx="30.68" ry="23.37" transform="translate(-861.37 300.89) rotate(-37.11)"/><path class="cls-19" d="M-21.46,1534.49l-.36,35.63-24.11-18.36,23.39,26.63.36,47.87s6.36,3.72,12.48.72c.34-.17,1.2-36.35,1.2-36.35l15.12-16.2-15.12,9-1.08-50.03-11.88,1.08Z"/><ellipse class="cls-14" cx="-16.42" cy="1493.1" rx="53.99" ry="50.9"/><path class="cls-19" d="M48.64,1583.06l-.36,35.63-24.11-18.36,23.39,26.63.36,47.87s6.36,3.72,12.48.72c.34-.17,1.2-36.35,1.2-36.35l15.12-16.2-15.12,9-1.08-50.03-11.88,1.08Z"/><ellipse class="cls-14" cx="53.68" cy="1541.67" rx="53.99" ry="50.9"/><ellipse class="cls-10" cx="36.5" cy="1523.1" rx="30.68" ry="23.37" transform="translate(-911.57 330.49) rotate(-37.11)"/><path class="cls-19" d="M104.1,1527.54l-.49,48.24-32.65-24.85,31.68,36.06.49,64.81s8.61,5.04,16.89.97c.46-.23,1.62-49.22,1.62-49.22l20.47-21.93-20.47,12.18-1.46-67.74-16.08,1.46Z"/><ellipse class="cls-14" cx="110.92" cy="1471.5" rx="73.1" ry="68.92"/><ellipse class="cls-10" cx="87.66" cy="1446.36" rx="41.54" ry="31.64" transform="translate(-854.91 345.81) rotate(-37.11)"/><path class="cls-19" d="M928.61,778.57l-.36,35.63-24.11-18.36,23.39,26.63.36,47.87s6.36,3.72,12.48.72c.34-.17,1.2-36.35,1.2-36.35l15.12-16.2-15.12,9-1.08-50.03-11.88,1.08Z"/><ellipse class="cls-14" cx="933.65" cy="737.18" rx="53.99" ry="50.9"/><ellipse class="cls-10" cx="916.47" cy="718.61" rx="30.68" ry="23.37" transform="translate(-247.97 698.49) rotate(-37.11)"/><path class="cls-19" d="M977.3,732.49l-.59,58.5-39.59-30.14,38.41,43.73.59,78.59s10.44,6.11,20.49,1.18c.56-.27,1.97-59.68,1.97-59.68l24.82-26.59-24.82,14.77-1.77-82.14-19.5,1.77Z"/><ellipse class="cls-14" cx="985.58" cy="664.54" rx="88.64" ry="83.57"/><ellipse class="cls-10" cx="957.38" cy="634.05" rx="50.37" ry="38.37" transform="translate(-188.66 706.05) rotate(-37.11)"/><path class="cls-19" d="M1094.89,748.34l-.36,35.63-24.11-18.36,23.39,26.63.36,47.87s6.36,3.72,12.48.72c.34-.17,1.2-36.35,1.2-36.35l15.12-16.2-15.12,9-1.08-50.03-11.88,1.08Z"/><ellipse class="cls-14" cx="1099.93" cy="706.95" rx="53.99" ry="50.9"/><ellipse class="cls-10" cx="1082.76" cy="688.38" rx="30.68" ry="23.37" transform="translate(-196.05 792.7) rotate(-37.11)"/><path class="cls-19" d="M1043.78,789.36l-.36,35.63-24.11-18.36,23.39,26.63.36,47.87s6.36,3.72,12.48.72c.34-.17,1.2-36.35,1.2-36.35l15.12-16.2-15.12,9-1.08-50.03-11.88,1.08Z"/><ellipse class="cls-14" cx="1048.82" cy="747.97" rx="53.99" ry="50.9"/><ellipse class="cls-10" cx="1031.65" cy="729.4" rx="30.68" ry="23.37" transform="translate(-231.15 770.17) rotate(-37.11)"/><path class="cls-19" d="M1125.21,873.41l-.36,35.63-24.11-18.36,23.39,26.63.36,47.87s6.36,3.72,12.48.72c.34-.17,1.2-36.35,1.2-36.35l15.12-16.2-15.12,9-1.08-50.03-11.88,1.08Z"/><ellipse class="cls-14" cx="1130.25" cy="832.02" rx="53.99" ry="50.9"/><ellipse class="cls-10" cx="1113.08" cy="813.45" rx="30.68" ry="23.37" transform="translate(-265.37 836.32) rotate(-37.11)"/><ellipse class="cls-14" cx="1182.18" cy="759.37" rx="88.64" ry="83.57"/><ellipse class="cls-10" cx="1153.98" cy="728.88" rx="50.37" ry="38.37" transform="translate(-206.06 843.87) rotate(-37.11)"/><path class="cls-19" d="M794.46,866.47l-.36,35.63-24.11-18.36,23.39,26.63.36,47.87s6.36,3.72,12.48.72c.34-.17,1.2-36.35,1.2-36.35l15.12-16.2-15.12,9-1.08-50.03-11.88,1.08Z"/><ellipse class="cls-14" cx="799.5" cy="825.08" rx="53.99" ry="50.9"/><ellipse class="cls-10" cx="782.32" cy="806.51" rx="30.68" ry="23.37" transform="translate(-328.17 635.35) rotate(-37.11)"/><path class="cls-19" d="M843.15,820.39l-.59,58.5-39.59-30.14,38.41,43.73.59,78.59s10.44,6.11,20.49,1.18c.56-.27,1.97-59.68,1.97-59.68l24.82-26.59-24.82,14.77-1.77-82.14-19.5,1.77Z"/><ellipse class="cls-14" cx="851.43" cy="752.43" rx="88.64" ry="83.57"/><ellipse class="cls-10" cx="823.23" cy="721.94" rx="50.37" ry="38.37" transform="translate(-268.86 642.91) rotate(-37.11)"/><path class="cls-19" d="M960.74,836.23l-.36,35.63-24.11-18.36,23.39,26.63.36,47.87s6.36,3.72,12.48.72c.34-.17,1.2-36.35,1.2-36.35l15.12-16.2-15.12,9-1.08-50.03-11.88,1.08Z"/><ellipse class="cls-14" cx="965.78" cy="794.84" rx="53.99" ry="50.9"/><ellipse class="cls-10" cx="948.6" cy="776.27" rx="30.68" ry="23.37" transform="translate(-276.25 729.56) rotate(-37.11)"/><path class="cls-19" d="M909.63,877.25l-.36,35.63-24.11-18.36,23.39,26.63.36,47.87s6.36,3.72,12.48.72c.34-.17,1.2-36.35,1.2-36.35l15.12-16.2-15.12,9-1.08-50.03-11.88,1.08Z"/><ellipse class="cls-14" cx="914.67" cy="835.86" rx="53.99" ry="50.9"/><ellipse class="cls-10" cx="897.5" cy="817.29" rx="30.68" ry="23.37" transform="translate(-311.35 707.03) rotate(-37.11)"/><path class="cls-19" d="M986.44,947.42l-.36,35.63-24.11-18.36,23.39,26.63.36,47.87s6.36,3.72,12.48.72c.34-.17,1.2-36.35,1.2-36.35l15.12-16.2-15.12,9-1.08-50.03-11.88,1.08Z"/><ellipse class="cls-14" cx="991.47" cy="906.03" rx="53.99" ry="50.9"/><ellipse class="cls-10" cx="974.3" cy="887.46" rx="30.68" ry="23.37" transform="translate(-338.13 767.58) rotate(-37.11)"/><path class="cls-19" d="M1035.13,901.34l-.59,58.5-39.59-30.14,38.41,43.73.59,78.59s10.44,6.11,20.49,1.18c.56-.27,1.97-59.68,1.97-59.68l24.82-26.59-24.82,14.77-1.77-82.14-19.5,1.77Z"/><ellipse class="cls-14" cx="1043.4" cy="833.38" rx="88.64" ry="83.57"/><ellipse class="cls-10" cx="1015.2" cy="802.89" rx="50.37" ry="38.37" transform="translate(-278.82 775.13) rotate(-37.11)"/><ellipse class="cls-14" cx="1157.76" cy="875.8" rx="53.99" ry="50.9"/><ellipse class="cls-10" cx="1140.58" cy="857.23" rx="30.68" ry="23.37" transform="translate(-286.21 861.78) rotate(-37.11)"/><path class="cls-19" d="M1101.61,958.2l-.36,35.63-24.11-18.36,23.39,26.63.36,47.87s6.36,3.72,12.48.72c.34-.17,1.2-36.35,1.2-36.35l15.12-16.2-15.12,9-1.08-50.03-11.88,1.08Z"/><ellipse class="cls-14" cx="1106.65" cy="916.81" rx="53.99" ry="50.9"/><ellipse class="cls-10" cx="1089.47" cy="898.24" rx="30.68" ry="23.37" transform="translate(-321.31 839.25) rotate(-37.11)"/><path class="cls-19" d="M884.6-43.28l-.3,30.13-20.39-15.52,19.78,22.52.3,40.48s5.38,3.14,10.55.61c.29-.14,1.01-30.74,1.01-30.74l12.78-13.7-12.78,7.61-.91-42.3-10.04.91Z"/><path class="cls-19" d="M925.77-82.25l-.5,49.47-33.48-25.48,32.48,36.98.5,66.46s8.83,5.16,17.32,1c.47-.23,1.67-50.47,1.67-50.47l20.99-22.48-20.99,12.49-1.5-69.45-16.49,1.5Z"/><path class="cls-19" d="M1025.2-68.85l-.3,30.13-20.39-15.52,19.78,22.52.3,40.48s5.38,3.14,10.55.61c.29-.14,1.01-30.74,1.01-30.74l12.78-13.7-12.78,7.61-.91-42.3-10.04.91Z"/><path class="cls-19" d="M981.98-34.17l-.3,30.13-20.39-15.52,19.78,22.52.3,40.48s5.38,3.14,10.55.61c.29-.14,1.01-30.74,1.01-30.74l12.78-13.7-12.78,7.61-.91-42.3-10.04.91Z"/><path class="cls-19" d="M1050.84,36.9l-.3,30.13-20.39-15.52,19.78,22.52.3,40.48s5.38,3.14,10.55.61c.29-.14,1.01-30.74,1.01-30.74l12.78-13.7-12.78,7.61-.91-42.3-10.04.91Z"/><ellipse class="cls-14" cx="1055.1" cy="1.91" rx="45.65" ry="43.04"/><ellipse class="cls-10" cx="1040.57" cy="-13.8" rx="25.94" ry="19.76" transform="translate(219.07 625.04) rotate(-37.11)"/><path class="cls-19" d="M1092.01-2.06l-.5,49.47-33.48-25.48,32.48,36.98.5,66.46s8.83,5.16,17.32,1c.47-.23,1.67-50.47,1.67-50.47l20.99-22.48-20.99,12.49-1.5-69.45-16.49,1.5Z"/><ellipse class="cls-14" cx="1099.01" cy="-59.52" rx="74.95" ry="70.67"/><path class="cls-19" d="M771.16,31.04l-.3,30.13-20.39-15.52,19.78,22.52.3,40.48s5.38,3.14,10.55.61c.29-.14,1.01-30.74,1.01-30.74l12.78-13.7-12.78,7.61-.91-42.3-10.04.91Z"/><ellipse class="cls-14" cx="775.42" cy="-3.96" rx="45.65" ry="43.04"/><ellipse class="cls-10" cx="760.9" cy="-19.66" rx="25.94" ry="19.76" transform="translate(165.97 455.11) rotate(-37.11)"/><path class="cls-19" d="M812.34-7.93l-.5,49.47-33.48-25.48,32.48,36.98.5,66.46s8.83,5.16,17.32,1c.47-.23,1.67-50.47,1.67-50.47l20.99-22.48-20.99,12.49-1.5-69.45-16.49,1.5Z"/><ellipse class="cls-14" cx="819.33" cy="-65.39" rx="74.95" ry="70.67"/><path class="cls-19" d="M911.76,5.47l-.3,30.13-20.39-15.52,19.78,22.52.3,40.48s5.38,3.14,10.55.61c.29-.14,1.01-30.74,1.01-30.74l12.78-13.7-12.78,7.61-.91-42.3-10.04.91Z"/><ellipse class="cls-14" cx="916.03" cy="-29.53" rx="45.65" ry="43.04"/><path class="cls-19" d="M1074.09,73.92l-.3,30.13-20.39-15.52,19.78,22.52.3,40.48s5.38,3.14,10.55.61c.29-.14,1.01-30.74,1.01-30.74l12.78-13.7-12.78,7.61-.91-42.3-10.04.91Z"/><ellipse class="cls-14" cx="1078.35" cy="38.93" rx="45.65" ry="43.04"/><ellipse class="cls-10" cx="1063.83" cy="23.22" rx="25.94" ry="19.76" transform="translate(201.44 646.57) rotate(-37.11)"/><path class="cls-19" d="M722.32-54.88l-.5,49.47-33.48-25.48,32.48,36.98.5,66.46s8.83,5.16,17.32,1c.47-.23,1.67-50.47,1.67-50.47l20.99-22.48-20.99,12.49-1.5-69.45-16.49,1.5Z"/><path class="cls-19" d="M683.16-29.3l-.3,30.13-20.39-15.52,19.78,22.52.3,40.48s5.38,3.14,10.55.61c.29-.14,1.01-30.74,1.01-30.74l12.78-13.7-12.78,7.61-.91-42.3-10.04.91Z"/><path class="cls-19" d="M1137.8,65.38l-.3,30.13-20.39-15.52,19.78,22.52.3,40.48s5.38,3.14,10.55.61c.29-.14,1.01-30.74,1.01-30.74l12.78-13.7-12.78,7.61-.91-42.3-10.04.91Z"/><ellipse class="cls-14" cx="1142.06" cy="30.39" rx="45.65" ry="43.04"/><ellipse class="cls-10" cx="1127.53" cy="14.68" rx="25.94" ry="19.76" transform="translate(219.49 683.27) rotate(-37.11)"/><path class="cls-19" d="M1092.01-2.06l-.5,49.47-33.48-25.48,32.48,36.98.5,66.46s8.83,5.16,17.32,1c.47-.23,1.67-50.47,1.67-50.47l20.99-22.48-20.99,12.49-1.5-69.45-16.49,1.5Z"/><ellipse class="cls-14" cx="1099.01" cy="-59.52" rx="74.95" ry="70.67"/><path class="cls-19" d="M1074.09,73.92l-.3,30.13-20.39-15.52,19.78,22.52.3,40.48s5.38,3.14,10.55.61c.29-.14,1.01-30.74,1.01-30.74l12.78-13.7-12.78,7.61-.91-42.3-10.04.91Z"/><ellipse class="cls-14" cx="1078.35" cy="38.93" rx="45.65" ry="43.04"/><ellipse class="cls-10" cx="1063.83" cy="23.22" rx="25.94" ry="19.76" transform="translate(201.44 646.57) rotate(-37.11)"/><ellipse class="cls-14" cx="1142.06" cy="30.39" rx="45.65" ry="43.04"/><ellipse class="cls-10" cx="1127.53" cy="14.68" rx="25.94" ry="19.76" transform="translate(219.49 683.27) rotate(-37.11)"/><path class="cls-19" d="M1134.82,243.15l-.3,30.13-20.39-15.52,19.78,22.52.3,40.48s5.38,3.14,10.55.61c.29-.14,1.01-30.74,1.01-30.74l12.78-13.7-12.78,7.61-.91-42.3-10.04.91Z"/><path class="cls-19" d="M1089.03,175.7l-.5,49.47-33.48-25.48,32.48,36.98.5,66.46s8.83,5.16,17.32,1c.47-.23,1.67-50.47,1.67-50.47l20.99-22.48-20.99,12.49-1.5-69.45-16.49,1.5Z"/><ellipse class="cls-14" cx="1096.03" cy="118.24" rx="74.95" ry="70.67"/><ellipse class="cls-10" cx="1072.18" cy="92.46" rx="42.59" ry="32.45" transform="translate(161.36 665.63) rotate(-37.11)"/><path class="cls-19" d="M1071.11,251.69l-.3,30.13-20.39-15.52,19.78,22.52.3,40.48s5.38,3.14,10.55.61c.29-.14,1.01-30.74,1.01-30.74l12.78-13.7-12.78,7.61-.91-42.3-10.04.91Z"/><ellipse class="cls-14" cx="1075.37" cy="216.69" rx="45.65" ry="43.04"/><ellipse class="cls-10" cx="1060.85" cy="200.99" rx="25.94" ry="19.76" transform="translate(93.58 680.77) rotate(-37.11)"/><ellipse class="cls-14" cx="1139.08" cy="208.15" rx="45.65" ry="43.04"/><ellipse class="cls-10" cx="1124.55" cy="192.45" rx="25.94" ry="19.76" transform="translate(111.64 717.48) rotate(-37.11)"/><path class="cls-19" d="M1147.62,348.5l-.5,49.47-33.48-25.48,32.48,36.98.5,66.46s8.83,5.16,17.32,1c.47-.23,1.67-50.47,1.67-50.47l20.99-22.48-20.99,12.49-1.5-69.45-16.49,1.5Z"/><ellipse class="cls-14" cx="1154.62" cy="291.04" rx="74.95" ry="70.67"/><ellipse class="cls-10" cx="1130.77" cy="265.26" rx="42.59" ry="32.45" transform="translate(68.96 735.98) rotate(-37.11)"/><path class="cls-19" d="M1129.71,424.49l-.3,30.13-20.39-15.52,19.78,22.52.3,40.48s5.38,3.14,10.55.61c.29-.14,1.01-30.74,1.01-30.74l12.78-13.7-12.78,7.61-.91-42.3-10.04.91Z"/><ellipse class="cls-14" cx="1133.97" cy="389.49" rx="45.65" ry="43.04"/><ellipse class="cls-10" cx="1119.44" cy="373.79" rx="25.94" ry="19.76" transform="translate(1.19 751.12) rotate(-37.11)"/><path class="cls-19" d="M1147.62,348.5l-.5,49.47-33.48-25.48,32.48,36.98.5,66.46s8.83,5.16,17.32,1c.47-.23,1.67-50.47,1.67-50.47l20.99-22.48-20.99,12.49-1.5-69.45-16.49,1.5Z"/><ellipse class="cls-14" cx="1154.62" cy="291.04" rx="74.95" ry="70.67"/><ellipse class="cls-10" cx="1130.77" cy="265.26" rx="42.59" ry="32.45" transform="translate(68.96 735.98) rotate(-37.11)"/><path class="cls-19" d="M1129.71,424.49l-.3,30.13-20.39-15.52,19.78,22.52.3,40.48s5.38,3.14,10.55.61c.29-.14,1.01-30.74,1.01-30.74l12.78-13.7-12.78,7.61-.91-42.3-10.04.91Z"/><ellipse class="cls-14" cx="1133.97" cy="389.49" rx="45.65" ry="43.04"/><ellipse class="cls-10" cx="1119.44" cy="373.79" rx="25.94" ry="19.76" transform="translate(1.19 751.12) rotate(-37.11)"/><path class="cls-51" d="M1019.75,136.77v11.74s-7.43,25.34-61.15,25.17c-53.72-.17-58.26-27.94-58.26-27.94l-.36-8.97h119.76Z"/><ellipse class="cls-26" cx="959.87" cy="136.77" rx="59.88" ry="31.17"/><ellipse class="cls-17" cx="960.53" cy="136.68" rx="51.76" ry="25.34"/><path class="cls-56" d="M923.21,117.61v37.76c0,1.64,2.78,2.98,6.21,2.98s6.21-1.33,6.21-2.98v-37.76h-12.42Z"/><ellipse class="cls-45" cx="929.42" cy="117.61" rx="6.21" ry="2.98"/><path class="cls-56" d="M933.07,58.32l-7.22,2.28v56.25h0s0,.03,0,.05c0,.87,1.62,1.58,3.61,1.58s3.61-.71,3.61-1.58c0-.02,0-.04,0-.05h0v-58.53Z"/><path class="cls-56" d="M965.27,121.7v37.76c0,1.64,2.78,2.98,6.21,2.98s6.21-1.33,6.21-2.98v-37.76h-12.42Z"/><ellipse class="cls-45" cx="971.48" cy="121.7" rx="6.21" ry="2.98"/><path class="cls-56" d="M975.13,62.41l-7.22,2.28v56.25h0s0,.03,0,.05c0,.87,1.62,1.58,3.61,1.58s3.61-.71,3.61-1.58c0-.02,0-.04,0-.05h0v-58.53Z"/><path class="cls-56" d="M997.96,108.27v37.76c0,1.64,2.78,2.98,6.21,2.98s6.21-1.33,6.21-2.98v-37.76h-12.42Z"/><ellipse class="cls-45" cx="1004.17" cy="108.27" rx="6.21" ry="2.98"/><path class="cls-56" d="M1007.82,48.98l-7.22,2.28v56.25h0s0,.03,0,.05c0,.87,1.62,1.58,3.61,1.58s3.61-.71,3.61-1.58c0-.02,0-.04,0-.05h0v-58.53Z"/><path class="cls-56" d="M909.91,92.81v37.76c0,1.64,2.78,2.98,6.21,2.98s6.21-1.33,6.21-2.98v-37.76h-12.42Z"/><ellipse class="cls-45" cx="916.12" cy="92.81" rx="6.21" ry="2.98"/><path class="cls-56" d="M919.77,33.52l-7.22,2.28v56.25h0s0,.03,0,.05c0,.87,1.62,1.58,3.61,1.58s3.61-.71,3.61-1.58c0-.02,0-.04,0-.05h0v-58.53Z"/><path class="cls-56" d="M941.71,78.24v37.76c0,1.64,2.78,2.98,6.21,2.98s6.21-1.33,6.21-2.98v-37.76h-12.42Z"/><ellipse class="cls-45" cx="947.92" cy="78.24" rx="6.21" ry="2.98"/><path class="cls-56" d="M951.57,18.95l-7.22,2.28v56.25h0s0,.03,0,.05c0,.87,1.62,1.58,3.61,1.58s3.61-.71,3.61-1.58c0-.02,0-.04,0-.05h0V18.95Z"/><path class="cls-56" d="M984.53,83.94v37.76c0,1.64,2.78,2.98,6.21,2.98s6.21-1.33,6.21-2.98v-37.76h-12.42Z"/><ellipse class="cls-45" cx="990.74" cy="83.94" rx="6.21" ry="2.98"/><path class="cls-56" d="M994.39,24.65l-7.22,2.28v56.25h0s0,.03,0,.05c0,.87,1.62,1.58,3.61,1.58s3.61-.71,3.61-1.58c0-.02,0-.04,0-.05h0V24.65Z"/><polygon class="cls-45" points="897.75 39.26 897.62 29.29 1022.92 30.39 1022.16 39.26 969.33 53.95 905.98 39.51 897.75 39.26"/><ellipse class="cls-45" cx="959.95" cy="37.74" rx="62.2" ry="28.13"/><ellipse class="cls-30" cx="960.33" cy="31.85" rx="62.71" ry="30.47"/><ellipse class="cls-35" cx="960.33" cy="29.29" rx="62.71" ry="30.47"/><path class="cls-31" d="M1011.96,22.19c-6.39-44.85-53.4-44.5-53.4-44.5-36.93,3.43-47.42,30.44-50.28,42.52-.67,1.88-1.03,3.82-1.03,5.81,0,16.27,23.54,29.46,52.58,29.46s52.58-13.19,52.58-29.46c0-1.3-.15-2.58-.44-3.83Z"/><polyline class="cls-52" points="925.03 1014.02 925.03 1030.2 928.68 1030.2 928.68 1013.78 925.03 1014.02"/><polygon class="cls-52" points="957.72 1030.52 957.72 1046.22 961.44 1046.22 961.44 1029.8 957.72 1030.52"/><polygon class="cls-52" points="969.06 1027.03 969.06 1040.43 972.71 1040.43 972.71 1023.61 969.06 1027.03"/><polyline class="cls-52" points="936.38 1017.82 936.38 1024.8 940.26 1024.8 940.26 1017.35 936.38 1017.82"/><polyline class="cls-42" points="927.41 1014.02 927.41 1030.2 928.68 1030.2 928.68 1013.78 927.41 1014.02"/><polyline class="cls-42" points="939.07 1008.54 939.07 1024.73 940.19 1024.73 940.19 1008.3 939.07 1008.54"/><polyline class="cls-42" points="960.26 1030.04 960.26 1046.22 961.52 1046.22 961.52 1029.8 960.26 1030.04"/><polyline class="cls-42" points="971.36 1024.41 971.36 1040.59 972.63 1040.59 972.63 1024.17 971.36 1024.41"/><polygon class="cls-25" points="934.2 1005.29 934.2 1006.72 973.94 1027.58 979.41 1024.57 979.49 1023.06 934.2 1005.29"/><polygon class="cls-23" points="974.02 1026.15 979.49 1023.06 940.07 1002.43 934.2 1005.29 974.02 1026.15"/><polygon class="cls-25" points="927.69 1008.54 927.69 1009.97 967.43 1030.83 972.91 1027.82 972.99 1026.31 927.69 1008.54"/><polygon class="cls-23" points="967.51 1029.41 972.99 1026.31 933.56 1005.69 927.69 1008.54 967.51 1029.41"/><polygon class="cls-25" points="921.15 1011.95 921.15 1013.38 960.89 1034.24 966.36 1031.23 966.44 1029.72 921.15 1011.95"/><polygon class="cls-23" points="960.97 1032.82 966.44 1029.72 927.02 1009.1 921.15 1011.95 960.97 1032.82"/><polyline class="cls-52" points="864.45 983.23 864.45 999.41 868.1 999.41 868.1 982.99 864.45 983.23"/><polygon class="cls-52" points="897.14 999.73 897.14 1015.44 900.87 1015.44 900.87 999.02 897.14 999.73"/><polygon class="cls-52" points="908.48 996.24 908.48 1009.65 912.13 1009.65 912.13 992.83 908.48 996.24"/><polyline class="cls-52" points="875.8 987.04 875.8 994.02 879.69 994.02 879.69 986.56 875.8 987.04"/><polyline class="cls-42" points="866.83 983.23 866.83 999.41 868.1 999.41 868.1 982.99 866.83 983.23"/><polyline class="cls-42" points="878.5 977.76 878.5 993.94 879.61 993.94 879.61 977.52 878.5 977.76"/><polyline class="cls-42" points="899.68 999.25 899.68 1015.44 900.94 1015.44 900.94 999.02 899.68 999.25"/><polyline class="cls-42" points="910.78 993.62 910.78 1009.8 912.05 1009.8 912.05 993.38 910.78 993.62"/><polygon class="cls-25" points="873.62 974.5 873.62 975.93 913.36 996.79 918.83 993.78 918.91 992.27 873.62 974.5"/><polygon class="cls-23" points="913.44 995.37 918.91 992.27 879.49 971.65 873.62 974.5 913.44 995.37"/><polygon class="cls-25" points="867.11 977.76 867.11 979.18 906.85 1000.05 912.33 997.03 912.41 995.53 867.11 977.76"/><polygon class="cls-23" points="906.93 998.62 912.41 995.53 872.98 974.9 867.11 977.76 906.93 998.62"/><polygon class="cls-25" points="860.57 981.17 860.57 982.6 900.31 1003.46 905.78 1000.44 905.86 998.94 860.57 981.17"/><polygon class="cls-23" points="900.39 1002.03 905.86 998.94 866.44 978.31 860.57 981.17 900.39 1002.03"/><polyline class="cls-52" points="850.43 155.28 850.43 171.46 854.08 171.46 854.08 155.04 850.43 155.28"/><polygon class="cls-52" points="883.11 171.78 883.11 187.48 886.84 187.48 886.84 171.06 883.11 171.78"/><polygon class="cls-52" points="894.45 168.29 894.45 181.69 898.1 181.69 898.1 164.87 894.45 168.29"/><polyline class="cls-52" points="861.77 159.08 861.77 166.06 865.66 166.06 865.66 158.61 861.77 159.08"/><polyline class="cls-42" points="852.81 155.28 852.81 171.46 854.08 171.46 854.08 155.04 852.81 155.28"/><polyline class="cls-42" points="864.47 149.8 864.47 165.98 865.58 165.98 865.58 149.56 864.47 149.8"/><polyline class="cls-42" points="885.65 171.3 885.65 187.48 886.92 187.48 886.92 171.06 885.65 171.3"/><polyline class="cls-42" points="896.75 165.67 896.75 181.85 898.02 181.85 898.02 165.43 896.75 165.67"/><polygon class="cls-25" points="859.59 146.55 859.59 147.98 899.33 168.84 904.81 165.83 904.88 164.32 859.59 146.55"/><polygon class="cls-23" points="899.41 167.41 904.88 164.32 865.46 143.69 859.59 146.55 899.41 167.41"/><polygon class="cls-25" points="853.08 149.8 853.08 151.23 892.83 172.09 898.3 169.08 898.38 167.57 853.08 149.8"/><polygon class="cls-23" points="892.91 170.66 898.38 167.57 858.95 146.95 853.08 149.8 892.91 170.66"/><polygon class="cls-25" points="846.54 153.21 846.54 154.64 886.28 175.5 891.76 172.49 891.84 170.98 846.54 153.21"/><polygon class="cls-23" points="886.36 174.08 891.84 170.98 852.41 150.36 846.54 153.21 886.36 174.08"/><polyline class="cls-52" points="902.56 183.58 902.56 199.76 906.21 199.76 906.21 183.34 902.56 183.58"/><polygon class="cls-52" points="935.25 200.08 935.25 215.79 938.98 215.79 938.98 199.37 935.25 200.08"/><polygon class="cls-52" points="946.59 196.59 946.59 209.99 950.24 209.99 950.24 193.18 946.59 196.59"/><polyline class="cls-52" points="913.91 187.39 913.91 194.37 917.8 194.37 917.8 186.91 913.91 187.39"/><polyline class="cls-42" points="904.94 183.58 904.94 199.76 906.21 199.76 906.21 183.34 904.94 183.58"/><polyline class="cls-42" points="916.61 178.11 916.61 194.29 917.72 194.29 917.72 177.87 916.61 178.11"/><polyline class="cls-42" points="937.79 199.6 937.79 215.79 939.06 215.79 939.06 199.37 937.79 199.6"/><polyline class="cls-42" points="948.89 193.97 948.89 210.15 950.16 210.15 950.16 193.73 948.89 193.97"/><polygon class="cls-25" points="911.73 174.85 911.73 176.28 951.47 197.14 956.94 194.13 957.02 192.62 911.73 174.85"/><polygon class="cls-23" points="951.55 195.72 957.02 192.62 917.6 172 911.73 174.85 951.55 195.72"/><polygon class="cls-25" points="905.22 178.11 905.22 179.53 944.97 200.4 950.44 197.38 950.52 195.87 905.22 178.11"/><polygon class="cls-23" points="945.04 198.97 950.52 195.87 911.09 175.25 905.22 178.11 945.04 198.97"/><polygon class="cls-25" points="898.68 181.52 898.68 182.94 938.42 203.81 943.89 200.79 943.97 199.29 898.68 181.52"/><polygon class="cls-23" points="938.5 202.38 943.97 199.29 904.55 178.66 898.68 181.52 938.5 202.38"/><polygon class="cls-43" points="101.3 1636.49 103.29 1681.63 111.26 1676.56 108.88 1622.49 101.3 1636.49"/><polygon class="cls-11" points="104.39 1633.37 106.55 1682.48 121.07 1673.64 118.8 1622.05 104.39 1633.37"/><polygon class="cls-43" points="147.03 1546.25 142.07 1546.47 59.1 1598.09 61.9 1656.12 66.6 1661.13 147.03 1546.25"/><polygon class="cls-11" points="63.84 1598.62 66.6 1661.13 149.79 1609 147.03 1546.25 63.84 1598.62"/><polygon class="cls-63" points="66.72 1601.95 69.08 1655.55 106.82 1631.97 104.4 1577.17 66.72 1601.95"/><polygon class="cls-63" points="107.48 1575.83 109.84 1629.43 147.57 1605.86 145.16 1551.05 107.48 1575.83"/><polygon class="cls-46" points="21.49 1720.27 34.71 1727.15 221.17 1604.62 206.93 1597.29 21.49 1720.27"/><polygon class="cls-46" points="34.55 1734.86 47.78 1741.73 234.24 1619.2 220 1611.88 34.55 1734.86"/><polygon class="cls-46" points="49.14 1750.12 62.37 1756.99 248.83 1634.46 234.59 1627.14 49.14 1750.12"/><polygon class="cls-46" points="61.75 1765.47 74.97 1772.34 261.43 1649.81 249.08 1642.07 61.75 1765.47"/><polygon class="cls-46" points="75.3 1779.78 90.51 1786.57 276.97 1664.04 262.73 1656.71 75.3 1779.78"/><polygon class="cls-44" points="75.3 1779.78 74.97 1772.34 261.43 1649.81 262.73 1656.71 75.3 1779.78"/><polygon class="cls-44" points="90.51 1786.57 90.9 1795.42 276.12 1674.93 276.97 1664.04 90.51 1786.57"/><polygon class="cls-44" points="62.37 1756.99 61.75 1765.47 249.08 1642.07 248.83 1634.46 62.37 1756.99"/><polygon class="cls-44" points="47.78 1741.73 49.14 1750.12 234.59 1627.14 234.24 1619.2 47.78 1741.73"/><polygon class="cls-44" points="34.55 1734.86 34.22 1727.17 221.17 1604.62 221.49 1611.81 34.55 1734.86"/><polygon class="cls-49" points="21.49 1720.27 34.22 1727.17 34.55 1734.86 47.78 1741.73 49.14 1750.12 62.37 1756.99 61.75 1765.47 74.97 1772.34 75.3 1779.78 90.51 1786.57 90.9 1795.42 22.44 1760.66 21.49 1720.27"/><path class="cls-5" d="M48.05,1693.79l-1.97-.98-8.52,5.94.49,11.18,11.66,7.12,9.79-6.21.09-2.79s-12.06-1.61-11.97.31-4.05-9.24-4.05-9.24l4.47-5.33Z"/><polygon class="cls-36" points="39.46 1699.73 48.05 1693.79 48.6 1704.75 59.59 1708.05 49.82 1714.69 39.7 1708.5 39.46 1699.73"/><polygon class="cls-38" points="39.46 1699.73 37.56 1698.75 38.05 1709.93 49.71 1717.05 49.82 1714.69 39.7 1708.5 39.46 1699.73"/><path class="cls-5" d="M60.23,1685.55l-1.97-.98-8.52,5.94.49,11.18,11.66,7.12,9.79-6.21.09-2.79s-12.06-1.61-11.97.31-4.05-9.24-4.05-9.24l4.47-5.33Z"/><polygon class="cls-36" points="51.65 1691.49 60.23 1685.55 60.79 1696.51 71.78 1699.81 62.01 1706.45 51.89 1700.26 51.65 1691.49"/><polygon class="cls-38" points="51.65 1691.49 49.75 1690.51 50.24 1701.69 61.9 1708.81 62.01 1706.45 51.89 1700.26 51.65 1691.49"/><path class="cls-5" d="M72.92,1677.41l-1.97-.98-8.52,5.94.49,11.18,11.66,7.12,9.79-6.21.09-2.79s-12.06-1.61-11.97.31-4.05-9.24-4.05-9.24l4.47-5.33Z"/><polygon class="cls-36" points="64.34 1683.36 72.92 1677.41 73.48 1688.38 84.47 1691.67 74.7 1698.31 64.58 1692.12 64.34 1683.36"/><polygon class="cls-38" points="64.34 1683.36 62.44 1682.37 62.93 1693.55 74.59 1700.67 74.7 1698.31 64.58 1692.12 64.34 1683.36"/><path class="cls-5" d="M106.98,1655.16l-1.97-.98-8.52,5.94.49,11.18,11.66,7.12,9.79-6.21.09-2.79s-12.06-1.61-11.97.31-4.05-9.24-4.05-9.24l4.47-5.33Z"/><polygon class="cls-36" points="98.4 1661.1 106.98 1655.16 107.54 1666.12 118.53 1669.42 108.76 1676.06 98.64 1669.87 98.4 1661.1"/><polygon class="cls-38" points="98.4 1661.1 96.5 1660.12 96.99 1671.3 108.65 1678.42 108.76 1676.06 98.64 1669.87 98.4 1661.1"/><path class="cls-5" d="M119.17,1646.92l-1.97-.98-8.52,5.94.49,11.18,11.66,7.12,9.79-6.21.09-2.79s-12.06-1.61-11.97.31-4.05-9.24-4.05-9.24l4.47-5.33Z"/><polygon class="cls-36" points="110.58 1652.86 119.17 1646.92 119.72 1657.88 130.72 1661.18 120.95 1667.82 110.83 1661.63 110.58 1652.86"/><polygon class="cls-38" points="110.58 1652.86 108.68 1651.88 109.18 1663.06 120.84 1670.18 120.95 1667.82 110.83 1661.63 110.58 1652.86"/><path class="cls-5" d="M131.86,1638.78l-1.97-.98-8.52,5.94.49,11.18,11.66,7.12,9.79-6.21.09-2.79s-12.06-1.61-11.97.31-4.05-9.24-4.05-9.24l4.47-5.33Z"/><polygon class="cls-36" points="123.27 1644.72 131.86 1638.78 132.41 1649.74 143.4 1653.04 133.64 1659.68 123.52 1653.49 123.27 1644.72"/><polygon class="cls-38" points="123.27 1644.72 121.37 1643.74 121.87 1654.92 133.53 1662.04 133.64 1659.68 123.52 1653.49 123.27 1644.72"/><path class="cls-5" d="M168.79,1613.92l-1.97-.98-8.52,5.94.49,11.18,11.66,7.12,9.79-6.21.09-2.79s-12.06-1.61-11.97.31c.08,1.92-4.05-9.24-4.05-9.24l4.47-5.33Z"/><polygon class="cls-36" points="160.2 1619.86 168.79 1613.92 169.34 1624.88 180.33 1628.18 170.56 1634.82 160.44 1628.63 160.2 1619.86"/><polygon class="cls-38" points="160.2 1619.86 158.3 1618.87 158.79 1630.06 170.45 1637.18 170.56 1634.82 160.44 1628.63 160.2 1619.86"/><path class="cls-5" d="M180.97,1605.68l-1.97-.98-8.52,5.94.49,11.18,11.66,7.12,9.79-6.21.09-2.79s-12.06-1.61-11.97.31c.08,1.92-4.05-9.24-4.05-9.24l4.47-5.33Z"/><polygon class="cls-36" points="172.39 1611.62 180.97 1605.68 181.53 1616.64 192.52 1619.94 182.75 1626.58 172.63 1620.39 172.39 1611.62"/><polygon class="cls-38" points="172.39 1611.62 170.49 1610.63 170.98 1621.82 182.64 1628.94 182.75 1626.58 172.63 1620.39 172.39 1611.62"/><path class="cls-5" d="M193.66,1597.54l-1.97-.98-8.52,5.94.49,11.18,11.66,7.12,9.79-6.21.09-2.79s-12.06-1.61-11.97.31-4.05-9.24-4.05-9.24l4.47-5.33Z"/><polygon class="cls-36" points="185.08 1603.48 193.66 1597.54 194.22 1608.5 205.21 1611.8 195.44 1618.44 185.32 1612.25 185.08 1603.48"/><polygon class="cls-38" points="185.08 1603.48 183.18 1602.5 183.67 1613.68 195.33 1620.8 195.44 1618.44 185.32 1612.25 185.08 1603.48"/><path class="cls-5" d="M79.33,1721.24l-1.97-.98-8.52,5.94.49,11.18,11.66,7.12,9.79-6.21.09-2.79s-12.06-1.61-11.97.31-4.05-9.24-4.05-9.24l4.47-5.33Z"/><polygon class="cls-36" points="70.74 1727.18 79.33 1721.24 79.88 1732.21 90.87 1735.5 81.1 1742.14 70.98 1735.95 70.74 1727.18"/><polygon class="cls-38" points="70.74 1727.18 68.84 1726.2 69.33 1737.38 80.99 1744.5 81.1 1742.14 70.98 1735.95 70.74 1727.18"/><path class="cls-5" d="M91.51,1713l-1.97-.98-8.52,5.94.49,11.18,11.66,7.12,9.79-6.21.09-2.79s-12.06-1.61-11.97.31c.08,1.92-4.05-9.24-4.05-9.24l4.47-5.33Z"/><polygon class="cls-36" points="82.93 1718.94 91.51 1713 92.07 1723.96 103.06 1727.26 93.29 1733.9 83.17 1727.71 82.93 1718.94"/><polygon class="cls-38" points="82.93 1718.94 81.03 1717.96 81.52 1729.14 93.18 1736.26 93.29 1733.9 83.17 1727.71 82.93 1718.94"/><path class="cls-5" d="M104.2,1704.86l-1.97-.98-8.52,5.94.49,11.18,11.66,7.12,9.79-6.21.09-2.79s-12.06-1.61-11.97.31-4.05-9.24-4.05-9.24l4.47-5.33Z"/><polygon class="cls-36" points="95.61 1710.81 104.2 1704.86 104.76 1715.83 115.75 1719.12 105.98 1725.76 95.86 1719.57 95.61 1710.81"/><polygon class="cls-38" points="95.61 1710.81 93.72 1709.82 94.21 1721 105.87 1728.12 105.98 1725.76 95.86 1719.57 95.61 1710.81"/><path class="cls-5" d="M138.26,1682.61l-1.97-.98-8.52,5.94.49,11.18,11.66,7.12,9.79-6.21.09-2.79s-12.06-1.61-11.97.31c.08,1.92-4.05-9.24-4.05-9.24l4.47-5.33Z"/><polygon class="cls-36" points="129.68 1688.55 138.26 1682.61 138.82 1693.57 149.81 1696.87 140.04 1703.51 129.92 1697.32 129.68 1688.55"/><polygon class="cls-38" points="129.68 1688.55 127.78 1687.57 128.27 1698.75 139.93 1705.87 140.04 1703.51 129.92 1697.32 129.68 1688.55"/><path class="cls-5" d="M150.45,1674.37l-1.97-.98-8.52,5.94.49,11.18,11.66,7.12,9.79-6.21.09-2.79s-12.06-1.61-11.97.31-4.05-9.24-4.05-9.24l4.47-5.33Z"/><polygon class="cls-36" points="141.86 1680.31 150.45 1674.37 151 1685.33 161.99 1688.63 152.23 1695.27 142.11 1689.08 141.86 1680.31"/><polygon class="cls-38" points="141.86 1680.31 139.96 1679.33 140.46 1690.51 152.12 1697.63 152.23 1695.27 142.11 1689.08 141.86 1680.31"/><path class="cls-5" d="M163.14,1666.23l-1.97-.98-8.52,5.94.49,11.18,11.66,7.12,9.79-6.21.09-2.79s-12.06-1.61-11.97.31-4.05-9.24-4.05-9.24l4.47-5.33Z"/><polygon class="cls-36" points="154.55 1672.17 163.14 1666.23 163.69 1677.2 174.68 1680.49 164.91 1687.13 154.79 1680.94 154.55 1672.17"/><polygon class="cls-38" points="154.55 1672.17 152.65 1671.19 153.15 1682.37 164.8 1689.49 164.91 1687.13 154.79 1680.94 154.55 1672.17"/><path class="cls-5" d="M200.07,1641.37l-1.97-.98-8.52,5.94.49,11.18,11.66,7.12,9.79-6.21.09-2.79s-12.06-1.61-11.97.31-4.05-9.24-4.05-9.24l4.47-5.33Z"/><polygon class="cls-36" points="191.48 1647.31 200.07 1641.37 200.62 1652.33 211.61 1655.63 201.84 1662.27 191.72 1656.08 191.48 1647.31"/><polygon class="cls-38" points="191.48 1647.31 189.58 1646.33 190.07 1657.51 201.73 1664.63 201.84 1662.27 191.72 1656.08 191.48 1647.31"/><path class="cls-5" d="M212.25,1633.13l-1.97-.98-8.52,5.94.49,11.18,11.66,7.12,9.79-6.21.09-2.79s-12.06-1.61-11.97.31-4.05-9.24-4.05-9.24l4.47-5.33Z"/><polygon class="cls-36" points="203.67 1639.07 212.25 1633.13 212.81 1644.09 223.8 1647.39 214.03 1654.03 203.91 1647.84 203.67 1639.07"/><polygon class="cls-38" points="203.67 1639.07 201.77 1638.08 202.26 1649.27 213.92 1656.39 214.03 1654.03 203.91 1647.84 203.67 1639.07"/><path class="cls-5" d="M224.94,1624.99l-1.97-.98-8.52,5.94.49,11.18,11.66,7.12,9.79-6.21.09-2.79s-12.06-1.61-11.97.31-4.05-9.24-4.05-9.24l4.47-5.33Z"/><polygon class="cls-36" points="216.36 1630.93 224.94 1624.99 225.5 1635.95 236.49 1639.25 226.72 1645.89 216.6 1639.7 216.36 1630.93"/><polygon class="cls-38" points="216.36 1630.93 214.46 1629.95 214.95 1641.13 226.61 1648.25 226.72 1645.89 216.6 1639.7 216.36 1630.93"/><path class="cls-5" d="M111.6,1748.65l-1.97-.98-8.52,5.94.49,11.18,11.66,7.12,9.79-6.21.09-2.79s-12.06-1.61-11.97.31-4.05-9.24-4.05-9.24l4.47-5.33Z"/><polygon class="cls-36" points="103.01 1754.59 111.6 1748.65 112.15 1759.61 123.14 1762.91 113.37 1769.55 103.25 1763.36 103.01 1754.59"/><polygon class="cls-38" points="103.01 1754.59 101.11 1753.6 101.6 1764.79 113.26 1771.91 113.37 1769.55 103.25 1763.36 103.01 1754.59"/><path class="cls-5" d="M123.78,1740.41l-1.97-.98-8.52,5.94.49,11.18,11.66,7.12,9.79-6.21.09-2.79s-12.06-1.61-11.97.31-4.05-9.24-4.05-9.24l4.47-5.33Z"/><polygon class="cls-36" points="115.2 1746.35 123.78 1740.41 124.34 1751.37 135.33 1754.67 125.56 1761.31 115.44 1755.12 115.2 1746.35"/><polygon class="cls-38" points="115.2 1746.35 113.3 1745.36 113.79 1756.55 125.45 1763.67 125.56 1761.31 115.44 1755.12 115.2 1746.35"/><path class="cls-5" d="M136.47,1732.27l-1.97-.98-8.52,5.94.49,11.18,11.66,7.12,9.79-6.21.09-2.79s-12.06-1.61-11.97.31-4.05-9.24-4.05-9.24l4.47-5.33Z"/><polygon class="cls-36" points="127.89 1738.21 136.47 1732.27 137.03 1743.23 148.02 1746.53 138.25 1753.17 128.13 1746.98 127.89 1738.21"/><polygon class="cls-38" points="127.89 1738.21 125.99 1737.23 126.48 1748.41 138.14 1755.53 138.25 1753.17 128.13 1746.98 127.89 1738.21"/><path class="cls-5" d="M170.53,1710.02l-1.97-.98-8.52,5.94.49,11.18,11.66,7.12,9.79-6.21.09-2.79s-12.06-1.61-11.97.31-4.05-9.24-4.05-9.24l4.47-5.33Z"/><polygon class="cls-36" points="161.95 1715.96 170.53 1710.02 171.09 1720.98 182.08 1724.28 172.31 1730.92 162.19 1724.73 161.95 1715.96"/><polygon class="cls-38" points="161.95 1715.96 160.05 1714.97 160.54 1726.16 172.2 1733.28 172.31 1730.92 162.19 1724.73 161.95 1715.96"/><path class="cls-5" d="M182.72,1701.78l-1.97-.98-8.52,5.94.49,11.18,11.66,7.12,9.79-6.21.09-2.79s-12.06-1.61-11.97.31c.08,1.92-4.05-9.24-4.05-9.24l4.47-5.33Z"/><polygon class="cls-36" points="174.13 1707.72 182.72 1701.78 183.28 1712.74 194.27 1716.04 184.5 1722.68 174.38 1716.49 174.13 1707.72"/><polygon class="cls-38" points="174.13 1707.72 172.24 1706.73 172.73 1717.91 184.39 1725.04 184.5 1722.68 174.38 1716.49 174.13 1707.72"/><path class="cls-5" d="M195.41,1693.64l-1.97-.98-8.52,5.94.49,11.18,11.66,7.12,9.79-6.21.09-2.79s-12.06-1.61-11.97.31-4.05-9.24-4.05-9.24l4.47-5.33Z"/><polygon class="cls-36" points="186.82 1699.58 195.41 1693.64 195.96 1704.6 206.96 1707.9 197.19 1714.54 187.07 1708.35 186.82 1699.58"/><polygon class="cls-38" points="186.82 1699.58 184.92 1698.59 185.42 1709.78 197.08 1716.9 197.19 1714.54 187.07 1708.35 186.82 1699.58"/><path class="cls-5" d="M232.34,1668.77l-1.97-.98-8.52,5.94.49,11.18,11.66,7.12,9.79-6.21.09-2.79s-12.06-1.61-11.97.31c.08,1.92-4.05-9.24-4.05-9.24l4.47-5.33Z"/><polygon class="cls-36" points="223.75 1674.72 232.34 1668.77 232.89 1679.74 243.88 1683.04 234.11 1689.67 223.99 1683.48 223.75 1674.72"/><polygon class="cls-38" points="223.75 1674.72 221.85 1673.73 222.34 1684.91 234 1692.03 234.11 1689.67 223.99 1683.48 223.75 1674.72"/><path class="cls-5" d="M244.52,1660.53l-1.97-.98-8.52,5.94.49,11.18,11.66,7.12,9.79-6.21.09-2.79s-12.06-1.61-11.97.31-4.05-9.24-4.05-9.24l4.47-5.33Z"/><polygon class="cls-36" points="235.94 1666.48 244.52 1660.53 245.08 1671.5 256.07 1674.8 246.3 1681.43 236.18 1675.24 235.94 1666.48"/><polygon class="cls-38" points="235.94 1666.48 234.04 1665.49 234.53 1676.67 246.19 1683.79 246.3 1681.43 236.18 1675.24 235.94 1666.48"/><path class="cls-5" d="M257.21,1652.39l-1.97-.98-8.52,5.94.49,11.18,11.66,7.12,9.79-6.21.09-2.79s-12.06-1.61-11.97.31c.08,1.92-4.05-9.24-4.05-9.24l4.47-5.33Z"/><polygon class="cls-36" points="248.63 1658.34 257.21 1652.39 257.77 1663.36 268.76 1666.66 258.99 1673.3 248.87 1667.11 248.63 1658.34"/><polygon class="cls-38" points="248.63 1658.34 246.73 1657.35 247.22 1668.53 258.88 1675.66 258.99 1673.3 248.87 1667.11 248.63 1658.34"/><polygon class="cls-76" points="17.51 425.94 42.99 440.13 114.23 398.54 88.84 383.77 17.51 425.94"/><path class="cls-66" d="M17.17,426.04l.3,71.67,25.02,15.36s0,0,0,0l.29-72.93-25.51-14.16c-.05-.03-.12,0-.12.07Z"/><polygon class="cls-80" points="114.23 398.54 114.23 469.58 42.8 512.91 42.8 440.13 114.23 398.54"/><g class="cls-82"><polygon class="cls-81" points="100.38 443.51 100.19 405.81 117.45 396.06 116.7 436.57 100.75 444.64 100.38 443.51"/><g class="cls-85"><polygon class="cls-33" points="114.54 436.57 96.16 429.44 91.1 443.23 105.54 452.79 114.54 436.57"/></g><line class="cls-71" x1="57.8" y1="424.94" x2="57.8" y2="511.22"/><line class="cls-71" x1="72.14" y1="417.09" x2="72.14" y2="503.36"/><line class="cls-71" x1="100.23" y1="402.26" x2="100.23" y2="488.54"/><line class="cls-71" x1="86.62" y1="408.85" x2="86.62" y2="495.12"/><line class="cls-71" x1="40.17" y1="476.9" x2="118.38" y2="434.88"/></g><polygon class="cls-68" points="114.23 398.54 114.23 469.58 42.8 512.91 42.8 440.13 114.23 398.54"/><polyline class="cls-59" points="114.23 398.54 130.39 398.54 130.39 436.15 114.26 436.15 114.26 398.54"/><polygon class="cls-67" points="54.5 462.55 56.19 461.52 56.28 466.49 54.59 467.47 54.5 462.55"/><polygon class="cls-67" points="54.66 499.69 56.35 498.66 56.44 503.63 54.76 504.61 54.66 499.69"/><polygon class="cls-67" points="68.94 454.86 70.63 453.83 70.72 458.8 69.03 459.78 68.94 454.86"/><polygon class="cls-67" points="68.96 491.06 70.65 490.03 70.75 495 69.06 495.98 68.96 491.06"/><polygon class="cls-67" points="83.52 447.12 85.21 446.09 85.3 451.06 83.62 452.04 83.52 447.12"/><polygon class="cls-67" points="97.07 439.95 98.76 438.92 98.86 443.89 97.17 444.87 97.07 439.95"/><polygon class="cls-67" points="83.45 482.38 85.14 481.35 85.23 486.32 83.55 487.31 83.45 482.38"/><polygon class="cls-67" points="96.96 474.13 98.64 473.1 98.74 478.07 97.05 479.06 96.96 474.13"/><polygon class="cls-67" points="111.73 465.18 113.41 464.14 113.51 469.11 111.82 470.1 111.73 465.18"/><rect class="cls-13" x="60.92" y="511.59" width="2" height="10.1" transform="translate(-11.02 1.44) rotate(-1.22)"/><rect class="cls-13" x="74.55" y="513.89" width="2" height="13.96" transform="translate(-11.11 1.73) rotate(-1.22)"/><rect class="cls-13" x="116.95" y="488.94" width="2" height="13.96" transform="translate(-10.56 2.63) rotate(-1.22)"/><rect class="cls-13" x="107.08" y="484.62" width="2" height="13.96" transform="translate(-10.47 2.42) rotate(-1.22)"/><polyline class="cls-41" points="55.4 508.06 55.43 509.73 70.66 518.84 124.11 487.38 124.16 485.54 82.32 497.71 65.29 506.09 55.4 508.06"/><polygon class="cls-34" points="55.4 508.06 55.79 508.29 70.62 517.17 124.16 485.54 105.94 477.16 55.4 508.06"/><path class="cls-4" d="M929.83,2073.1l35.27,39.91s29.19-12.46,29.52-12.6,44.28-32.95,44.72-33.21-6.92-11.36-6.92-11.36l-25.48-4.86-37.46,2.9-34.45,8.73-5.2,10.48Z"/><polygon class="cls-7" points="975.51 2138.7 973.7 2102.3 988.92 2110.13 991.45 2147.17 975.51 2138.7"/><polygon class="cls-39" points="1141.36 2008.22 1143.87 2044.92 991.45 2147.17 988.92 2110.13 1141.36 2008.22"/><polygon class="cls-39" points="896.34 2064.24 898.9 2101.61 1036.43 2011.3 1034.14 1972.89 896.34 2064.24"/><polygon class="cls-7" points="880.4 2055.77 896.34 2064.24 898.9 2101.61 882.68 2090.77 880.4 2055.77"/><polygon class="cls-39" points="1034.14 1972.89 1036.43 2011.3 1077.04 2031.05 1108.67 2009.43 1034.14 1972.89"/><polygon class="cls-12" points="896.34 2064.24 897.18 2076.47 1034.71 1986.16 1097.9 2016.66 1108.67 2009.43 1034.14 1972.89 896.34 2064.24"/><polygon class="cls-21" points="898.9 2101.61 975.51 2138.7 973.7 2102.3 978.78 2098.31 935.49 2077.6 898.9 2101.61"/><polygon class="cls-21" points="950.14 2068.01 1036.43 2011.3 1077.04 2031.05 1028.83 2064.85 1023.54 2060.71 1016.67 2066.82 1010.41 2061.78 1001.97 2068.05 995.46 2062.69 986.56 2069.1 979.04 2064.72 971.6 2069.9 965.25 2066.12 957.3 2070.42 950.14 2068.01"/><path class="cls-6" d="M908.66,2072.67c9.92-6.47,20.32-12.52,29.9-19.49,1.23-.9,2.3-1.04.67-.79.87-.13,1.78-.12,2.65-.17l12.12-.79c29.01-1.88,58.02-3.76,87.03-5.64,8.45-.55,16.91-1.1,25.36-1.64,2.99-.19,3.01-4.88,0-4.68-21.88,1.42-43.77,2.84-65.65,4.26-14.66.95-29.31,1.9-43.97,2.85-4.49.29-8.98.58-13.47.87-1.8.12-3.85-.02-5.53.67-1.84.75-3.64,2.37-5.3,3.45-3.6,2.35-7.2,4.69-10.8,7.04-5.13,3.34-10.25,6.68-15.38,10.03-2.52,1.64-.17,5.7,2.36,4.04h0Z"/><path class="cls-6" d="M915.63,2064.46c.68,9.89,1.35,19.78,2.03,29.67.2,2.99,4.89,3.01,4.68,0-.68-9.89-1.35-19.78-2.03-29.67-.2-2.99-4.89-3.01-4.68,0h0Z"/><path class="cls-6" d="M951.75,2050.17c.52,7.55,1.03,15.1,1.55,22.65.2,2.99,4.89,3.01,4.68,0-.52-7.55-1.03-15.1-1.55-22.65-.2-2.99-4.89-3.01-4.68,0h0Z"/><path class="cls-6" d="M981.65,2048.12c.49,7.17.98,14.35,1.47,21.52.2,2.99,4.89,3.01,4.68,0-.49-7.17-.98-14.35-1.47-21.52-.2-2.99-4.89-3.01-4.68,0h0Z"/><path class="cls-6" d="M1011.05,2045.42c.5,7.25.99,14.5,1.49,21.74.2,2.99,4.89,3.01,4.68,0-.5-7.25-.99-14.5-1.49-21.74-.2-2.99-4.89-3.01-4.68,0h0Z"/><path class="cls-50" d="M1042.07,2044.02c.29,4.3.59,8.61.88,12.91.15,2.19,3.58,2.21,3.43,0-.29-4.3-.59-8.61-.88-12.91-.15-2.19-3.58-2.21-3.43,0h0Z"/><polygon class="cls-4" points="973.7 2102.3 988.92 2110.13 1141.36 2008.22 1030.76 1953.32 880.4 2055.77 896.34 2064.24 1034.14 1972.89 1108.67 2009.43 973.7 2102.3"/><polygon class="cls-32" points="834.47 2037.53 846.49 2044.52 883.64 2023.54 870.75 2015.89 834.47 2037.53"/><polygon class="cls-27" points="834.47 2037.53 834.47 2049.11 846.71 2056.32 846.49 2044.52 834.47 2037.53"/><polygon class="cls-20" points="883.64 2023.54 846.49 2044.52 846.71 2056.32 883.64 2035.78 883.64 2023.54"/><polygon class="cls-21" points="834.03 2108.55 846.49 2116.2 883.53 2094.89 883.53 2089.98 846.27 2111.28 833.81 2103.96 834.03 2108.55"/><polygon class="cls-7" points="834.47 2049.11 846.71 2056.32 846.27 2111.28 833.81 2103.96 834.47 2049.11"/><polygon class="cls-4" points="846.71 2056.32 846.27 2111.28 883.53 2089.98 883.64 2035.78 846.71 2056.32"/><polygon class="cls-39" points="858.51 2054.41 872.52 2047.12 879.82 2042.28 879.86 2069.04 858.43 2081.37 858.51 2054.41"/><polygon class="cls-22" points="859.16 2054.35 859.05 2069.54 872.11 2061.89 872.14 2047.72 859.16 2054.35"/><polygon class="cls-7" points="872.52 2047.12 872.52 2061.7 879.86 2069.04 879.82 2042.28 872.52 2047.12"/><polygon class="cls-12" points="1000.77 2146.63 1016.68 2130.93 1053.4 2153.43 1038.86 2170.19 1000.77 2146.63"/><polygon class="cls-4" points="1059.66 2148.86 1052.98 2153.43 1016.26 2130.93 1024.43 2126.47 1059.66 2148.86"/><polygon class="cls-12" points="1075.15 2147.7 1059.66 2148.86 1024.43 2126.47 1036.53 2126.79 1075.15 2147.7"/><polygon class="cls-7" points="1038.44 2170.19 1075.15 2147.7 1059.66 2148.86 1052.98 2153.43 1038.44 2170.19"/><polygon class="cls-12" points="1025.39 2117.45 1025.39 2134.22 1049.9 2148.65 1049.9 2127.75 1025.39 2117.45"/><polygon class="cls-7" points="1053.4 2146.42 1049.9 2148.65 1049.9 2127.75 1053.61 2128.38 1053.4 2146.42"/><path class="cls-12" d="M1058.42,2127.65l-34.92-17.56c-.6-.3-.97-.91-.96-1.58l1.01-74.1c.02-1.32,1.43-2.14,2.59-1.5l34.32,18.9c.56.31.91.9.9,1.54l-.4,72.76c0,1.29-1.37,2.13-2.53,1.55Z"/><polygon class="cls-12" points="1019.5 2037.13 1024.75 2032.72 1054.99 2051.08 1019.92 2039.19 1019.5 2037.13"/><polygon class="cls-12" points="1060.24 2127.59 1055.1 2131.94 1052.29 2127.06 1057.96 2122.6 1060.24 2127.59"/><path class="cls-4" d="M1053.54,2131.89l-34.92-17.56c-.6-.3-.97-.91-.96-1.58l1.01-74.1c.02-1.32,1.43-2.14,2.59-1.5l34.32,18.9c.56.31.91.9.9,1.54l-.4,72.76c0,1.29-1.37,2.13-2.53,1.55Z"/><path class="cls-22" d="M1051.96,2127l-31.59-15.88c-.54-.27-.88-.83-.87-1.43l.91-67.02c.02-1.19,1.3-1.94,2.34-1.36l31.04,17.09c.51.28.82.81.82,1.39l-.36,65.81c0,1.17-1.24,1.93-2.29,1.4Z"/><polygon class="cls-32" points="789.04 2063.17 801.06 2070.16 838.21 2049.18 825.32 2041.53 789.04 2063.17"/><polygon class="cls-27" points="789.04 2063.17 789.04 2074.75 801.28 2081.96 801.06 2070.16 789.04 2063.17"/><polygon class="cls-20" points="838.21 2049.18 801.06 2070.16 801.28 2081.96 838.21 2061.42 838.21 2049.18"/><polygon class="cls-21" points="788.6 2134.2 801.06 2141.85 838.1 2120.54 838.1 2115.62 800.84 2136.93 788.38 2129.61 788.6 2134.2"/><polygon class="cls-7" points="789.04 2074.75 801.28 2081.96 800.84 2136.93 788.38 2129.61 789.04 2074.75"/><polygon class="cls-4" points="801.28 2081.96 800.84 2136.93 838.1 2115.62 838.21 2061.42 801.28 2081.96"/><polygon class="cls-39" points="813.08 2080.05 827.09 2072.76 834.39 2067.92 834.43 2094.68 813 2107.01 813.08 2080.05"/><polygon class="cls-22" points="813.73 2080 813.62 2095.19 826.68 2087.54 826.71 2073.36 813.73 2080"/><polygon class="cls-7" points="827.09 2072.76 827.09 2087.35 834.43 2094.68 834.39 2067.92 827.09 2072.76"/></g></svg>