<?xml version="1.0" encoding="UTF-8"?><svg xmlns="http://www.w3.org/2000/svg" xmlns:xlink="http://www.w3.org/1999/xlink" viewBox="0 0 1125 2197.66"><defs><style>.cls-1{fill:#fffff6;}.cls-1,.cls-2,.cls-3,.cls-4,.cls-5,.cls-6,.cls-7,.cls-8,.cls-9,.cls-10,.cls-11,.cls-12,.cls-13,.cls-14,.cls-15,.cls-16,.cls-17,.cls-18,.cls-19,.cls-20,.cls-21,.cls-22,.cls-23,.cls-24,.cls-25,.cls-26,.cls-27,.cls-28,.cls-29,.cls-30,.cls-31,.cls-32,.cls-33,.cls-34,.cls-35,.cls-36,.cls-37,.cls-38,.cls-39,.cls-40,.cls-41,.cls-42,.cls-43,.cls-44,.cls-45,.cls-46,.cls-47,.cls-48,.cls-49,.cls-50,.cls-51,.cls-52,.cls-53,.cls-54,.cls-55,.cls-56,.cls-57,.cls-58,.cls-59,.cls-60,.cls-61,.cls-62,.cls-63,.cls-64,.cls-65,.cls-66,.cls-67,.cls-68,.cls-69,.cls-70,.cls-71,.cls-72,.cls-73,.cls-74,.cls-75,.cls-76,.cls-77,.cls-78,.cls-79,.cls-80,.cls-81,.cls-82,.cls-83,.cls-84,.cls-85,.cls-86{stroke-width:0px;}.cls-2{fill:#e2b2a8;}.cls-3{fill:#ffe799;}.cls-87,.cls-88,.cls-89,.cls-90,.cls-91,.cls-92,.cls-93,.cls-94,.cls-95,.cls-96,.cls-97,.cls-98,.cls-99,.cls-100,.cls-101,.cls-102,.cls-103,.cls-104,.cls-105,.cls-106,.cls-107,.cls-108,.cls-109,.cls-110{stroke-miterlimit:10;}.cls-87,.cls-91,.cls-93,.cls-101,.cls-105,.cls-110{stroke:#878787;}.cls-87,.cls-93{fill:#757575;}.cls-87,.cls-101,.cls-105,.cls-110{stroke-width:.77px;}.cls-88{fill:#d56e7f;}.cls-88,.cls-92,.cls-94,.cls-98,.cls-99,.cls-100,.cls-102,.cls-103,.cls-107,.cls-109{stroke:#fff;}.cls-88,.cls-100,.cls-103{stroke-width:1.42px;}.cls-4{fill:#e0735a;}.cls-89{stroke-width:2.49px;}.cls-89,.cls-90,.cls-91,.cls-92,.cls-94,.cls-95,.cls-96,.cls-97,.cls-98,.cls-101,.cls-102,.cls-103,.cls-107,.cls-108,.cls-109{fill:none;}.cls-89,.cls-95,.cls-108{stroke:#919191;}.cls-5{fill:#bea179;}.cls-6{fill:#946e7b;}.cls-7{fill:#3073a0;}.cls-8{fill:#d4b891;}.cls-9{fill:#c4a881;}.cls-90,.cls-98{stroke-width:6.22px;}.cls-90,.cls-104{stroke:#000;}.cls-10{fill:#af9268;}.cls-11{fill:#d39a89;}.cls-12{fill:#be9e77;}.cls-13{fill:#bb9c70;}.cls-14{fill:#b5d87c;}.cls-111,.cls-99{fill:#5191fb;}.cls-15{fill:#7f99b0;}.cls-91{stroke-width:2.3px;}.cls-92{stroke-width:3.73px;}.cls-16{fill:#654644;}.cls-17{fill:#ebd5b0;}.cls-93{stroke-width:.38px;}.cls-18{fill:#e1cbb6;}.cls-19{fill:#cebaaf;}.cls-20{fill:#898989;}.cls-21{fill:#98c95c;}.cls-22{fill:#d1bb94;}.cls-94,.cls-96{stroke-width:3.3px;}.cls-95{stroke-width:1.9px;}.cls-23{fill:#e2caa8;}.cls-24{fill:#21497a;}.cls-25,.cls-112{fill:#505050;}.cls-113{clip-path:url(#clippath-2);}.cls-26{fill:#c5a981;}.cls-27{fill:#c7a983;}.cls-28{fill:#775029;}.cls-29{fill:#dcbf97;}.cls-114{clip-path:url(#clippath-6);}.cls-30{fill:#7090a0;}.cls-31{fill:#c6a981;}.cls-32{fill:#f6aca3;}.cls-33{fill:#e54126;}.cls-115{clip-path:url(#clippath-7);}.cls-34{fill:#fcf19f;}.cls-116,.cls-106,.cls-79{fill:#7a9db3;}.cls-117{clip-path:url(#clippath-1);}.cls-118{clip-path:url(#clippath-4);}.cls-35{fill:#c0a47d;}.cls-36{fill:#f2c280;}.cls-37{fill:#2b2b2b;}.cls-38{fill:#fffbfa;}.cls-39{fill:#095285;}.cls-40{fill:#ecd4b2;}.cls-119,.cls-105{fill:#626262;}.cls-41{fill:#253b50;}.cls-42{fill:#253556;}.cls-43{fill:#d2c1af;}.cls-44{fill:#eeb564;}.cls-45{fill:#e9d3ac;}.cls-46,.cls-104{fill:#fff;}.cls-96{stroke:#777;}.cls-97{stroke-width:1.45px;}.cls-97,.cls-106{stroke:#d1d1d1;}.cls-47{fill:#ead2b0;}.cls-48{fill:#d6b892;}.cls-49{fill:#b39a72;}.cls-50{fill:#fff8ee;}.cls-51{fill:#3d3d3d;}.cls-52{fill:#c8ad9c;}.cls-53{fill:#cbb28a;}.cls-54{fill:#3b5876;}.cls-99,.cls-107{stroke-width:4.36px;}.cls-55{fill:#f1805e;}.cls-120{clip-path:url(#clippath-9);}.cls-56{fill:#cc6756;}.cls-57{fill:#6e8593;}.cls-121{clip-path:url(#clippath);}.cls-58{fill:#dfbc9c;}.cls-59{fill:#a89286;}.cls-100{fill:#5aa741;}.cls-60{fill:#c1aa87;}.cls-102{stroke-width:6px;}.cls-61{fill:#513837;}.cls-62{fill:#e1d7cd;}.cls-63{fill:#ccb595;}.cls-64{fill:#6f91b4;}.cls-106{stroke-width:1.93px;}.cls-122{clip-path:url(#clippath-3);}.cls-65{fill:#c6aa83;}.cls-66{fill:#ebdebc;}.cls-123{clip-path:url(#clippath-8);}.cls-67{fill:#fdf4e5;}.cls-108{stroke-width:1.24px;}.cls-68{fill:#725b61;}.cls-69{fill:#e2d8cf;}.cls-70{fill:#f8fef0;}.cls-71{fill:#ba9b6d;}.cls-72{fill:#a9848c;}.cls-73{fill:#0e273b;}.cls-74{fill:#d3b792;}.cls-75{fill:#828282;}.cls-76{fill:#bca78e;}.cls-109{stroke-width:1.81px;}.cls-124{clip-path:url(#clippath-5);}.cls-77{fill:#eaddca;}.cls-78{fill:#ead4af;}.cls-110{fill:#878787;}.cls-80{fill:#f7ecdf;}.cls-81{fill:#6d4b5b;}.cls-82{fill:#96c4d1;}.cls-83{fill:#e6e6e4;}.cls-84{fill:#b99c70;}.cls-85{fill:#e59767;}.cls-86{fill:#adadad;}</style><clipPath id="clippath"><polygon class="cls-105" points="337.86 206.29 337.86 302.53 241.08 361.22 241.08 262.63 337.86 206.29"/></clipPath><clipPath id="clippath-1"><polygon class="cls-25" points="319.09 267.21 318.83 216.14 342.21 202.93 341.19 257.81 319.59 268.73 319.09 267.21"/></clipPath><clipPath id="clippath-2"><polygon class="cls-105" points="236.56 268.31 236.56 364.54 139.79 423.23 139.79 324.65 236.56 268.31"/></clipPath><clipPath id="clippath-3"><polygon class="cls-25" points="217.79 329.22 217.54 278.15 240.91 264.94 239.9 319.82 218.3 330.75 217.79 329.22"/></clipPath><clipPath id="clippath-4"><polygon class="cls-105" points="132.28 330.87 132.28 427.11 35.51 485.8 35.51 387.21 132.28 330.87"/></clipPath><clipPath id="clippath-5"><polygon class="cls-25" points="113.51 391.79 113.26 340.72 136.64 327.5 135.62 382.39 114.02 393.31 113.51 391.79"/></clipPath><clipPath id="clippath-6"><polygon class="cls-99" points="93.11 1856.91 351.86 1956.83 718.37 1720.75 459.76 1622.21 93.11 1856.91"/></clipPath><clipPath id="clippath-7"><polygon class="cls-79" points="912.65 970.4 911.17 926 843.59 965.52 845.14 1011.96 912.65 970.4"/></clipPath><clipPath id="clippath-8"><polygon class="cls-79" points="650.02 1133.4 648.54 1088.99 580.96 1128.51 582.5 1174.96 650.02 1133.4"/></clipPath><clipPath id="clippath-9"><polygon class="cls-79" points="650.02 1133.4 648.54 1088.99 580.96 1128.51 582.5 1174.96 650.02 1133.4"/></clipPath></defs><g id="route"><g id="repere"><ellipse id="EL1" class="cls-104" cx="429.14" cy="2163.72" rx="41.71" ry="22.34"/><ellipse id="EL2" class="cls-104" cx="669.87" cy="2005.15" rx="41.71" ry="22.34"/><ellipse id="EL3" class="cls-104" cx="931.3" cy="1822.3" rx="41.71" ry="22.34"/><ellipse id="EL4" class="cls-104" cx="820.32" cy="1546.71" rx="41.71" ry="22.34"/><ellipse id="EL5" class="cls-104" cx="547.72" cy="1429.03" rx="41.71" ry="22.34"/><ellipse id="EL6" class="cls-104" cx="239.36" cy="1266.66" rx="41.71" ry="22.34"/><ellipse id="EL7" class="cls-104" cx="224.46" cy="1032.78" rx="41.71" ry="22.34"/><ellipse id="EL8" class="cls-104" cx="517.92" cy="853.28" rx="41.71" ry="22.34"/><ellipse id="EL9" class="cls-104" cx="803.94" cy="692.39" rx="41.71" ry="22.34"/><ellipse id="EL10" class="cls-104" cx="929.28" cy="497.62" rx="41.71" ry="22.34"/><ellipse id="EL11" class="cls-104" cx="780.85" cy="305.08" rx="41.71" ry="22.34"/><ellipse id="EL12" class="cls-104" cx="481.43" cy="142.71" rx="41.71" ry="22.34"/><ellipse id="EL13" class="cls-104" cx="243.83" cy="23.54" rx="41.71" ry="22.34"/></g><rect id="background" class="cls-3" x="-5.48" y="-14.08" width="1135.12" height="2448.99"/><polygon class="cls-75" points="-111.25 -24.5 -111.25 -9.61 800.42 499.86 862.99 435.8 -39.74 -66.21 -111.25 -24.5"/><path class="cls-75" d="M330.19,1126.5s-16.88,6.46-16.88,27.31-55.61-38.73-55.61-38.73l81.43-40.72-8.94,52.14Z"/><path class="cls-75" d="M1074.02,474.03s19.86,168.33-133.77,274.1l-57.9-46.18,9.93-101.3,181.74-126.62Z"/><polygon class="cls-75" points="940.25 733.37 940.25 748.13 330.19 1126.5 261.66 1023.72 907.68 699.47 940.25 733.37"/><path class="cls-75" d="M36.23,2588.35v16.39l987.64-657.43s117.19-89.88,102.29-246.29l-185.71,115.7L36.23,2588.35Z"/><path class="cls-75" d="M29.11,1132.96s-9.28,44.73,13.99,110.33c26.91,75.86,83.25,137.68,155.73,172.69l613.84,296.45s26.81,13.41,14.9,26.81c-11.92,13.41,52.14,25.32,52.14,25.32l40.22-65.54-31.28-81.93s-71.5-65.54-105.77-83.42c-34.26-17.88-183.23-93.85-183.23-93.85L29.11,1132.96Z"/><path id="trotoire" class="cls-86" d="M-99.33-28.97l882.79,493.45c17.66,9.87,18.24,35.07,1.06,45.74L162.74,896.61c-189.69,117.88-174.55,398.74,26.72,495.54l626.82,301.47c18.59,8.94,20.34,34.75,3.11,46.11L-117.21,2357.46l154.92,232.39,964.57-636.81c183.43-121.1,164.88-395.94-33.16-491.29l-632.96-304.76c-18.91-9.11-20.29-35.51-2.42-46.53l618.42-381.56c183.79-113.4,178.02-382.55-10.46-487.97L43.68-261.36-99.33-28.97Z"/><path id="route-2" class="cls-37" d="M874.72,1480.57l-582.31-280.93c-15.41-7.43-27.84-20.07-34.42-35.85-8.38-20.09-8.87-48.04,27.18-75.83l595.25-357.66c40.01-24.04,74.61-56.27,100.67-94.99,80.21-119.19,33.38-223.15-19.89-289.31-30.25-37.57-67.69-68.72-109.73-92.35L1.44-224.12-87.48-65.93l879.73,494.46c.77.53,1.52,1.07,2.27,1.61,50.11,36.31,46.12,112.35-6.92,144.22L218.15,916.51c-37.87,22.75-71.21,52.44-97.56,87.89-48.22,64.88-87.93,167.37,5.15,281.39,31.36,38.41,71.04,69.2,115.71,90.74l573.03,276.45c13.45,6.49,25.66,15.38,35.66,26.46,19.43,21.52,36.84,57.38-2.32,99.33-7.55,8.09-16.15,15.13-25.42,21.17L-112.11,2409.84l99.18,151.97,942.71-615.23s288.1-203.41,36.53-408.12c-28.11-22.87-58.95-42.16-91.59-57.9Z"/><path id="ligne" class="cls-102" d="M-71.03-149.63l836.97,440.44c78.92,41.53,155.14,111.71,163.33,206.81v14.15c0,87.06-82.12,158.87-158.13,201.3l-508.08,283.55c-53.47,29.84-108.58,87.03-107.66,148.25l1.49,9.68c.92,61.65,56.69,107.66,111.61,135.69l622.79,298.54c53.05,27.08,79.93,83.95,78.46,143.5l-.07,7.34c-1.28,51.74-42.1,99.64-85.85,127.28L-124.66,2527.28"/></g><g id="carte_2"><g id="Calque_74"><path class="cls-28" d="M-14.86,84.06l-.36,35.63-24.11-18.36,23.39,26.63.36,47.87s6.36,3.72,12.48.72c.34-.17,1.2-36.35,1.2-36.35l15.12-16.2-15.12,9-1.08-50.03-11.88,1.08Z"/><ellipse class="cls-21" cx="-9.82" cy="42.67" rx="53.99" ry="50.9"/><ellipse class="cls-14" cx="-27" cy="24.1" rx="30.68" ry="23.37" transform="translate(-20.01 -11.41) rotate(-37.11)"/><path class="cls-28" d="M15.46,209.13l-.36,35.63-24.11-18.36,23.39,26.63.36,47.87s6.36,3.72,12.48.72c.34-.17,1.2-36.35,1.2-36.35l15.12-16.2-15.12,9-1.08-50.03-11.88,1.08Z"/><ellipse class="cls-21" cx="20.5" cy="167.74" rx="53.99" ry="50.9"/><ellipse class="cls-14" cx="3.32" cy="149.17" rx="30.68" ry="23.37" transform="translate(-89.33 32.21) rotate(-37.11)"/><path class="cls-28" d="M64.15,163.04l-.59,58.5-39.59-30.14,38.41,43.73.59,78.59s10.44,6.11,20.49,1.18c.56-.27,1.97-59.68,1.97-59.68l24.82-26.59-24.82,14.77-1.77-82.14-19.5,1.77Z"/><ellipse class="cls-21" cx="72.43" cy="95.09" rx="88.64" ry="83.57"/><ellipse class="cls-14" cx="44.23" cy="64.6" rx="50.37" ry="38.37" transform="translate(-30.02 39.77) rotate(-37.11)"/><path class="cls-28" d="M181.74,178.89l-.36,35.63-24.11-18.36,23.39,26.63.36,47.87s6.36,3.72,12.48.72c.34-.17,1.2-36.35,1.2-36.35l15.12-16.2-15.12,9-1.08-50.03-11.88,1.08Z"/><ellipse class="cls-21" cx="186.78" cy="137.5" rx="53.99" ry="50.9"/><ellipse class="cls-14" cx="169.6" cy="118.93" rx="30.68" ry="23.37" transform="translate(-37.41 126.42) rotate(-37.11)"/><path class="cls-28" d="M130.63,219.91l-.36,35.63-24.11-18.36,23.39,26.63.36,47.87s6.36,3.72,12.48.72c.34-.17,1.2-36.35,1.2-36.35l15.12-16.2-15.12,9-1.08-50.03-11.88,1.08Z"/><ellipse class="cls-21" cx="135.67" cy="178.52" rx="53.99" ry="50.9"/><ellipse class="cls-14" cx="118.5" cy="159.95" rx="30.68" ry="23.37" transform="translate(-72.51 103.89) rotate(-37.11)"/><ellipse class="cls-21" cx="-66.35" cy="169.1" rx="88.64" ry="83.57"/><path class="cls-28" d="M42.96,252.91l-.36,35.63-24.11-18.36,23.39,26.63.36,47.87s6.36,3.72,12.48.72c.34-.17,1.2-36.35,1.2-36.35l15.12-16.2-15.12,9-1.08-50.03-11.88,1.08Z"/><ellipse class="cls-21" cx="48" cy="211.52" rx="53.99" ry="50.9"/><ellipse class="cls-14" cx="30.83" cy="192.95" rx="30.68" ry="23.37" transform="translate(-110.17 57.68) rotate(-37.11)"/><path class="cls-28" d="M-8.14,293.92l-.36,35.63-24.11-18.36,23.39,26.63.36,47.87s6.36,3.72,12.48.72c.34-.17,1.2-36.35,1.2-36.35l15.12-16.2-15.12,9-1.08-50.03-11.88,1.08Z"/><ellipse class="cls-21" cx="-3.11" cy="252.53" rx="53.99" ry="50.9"/><ellipse class="cls-14" cx="-20.28" cy="233.96" rx="30.68" ry="23.37" transform="translate(-145.27 35.15) rotate(-37.11)"/></g><g id="Calque_65"><polygon class="cls-110" points="206.82 243.4 241.34 262.63 337.86 206.29 303.46 186.28 206.82 243.4"/><path class="cls-87" d="M206.37,243.55l.41,97.09,33.89,20.8s0,0,0,0l.4-98.8-34.56-19.18c-.07-.04-.16.01-.16.09Z"/><polygon class="cls-119" points="337.86 206.29 337.86 302.53 241.08 361.22 241.08 262.63 337.86 206.29"/><g class="cls-121"><polygon class="cls-112" points="319.09 267.21 318.83 216.14 342.21 202.93 341.19 257.81 319.59 268.73 319.09 267.21"/><g class="cls-117"><polygon class="cls-51" points="338.27 257.81 313.37 248.15 306.51 266.83 326.07 279.79 338.27 257.81"/></g><line class="cls-91" x1="261.41" y1="242.05" x2="261.41" y2="358.93"/><line class="cls-91" x1="280.83" y1="231.41" x2="280.83" y2="348.29"/><line class="cls-91" x1="318.89" y1="211.33" x2="318.89" y2="328.2"/><line class="cls-91" x1="300.45" y1="220.25" x2="300.45" y2="337.13"/><line class="cls-91" x1="237.52" y1="312.44" x2="343.48" y2="255.52"/></g><polygon class="cls-101" points="337.86 206.29 337.86 302.53 241.08 361.22 241.08 262.63 337.86 206.29"/><polyline class="cls-105" points="337.86 206.29 359.74 206.29 359.74 257.24 337.89 257.24 337.89 206.29"/><polygon class="cls-93" points="256.93 293 259.22 291.6 259.34 298.33 257.06 299.67 256.93 293"/><polygon class="cls-93" points="257.15 343.31 259.44 341.91 259.57 348.65 257.28 349.98 257.15 343.31"/><polygon class="cls-93" points="276.49 282.58 278.78 281.18 278.91 287.92 276.62 289.25 276.49 282.58"/><polygon class="cls-93" points="276.53 331.62 278.81 330.22 278.94 336.96 276.65 338.29 276.53 331.62"/><polygon class="cls-93" points="296.25 272.1 298.54 270.7 298.66 277.44 296.38 278.77 296.25 272.1"/><polygon class="cls-93" points="314.61 262.38 316.89 260.98 317.02 267.72 314.73 269.05 314.61 262.38"/><polygon class="cls-93" points="296.15 319.87 298.44 318.47 298.57 325.21 296.28 326.54 296.15 319.87"/><polygon class="cls-93" points="314.45 308.69 316.74 307.29 316.86 314.03 314.58 315.36 314.45 308.69"/><polygon class="cls-93" points="334.46 296.56 336.74 295.16 336.87 301.89 334.58 303.23 334.46 296.56"/><rect class="cls-20" x="265.64" y="359.44" width="2.72" height="13.69" transform="translate(-7.76 5.79) rotate(-1.22)"/><rect class="cls-20" x="284.09" y="362.55" width="2.72" height="18.91" transform="translate(-7.88 6.18) rotate(-1.22)"/><rect class="cls-20" x="341.53" y="328.75" width="2.72" height="18.91" transform="translate(-7.15 7.4) rotate(-1.22)"/><rect class="cls-20" x="328.16" y="322.91" width="2.72" height="18.91" transform="translate(-7.02 7.11) rotate(-1.22)"/><polyline class="cls-59" points="258.15 354.65 258.19 356.91 278.83 369.26 351.24 326.63 351.3 324.14 294.62 340.63 271.55 351.98 258.15 354.65"/><polygon class="cls-52" points="258.15 354.65 258.68 354.97 278.78 366.99 351.3 324.14 326.61 312.79 258.15 354.65"/><polygon class="cls-110" points="105.53 305.42 140.04 324.65 236.56 268.31 202.16 248.3 105.53 305.42"/><path class="cls-87" d="M105.07,305.56l.41,97.09,33.89,20.8s0,0,0,0l.4-98.8-34.56-19.18c-.07-.04-.16.01-.16.09Z"/><polygon class="cls-119" points="236.56 268.31 236.56 364.54 139.79 423.23 139.79 324.65 236.56 268.31"/><g class="cls-113"><polygon class="cls-112" points="217.79 329.22 217.54 278.15 240.91 264.94 239.9 319.82 218.3 330.75 217.79 329.22"/><g class="cls-122"><polygon class="cls-51" points="236.97 319.82 212.07 310.17 205.21 328.84 224.78 341.8 236.97 319.82"/></g><line class="cls-91" x1="160.11" y1="304.07" x2="160.11" y2="420.95"/><line class="cls-91" x1="179.54" y1="293.43" x2="179.54" y2="410.31"/><line class="cls-91" x1="217.59" y1="273.34" x2="217.59" y2="390.22"/><line class="cls-91" x1="199.16" y1="282.26" x2="199.16" y2="399.14"/><line class="cls-91" x1="136.23" y1="374.45" x2="242.18" y2="317.53"/></g><polygon class="cls-101" points="236.56 268.31 236.56 364.54 139.79 423.23 139.79 324.65 236.56 268.31"/><polyline class="cls-105" points="236.56 268.31 258.44 268.31 258.44 319.25 236.59 319.25 236.59 268.31"/><polygon class="cls-93" points="155.64 355.01 157.92 353.61 158.05 360.35 155.76 361.68 155.64 355.01"/><polygon class="cls-93" points="155.86 405.32 158.14 403.93 158.27 410.66 155.98 411.99 155.86 405.32"/><polygon class="cls-93" points="175.2 344.59 177.49 343.2 177.61 349.93 175.33 351.26 175.2 344.59"/><polygon class="cls-93" points="175.23 393.64 177.52 392.24 177.65 398.97 175.36 400.31 175.23 393.64"/><polygon class="cls-93" points="194.95 334.11 197.24 332.72 197.37 339.45 195.08 340.78 194.95 334.11"/><polygon class="cls-93" points="213.31 324.39 215.6 323 215.73 329.73 213.44 331.06 213.31 324.39"/><polygon class="cls-93" points="194.86 381.88 197.15 380.49 197.27 387.22 194.99 388.55 194.86 381.88"/><polygon class="cls-93" points="213.15 370.71 215.44 369.31 215.57 376.04 213.28 377.37 213.15 370.71"/><polygon class="cls-93" points="233.16 358.57 235.45 357.18 235.58 363.91 233.29 365.24 233.16 358.57"/><rect class="cls-20" x="164.34" y="421.45" width="2.72" height="13.69" transform="translate(-9.11 3.64) rotate(-1.22)"/><rect class="cls-20" x="182.79" y="424.57" width="2.72" height="18.91" transform="translate(-9.23 4.03) rotate(-1.22)"/><rect class="cls-20" x="240.23" y="390.77" width="2.72" height="18.91" transform="translate(-8.49 5.25) rotate(-1.22)"/><rect class="cls-20" x="226.87" y="384.92" width="2.72" height="18.91" transform="translate(-8.37 4.96) rotate(-1.22)"/><polyline class="cls-59" points="156.85 416.66 156.9 418.92 177.53 431.27 249.94 388.65 250 386.16 193.33 402.64 170.26 414 156.85 416.66"/><polygon class="cls-52" points="156.85 416.66 157.39 416.98 177.48 429.01 250 386.16 225.32 374.8 156.85 416.66"/><polygon class="cls-110" points="1.25 367.98 35.77 387.21 132.28 330.87 97.89 310.86 1.25 367.98"/><path class="cls-87" d="M.8,368.13l.41,97.09,33.89,20.8s0,0,0,0l.4-98.8L.95,368.03c-.07-.04-.16.01-.16.09Z"/><polygon class="cls-119" points="132.28 330.87 132.28 427.11 35.51 485.8 35.51 387.21 132.28 330.87"/><g class="cls-118"><polygon class="cls-112" points="113.51 391.79 113.26 340.72 136.64 327.5 135.62 382.39 114.02 393.31 113.51 391.79"/><g class="cls-124"><polygon class="cls-51" points="132.7 382.39 107.8 372.73 100.94 391.41 120.5 404.36 132.7 382.39"/></g><line class="cls-91" x1="55.84" y1="366.63" x2="55.84" y2="483.51"/><line class="cls-91" x1="75.26" y1="355.99" x2="75.26" y2="472.87"/><line class="cls-91" x1="113.32" y1="335.91" x2="113.32" y2="452.78"/><line class="cls-91" x1="94.88" y1="344.83" x2="94.88" y2="461.71"/><line class="cls-91" x1="31.95" y1="437.01" x2="137.91" y2="380.1"/></g><polygon class="cls-101" points="132.28 330.87 132.28 427.11 35.51 485.8 35.51 387.21 132.28 330.87"/><polyline class="cls-105" points="132.28 330.87 154.17 330.87 154.17 381.81 132.32 381.81 132.32 330.87"/><polygon class="cls-93" points="51.36 417.58 53.65 416.18 53.77 422.91 51.49 424.25 51.36 417.58"/><polygon class="cls-93" points="51.58 467.89 53.87 466.49 54 473.23 51.71 474.56 51.58 467.89"/><polygon class="cls-93" points="70.92 407.16 73.21 405.76 73.34 412.5 71.05 413.83 70.92 407.16"/><polygon class="cls-93" points="70.96 456.2 73.24 454.8 73.37 461.54 71.08 462.87 70.96 456.2"/><polygon class="cls-93" points="90.68 396.68 92.97 395.28 93.09 402.01 90.81 403.35 90.68 396.68"/><polygon class="cls-93" points="109.04 386.96 111.32 385.56 111.45 392.3 109.16 393.63 109.04 386.96"/><polygon class="cls-93" points="90.58 444.45 92.87 443.05 93 449.79 90.71 451.12 90.58 444.45"/><polygon class="cls-93" points="108.88 433.27 111.16 431.87 111.29 438.61 109 439.94 108.88 433.27"/><polygon class="cls-93" points="128.89 421.14 131.17 419.74 131.3 426.47 129.01 427.81 128.89 421.14"/><rect class="cls-20" x="60.07" y="484.02" width="2.72" height="13.69" transform="translate(-10.47 1.42) rotate(-1.22)"/><rect class="cls-20" x="78.52" y="487.13" width="2.72" height="18.91" transform="translate(-10.59 1.82) rotate(-1.22)"/><rect class="cls-20" x="135.96" y="453.33" width="2.72" height="18.91" transform="translate(-9.85 3.04) rotate(-1.22)"/><rect class="cls-20" x="122.59" y="447.49" width="2.72" height="18.91" transform="translate(-9.73 2.75) rotate(-1.22)"/><polyline class="cls-59" points="52.58 479.23 52.62 481.49 73.25 493.83 145.67 451.21 145.73 448.72 89.05 465.21 65.98 476.56 52.58 479.23"/><polygon class="cls-52" points="52.58 479.23 53.11 479.55 73.21 491.57 145.73 448.72 121.04 437.37 52.58 479.23"/></g><g id="boxe"><g id="ring"><polygon class="cls-81" points="194.42 485.53 195.76 525.9 456.08 667.97 454.55 622.15 194.42 485.53"/><polygon class="cls-6" points="454.55 622.15 702.84 468.61 704.26 511.16 456.08 667.97 454.55 622.15"/><polygon class="cls-72" points="194.42 485.53 454.55 622.15 702.84 468.61 440.31 325.53 194.42 485.53"/><polygon class="cls-34" points="373.61 480.55 452.53 521.99 527.85 475.41 448.21 432.01 373.61 480.55"/><g id="corde"><line class="cls-94" x1="466.25" y1="525.27" x2="644.9" y2="412.29"/><line class="cls-94" x1="466.84" y1="542.85" x2="645.49" y2="429.86"/><line class="cls-94" x1="467.35" y1="558.23" x2="646" y2="445.24"/><line class="cls-94" x1="467.9" y1="574.71" x2="646.55" y2="461.72"/><line class="cls-94" x1="250.68" y1="414.85" x2="429.33" y2="301.86"/><line class="cls-94" x1="251.27" y1="432.43" x2="429.91" y2="319.44"/><line class="cls-94" x1="251.78" y1="447.81" x2="430.42" y2="334.82"/><line class="cls-94" x1="252.33" y1="464.29" x2="430.97" y2="351.3"/><line class="cls-94" x1="255.38" y1="479.5" x2="447.05" y2="582.71"/><line class="cls-94" x1="254.8" y1="461.92" x2="446.46" y2="565.13"/><line class="cls-94" x1="254.21" y1="444.34" x2="445.88" y2="547.55"/><line class="cls-94" x1="253.7" y1="428.96" x2="445.37" y2="532.17"/><line class="cls-94" x1="459.4" y1="352.2" x2="651.07" y2="455.41"/><line class="cls-94" x1="458.82" y1="334.62" x2="650.48" y2="437.83"/><line class="cls-94" x1="458.23" y1="317.04" x2="649.9" y2="420.25"/><line class="cls-94" x1="457.72" y1="301.66" x2="649.39" y2="404.87"/><line class="cls-96" x1="205.46" y1="423.64" x2="249.47" y2="422.17"/><line class="cls-96" x1="205.94" y1="437.92" x2="249.94" y2="436.45"/><line class="cls-96" x1="206.56" y1="456.6" x2="250.57" y2="455.13"/><line class="cls-96" x1="654.6" y1="408.32" x2="698.6" y2="406.86"/><line class="cls-96" x1="655.07" y1="422.6" x2="699.08" y2="421.14"/><line class="cls-96" x1="655.7" y1="441.28" x2="699.7" y2="439.82"/></g><polygon class="cls-2" points="252.71 387.66 236.9 403.51 257.1 411.68 252.71 387.66"/><polygon class="cls-32" points="236.9 403.51 239.68 483.48 260.19 492.63 257.1 411.68 236.9 403.51"/><polygon class="cls-67" points="433.83 508.15 449.99 517.99 468.72 506.44 433.83 508.15"/><polygon class="cls-38" points="436.42 586.16 433.83 508.15 449.99 517.99 468.72 506.44 471.37 586.09 455.97 599.16 436.42 586.16"/><polygon class="cls-15" points="639.68 375.69 640.39 396.96 655.44 389.91 639.68 375.69"/><polygon class="cls-57" points="645.36 480.9 640.39 396.96 655.44 389.91 659.09 466.79 645.36 480.9"/><path class="cls-68" d="M455.49,334.57c.15-.53.24-1.07.22-1.63s-.14-1.1-.33-1.62l-2.63-78.98h-.03c0-.14.02-.27.01-.41-.13-3.84-4.51-6.81-9.78-6.64s-9.44,3.43-9.31,7.27c0,.14.03.27.04.41h-.03s2.69,80.74,2.69,80.74h.28c.24,3.78,4.56,6.67,9.76,6.49,4.43-.15,8.07-2.47,9.05-5.49h.05s0-.15,0-.15Z"/><polygon class="cls-77" points="428.53 283.32 460.17 282.27 441.86 273.59 428.53 283.32"/><polygon class="cls-18" points="429.69 367.38 428.53 283.32 460.17 282.27 462.93 365.19 429.69 367.38"/><polygon class="cls-18" points="449.99 517.99 455.97 599.16 471.37 586.09 468.72 506.44 449.99 517.99"/><path class="cls-68" d="M213.56,486.39c.15-.53.24-1.07.22-1.63s-.14-1.1-.33-1.62l-2.63-78.98h-.03c0-.14.02-.27.01-.41-.13-3.84-4.51-6.81-9.78-6.64s-9.44,3.43-9.31,7.27c0,.14.03.27.04.41h-.03s2.69,80.74,2.69,80.74h.28c.24,3.78,4.56,6.67,9.76,6.49,4.43-.15,8.07-2.47,9.05-5.49h.05s0-.15,0-.15Z"/><path class="cls-68" d="M464.73,616.2c.15-.53.24-1.07.22-1.63s-.14-1.1-.33-1.62l-2.63-78.98h-.03c0-.14.02-.27.01-.41-.13-3.84-4.51-6.81-9.78-6.64s-9.44,3.43-9.31,7.27c0,.14.03.27.04.41h-.03s2.69,80.74,2.69,80.74h.28c.24,3.78,4.56,6.67,9.76,6.49,4.43-.15,8.07-2.47,9.05-5.49h.05s0-.15,0-.15Z"/><path class="cls-68" d="M702.46,469.43c.15-.53.24-1.07.22-1.63s-.14-1.1-.33-1.62l-2.63-78.98h-.03c0-.14.02-.27.01-.41-.13-3.84-4.51-6.81-9.78-6.64s-9.44,3.43-9.31,7.27c0,.14.03.27.04.41h-.03s2.69,80.74,2.69,80.74h.28c.24,3.78,4.56,6.67,9.76,6.49,4.43-.15,8.07-2.47,9.05-5.49h.05s0-.15,0-.15Z"/><g id="escalier"><polygon class="cls-6" points="278.9 529.87 280.39 574.42 235.91 606.9 235.53 595.44 243.21 589.5 242.84 578.58 253.69 570.76 253.28 558.58 264.83 550 264.52 540.73 278.9 529.87"/><polygon class="cls-81" points="233.72 506.28 235.21 550.83 190.73 583.3 190.35 571.84 198.02 565.9 197.66 554.99 208.51 547.16 208.1 534.98 219.65 526.41 219.34 517.13 233.72 506.28"/></g><polygon class="cls-6" points="219.34 517.13 264.52 540.73 278.9 529.87 233.72 506.28 219.34 517.13"/><polygon class="cls-6" points="253.28 558.58 264.83 550 219.65 526.41 208.1 534.98 253.28 558.58"/><polygon class="cls-6" points="197.66 554.99 208.51 547.16 253.69 570.76 242.84 578.58 197.66 554.99"/><polygon class="cls-6" points="190.35 571.84 198.02 565.9 243.21 589.5 235.53 595.44 190.35 571.84"/><polygon class="cls-81" points="264.83 550 264.52 540.73 219.34 517.13 219.65 526.41 264.83 550"/><polygon class="cls-81" points="208.1 534.98 208.51 547.16 253.69 570.76 253.28 558.58 208.1 534.98"/><polygon class="cls-81" points="197.66 554.99 198.02 565.9 243.21 589.5 242.84 578.58 197.66 554.99"/><path class="cls-81" d="M190.35,571.84s0,11.54.38,11.46,45.18,23.6,45.18,23.6l-.38-11.46-45.18-23.6Z"/></g><g id="Calque_77"><polygon class="cls-81" points="-71.63 652.49 -70.28 692.86 190.04 834.92 188.51 789.1 -71.63 652.49"/><polygon class="cls-6" points="188.51 789.1 436.8 635.56 438.22 678.11 190.04 834.92 188.51 789.1"/><polygon class="cls-72" points="-71.63 652.49 188.51 789.1 436.8 635.56 174.27 492.48 -71.63 652.49"/><polygon class="cls-34" points="107.57 647.5 186.49 688.94 261.81 642.37 182.17 598.96 107.57 647.5"/><line class="cls-94" x1="200.21" y1="692.23" x2="378.86" y2="579.24"/><line class="cls-94" x1="200.8" y1="709.8" x2="379.44" y2="596.82"/><line class="cls-94" x1="201.31" y1="725.19" x2="379.96" y2="612.2"/><line class="cls-94" x1="201.86" y1="741.66" x2="380.5" y2="628.68"/><line class="cls-94" x1="-15.36" y1="581.8" x2="163.29" y2="468.81"/><line class="cls-94" x1="-14.78" y1="599.38" x2="163.87" y2="486.39"/><line class="cls-94" x1="-14.26" y1="614.76" x2="164.38" y2="501.77"/><line class="cls-94" x1="-13.71" y1="631.24" x2="164.93" y2="518.25"/><line class="cls-94" x1="-10.66" y1="646.45" x2="181.01" y2="749.66"/><line class="cls-94" x1="-11.24" y1="628.88" x2="180.42" y2="732.08"/><line class="cls-94" x1="-11.83" y1="611.3" x2="179.84" y2="714.51"/><line class="cls-94" x1="-12.34" y1="595.92" x2="179.33" y2="699.13"/><line class="cls-94" x1="193.36" y1="519.15" x2="385.03" y2="622.36"/><line class="cls-94" x1="192.77" y1="501.57" x2="384.44" y2="604.78"/><line class="cls-94" x1="192.19" y1="483.99" x2="383.86" y2="587.2"/><line class="cls-94" x1="191.68" y1="468.61" x2="383.35" y2="571.82"/><line class="cls-96" x1="388.56" y1="575.27" x2="432.56" y2="573.81"/><line class="cls-96" x1="389.03" y1="589.56" x2="433.04" y2="588.09"/><line class="cls-96" x1="389.65" y1="608.23" x2="433.66" y2="606.77"/><polygon class="cls-67" points="167.79 675.1 183.95 684.94 202.68 673.39 167.79 675.1"/><polygon class="cls-38" points="170.38 753.11 167.79 675.1 183.95 684.94 202.68 673.39 205.33 753.04 189.93 766.11 170.38 753.11"/><polygon class="cls-15" points="373.64 542.64 374.34 563.91 389.4 556.86 373.64 542.64"/><polygon class="cls-57" points="379.32 647.85 374.34 563.91 389.4 556.86 393.05 633.74 379.32 647.85"/><path class="cls-68" d="M189.45,501.52c.15-.53.24-1.07.22-1.63s-.14-1.1-.33-1.62l-2.63-78.98h-.03c0-.14.02-.27.01-.41-.13-3.84-4.51-6.81-9.78-6.64s-9.44,3.43-9.31,7.27c0,.14.03.27.04.41h-.03s2.69,80.74,2.69,80.74h.28c.24,3.78,4.56,6.67,9.76,6.49,4.43-.15,8.07-2.47,9.05-5.49h.05s0-.15,0-.15Z"/><polygon class="cls-77" points="162.49 450.27 194.13 449.22 175.82 440.55 162.49 450.27"/><polygon class="cls-18" points="163.65 534.34 162.49 450.27 194.13 449.22 196.89 532.14 163.65 534.34"/><polygon class="cls-18" points="183.95 684.94 189.93 766.11 205.33 753.04 202.68 673.39 183.95 684.94"/><path class="cls-68" d="M198.69,783.15c.15-.53.24-1.07.22-1.63s-.14-1.1-.33-1.62l-2.63-78.98h-.03c0-.14.02-.27.01-.41-.13-3.84-4.51-6.81-9.78-6.64s-9.44,3.43-9.31,7.27c0,.14.03.27.04.41h-.03s2.69,80.74,2.69,80.74h.28c.24,3.78,4.56,6.67,9.76,6.49,4.43-.15,8.07-2.47,9.05-5.49h.05s0-.15,0-.15Z"/><path class="cls-68" d="M436.42,636.38c.15-.53.24-1.07.22-1.63s-.14-1.1-.33-1.62l-2.63-78.98h-.03c0-.14.02-.27.01-.41-.13-3.84-4.51-6.81-9.78-6.64s-9.44,3.43-9.31,7.27c0,.14.03.27.04.41h-.03s2.69,80.74,2.69,80.74h.28c.24,3.78,4.56,6.67,9.76,6.49,4.43-.15,8.07-2.47,9.05-5.49h.05s0-.15,0-.15Z"/><polygon class="cls-6" points="136.01 761.05 137.49 805.6 93.01 838.07 92.63 826.61 100.31 820.67 99.95 809.76 110.79 801.93 110.38 789.75 121.93 781.17 121.62 771.9 136.01 761.05"/><polygon class="cls-6" points="76.44 748.31 121.62 771.9 136.01 761.05 90.83 737.45 76.44 748.31"/><polygon class="cls-6" points="110.38 789.75 121.93 781.17 76.75 757.58 65.2 766.16 110.38 789.75"/><polygon class="cls-6" points="54.76 786.16 65.61 778.34 110.79 801.93 99.95 809.76 54.76 786.16"/><polygon class="cls-6" points="47.45 803.02 55.13 797.07 100.31 820.67 92.63 826.61 47.45 803.02"/><polygon class="cls-81" points="121.93 781.17 121.62 771.9 76.44 748.31 76.75 757.58 121.93 781.17"/><polygon class="cls-81" points="65.2 766.16 65.61 778.34 110.79 801.93 110.38 789.75 65.2 766.16"/><polygon class="cls-81" points="54.76 786.16 55.13 797.07 100.31 820.67 99.95 809.76 54.76 786.16"/><path class="cls-81" d="M47.45,803.02s0,11.54.38,11.46,45.18,23.6,45.18,23.6l-.38-11.46-45.18-23.6Z"/></g></g><g id="podium"><polygon class="cls-70" points="809.11 131.43 910.42 182.71 998.11 122.37 897.17 70.66 809.11 131.43"/><polygon class="cls-83" points="809.11 131.43 810.74 154.31 911.89 203.38 999.52 142.15 998.11 122.37 910.42 182.71 809.11 131.43"/><polygon class="cls-33" points="842.13 136.13 881.97 157.3 950.22 110.06 912.24 89.56 842.13 136.13"/><polygon class="cls-82" points="914.71 109.97 929.69 99.41 912.1 90.38 899.97 98.51 914.71 109.97"/><polygon class="cls-39" points="883.28 127.54 884.5 141.78 930.57 111.66 929.69 99.41 914.65 109.16 914.06 100.93 897.47 111.6 897.98 118.73 883.28 127.54"/><polygon class="cls-7" points="883.28 127.54 866.14 119.28 867.16 133.54 884.5 141.78 883.28 127.54"/><polygon class="cls-82" points="897.98 118.73 883.28 127.54 866.14 119.28 881.25 109.73 897.98 118.73"/><polygon class="cls-7" points="897.47 111.6 897.98 118.73 881.25 109.73 880.45 102.12 897.47 111.6"/><polygon class="cls-82" points="914.06 100.93 897.47 111.6 880.45 102.12 895.93 92.75 914.06 100.93"/><path class="cls-46" d="M905.52,117.25c.86-2.52,1.73-5.03,2.59-7.55l-1-.13c.31,4.28.61,8.56.92,12.85.05.65,1.06.65,1.01,0-.31-4.28-.61-8.56-.92-12.85-.04-.57-.81-.69-1-.13-.86,2.52-1.73,5.03-2.59,7.55-.21.62.77.88.98.27h0Z"/><path class="cls-46" d="M889.95,129.46c.31-1.03.83-2.29,1.65-3.02,2.12-1.88,1.85.76,1.49,2.05-.58,2.08-1.49,4.9-2.95,6.56-.36.41.1,1.12.61.8,2.06-1.32,4.12-2.65,6.17-3.97.55-.35.04-1.23-.51-.87-2.06,1.32-4.12,2.65-6.17,3.97l.61.8c.99-1.14,1.6-2.79,2.18-4.16.66-1.57,1.73-3.76,1.36-5.52-.29-1.4-1.7-1.57-2.84-.91-1.36.8-2.15,2.57-2.59,4.02-.19.63.79.89.98.27h0Z"/><path class="cls-46" d="M920.39,108.23c1.49-.91,2.98-1.82,4.46-2.72l-.69-.69c-1.08,1.64-2.16,3.27-3.23,4.91-.27.4.28,1,.69.69.82-.62,2.45-1.95,3.51-1.89s1.19,1.25.92,2.16c-.46,1.51-1.99,2.32-3.35,2.84-.6.23-.34,1.21.27.98,2.21-.84,5.75-3.56,3.75-6.35-1.31-1.83-4.39.46-5.61,1.39l.69.69c1.08-1.64,2.16-3.27,3.23-4.91.28-.43-.27-.95-.69-.69l-4.46,2.72c-.56.34-.05,1.22.51.87h0Z"/></g><g id="Calque_80"><path class="cls-28" d="M849.03-25.06l-.3,30.13-20.39-15.52,19.78,22.52.3,40.48s5.38,3.14,10.55.61c.29-.14,1.01-30.74,1.01-30.74l12.78-13.7-12.78,7.61-.91-42.3-10.04.91Z"/><path class="cls-28" d="M890.21-64.02l-.5,49.47-33.48-25.48,32.48,36.98.5,66.46s8.83,5.16,17.32,1c.47-.23,1.67-50.47,1.67-50.47l20.99-22.48-20.99,12.49-1.5-69.45-16.49,1.5Z"/><path class="cls-28" d="M989.64-50.62l-.3,30.13-20.39-15.52,19.78,22.52.3,40.48s5.38,3.14,10.55.61c.29-.14,1.01-30.74,1.01-30.74l12.78-13.7-12.78,7.61-.91-42.3-10.04.91Z"/><path class="cls-28" d="M946.42-15.94l-.3,30.13-20.39-15.52,19.78,22.52.3,40.48s5.38,3.14,10.55.61c.29-.14,1.01-30.74,1.01-30.74l12.78-13.7-12.78,7.61-.91-42.3-10.04.91Z"/><path class="cls-28" d="M1015.27,55.13l-.3,30.13-20.39-15.52,19.78,22.52.3,40.48s5.38,3.14,10.55.61c.29-.14,1.01-30.74,1.01-30.74l12.78-13.7-12.78,7.61-.91-42.3-10.04.91Z"/><ellipse class="cls-21" cx="1019.54" cy="20.13" rx="45.65" ry="43.04"/><ellipse class="cls-14" cx="1005.01" cy="4.43" rx="25.94" ry="19.76" transform="translate(200.87 607.27) rotate(-37.11)"/><path class="cls-28" d="M1056.45,16.16l-.5,49.47-33.48-25.48,32.48,36.98.5,66.46s8.83,5.16,17.32,1c.47-.23,1.67-50.47,1.67-50.47l20.99-22.48-20.99,12.49-1.5-69.45-16.49,1.5Z"/><ellipse class="cls-21" cx="1063.44" cy="-41.3" rx="74.95" ry="70.67"/><path class="cls-28" d="M735.6,49.26l-.3,30.13-20.39-15.52,19.78,22.52.3,40.48s5.38,3.14,10.55.61c.29-.14,1.01-30.74,1.01-30.74l12.78-13.7-12.78,7.61-.91-42.3-10.04.91Z"/><ellipse class="cls-21" cx="739.86" cy="14.26" rx="45.65" ry="43.04"/><ellipse class="cls-14" cx="725.34" cy="-1.44" rx="25.94" ry="19.76" transform="translate(147.77 437.34) rotate(-37.11)"/><path class="cls-28" d="M776.77,10.29l-.5,49.47-33.48-25.48,32.48,36.98.5,66.46s8.83,5.16,17.32,1c.47-.23,1.67-50.47,1.67-50.47l20.99-22.48-20.99,12.49-1.5-69.45-16.49,1.5Z"/><ellipse class="cls-21" cx="783.77" cy="-47.17" rx="74.95" ry="70.67"/><path class="cls-28" d="M1038.53,92.15l-.3,30.13-20.39-15.52,19.78,22.52.3,40.48s5.38,3.14,10.55.61c.29-.14,1.01-30.74,1.01-30.74l12.78-13.7-12.78,7.61-.91-42.3-10.04.91Z"/><ellipse class="cls-21" cx="1042.79" cy="57.15" rx="45.65" ry="43.04"/><ellipse class="cls-14" cx="1028.27" cy="41.45" rx="25.94" ry="19.76" transform="translate(183.24 628.8) rotate(-37.11)"/><path class="cls-28" d="M686.76-36.66l-.5,49.47-33.48-25.48,32.48,36.98.5,66.46s8.83,5.16,17.32,1c.47-.23,1.67-50.47,1.67-50.47l20.99-22.48-20.99,12.49-1.5-69.45-16.49,1.5Z"/><path class="cls-28" d="M647.6-11.08l-.3,30.13-20.39-15.52,19.78,22.52.3,40.48s5.38,3.14,10.55.61c.29-.14,1.01-30.74,1.01-30.74l12.78-13.7-12.78,7.61-.91-42.3-10.04.91Z"/><path class="cls-28" d="M1102.23,83.61l-.3,30.13-20.39-15.52,19.78,22.52.3,40.48s5.38,3.14,10.55.61c.29-.14,1.01-30.74,1.01-30.74l12.78-13.7-12.78,7.61-.91-42.3-10.04.91Z"/><ellipse class="cls-21" cx="1106.49" cy="48.61" rx="45.65" ry="43.04"/><ellipse class="cls-14" cx="1091.97" cy="32.91" rx="25.94" ry="19.76" transform="translate(201.3 665.51) rotate(-37.11)"/><path class="cls-28" d="M1056.45,16.16l-.5,49.47-33.48-25.48,32.48,36.98.5,66.46s8.83,5.16,17.32,1c.47-.23,1.67-50.47,1.67-50.47l20.99-22.48-20.99,12.49-1.5-69.45-16.49,1.5Z"/><ellipse class="cls-21" cx="1063.44" cy="-41.3" rx="74.95" ry="70.67"/><path class="cls-28" d="M1038.53,92.15l-.3,30.13-20.39-15.52,19.78,22.52.3,40.48s5.38,3.14,10.55.61c.29-.14,1.01-30.74,1.01-30.74l12.78-13.7-12.78,7.61-.91-42.3-10.04.91Z"/><ellipse class="cls-21" cx="1042.79" cy="57.15" rx="45.65" ry="43.04"/><ellipse class="cls-14" cx="1028.27" cy="41.45" rx="25.94" ry="19.76" transform="translate(183.24 628.8) rotate(-37.11)"/><ellipse class="cls-21" cx="1106.49" cy="48.61" rx="45.65" ry="43.04"/><ellipse class="cls-14" cx="1091.97" cy="32.91" rx="25.94" ry="19.76" transform="translate(201.3 665.51) rotate(-37.11)"/><path class="cls-28" d="M1099.25,261.37l-.3,30.13-20.39-15.52,19.78,22.52.3,40.48s5.38,3.14,10.55.61c.29-.14,1.01-30.74,1.01-30.74l12.78-13.7-12.78,7.61-.91-42.3-10.04.91Z"/><path class="cls-28" d="M1053.47,193.93l-.5,49.47-33.48-25.48,32.48,36.98.5,66.46s8.83,5.16,17.32,1c.47-.23,1.67-50.47,1.67-50.47l20.99-22.48-20.99,12.49-1.5-69.45-16.49,1.5Z"/><ellipse class="cls-21" cx="1060.46" cy="136.47" rx="74.95" ry="70.67"/><ellipse class="cls-14" cx="1036.62" cy="110.69" rx="42.59" ry="32.45" transform="translate(143.16 647.86) rotate(-37.11)"/><path class="cls-28" d="M1035.55,269.91l-.3,30.13-20.39-15.52,19.78,22.52.3,40.48s5.38,3.14,10.55.61c.29-.14,1.01-30.74,1.01-30.74l12.78-13.7-12.78,7.61-.91-42.3-10.04.91Z"/><ellipse class="cls-21" cx="1039.81" cy="234.91" rx="45.65" ry="43.04"/><ellipse class="cls-14" cx="1025.29" cy="219.21" rx="25.94" ry="19.76" transform="translate(75.38 663.01) rotate(-37.11)"/><ellipse class="cls-21" cx="1103.52" cy="226.38" rx="45.65" ry="43.04"/><ellipse class="cls-14" cx="1088.99" cy="210.67" rx="25.94" ry="19.76" transform="translate(93.44 699.71) rotate(-37.11)"/><path class="cls-28" d="M1112.06,366.73l-.5,49.47-33.48-25.48,32.48,36.98.5,66.46s8.83,5.16,17.32,1c.47-.23,1.67-50.47,1.67-50.47l20.99-22.48-20.99,12.49-1.5-69.45-16.49,1.5Z"/><ellipse class="cls-21" cx="1119.06" cy="309.27" rx="74.95" ry="70.67"/><ellipse class="cls-14" cx="1095.21" cy="283.49" rx="42.59" ry="32.45" transform="translate(50.77 718.21) rotate(-37.11)"/><path class="cls-28" d="M1094.15,442.71l-.3,30.13-20.39-15.52,19.78,22.52.3,40.48s5.38,3.14,10.55.61c.29-.14,1.01-30.74,1.01-30.74l12.78-13.7-12.78,7.61-.91-42.3-10.04.91Z"/><ellipse class="cls-21" cx="1098.41" cy="407.71" rx="45.65" ry="43.04"/><ellipse class="cls-14" cx="1083.88" cy="392.01" rx="25.94" ry="19.76" transform="translate(-17.01 733.35) rotate(-37.11)"/><ellipse class="cls-21" cx="1162.11" cy="399.18" rx="45.65" ry="43.04"/><ellipse class="cls-14" cx="1147.59" cy="383.47" rx="25.94" ry="19.76" transform="translate(1.05 770.06) rotate(-37.11)"/><path class="cls-28" d="M1112.06,366.73l-.5,49.47-33.48-25.48,32.48,36.98.5,66.46s8.83,5.16,17.32,1c.47-.23,1.67-50.47,1.67-50.47l20.99-22.48-20.99,12.49-1.5-69.45-16.49,1.5Z"/><ellipse class="cls-21" cx="1119.06" cy="309.27" rx="74.95" ry="70.67"/><ellipse class="cls-14" cx="1095.21" cy="283.49" rx="42.59" ry="32.45" transform="translate(50.77 718.21) rotate(-37.11)"/><path class="cls-28" d="M1094.15,442.71l-.3,30.13-20.39-15.52,19.78,22.52.3,40.48s5.38,3.14,10.55.61c.29-.14,1.01-30.74,1.01-30.74l12.78-13.7-12.78,7.61-.91-42.3-10.04.91Z"/><ellipse class="cls-21" cx="1098.41" cy="407.71" rx="45.65" ry="43.04"/><ellipse class="cls-14" cx="1083.88" cy="392.01" rx="25.94" ry="19.76" transform="translate(-17.01 733.35) rotate(-37.11)"/><ellipse class="cls-21" cx="1162.11" cy="399.18" rx="45.65" ry="43.04"/><ellipse class="cls-14" cx="1147.59" cy="383.47" rx="25.94" ry="19.76" transform="translate(1.05 770.06) rotate(-37.11)"/></g><g id="athlé"><polygon class="cls-11" points="1206.84 1541.72 616.76 1250.81 618.85 1282.45 1207.64 1574.04 1206.84 1541.72"/><path class="cls-88" d="M618.08,1250.66l58.23-42.05h0s-4.24-76.28,119.22-150.91c123.45-74.63,327.37-45.33,356.52-33.04,29.15,12.29,326.86,154.59,332.83,159.16,5.97,4.57,123.53,68.54,66.64,175.01-56.89,106.47-219.68,131.91-282.32,138.81l-62.42,43.03-588.69-290Z"/><path class="cls-100" d="M1377.65,1237.2s93.78,47.08,36.15,120.28c-57.63,73.2-213.66,68.01-235.79,62.07-21.28-5.71-322.98-152.95-335.62-162.05-12.64-9.1-65.39-46.56-9.43-112.56,55.97-66.01,185.96-61.68,218.93-56.02,32.97,5.66,68.75,21.77,68.75,21.77l257,126.51Z"/><polygon class="cls-103" points="618.08 1250.66 704.66 1188.46 1133.18 1400.49 1041.21 1459.61 618.08 1250.66"/><line class="cls-103" x1="1117.79" y1="1392.27" x2="1025.19" y2="1452.14"/><line class="cls-103" x1="1102.32" y1="1385.03" x2="1010.76" y2="1444.52"/><line class="cls-103" x1="1087.65" y1="1377.92" x2="996.02" y2="1437.67"/><line class="cls-103" x1="1074.96" y1="1371.66" x2="983.01" y2="1431.13"/><line class="cls-103" x1="928.59" y1="1298.81" x2="835.68" y2="1358.05"/><line class="cls-103" x1="797.74" y1="1233.81" x2="704.19" y2="1294.11"/><line class="cls-103" x1="1101.16" y1="1422.17" x2="670.32" y2="1213.21"/><path class="cls-103" d="M1269.2,1497.63c-136.09,9.18-227.99-38.02-227.99-38.02l-278.23-136.95s-77.16-38.47-86.67-114.05"/><path class="cls-103" d="M842.7,1276.85s-63.77-36.03-52.75-92.03c11.02-56,105.99-121.7,251.26-111.28,0,0,35.72,4.3,64.18,13.32,28.46,9.02,286.24,136.89,309.12,154.32,19.68,14.99,36.67,33.38,38.98,59.16,2.82,31.5-13.41,61.15-36.97,81.04-18.55,15.66-41.01,25.97-63.82,34.27-38.68,14.07-79.56,22.92-120.72,22.72-84.43-.42-164.83-52.49-239.24-88.6-80.04-38.84-160.07-77.68-240.11-116.52-21.86-10.61-43.72-21.22-65.58-31.83"/><path class="cls-103" d="M833.01,1291.3s-67.83-34.94-67.08-99.85c.75-64.91,124.76-134.78,236.67-132.3,85.53,1.9,124.76,22.03,146.84,29.11,22.08,7.07,271.17,131.97,284.66,143.15,13.48,11.18,76.16,59.56,26.07,128.73-50.09,69.17-159.3,84.76-183.23,87.37-23.93,2.62-121.94,5.07-177.41-25"/><path class="cls-103" d="M823.13,1302.93s-77.12-36.11-76.66-94.62c.46-58.51,40.27-100.43,95.01-125.24,98.15-44.49,215.22-52.71,313.57-5.15,75.45,36.48,150.9,72.97,226.35,109.45,44.69,21.61,120.86,53.12,117.87,114.48-1.75,36.09-20.83,69.11-47.24,93.06-23.66,21.46-52.9,36.04-83.26,45.98-47.48,15.54-97.8,20.04-147.54,19.13-47.69-.87-93.51-6.31-136.07-29.49l-428.54-207.89"/><path class="cls-103" d="M813.74,1318.42s-80.18-34.02-89.79-109.48c-9.62-75.46,94.62-129.47,94.62-129.47,0,0,74.61-44.53,188.85-46.27,114.24-1.74,205.64,52.35,220.78,59.87,15.14,7.52,215.67,105.09,241.93,123.71,33.97,24.09,60.54,69.56,48.26,111.83-12.38,42.63-48.59,74.82-85.98,96.09-64.35,36.61-139.35,49.07-212.62,48.43-36.65-.32-69.74-4.14-104.62-15.18-37.11-11.76-72.5-28.24-107.46-45.21l-130.92-63.52c-76.31-37.03-152.63-74.06-228.94-111.08-2.57-1.25-5.15-2.5-7.72-3.75"/><path class="cls-103" d="M802.62,1329.07c-28.76-12.73-56.2-32.99-75.66-57.69-19.77-25.1-29.41-57.05-23.46-88.74,6.89-36.73,44.78-71.94,73.91-94.49,56.28-43.56,129.05-60.18,198.62-66.45,76-6.84,139.35,6.84,210.58,34.39,10.08,3.9,20.02,8.14,29.81,12.71,48.03,22.46,95.21,47.37,142.73,70.99,39.91,19.84,79.8,39.72,119.66,59.66,0,0,89.72,55.49,59.01,139.35-30.71,83.86-130.71,121.18-196.68,136.8-65.97,15.62-186.43,23.55-286.76-24.4l-427.32-207.18"/></g><g id="Calque_78"><path class="cls-28" d="M1118.64,662.24l-.36,35.63-24.11-18.36,23.39,26.63.36,47.87s6.36,3.72,12.48.72c.34-.17,1.2-36.35,1.2-36.35l15.12-16.2-15.12,9-1.08-50.03-11.88,1.08Z"/><ellipse class="cls-21" cx="1123.68" cy="620.85" rx="53.99" ry="50.9"/><ellipse class="cls-14" cx="1106.51" cy="602.28" rx="30.68" ry="23.37" transform="translate(-139.29 789.59) rotate(-37.11)"/><ellipse class="cls-21" cx="1175.61" cy="548.21" rx="88.64" ry="83.57"/><ellipse class="cls-14" cx="1147.41" cy="517.72" rx="50.37" ry="38.37" transform="translate(-79.99 797.14) rotate(-37.11)"/><path class="cls-28" d="M984.49,750.14l-.36,35.63-24.11-18.36,23.39,26.63.36,47.87s6.36,3.72,12.48.72c.34-.17,1.2-36.35,1.2-36.35l15.12-16.2-15.12,9-1.08-50.03-11.88,1.08Z"/><ellipse class="cls-21" cx="989.53" cy="708.74" rx="53.99" ry="50.9"/><ellipse class="cls-14" cx="972.35" cy="690.18" rx="30.68" ry="23.37" transform="translate(-219.49 726.45) rotate(-37.11)"/><path class="cls-28" d="M1033.18,704.05l-.59,58.5-39.59-30.14,38.41,43.73.59,78.59s10.44,6.11,20.49,1.18c.56-.27,1.97-59.68,1.97-59.68l24.82-26.59-24.82,14.77-1.77-82.14-19.5,1.77Z"/><ellipse class="cls-21" cx="1041.46" cy="636.1" rx="88.64" ry="83.57"/><ellipse class="cls-14" cx="1013.26" cy="605.61" rx="50.37" ry="38.37" transform="translate(-160.19 734) rotate(-37.11)"/><ellipse class="cls-21" cx="1155.81" cy="678.51" rx="53.99" ry="50.9"/><ellipse class="cls-14" cx="1138.64" cy="659.94" rx="30.68" ry="23.37" transform="translate(-167.58 820.65) rotate(-37.11)"/><path class="cls-28" d="M1099.66,760.92l-.36,35.63-24.11-18.36,23.39,26.63.36,47.87s6.36,3.72,12.48.72c.34-.17,1.2-36.35,1.2-36.35l15.12-16.2-15.12,9-1.08-50.03-11.88,1.08Z"/><ellipse class="cls-21" cx="1104.7" cy="719.53" rx="53.99" ry="50.9"/><ellipse class="cls-14" cx="1087.53" cy="700.96" rx="30.68" ry="23.37" transform="translate(-202.67 798.12) rotate(-37.11)"/></g><g id="Calque_75"><path class="cls-28" d="M-.81,1363.23l-.36,35.63-24.11-18.36,23.39,26.63.36,47.87s6.36,3.72,12.48.72c.34-.17,1.2-36.35,1.2-36.35l15.12-16.2-15.12,9-1.08-50.03-11.88,1.08Z"/><ellipse class="cls-21" cx="4.23" cy="1321.84" rx="53.99" ry="50.9"/><ellipse class="cls-14" cx="-12.95" cy="1303.27" rx="30.68" ry="23.37" transform="translate(-788.95 256.13) rotate(-37.11)"/><ellipse class="cls-21" cx="-46.88" cy="1362.86" rx="53.99" ry="50.9"/><path class="cls-28" d="M29.51,1488.3l-.36,35.63-24.11-18.36,23.39,26.63.36,47.87s6.36,3.72,12.48.72c.34-.17,1.2-36.35,1.2-36.35l15.12-16.2-15.12,9-1.08-50.03-11.88,1.08Z"/><ellipse class="cls-21" cx="34.54" cy="1446.91" rx="53.99" ry="50.9"/><ellipse class="cls-14" cx="17.37" cy="1428.34" rx="30.68" ry="23.37" transform="translate(-858.27 299.75) rotate(-37.11)"/><path class="cls-28" d="M78.2,1442.22l-.59,58.5-39.59-30.14,38.41,43.73.59,78.59s10.44,6.11,20.49,1.18c.56-.27,1.97-59.68,1.97-59.68l24.82-26.59-24.82,14.77-1.77-82.14-19.5,1.77Z"/><ellipse class="cls-21" cx="86.47" cy="1374.26" rx="88.64" ry="83.57"/><ellipse class="cls-14" cx="58.27" cy="1343.77" rx="50.37" ry="38.37" transform="translate(-798.96 307.3) rotate(-37.11)"/><path class="cls-28" d="M195.79,1458.06l-.36,35.63-24.11-18.36,23.39,26.63.36,47.87s6.36,3.72,12.48.72c.34-.17,1.2-36.35,1.2-36.35l15.12-16.2-15.12,9-1.08-50.03-11.88,1.08Z"/><ellipse class="cls-21" cx="200.83" cy="1416.67" rx="53.99" ry="50.9"/><ellipse class="cls-14" cx="183.65" cy="1398.1" rx="30.68" ry="23.37" transform="translate(-806.35 393.96) rotate(-37.11)"/><path class="cls-28" d="M144.68,1499.08l-.36,35.63-24.11-18.36,23.39,26.63.36,47.87s6.36,3.72,12.48.72c.34-.17,1.2-36.35,1.2-36.35l15.12-16.2-15.12,9-1.08-50.03-11.88,1.08Z"/><ellipse class="cls-21" cx="149.72" cy="1457.69" rx="53.99" ry="50.9"/><ellipse class="cls-14" cx="132.54" cy="1439.12" rx="30.68" ry="23.37" transform="translate(-841.45 371.43) rotate(-37.11)"/><ellipse class="cls-21" cx="-52.31" cy="1448.27" rx="88.64" ry="83.57"/><path class="cls-28" d="M57.01,1532.08l-.36,35.63-24.11-18.36,23.39,26.63.36,47.87s6.36,3.72,12.48.72c.34-.17,1.2-36.35,1.2-36.35l15.12-16.2-15.12,9-1.08-50.03-11.88,1.08Z"/><ellipse class="cls-21" cx="62.05" cy="1490.69" rx="53.99" ry="50.9"/><ellipse class="cls-14" cx="44.87" cy="1472.12" rx="30.68" ry="23.37" transform="translate(-879.12 325.21) rotate(-37.11)"/><path class="cls-28" d="M5.9,1573.09l-.36,35.63-24.11-18.36,23.39,26.63.36,47.87s6.36,3.72,12.48.72c.34-.17,1.2-36.35,1.2-36.35l15.12-16.2-15.12,9-1.08-50.03-11.88,1.08Z"/><ellipse class="cls-21" cx="10.94" cy="1531.7" rx="53.99" ry="50.9"/><ellipse class="cls-14" cx="-6.24" cy="1513.13" rx="30.68" ry="23.37" transform="translate(-914.21 302.68) rotate(-37.11)"/></g><g id="gradin"><polygon class="cls-61" points="118.12 1599.23 120.35 1683.78 135.44 1674.55 132.77 1573.28 118.12 1599.23"/><polygon class="cls-16" points="124.01 1593.5 126.43 1685.48 153.9 1669.41 151.35 1572.79 124.01 1593.5"/><polygon class="cls-61" points="206.67 1431.87 197.38 1432.12 40.41 1525.97 43.74 1634.66 52.36 1644.2 206.67 1431.87"/><polygon class="cls-16" points="49.27 1527.13 52.36 1644.2 209.77 1549.4 206.67 1431.87 49.27 1527.13"/><polygon class="cls-109" points="54.56 1533.46 57.2 1633.84 128.6 1590.97 125.89 1488.33 54.56 1533.46"/><polygon class="cls-109" points="131.68 1485.93 134.33 1586.31 205.73 1543.43 203.02 1440.8 131.68 1485.93"/><polygon class="cls-66" points="149.04 1622.27 165.05 1630.95 395.47 1485.29 378.23 1476.03 149.04 1622.27"/><polygon class="cls-66" points="164.69 1640.36 180.7 1649.05 411.12 1503.38 393.88 1494.13 164.69 1640.36"/><polygon class="cls-66" points="182.18 1659.32 198.19 1668.01 428.61 1522.34 411.37 1513.09 182.18 1659.32"/><polygon class="cls-66" points="197.25 1678.35 213.26 1687.03 443.68 1541.37 428.76 1531.64 197.25 1678.35"/><polygon class="cls-66" points="213.5 1696.13 231.93 1704.74 462.35 1559.08 445.12 1549.82 213.5 1696.13"/><polygon class="cls-63" points="213.5 1696.13 213.26 1687.03 443.68 1541.37 445.12 1549.82 213.5 1696.13"/><polygon class="cls-63" points="231.93 1704.74 232.22 1715.56 461.08 1572.36 462.35 1559.08 231.93 1704.74"/><polygon class="cls-63" points="198.19 1668.01 197.25 1678.35 428.76 1531.64 428.61 1522.34 198.19 1668.01"/><polygon class="cls-63" points="180.7 1649.05 182.18 1659.32 411.37 1513.09 411.12 1503.38 180.7 1649.05"/><polygon class="cls-63" points="164.69 1640.36 164.44 1630.96 395.47 1485.29 395.7 1494.08 164.69 1640.36"/><polygon class="cls-76" points="149.04 1622.27 164.44 1630.96 164.69 1640.36 180.7 1649.05 182.18 1659.32 198.19 1668.01 197.25 1678.35 213.26 1687.03 213.5 1696.13 231.93 1704.74 232.22 1715.56 149.33 1671.62 149.04 1622.27"/><path class="cls-4" d="M182.06,1590.49l-2.39-1.24-10.53,7.07.36,13.67,14.09,8.95,12.09-7.38.17-3.4s-14.7-2.23-14.63.12c.06,2.35-4.74-11.38-4.74-11.38l5.58-6.42Z"/><polygon class="cls-55" points="171.44 1597.56 182.06 1590.49 182.5 1603.89 195.85 1608.16 183.78 1616.06 171.55 1608.28 171.44 1597.56"/><polygon class="cls-56" points="171.44 1597.56 169.14 1596.32 169.5 1609.99 183.59 1618.94 183.78 1616.06 171.55 1608.28 171.44 1597.56"/><path class="cls-4" d="M197.12,1580.68l-2.39-1.24-10.53,7.07.36,13.67,14.09,8.95,12.09-7.38.17-3.4s-14.7-2.23-14.63.12-4.74-11.38-4.74-11.38l5.58-6.42Z"/><polygon class="cls-55" points="186.51 1587.76 197.12 1580.68 197.56 1594.09 210.92 1598.35 198.84 1606.25 186.61 1598.47 186.51 1587.76"/><polygon class="cls-56" points="186.51 1587.76 184.21 1586.51 184.57 1600.18 198.66 1609.13 198.84 1606.25 186.61 1598.47 186.51 1587.76"/><path class="cls-4" d="M212.8,1571.01l-2.39-1.24-10.53,7.07.36,13.67,14.09,8.95,12.09-7.38.17-3.4s-14.7-2.23-14.63.12c.06,2.35-4.74-11.38-4.74-11.38l5.58-6.42Z"/><polygon class="cls-55" points="202.18 1578.09 212.8 1571.01 213.24 1584.42 226.6 1588.69 214.52 1596.58 202.29 1588.8 202.18 1578.09"/><polygon class="cls-56" points="202.18 1578.09 199.88 1576.84 200.24 1590.51 214.33 1599.47 214.52 1596.58 202.29 1588.8 202.18 1578.09"/><path class="cls-4" d="M254.89,1544.57l-2.39-1.24-10.53,7.07.36,13.67,14.09,8.95,12.09-7.38.17-3.4s-14.7-2.23-14.63.12-4.74-11.38-4.74-11.38l5.58-6.42Z"/><polygon class="cls-55" points="244.27 1551.64 254.89 1544.57 255.33 1557.97 268.68 1562.24 256.61 1570.14 244.38 1562.36 244.27 1551.64"/><polygon class="cls-56" points="244.27 1551.64 241.97 1550.4 242.33 1564.07 256.42 1573.02 256.61 1570.14 244.38 1562.36 244.27 1551.64"/><path class="cls-4" d="M269.95,1534.76l-2.39-1.24-10.53,7.07.36,13.67,14.09,8.95,12.09-7.38.17-3.4s-14.7-2.23-14.63.12-4.74-11.38-4.74-11.38l5.58-6.42Z"/><polygon class="cls-55" points="259.34 1541.84 269.95 1534.76 270.39 1548.17 283.75 1552.43 271.67 1560.33 259.44 1552.55 259.34 1541.84"/><polygon class="cls-56" points="259.34 1541.84 257.04 1540.59 257.4 1554.26 271.49 1563.21 271.67 1560.33 259.44 1552.55 259.34 1541.84"/><path class="cls-4" d="M285.63,1525.09l-2.39-1.24-10.53,7.07.36,13.67,14.09,8.95,12.09-7.38.17-3.4s-14.7-2.23-14.63.12c.06,2.35-4.74-11.38-4.74-11.38l5.58-6.42Z"/><polygon class="cls-55" points="275.01 1532.17 285.63 1525.09 286.07 1538.5 299.43 1542.77 287.35 1550.66 275.12 1542.88 275.01 1532.17"/><polygon class="cls-56" points="275.01 1532.17 272.71 1530.92 273.07 1544.59 287.16 1553.54 287.35 1550.66 275.12 1542.88 275.01 1532.17"/><path class="cls-4" d="M331.28,1495.52l-2.39-1.24-10.53,7.07.36,13.67,14.09,8.95,12.09-7.38.17-3.4s-14.7-2.23-14.63.12-4.74-11.38-4.74-11.38l5.58-6.42Z"/><polygon class="cls-55" points="320.66 1502.59 331.28 1495.52 331.72 1508.92 345.07 1513.19 333 1521.09 320.77 1513.31 320.66 1502.59"/><polygon class="cls-56" points="320.66 1502.59 318.36 1501.35 318.72 1515.02 332.81 1523.97 333 1521.09 320.77 1513.31 320.66 1502.59"/><path class="cls-4" d="M346.34,1485.71l-2.39-1.24-10.53,7.07.36,13.67,14.09,8.95,12.09-7.38.17-3.4s-14.7-2.23-14.63.12-4.74-11.38-4.74-11.38l5.58-6.42Z"/><polygon class="cls-55" points="335.72 1492.79 346.34 1485.71 346.78 1499.12 360.14 1503.39 348.06 1511.28 335.83 1503.5 335.72 1492.79"/><polygon class="cls-56" points="335.72 1492.79 333.43 1491.54 333.79 1505.21 347.88 1514.16 348.06 1511.28 335.83 1503.5 335.72 1492.79"/><path class="cls-4" d="M362.02,1476.04l-2.39-1.24-10.53,7.07.36,13.67,14.09,8.95,12.09-7.38.17-3.4s-14.7-2.23-14.63.12-4.74-11.38-4.74-11.38l5.58-6.42Z"/><polygon class="cls-55" points="351.4 1483.12 362.02 1476.04 362.46 1489.45 375.81 1493.72 363.74 1501.62 351.51 1493.83 351.4 1483.12"/><polygon class="cls-56" points="351.4 1483.12 349.1 1481.87 349.46 1495.54 363.55 1504.5 363.74 1501.62 351.51 1493.83 351.4 1483.12"/><path class="cls-4" d="M219.68,1624.69l-2.39-1.24-10.53,7.07.36,13.67,14.09,8.95,12.09-7.38.17-3.4s-14.7-2.23-14.63.12c.06,2.35-4.74-11.38-4.74-11.38l5.58-6.42Z"/><polygon class="cls-55" points="209.06 1631.77 219.68 1624.69 220.12 1638.1 233.47 1642.37 221.4 1650.27 209.17 1642.48 209.06 1631.77"/><polygon class="cls-56" points="209.06 1631.77 206.76 1630.52 207.12 1644.19 221.21 1653.15 221.4 1650.27 209.17 1642.48 209.06 1631.77"/><path class="cls-4" d="M234.74,1614.89l-2.39-1.24-10.53,7.07.36,13.67,14.09,8.95,12.09-7.38.17-3.4s-14.7-2.23-14.63.12c.06,2.35-4.74-11.38-4.74-11.38l5.58-6.42Z"/><polygon class="cls-55" points="224.13 1621.97 234.74 1614.89 235.18 1628.3 248.54 1632.56 236.46 1640.46 224.23 1632.68 224.13 1621.97"/><polygon class="cls-56" points="224.13 1621.97 221.83 1620.72 222.19 1634.39 236.28 1643.34 236.46 1640.46 224.23 1632.68 224.13 1621.97"/><path class="cls-4" d="M250.42,1605.22l-2.39-1.24-10.53,7.07.36,13.67,14.09,8.95,12.09-7.38.17-3.4s-14.7-2.23-14.63.12-4.74-11.38-4.74-11.38l5.58-6.42Z"/><polygon class="cls-55" points="239.8 1612.3 250.42 1605.22 250.86 1618.63 264.22 1622.89 252.14 1630.79 239.91 1623.01 239.8 1612.3"/><polygon class="cls-56" points="239.8 1612.3 237.5 1611.05 237.86 1624.72 251.95 1633.67 252.14 1630.79 239.91 1623.01 239.8 1612.3"/><path class="cls-4" d="M292.51,1578.77l-2.39-1.24-10.53,7.07.36,13.67,14.09,8.95,12.09-7.38.17-3.4s-14.7-2.23-14.63.12c.06,2.35-4.74-11.38-4.74-11.38l5.58-6.42Z"/><polygon class="cls-55" points="281.89 1585.85 292.51 1578.77 292.95 1592.18 306.3 1596.45 294.23 1604.34 282 1596.56 281.89 1585.85"/><polygon class="cls-56" points="281.89 1585.85 279.59 1584.6 279.95 1598.27 294.04 1607.22 294.23 1604.34 282 1596.56 281.89 1585.85"/><path class="cls-4" d="M307.57,1568.97l-2.39-1.24-10.53,7.07.36,13.67,14.09,8.95,12.09-7.38.17-3.4s-14.7-2.23-14.63.12-4.74-11.38-4.74-11.38l5.58-6.42Z"/><polygon class="cls-55" points="296.96 1576.05 307.57 1568.97 308.01 1582.38 321.37 1586.64 309.29 1594.54 297.06 1586.76 296.96 1576.05"/><polygon class="cls-56" points="296.96 1576.05 294.66 1574.8 295.02 1588.47 309.11 1597.42 309.29 1594.54 297.06 1586.76 296.96 1576.05"/><path class="cls-4" d="M323.25,1559.3l-2.39-1.24-10.53,7.07.36,13.67,14.09,8.95,12.09-7.38.17-3.4s-14.7-2.23-14.63.12c.06,2.35-4.74-11.38-4.74-11.38l5.58-6.42Z"/><polygon class="cls-55" points="312.63 1566.38 323.25 1559.3 323.69 1572.71 337.05 1576.97 324.97 1584.87 312.74 1577.09 312.63 1566.38"/><polygon class="cls-56" points="312.63 1566.38 310.33 1565.13 310.69 1578.8 324.78 1587.75 324.97 1584.87 312.74 1577.09 312.63 1566.38"/><path class="cls-4" d="M368.9,1529.73l-2.39-1.24-10.53,7.07.36,13.67,14.09,8.95,12.09-7.38.17-3.4s-14.7-2.23-14.63.12-4.74-11.38-4.74-11.38l5.58-6.42Z"/><polygon class="cls-55" points="358.28 1536.8 368.9 1529.73 369.34 1543.13 382.69 1547.4 370.62 1555.3 358.39 1547.52 358.28 1536.8"/><polygon class="cls-56" points="358.28 1536.8 355.98 1535.55 356.34 1549.22 370.43 1558.18 370.62 1555.3 358.39 1547.52 358.28 1536.8"/><path class="cls-4" d="M383.96,1519.92l-2.39-1.24-10.53,7.07.36,13.67,14.09,8.95,12.09-7.38.17-3.4s-14.7-2.23-14.63.12-4.74-11.38-4.74-11.38l5.58-6.42Z"/><polygon class="cls-55" points="373.34 1527 383.96 1519.92 384.4 1533.33 397.76 1537.59 385.68 1545.49 373.45 1537.71 373.34 1527"/><polygon class="cls-56" points="373.34 1527 371.05 1525.75 371.41 1539.42 385.5 1548.37 385.68 1545.49 373.45 1537.71 373.34 1527"/><path class="cls-4" d="M399.64,1510.25l-2.39-1.24-10.53,7.07.36,13.67,14.09,8.95,12.09-7.38.17-3.4s-14.7-2.23-14.63.12c.06,2.35-4.74-11.38-4.74-11.38l5.58-6.42Z"/><polygon class="cls-55" points="389.02 1517.33 399.64 1510.25 400.08 1523.66 413.43 1527.92 401.36 1535.82 389.13 1528.04 389.02 1517.33"/><polygon class="cls-56" points="389.02 1517.33 386.72 1516.08 387.08 1529.75 401.17 1538.7 401.36 1535.82 389.13 1528.04 389.02 1517.33"/><path class="cls-4" d="M258.51,1658.87l-2.39-1.24-10.53,7.07.36,13.67,14.09,8.95,12.09-7.38.17-3.4s-14.7-2.23-14.63.12c.06,2.35-4.74-11.38-4.74-11.38l5.58-6.42Z"/><polygon class="cls-55" points="247.89 1665.95 258.51 1658.87 258.95 1672.28 272.31 1676.54 260.23 1684.44 248 1676.66 247.89 1665.95"/><polygon class="cls-56" points="247.89 1665.95 245.59 1664.7 245.95 1678.37 260.04 1687.32 260.23 1684.44 248 1676.66 247.89 1665.95"/><path class="cls-4" d="M273.58,1649.07l-2.39-1.24-10.53,7.07.36,13.67,14.09,8.95,12.09-7.38.17-3.4s-14.7-2.23-14.63.12-4.74-11.38-4.74-11.38l5.58-6.42Z"/><polygon class="cls-55" points="262.96 1656.14 273.58 1649.07 274.02 1662.47 287.37 1666.74 275.3 1674.64 263.07 1666.86 262.96 1656.14"/><polygon class="cls-56" points="262.96 1656.14 260.66 1654.9 261.02 1668.57 275.11 1677.52 275.3 1674.64 263.07 1666.86 262.96 1656.14"/><path class="cls-4" d="M289.25,1639.4l-2.39-1.24-10.53,7.07.36,13.67,14.09,8.95,12.09-7.38.17-3.4s-14.7-2.23-14.63.12c.06,2.35-4.74-11.38-4.74-11.38l5.58-6.42Z"/><polygon class="cls-55" points="278.63 1646.47 289.25 1639.4 289.69 1652.8 303.05 1657.07 290.97 1664.97 278.74 1657.19 278.63 1646.47"/><polygon class="cls-56" points="278.63 1646.47 276.34 1645.23 276.7 1658.9 290.79 1667.85 290.97 1664.97 278.74 1657.19 278.63 1646.47"/><path class="cls-4" d="M331.34,1612.95l-2.39-1.24-10.53,7.07.36,13.67,14.09,8.95,12.09-7.38.17-3.4s-14.7-2.23-14.63.12-4.74-11.38-4.74-11.38l5.58-6.42Z"/><polygon class="cls-55" points="320.72 1620.03 331.34 1612.95 331.78 1626.36 345.14 1630.62 333.06 1638.52 320.83 1630.74 320.72 1620.03"/><polygon class="cls-56" points="320.72 1620.03 318.42 1618.78 318.78 1632.45 332.87 1641.4 333.06 1638.52 320.83 1630.74 320.72 1620.03"/><path class="cls-4" d="M346.41,1603.15l-2.39-1.24-10.53,7.07.36,13.67,14.09,8.95,12.09-7.38.17-3.4s-14.7-2.23-14.63.12-4.74-11.38-4.74-11.38l5.58-6.42Z"/><polygon class="cls-55" points="335.79 1610.22 346.41 1603.15 346.85 1616.55 360.2 1620.82 348.13 1628.72 335.9 1620.94 335.79 1610.22"/><polygon class="cls-56" points="335.79 1610.22 333.49 1608.98 333.85 1622.65 347.94 1631.6 348.13 1628.72 335.9 1620.94 335.79 1610.22"/><path class="cls-4" d="M362.08,1593.48l-2.39-1.24-10.53,7.07.36,13.67,14.09,8.95,12.09-7.38.17-3.4s-14.7-2.23-14.63.12c.06,2.35-4.74-11.38-4.74-11.38l5.58-6.42Z"/><polygon class="cls-55" points="351.46 1600.55 362.08 1593.48 362.52 1606.88 375.88 1611.15 363.8 1619.05 351.57 1611.27 351.46 1600.55"/><polygon class="cls-56" points="351.46 1600.55 349.17 1599.31 349.53 1612.98 363.62 1621.93 363.8 1619.05 351.57 1611.27 351.46 1600.55"/><path class="cls-4" d="M407.73,1563.9l-2.39-1.24-10.53,7.07.36,13.67,14.09,8.95,12.09-7.38.17-3.4s-14.7-2.23-14.63.12-4.74-11.38-4.74-11.38l5.58-6.42Z"/><polygon class="cls-55" points="397.11 1570.98 407.73 1563.9 408.17 1577.31 421.52 1581.57 409.45 1589.47 397.22 1581.69 397.11 1570.98"/><polygon class="cls-56" points="397.11 1570.98 394.81 1569.73 395.17 1583.4 409.26 1592.35 409.45 1589.47 397.22 1581.69 397.11 1570.98"/><path class="cls-4" d="M422.79,1554.1l-2.39-1.24-10.53,7.07.36,13.67,14.09,8.95,12.09-7.38.17-3.4s-14.7-2.23-14.63.12-4.74-11.38-4.74-11.38l5.58-6.42Z"/><polygon class="cls-55" points="412.18 1561.17 422.79 1554.1 423.23 1567.5 436.59 1571.77 424.51 1579.67 412.28 1571.89 412.18 1561.17"/><polygon class="cls-56" points="412.18 1561.17 409.88 1559.93 410.24 1573.6 424.33 1582.55 424.51 1579.67 412.28 1571.89 412.18 1561.17"/><path class="cls-4" d="M438.47,1544.43l-2.39-1.24-10.53,7.07.36,13.67,14.09,8.95,12.09-7.38.17-3.4s-14.7-2.23-14.63.12c.06,2.35-4.74-11.38-4.74-11.38l5.58-6.42Z"/><polygon class="cls-55" points="427.85 1551.5 438.47 1544.43 438.91 1557.83 452.27 1562.1 440.19 1570 427.96 1562.22 427.85 1551.5"/><polygon class="cls-56" points="427.85 1551.5 425.55 1550.26 425.91 1563.93 440 1572.88 440.19 1570 427.96 1562.22 427.85 1551.5"/><polygon class="cls-66" points="-93.95 1775.74 -77.94 1784.42 152.48 1638.76 135.24 1629.5 -93.95 1775.74"/><polygon class="cls-66" points="-78.3 1793.84 -62.29 1802.52 168.13 1656.86 150.89 1647.6 -78.3 1793.84"/><polygon class="cls-66" points="-60.81 1812.8 -44.8 1821.48 185.62 1675.82 168.38 1666.56 -60.81 1812.8"/><polygon class="cls-66" points="-45.74 1831.82 -29.73 1840.5 200.69 1694.84 185.76 1685.12 -45.74 1831.82"/><polygon class="cls-66" points="-29.49 1849.6 -11.06 1858.22 219.36 1712.55 202.12 1703.3 -29.49 1849.6"/><polygon class="cls-63" points="-29.49 1849.6 -29.73 1840.5 200.69 1694.84 202.12 1703.3 -29.49 1849.6"/><polygon class="cls-63" points="-11.06 1858.22 -10.77 1869.03 218.09 1725.84 219.36 1712.55 -11.06 1858.22"/><polygon class="cls-63" points="-44.8 1821.48 -45.74 1831.82 185.76 1685.12 185.62 1675.82 -44.8 1821.48"/><polygon class="cls-63" points="-62.29 1802.52 -60.81 1812.8 168.38 1666.56 168.13 1656.86 -62.29 1802.52"/><polygon class="cls-63" points="-78.3 1793.84 -78.55 1784.44 152.48 1638.76 152.71 1647.55 -78.3 1793.84"/><path class="cls-4" d="M11.9,1698.04l-2.39-1.24-10.53,7.07.36,13.67,14.09,8.95,12.09-7.38.17-3.4s-14.7-2.23-14.63.12c.06,2.35-4.74-11.38-4.74-11.38l5.58-6.42Z"/><polygon class="cls-55" points="1.28 1705.12 11.9 1698.04 12.34 1711.45 25.69 1715.71 13.62 1723.61 1.39 1715.83 1.28 1705.12"/><polygon class="cls-56" points="1.28 1705.12 -1.02 1703.87 -.66 1717.54 13.43 1726.49 13.62 1723.61 1.39 1715.83 1.28 1705.12"/><path class="cls-4" d="M26.96,1688.24l-2.39-1.24-10.53,7.07.36,13.67,14.09,8.95,12.09-7.38.17-3.4s-14.7-2.23-14.63.12-4.74-11.38-4.74-11.38l5.58-6.42Z"/><polygon class="cls-55" points="16.34 1695.31 26.96 1688.24 27.4 1701.64 40.76 1705.91 28.68 1713.81 16.45 1706.03 16.34 1695.31"/><polygon class="cls-56" points="16.34 1695.31 14.05 1694.07 14.41 1707.74 28.5 1716.69 28.68 1713.81 16.45 1706.03 16.34 1695.31"/><path class="cls-4" d="M42.64,1678.57l-2.39-1.24-10.53,7.07.36,13.67,14.09,8.95,12.09-7.38.17-3.4s-14.7-2.23-14.63.12-4.74-11.38-4.74-11.38l5.58-6.42Z"/><polygon class="cls-55" points="32.02 1685.64 42.64 1678.57 43.08 1691.97 56.43 1696.24 44.36 1704.14 32.13 1696.36 32.02 1685.64"/><polygon class="cls-56" points="32.02 1685.64 29.72 1684.4 30.08 1698.07 44.17 1707.02 44.36 1704.14 32.13 1696.36 32.02 1685.64"/><path class="cls-4" d="M88.28,1648.99l-2.39-1.24-10.53,7.07.36,13.67,14.09,8.95,12.09-7.38.17-3.4s-14.7-2.23-14.63.12c.06,2.35-4.74-11.38-4.74-11.38l5.58-6.42Z"/><polygon class="cls-55" points="77.67 1656.07 88.28 1648.99 88.73 1662.4 102.08 1666.66 90 1674.56 77.78 1666.78 77.67 1656.07"/><polygon class="cls-56" points="77.67 1656.07 75.37 1654.82 75.73 1668.49 89.82 1677.44 90 1674.56 77.78 1666.78 77.67 1656.07"/><path class="cls-4" d="M103.35,1639.19l-2.39-1.24-10.53,7.07.36,13.67,14.09,8.95,12.09-7.38.17-3.4s-14.7-2.23-14.63.12c.06,2.35-4.74-11.38-4.74-11.38l5.58-6.42Z"/><polygon class="cls-55" points="92.73 1646.26 103.35 1639.19 103.79 1652.59 117.15 1656.86 105.07 1664.76 92.84 1656.98 92.73 1646.26"/><polygon class="cls-56" points="92.73 1646.26 90.43 1645.02 90.79 1658.69 104.88 1667.64 105.07 1664.76 92.84 1656.98 92.73 1646.26"/><path class="cls-4" d="M119.03,1629.52l-2.39-1.24-10.53,7.07.36,13.67,14.09,8.95,12.09-7.38.17-3.4s-14.7-2.23-14.63.12-4.74-11.38-4.74-11.38l5.58-6.42Z"/><polygon class="cls-55" points="108.41 1636.59 119.03 1629.52 119.47 1642.92 132.82 1647.19 120.75 1655.09 108.52 1647.31 108.41 1636.59"/><polygon class="cls-56" points="108.41 1636.59 106.11 1635.35 106.47 1649.02 120.56 1657.97 120.75 1655.09 108.52 1647.31 108.41 1636.59"/><path class="cls-4" d="M-8.25,1768.36l-2.39-1.24-10.53,7.07.36,13.67,14.09,8.95,12.09-7.38.17-3.4s-14.7-2.23-14.63.12-4.74-11.38-4.74-11.38l5.58-6.42Z"/><polygon class="cls-55" points="-18.87 1775.44 -8.25 1768.36 -7.81 1781.77 5.55 1786.04 -6.53 1793.93 -18.76 1786.15 -18.87 1775.44"/><path class="cls-4" d="M7.43,1758.7l-2.39-1.24-10.53,7.07.36,13.67,14.09,8.95,12.09-7.38.17-3.4s-14.7-2.23-14.63.12-4.74-11.38-4.74-11.38l5.58-6.42Z"/><polygon class="cls-55" points="-3.19 1765.77 7.43 1758.7 7.87 1772.1 21.22 1776.37 9.15 1784.27 -3.08 1776.49 -3.19 1765.77"/><polygon class="cls-56" points="-3.19 1765.77 -5.49 1764.53 -5.13 1778.2 8.96 1787.15 9.15 1784.27 -3.08 1776.49 -3.19 1765.77"/><path class="cls-4" d="M49.51,1732.25l-2.39-1.24-10.53,7.07.36,13.67,14.09,8.95,12.09-7.38.17-3.4s-14.7-2.23-14.63.12c.06,2.35-4.74-11.38-4.74-11.38l5.58-6.42Z"/><polygon class="cls-55" points="38.9 1739.32 49.51 1732.25 49.96 1745.65 63.31 1749.92 51.23 1757.82 39.01 1750.04 38.9 1739.32"/><polygon class="cls-56" points="38.9 1739.32 36.6 1738.08 36.96 1751.75 51.05 1760.7 51.23 1757.82 39.01 1750.04 38.9 1739.32"/><path class="cls-4" d="M64.58,1722.44l-2.39-1.24-10.53,7.07.36,13.67,14.09,8.95,12.09-7.38.17-3.4s-14.7-2.23-14.63.12c.06,2.35-4.74-11.38-4.74-11.38l5.58-6.42Z"/><polygon class="cls-55" points="53.96 1729.52 64.58 1722.44 65.02 1735.85 78.38 1740.12 66.3 1748.01 54.07 1740.23 53.96 1729.52"/><polygon class="cls-56" points="53.96 1729.52 51.66 1728.27 52.03 1741.94 66.11 1750.89 66.3 1748.01 54.07 1740.23 53.96 1729.52"/><path class="cls-4" d="M80.26,1712.78l-2.39-1.24-10.53,7.07.36,13.67,14.09,8.95,12.09-7.38.17-3.4s-14.7-2.23-14.63.12-4.74-11.38-4.74-11.38l5.58-6.42Z"/><polygon class="cls-55" points="69.64 1719.85 80.26 1712.78 80.7 1726.18 94.05 1730.45 81.98 1738.35 69.75 1730.57 69.64 1719.85"/><polygon class="cls-56" points="69.64 1719.85 67.34 1718.6 67.7 1732.27 81.79 1741.23 81.98 1738.35 69.75 1730.57 69.64 1719.85"/><path class="cls-4" d="M125.9,1683.2l-2.39-1.24-10.53,7.07.36,13.67,14.09,8.95,12.09-7.38.17-3.4s-14.7-2.23-14.63.12c.06,2.35-4.74-11.38-4.74-11.38l5.58-6.42Z"/><polygon class="cls-55" points="115.29 1690.27 125.9 1683.2 126.34 1696.6 139.7 1700.87 127.62 1708.77 115.39 1700.99 115.29 1690.27"/><polygon class="cls-56" points="115.29 1690.27 112.99 1689.03 113.35 1702.7 127.44 1711.65 127.62 1708.77 115.39 1700.99 115.29 1690.27"/><path class="cls-4" d="M140.97,1673.39l-2.39-1.24-10.53,7.07.36,13.67,14.09,8.95,12.09-7.38.17-3.4s-14.7-2.23-14.63.12c.06,2.35-4.74-11.38-4.74-11.38l5.58-6.42Z"/><polygon class="cls-55" points="130.35 1680.47 140.97 1673.39 141.41 1686.8 154.77 1691.07 142.69 1698.96 130.46 1691.18 130.35 1680.47"/><polygon class="cls-56" points="130.35 1680.47 128.05 1679.22 128.41 1692.89 142.5 1701.85 142.69 1698.96 130.46 1691.18 130.35 1680.47"/><path class="cls-4" d="M156.65,1663.73l-2.39-1.24-10.53,7.07.36,13.67,14.09,8.95,12.09-7.38.17-3.4s-14.7-2.23-14.63.12-4.74-11.38-4.74-11.38l5.58-6.42Z"/><polygon class="cls-55" points="146.03 1670.8 156.65 1663.73 157.09 1677.13 170.44 1681.4 158.37 1689.3 146.14 1681.52 146.03 1670.8"/><polygon class="cls-56" points="146.03 1670.8 143.73 1669.56 144.09 1683.23 158.18 1692.18 158.37 1689.3 146.14 1681.52 146.03 1670.8"/><path class="cls-4" d="M15.52,1812.34l-2.39-1.24-10.53,7.07.36,13.67,14.09,8.95,12.09-7.38.17-3.4s-14.7-2.23-14.63.12c.06,2.35-4.74-11.38-4.74-11.38l5.58-6.42Z"/><polygon class="cls-55" points="4.9 1819.42 15.52 1812.34 15.96 1825.75 29.31 1830.02 17.24 1837.91 5.01 1830.13 4.9 1819.42"/><polygon class="cls-56" points="4.9 1819.42 2.6 1818.17 2.96 1831.84 17.05 1840.79 17.24 1837.91 5.01 1830.13 4.9 1819.42"/><path class="cls-4" d="M30.58,1802.54l-2.39-1.24-10.53,7.07.36,13.67,14.09,8.95,12.09-7.38.17-3.4s-14.7-2.23-14.63.12c.06,2.35-4.74-11.38-4.74-11.38l5.58-6.42Z"/><polygon class="cls-55" points="19.97 1809.62 30.58 1802.54 31.02 1815.95 44.38 1820.21 32.3 1828.11 20.07 1820.33 19.97 1809.62"/><polygon class="cls-56" points="19.97 1809.62 17.67 1808.37 18.03 1822.04 32.12 1830.99 32.3 1828.11 20.07 1820.33 19.97 1809.62"/><path class="cls-4" d="M46.26,1792.87l-2.39-1.24-10.53,7.07.36,13.67,14.09,8.95,12.09-7.38.17-3.4s-14.7-2.23-14.63.12-4.74-11.38-4.74-11.38l5.58-6.42Z"/><polygon class="cls-55" points="35.64 1799.95 46.26 1792.87 46.7 1806.28 60.06 1810.54 47.98 1818.44 35.75 1810.66 35.64 1799.95"/><polygon class="cls-56" points="35.64 1799.95 33.34 1798.7 33.7 1812.37 47.79 1821.32 47.98 1818.44 35.75 1810.66 35.64 1799.95"/><path class="cls-4" d="M88.35,1766.42l-2.39-1.24-10.53,7.07.36,13.67,14.09,8.95,12.09-7.38.17-3.4s-14.7-2.23-14.63.12c.06,2.35-4.74-11.38-4.74-11.38l5.58-6.42Z"/><polygon class="cls-55" points="77.73 1773.5 88.35 1766.42 88.79 1779.83 102.14 1784.1 90.07 1791.99 77.84 1784.21 77.73 1773.5"/><polygon class="cls-56" points="77.73 1773.5 75.43 1772.25 75.79 1785.92 89.88 1794.87 90.07 1791.99 77.84 1784.21 77.73 1773.5"/><path class="cls-4" d="M103.41,1756.62l-2.39-1.24-10.53,7.07.36,13.67,14.09,8.95,12.09-7.38.17-3.4s-14.7-2.23-14.63.12-4.74-11.38-4.74-11.38l5.58-6.42Z"/><polygon class="cls-55" points="92.8 1763.7 103.41 1756.62 103.85 1770.03 117.21 1774.29 105.13 1782.19 92.9 1774.41 92.8 1763.7"/><polygon class="cls-56" points="92.8 1763.7 90.5 1762.45 90.86 1776.12 104.95 1785.07 105.13 1782.19 92.9 1774.41 92.8 1763.7"/><path class="cls-4" d="M119.09,1746.95l-2.39-1.24-10.53,7.07.36,13.67,14.09,8.95,12.09-7.38.17-3.4s-14.7-2.23-14.63.12-4.74-11.38-4.74-11.38l5.58-6.42Z"/><polygon class="cls-55" points="108.47 1754.03 119.09 1746.95 119.53 1760.36 132.89 1764.62 120.81 1772.52 108.58 1764.74 108.47 1754.03"/><polygon class="cls-56" points="108.47 1754.03 106.17 1752.78 106.53 1766.45 120.62 1775.4 120.81 1772.52 108.58 1764.74 108.47 1754.03"/><path class="cls-4" d="M164.74,1717.37l-2.39-1.24-10.53,7.07.36,13.67,14.09,8.95,12.09-7.38.17-3.4s-14.7-2.23-14.63.12c.06,2.35-4.74-11.38-4.74-11.38l5.58-6.42Z"/><polygon class="cls-55" points="154.12 1724.45 164.74 1717.37 165.18 1730.78 178.53 1735.05 166.46 1742.94 154.23 1735.16 154.12 1724.45"/><polygon class="cls-56" points="154.12 1724.45 151.82 1723.2 152.18 1736.87 166.27 1745.82 166.46 1742.94 154.23 1735.16 154.12 1724.45"/><path class="cls-4" d="M179.8,1707.57l-2.39-1.24-10.53,7.07.36,13.67,14.09,8.95,12.09-7.38.17-3.4s-14.7-2.23-14.63.12-4.74-11.38-4.74-11.38l5.58-6.42Z"/><polygon class="cls-55" points="169.18 1714.65 179.8 1707.57 180.24 1720.98 193.6 1725.24 181.52 1733.14 169.29 1725.36 169.18 1714.65"/><polygon class="cls-56" points="169.18 1714.65 166.89 1713.4 167.25 1727.07 181.34 1736.02 181.52 1733.14 169.29 1725.36 169.18 1714.65"/><path class="cls-4" d="M195.48,1697.9l-2.39-1.24-10.53,7.07.36,13.67,14.09,8.95,12.09-7.38.17-3.4s-14.7-2.23-14.63.12c.06,2.35-4.74-11.38-4.74-11.38l5.58-6.42Z"/><polygon class="cls-55" points="184.86 1704.98 195.48 1697.9 195.92 1711.31 209.27 1715.57 197.2 1723.47 184.97 1715.69 184.86 1704.98"/><polygon class="cls-56" points="184.86 1704.98 182.56 1703.73 182.92 1717.4 197.01 1726.35 197.2 1723.47 184.97 1715.69 184.86 1704.98"/></g><g id="tennis"><polygon class="cls-24" points="31.52 1862.21 350.85 1987.53 782.86 1713.44 457.44 1589.36 31.52 1862.21"/><polygon class="cls-73" points="31.52 1862.21 34.55 1891.41 353.87 2012.08 350.85 1987.53 31.52 1862.21"/><polygon class="cls-41" points="782.86 1713.44 785.6 1739.87 353.87 2012.08 350.85 1987.53 782.86 1713.44"/><polygon class="cls-111" points="93.11 1856.91 351.86 1956.83 718.37 1720.75 459.76 1622.21 93.11 1856.91"/><g class="cls-114"><line class="cls-92" x1="105.18" y1="1878.96" x2="542.22" y2="1595.02"/><line class="cls-92" x1="308.65" y1="1958.05" x2="718.35" y2="1689.06"/><line class="cls-92" x1="398.56" y1="1688.21" x2="601.89" y2="1765.92"/><line class="cls-92" x1="213.45" y1="1808.54" x2="417.79" y2="1887.07"/><line class="cls-92" x1="500" y1="1727.09" x2="313.91" y2="1847.05"/></g><polygon class="cls-107" points="93.11 1856.91 351.86 1956.83 718.37 1720.75 459.76 1622.21 93.11 1856.91"/><g id="cordage"><line class="cls-95" x1="269.23" y1="1689.2" x2="274.13" y2="1736.49"/><line class="cls-95" x1="273.75" y1="1690.54" x2="278.66" y2="1737.83"/><line class="cls-95" x1="278.6" y1="1692.55" x2="283.51" y2="1739.84"/><line class="cls-95" x1="283.13" y1="1693.89" x2="288.04" y2="1741.18"/><line class="cls-95" x1="288.11" y1="1695.93" x2="293.01" y2="1743.21"/><line class="cls-95" x1="292.64" y1="1697.27" x2="297.54" y2="1744.56"/><line class="cls-95" x1="297.49" y1="1699.28" x2="302.39" y2="1746.57"/><line class="cls-95" x1="302.01" y1="1700.62" x2="306.92" y2="1747.91"/><line class="cls-95" x1="306.64" y1="1703.18" x2="311.55" y2="1750.46"/><line class="cls-95" x1="311.17" y1="1704.52" x2="316.08" y2="1751.81"/><line class="cls-95" x1="316.02" y1="1706.53" x2="320.93" y2="1753.81"/><line class="cls-95" x1="320.55" y1="1707.87" x2="325.45" y2="1755.16"/><line class="cls-95" x1="325.53" y1="1709.9" x2="330.43" y2="1757.19"/><line class="cls-95" x1="330.05" y1="1711.24" x2="334.96" y2="1758.53"/><line class="cls-95" x1="334.9" y1="1713.25" x2="339.81" y2="1760.54"/><line class="cls-95" x1="339.43" y1="1714.59" x2="344.34" y2="1761.88"/><line class="cls-95" x1="344.55" y1="1717.81" x2="349.45" y2="1765.1"/><line class="cls-95" x1="349.08" y1="1719.15" x2="353.98" y2="1766.44"/><line class="cls-95" x1="353.92" y1="1721.16" x2="358.83" y2="1768.45"/><line class="cls-95" x1="358.45" y1="1722.5" x2="363.36" y2="1769.79"/><line class="cls-95" x1="363.43" y1="1724.54" x2="368.34" y2="1771.83"/><line class="cls-95" x1="367.96" y1="1725.88" x2="372.86" y2="1773.17"/><line class="cls-95" x1="372.81" y1="1727.89" x2="377.71" y2="1775.18"/><line class="cls-95" x1="377.34" y1="1729.23" x2="382.24" y2="1776.52"/><line class="cls-95" x1="381.96" y1="1731.79" x2="386.87" y2="1779.08"/><line class="cls-95" x1="386.49" y1="1733.13" x2="391.4" y2="1780.42"/><line class="cls-95" x1="391.34" y1="1735.14" x2="396.25" y2="1782.43"/><line class="cls-95" x1="395.87" y1="1736.48" x2="400.77" y2="1783.77"/><line class="cls-95" x1="400.85" y1="1738.51" x2="405.75" y2="1785.8"/><line class="cls-95" x1="405.37" y1="1739.86" x2="410.28" y2="1787.14"/><line class="cls-95" x1="410.22" y1="1741.86" x2="415.13" y2="1789.15"/><line class="cls-95" x1="414.75" y1="1743.21" x2="419.66" y2="1790.49"/><line class="cls-95" x1="420.36" y1="1746.3" x2="425.26" y2="1793.59"/><line class="cls-95" x1="424.89" y1="1747.64" x2="429.79" y2="1794.93"/><line class="cls-95" x1="429.74" y1="1749.65" x2="434.64" y2="1796.94"/><line class="cls-95" x1="434.26" y1="1750.99" x2="439.17" y2="1798.28"/><line class="cls-95" x1="439.24" y1="1753.02" x2="444.15" y2="1800.31"/><line class="cls-95" x1="443.77" y1="1754.37" x2="448.67" y2="1801.65"/><line class="cls-95" x1="448.62" y1="1756.37" x2="453.52" y2="1803.66"/><line class="cls-95" x1="453.15" y1="1757.72" x2="458.05" y2="1805"/><line class="cls-95" x1="457.78" y1="1760.27" x2="462.68" y2="1807.56"/><line class="cls-95" x1="462.3" y1="1761.61" x2="467.21" y2="1808.9"/><line class="cls-95" x1="467.15" y1="1763.62" x2="472.06" y2="1810.91"/><line class="cls-95" x1="471.68" y1="1764.97" x2="476.58" y2="1812.25"/><line class="cls-95" x1="476.66" y1="1767" x2="481.56" y2="1814.29"/><line class="cls-95" x1="481.19" y1="1768.34" x2="486.09" y2="1815.63"/><line class="cls-95" x1="486.03" y1="1770.35" x2="490.94" y2="1817.64"/><line class="cls-95" x1="490.56" y1="1771.69" x2="495.47" y2="1818.98"/><line class="cls-95" x1="495.06" y1="1774.8" x2="499.96" y2="1822.09"/><line class="cls-95" x1="499.59" y1="1776.15" x2="504.49" y2="1823.43"/><line class="cls-95" x1="504.56" y1="1778.18" x2="509.47" y2="1825.47"/><line class="cls-95" x1="509.09" y1="1779.52" x2="514" y2="1826.81"/><line class="cls-95" x1="513.94" y1="1781.53" x2="519.01" y2="1830.36"/><line class="cls-95" x1="518.47" y1="1782.87" x2="523.6" y2="1832.37"/><line class="cls-95" x1="522.9" y1="1784.82" x2="527.84" y2="1833.64"/><line class="cls-95" x1="527.42" y1="1786.16" x2="532.52" y2="1835.48"/><line class="cls-95" x1="532.27" y1="1788.17" x2="537.3" y2="1837.32"/><line class="cls-108" x1="263.46" y1="1693.12" x2="541.62" y2="1800.34"/><line class="cls-108" x1="263.97" y1="1698.07" x2="542.13" y2="1805.3"/><line class="cls-108" x1="264.55" y1="1703.64" x2="542.71" y2="1810.87"/><line class="cls-108" x1="265.06" y1="1708.59" x2="543.22" y2="1815.82"/><line class="cls-108" x1="265.58" y1="1713.54" x2="543.73" y2="1820.77"/><line class="cls-108" x1="266.16" y1="1719.12" x2="544.31" y2="1826.34"/><line class="cls-108" x1="266.73" y1="1724.69" x2="544.89" y2="1831.91"/><line class="cls-108" x1="267.25" y1="1729.64" x2="545.4" y2="1836.87"/><line class="cls-89" x1="267.63" y1="1733.35" x2="545.79" y2="1840.58"/></g><line class="cls-98" x1="262.62" y1="1685.07" x2="540.78" y2="1792.3"/><line class="cls-90" x1="260.84" y1="1676.87" x2="267.39" y2="1740.03"/><line class="cls-90" x1="538.85" y1="1782.71" x2="545.41" y2="1845.88"/></g><g id="Calque_72"><polygon class="cls-1" points="1004.32 740.51 765.53 888.44 622.79 812.43 863.02 664.46 1004.32 740.51"/><polygon class="cls-43" points="982.04 745.49 860.43 682.44 644.4 815.87 636.18 811.51 862.55 671.91 991.36 739.99 982.04 745.49"/><polygon class="cls-62" points="982.04 745.49 860.43 682.44 644.4 815.87 764.13 880.25 982.04 745.49"/><path class="cls-50" d="M956.31,740.6c-.48.02-16.13-9.37-16.13-9.37l-15.5,9.46,15.82,9.54,15.82-9.63Z"/><polygon class="cls-19" points="940.5 750.23 940.8 759.47 924.82 749.57 924.68 740.69 940.5 750.23"/><polygon class="cls-80" points="956.31 740.6 956.62 749.69 940.8 759.47 940.5 750.23 956.31 740.6"/><path class="cls-50" d="M915.59,717.35c-.48.02-16.13-9.37-16.13-9.37l-15.5,9.46,15.82,9.54,15.82-9.63Z"/><polygon class="cls-19" points="899.78 726.98 900.09 736.22 884.1 726.33 883.96 717.45 899.78 726.98"/><polygon class="cls-80" points="915.59 717.35 915.9 726.45 900.09 736.22 899.78 726.98 915.59 717.35"/><path class="cls-50" d="M781.44,850.53c-.48.02-16.13-9.37-16.13-9.37l-15.5,9.46,15.82,9.54,15.82-9.63Z"/><polygon class="cls-19" points="765.62 860.16 765.93 869.4 749.94 859.51 749.81 850.62 765.62 860.16"/><polygon class="cls-80" points="781.44 850.53 781.74 859.63 765.93 869.4 765.62 860.16 781.44 850.53"/><path class="cls-50" d="M740.72,827.28c-.48.02-16.13-9.37-16.13-9.37l-15.5,9.46,15.82,9.54,15.82-9.63Z"/><polygon class="cls-19" points="724.9 836.92 725.21 846.15 709.22 836.26 709.09 827.38 724.9 836.92"/><polygon class="cls-80" points="740.72 827.28 741.02 836.38 725.21 846.15 724.9 836.92 740.72 827.28"/><path class="cls-50" d="M876.03,704.85c-.48.02-16.13-9.37-16.13-9.37l-15.5,9.46,15.82,9.54,15.82-9.63Z"/><polygon class="cls-58" points="765.53 888.44 771.2 1058.64 627.27 982.6 622.79 812.43 765.53 888.44"/><polygon class="cls-69" points="1004.32 740.51 765.53 888.44 771.2 1058.64 1010.2 909.75 1004.32 740.51"/><polygon class="cls-106" points="824.73 867.05 766.24 905.11 752.23 896.95 753.92 947.7 767.92 955.54 826.46 919.08 824.73 867.05"/><polygon class="cls-106" points="828.23 952.89 829.9 1003 770.5 1042.37 627.9 967.88 623.52 831.74 632.6 835.75 635.53 923.53 768.69 988.11 828.23 952.89"/><polygon class="cls-106" points="1004 757.22 1005.68 807.65 924.25 857.02 922.61 807.86 1004 757.22"/><polygon class="cls-106" points="917.74 891.91 919.69 950.32 1008.57 894.31 1006.79 841 917.74 891.91"/><polygon class="cls-30" points="752.61 898.21 766.27 905.99 767.88 954.14 754.23 946.66 752.61 898.21"/><polygon class="cls-30" points="627.28 920.45 768.77 989.18 770.34 1041.13 629.16 967.36 627.28 920.45"/><polygon class="cls-30" points="631.65 836.1 624.67 832.82 627.74 924.75 634.7 927.39 631.65 836.1"/><polygon class="cls-116" points="912.65 970.4 911.17 926 843.59 965.52 845.14 1011.96 912.65 970.4"/><g class="cls-115"><line class="cls-97" x1="881.67" y1="939.68" x2="883.4" y2="991.51"/><line class="cls-97" x1="911.98" y1="925.13" x2="841.48" y2="967.02"/><line class="cls-97" x1="911.85" y1="921.18" x2="913.6" y2="973.61"/><line class="cls-97" x1="843.84" y1="958.8" x2="845.69" y2="1014.1"/><line class="cls-97" x1="913.74" y1="924.11" x2="834.57" y2="971.69"/></g><polygon class="cls-36" points="828.54 856.27 850.82 868.94 931.4 823.01 908.15 810.04 828.54 856.27"/><polygon class="cls-85" points="828.54 856.27 829.9 928.11 853.44 940.12 850.82 868.94 828.54 856.27"/><polygon class="cls-44" points="931.4 823.01 932.65 889.11 853.44 940.12 850.82 868.94 931.4 823.01"/><polygon class="cls-106" points="860.5 874.19 861.41 922.08 877.19 912.2 876.29 864.62 860.5 874.19"/><polygon class="cls-106" points="883.23 860.31 884.14 908.21 899.93 898.33 899.02 850.75 883.23 860.31"/><polygon class="cls-106" points="907.7 845.86 908.61 893.76 924.39 883.88 923.49 836.3 907.7 845.86"/></g><g id="Calque_70"><polygon class="cls-1" points="741.69 903.51 502.89 1051.43 360.16 975.43 600.39 827.46 741.69 903.51"/><polygon class="cls-43" points="719.41 908.49 597.8 845.44 381.76 978.86 373.55 974.51 599.92 834.91 728.73 902.98 719.41 908.49"/><polygon class="cls-62" points="719.41 908.49 597.8 845.44 381.76 978.86 501.5 1043.25 719.41 908.49"/><g id="box"><path class="cls-50" d="M693.68,903.59c-.48.02-16.13-9.37-16.13-9.37l-15.5,9.46,15.82,9.54,15.82-9.63Z"/><polygon class="cls-19" points="677.86 913.23 678.17 922.46 662.19 912.57 662.05 903.69 677.86 913.23"/><polygon class="cls-80" points="693.68 903.59 693.98 912.69 678.17 922.46 677.86 913.23 693.68 903.59"/><path class="cls-50" d="M652.96,880.35c-.48.02-16.13-9.37-16.13-9.37l-15.5,9.46,15.82,9.54,15.82-9.63Z"/><polygon class="cls-19" points="637.15 889.98 637.45 899.22 621.47 889.33 621.33 880.44 637.15 889.98"/><polygon class="cls-80" points="652.96 880.35 653.27 889.44 637.45 899.22 637.15 889.98 652.96 880.35"/><path class="cls-50" d="M518.8,1013.53c-.48.02-16.13-9.37-16.13-9.37l-15.5,9.46,15.82,9.54,15.82-9.63Z"/><polygon class="cls-19" points="502.99 1023.16 503.3 1032.4 487.31 1022.51 487.17 1013.62 502.99 1023.16"/><polygon class="cls-80" points="518.8 1013.53 519.11 1022.62 503.3 1032.4 502.99 1023.16 518.8 1013.53"/><path class="cls-50" d="M478.09,990.28c-.48.02-16.13-9.37-16.13-9.37l-15.5,9.46,15.82,9.54,15.82-9.63Z"/><polygon class="cls-19" points="462.27 999.91 462.58 1009.15 446.59 999.26 446.46 990.38 462.27 999.91"/><polygon class="cls-80" points="478.09 990.28 478.39 999.38 462.58 1009.15 462.27 999.91 478.09 990.28"/><path class="cls-50" d="M613.4,867.85c-.48.02-16.13-9.37-16.13-9.37l-15.5,9.46,15.82,9.54,15.82-9.63Z"/><polygon class="cls-1" points="741.69 903.51 502.89 1051.43 360.16 975.43 600.39 827.46 741.69 903.51"/><polygon class="cls-43" points="719.41 908.49 597.8 845.44 381.76 978.86 373.55 974.51 599.92 834.91 728.73 902.98 719.41 908.49"/><polygon class="cls-62" points="719.41 908.49 597.8 845.44 381.76 978.86 501.5 1043.25 719.41 908.49"/><path class="cls-50" d="M693.68,903.59c-.48.02-16.13-9.37-16.13-9.37l-15.5,9.46,15.82,9.54,15.82-9.63Z"/><polygon class="cls-19" points="677.86 913.23 678.17 922.46 662.19 912.57 662.05 903.69 677.86 913.23"/><polygon class="cls-80" points="693.68 903.59 693.98 912.69 678.17 922.46 677.86 913.23 693.68 903.59"/><path class="cls-50" d="M652.96,880.35c-.48.02-16.13-9.37-16.13-9.37l-15.5,9.46,15.82,9.54,15.82-9.63Z"/><polygon class="cls-19" points="637.15 889.98 637.45 899.22 621.47 889.33 621.33 880.44 637.15 889.98"/><polygon class="cls-80" points="652.96 880.35 653.27 889.44 637.45 899.22 637.15 889.98 652.96 880.35"/><path class="cls-50" d="M518.8,1013.53c-.48.02-16.13-9.37-16.13-9.37l-15.5,9.46,15.82,9.54,15.82-9.63Z"/><polygon class="cls-19" points="502.99 1023.16 503.3 1032.4 487.31 1022.51 487.17 1013.62 502.99 1023.16"/><polygon class="cls-80" points="518.8 1013.53 519.11 1022.62 503.3 1032.4 502.99 1023.16 518.8 1013.53"/><path class="cls-50" d="M478.09,990.28c-.48.02-16.13-9.37-16.13-9.37l-15.5,9.46,15.82,9.54,15.82-9.63Z"/><polygon class="cls-19" points="462.27 999.91 462.58 1009.15 446.59 999.26 446.46 990.38 462.27 999.91"/><polygon class="cls-80" points="478.09 990.28 478.39 999.38 462.58 1009.15 462.27 999.91 478.09 990.28"/><path class="cls-50" d="M613.4,867.85c-.48.02-16.13-9.37-16.13-9.37l-15.5,9.46,15.82,9.54,15.82-9.63Z"/><polygon class="cls-58" points="502.89 1051.43 508.57 1221.64 364.64 1145.6 360.16 975.43 502.89 1051.43"/><polygon class="cls-69" points="741.69 903.51 502.89 1051.43 508.57 1221.64 747.57 1072.75 741.69 903.51"/><polygon class="cls-106" points="562.09 1030.05 503.61 1068.11 489.6 1059.95 491.29 1110.7 505.29 1118.54 563.83 1082.07 562.09 1030.05"/><polygon class="cls-106" points="565.6 1115.89 567.27 1166 507.87 1205.36 365.27 1130.88 360.89 994.74 369.97 998.75 372.89 1086.53 506.06 1151.1 565.6 1115.89"/><polygon class="cls-106" points="741.37 920.22 743.05 970.65 661.62 1020.02 659.98 970.86 741.37 920.22"/><polygon class="cls-106" points="655.11 1054.9 657.06 1113.31 745.94 1057.31 744.16 1004 655.11 1054.9"/><polygon class="cls-30" points="489.98 1061.21 503.64 1068.99 505.25 1117.14 491.6 1109.66 489.98 1061.21"/><polygon class="cls-30" points="364.64 1083.45 506.13 1152.18 507.71 1204.13 366.53 1130.35 364.64 1083.45"/><polygon class="cls-30" points="369.02 999.1 362.04 995.82 365.11 1087.74 372.06 1090.39 369.02 999.1"/><polygon class="cls-36" points="471.32 1048.41 449.73 1062.23 366.86 1020.58 389.39 1006.41 471.32 1048.41"/><polygon class="cls-85" points="471.32 1048.41 473.71 1120.23 450.83 1133.45 449.73 1062.23 471.32 1048.41"/><polygon class="cls-44" points="366.86 1020.58 369.06 1086.65 450.83 1133.45 449.73 1062.23 366.86 1020.58"/><polygon class="cls-106" points="440.34 1067.98 441.93 1115.86 425.66 1106.81 424.07 1059.26 440.34 1067.98"/><polygon class="cls-106" points="416.91 1055.31 418.5 1103.19 402.23 1094.15 400.64 1046.59 416.91 1055.31"/><polygon class="cls-106" points="391.72 1042.16 393.32 1090.04 377.04 1080.99 375.45 1033.44 391.72 1042.16"/><polygon class="cls-64" points="663.26 988.01 644.34 976.18 568.29 1024.09 587.19 1035.28 663.26 988.01"/><polygon class="cls-42" points="587.19 1035.28 588.54 1075.82 570.03 1066.85 568.61 1024.08 587.19 1035.28"/><polygon class="cls-54" points="663.26 988.01 664.56 1026.95 588.54 1075.82 587.19 1035.28 663.26 988.01"/><polygon class="cls-116" points="650.02 1133.4 648.54 1088.99 580.96 1128.51 582.5 1174.96 650.02 1133.4"/><g class="cls-123"><line class="cls-97" x1="619.04" y1="1102.68" x2="620.77" y2="1154.51"/><line class="cls-97" x1="649.35" y1="1088.13" x2="578.85" y2="1130.02"/><line class="cls-97" x1="649.22" y1="1084.18" x2="650.96" y2="1136.6"/><line class="cls-97" x1="581.21" y1="1121.8" x2="583.06" y2="1177.09"/><line class="cls-97" x1="651.11" y1="1087.11" x2="571.94" y2="1134.69"/></g></g><polygon class="cls-58" points="502.89 1051.43 508.57 1221.64 364.64 1145.6 360.16 975.43 502.89 1051.43"/><polygon class="cls-69" points="741.69 903.51 502.89 1051.43 508.57 1221.64 747.57 1072.75 741.69 903.51"/><polygon class="cls-106" points="562.09 1030.05 503.61 1068.11 489.6 1059.95 491.29 1110.7 505.29 1118.54 563.83 1082.07 562.09 1030.05"/><polygon class="cls-106" points="565.6 1115.89 567.27 1166 507.87 1205.36 365.27 1130.88 360.89 994.74 369.97 998.75 372.89 1086.53 506.06 1151.1 565.6 1115.89"/><polygon class="cls-106" points="741.37 920.22 743.05 970.65 661.62 1020.02 659.98 970.86 741.37 920.22"/><polygon class="cls-106" points="655.11 1054.9 657.06 1113.31 745.94 1057.31 744.16 1004 655.11 1054.9"/><polygon class="cls-30" points="489.98 1061.21 503.64 1068.99 505.25 1117.14 491.6 1109.66 489.98 1061.21"/><polygon class="cls-30" points="364.64 1083.45 506.13 1152.18 507.71 1204.13 366.53 1130.35 364.64 1083.45"/><polygon class="cls-30" points="369.02 999.1 362.04 995.82 365.11 1087.74 372.06 1090.39 369.02 999.1"/><polygon class="cls-36" points="471.32 1048.41 449.73 1062.23 366.86 1020.58 389.39 1006.41 471.32 1048.41"/><polygon class="cls-44" points="471.32 1048.41 473.71 1120.23 450.83 1133.45 449.73 1062.23 471.32 1048.41"/><polygon class="cls-85" points="366.86 1020.58 369.06 1086.65 450.83 1133.45 449.73 1062.23 366.86 1020.58"/><polygon class="cls-106" points="440.34 1067.98 441.93 1115.86 425.66 1106.81 424.07 1059.26 440.34 1067.98"/><polygon class="cls-106" points="416.91 1055.31 418.5 1103.19 402.23 1094.15 400.64 1046.59 416.91 1055.31"/><polygon class="cls-106" points="391.72 1042.16 393.32 1090.04 377.04 1080.99 375.45 1033.44 391.72 1042.16"/><polygon class="cls-64" points="663.26 988.01 644.34 976.18 568.29 1024.09 587.19 1035.28 663.26 988.01"/><polygon class="cls-42" points="587.19 1035.28 588.54 1075.82 570.03 1066.85 568.61 1024.08 587.19 1035.28"/><polygon class="cls-54" points="663.26 988.01 664.56 1026.95 588.54 1075.82 587.19 1035.28 663.26 988.01"/><polygon class="cls-116" points="650.02 1133.4 648.54 1088.99 580.96 1128.51 582.5 1174.96 650.02 1133.4"/><g class="cls-120"><line class="cls-97" x1="619.04" y1="1102.68" x2="620.77" y2="1154.51"/><line class="cls-97" x1="649.35" y1="1088.13" x2="578.85" y2="1130.02"/><line class="cls-97" x1="649.22" y1="1084.18" x2="650.96" y2="1136.6"/><line class="cls-97" x1="581.21" y1="1121.8" x2="583.06" y2="1177.09"/><line class="cls-97" x1="651.11" y1="1087.11" x2="571.94" y2="1134.69"/></g></g><g id="arbre"><g id="Calque_76"><path class="cls-28" d="M10.59,1918.43l-.36,35.63-24.11-18.36,23.39,26.63.36,47.87s6.36,3.72,12.48.72c.34-.17,1.2-36.35,1.2-36.35l15.12-16.2-15.12,9-1.08-50.03-11.88,1.08Z"/><ellipse class="cls-21" cx="15.63" cy="1877.04" rx="53.99" ry="50.9"/><ellipse class="cls-14" cx="-1.54" cy="1858.47" rx="30.68" ry="23.37" transform="translate(-1121.62 375.45) rotate(-37.11)"/><ellipse class="cls-21" cx="-35.48" cy="1918.05" rx="53.99" ry="50.9"/><path class="cls-28" d="M40.91,2043.49l-.36,35.63-24.11-18.36,23.39,26.63.36,47.87s6.36,3.72,12.48.72c.34-.17,1.2-36.35,1.2-36.35l15.12-16.2-15.12,9-1.08-50.03-11.88,1.08Z"/><ellipse class="cls-21" cx="45.95" cy="2002.1" rx="53.99" ry="50.9"/><ellipse class="cls-14" cx="28.78" cy="1983.53" rx="30.68" ry="23.37" transform="translate(-1190.94 419.08) rotate(-37.11)"/><path class="cls-28" d="M89.61,1997.41l-.59,58.5-39.59-30.14,38.41,43.73.59,78.59s10.44,6.11,20.49,1.18c.56-.27,1.97-59.68,1.97-59.68l24.82-26.59-24.82,14.77-1.77-82.14-19.5,1.77Z"/><ellipse class="cls-21" cx="97.88" cy="1929.46" rx="88.64" ry="83.57"/><ellipse class="cls-14" cx="69.68" cy="1898.97" rx="50.37" ry="38.37" transform="translate(-1131.63 426.63) rotate(-37.11)"/><path class="cls-28" d="M207.19,2013.26l-.36,35.63-24.11-18.36,23.39,26.63.36,47.87s6.36,3.72,12.48.72c.34-.17,1.2-36.35,1.2-36.35l15.12-16.2-15.12,9-1.08-50.03-11.88,1.08Z"/><ellipse class="cls-21" cx="212.23" cy="1971.87" rx="53.99" ry="50.9"/><ellipse class="cls-14" cx="195.06" cy="1953.3" rx="30.68" ry="23.37" transform="translate(-1139.02 513.28) rotate(-37.11)"/><path class="cls-28" d="M156.09,2054.27l-.36,35.63-24.11-18.36,23.39,26.63.36,47.87s6.36,3.72,12.48.72c.34-.17,1.2-36.35,1.2-36.35l15.12-16.2-15.12,9-1.08-50.03-11.88,1.08Z"/><ellipse class="cls-21" cx="161.13" cy="2012.88" rx="53.99" ry="50.9"/><ellipse class="cls-14" cx="143.95" cy="1994.31" rx="30.68" ry="23.37" transform="translate(-1174.12 490.75) rotate(-37.11)"/><ellipse class="cls-21" cx="-40.9" cy="2003.47" rx="88.64" ry="83.57"/><path class="cls-28" d="M68.42,2087.27l-.36,35.63-24.11-18.36,23.39,26.63.36,47.87s6.36,3.72,12.48.72c.34-.17,1.2-36.35,1.2-36.35l15.12-16.2-15.12,9-1.08-50.03-11.88,1.08Z"/><ellipse class="cls-21" cx="73.46" cy="2045.88" rx="53.99" ry="50.9"/><ellipse class="cls-14" cx="56.28" cy="2027.31" rx="30.68" ry="23.37" transform="translate(-1211.79 444.54) rotate(-37.11)"/><path class="cls-28" d="M17.31,2128.29l-.36,35.63-24.11-18.36,23.39,26.63.36,47.87s6.36,3.72,12.48.72c.34-.17,1.2-36.35,1.2-36.35l15.12-16.2-15.12,9-1.08-50.03-11.88,1.08Z"/><ellipse class="cls-21" cx="22.35" cy="2086.9" rx="53.99" ry="50.9"/><ellipse class="cls-14" cx="5.17" cy="2068.33" rx="30.68" ry="23.37" transform="translate(-1246.88 422.01) rotate(-37.11)"/></g></g><g id="arc_de_tromphe"><polygon class="cls-74" points="892.34 1979.1 892.44 1981.41 1117.98 1851.62 1112.38 1848.96 904.21 1946.74 892.34 1979.1"/><polygon class="cls-60" points="1042.79 1805.64 822.57 1933.4 892.34 1973.74 1113.61 1846.61 1042.79 1805.64"/><polygon class="cls-23" points="1104.88 1849.87 1043.11 1814.99 831.5 1937.08 892.39 1972.01 1104.88 1849.87"/><polygon class="cls-45" points="1043.11 1808.58 826.9 1934.29 831.5 1937.08 1043.11 1814.99 1043.11 1808.58"/><polygon class="cls-9" points="963.74 1910.72 963.66 1924.23 951.57 1917.91 951.64 1904.65 963.74 1910.72"/><polygon class="cls-22" points="963.74 1910.72 1045.1 1863.77 1033.05 1857.05 951.64 1904.65 963.74 1910.72"/><polygon class="cls-17" points="963.66 1924.23 963.74 1910.72 1045.1 1863.77 1044.89 1877.92 963.66 1924.23"/><polygon class="cls-9" points="927.4 1889.39 927.32 1902.9 915.23 1896.57 915.3 1883.32 927.4 1889.39"/><polygon class="cls-22" points="927.4 1889.39 1008.76 1842.44 996.71 1835.72 915.3 1883.32 927.4 1889.39"/><polygon class="cls-17" points="927.32 1902.9 927.4 1889.39 1008.76 1842.44 1008.55 1856.59 927.32 1902.9"/><polygon class="cls-53" points="1043.11 1814.99 1043.11 1808.58 1108.35 1846.93 1104.88 1849.87 1043.11 1814.99"/><polygon class="cls-74" points="822.36 1936.66 817.63 1938.97 892.44 1981.41 892.34 1979.1 822.36 1936.66"/><polygon class="cls-45" points="892.34 1973.74 892.34 1979.1 822.36 1938.44 822.57 1933.4 892.34 1973.74"/><polygon class="cls-45" points="824.04 1956.72 809.12 1966.49 892.34 2014.09 892.23 2005.68 824.04 1956.72"/><polygon class="cls-9" points="892.44 1986.67 892.44 2008 822.26 1966.07 822.26 1947.06 892.44 1986.67"/><polygon class="cls-45" points="817.63 1938.97 817.63 1944.64 892.44 1986.67 892.44 1981.41 817.63 1938.97"/><polygon class="cls-49" points="892.34 2019.76 892.34 2022.18 811.96 1976.05 811.96 1973.43 892.34 2019.76"/><polygon class="cls-5" points="892.34 2019.76 892.34 2014.09 809.12 1966.49 809.12 1972.27 892.34 2019.76"/><polygon class="cls-12" points="892.34 2042.56 892.34 2044.77 820.26 2003.37 820.26 1998.54 892.34 2042.56"/><path class="cls-29" d="M1114.2,1949.26l9.95,6.72-80.97,47.07-44.13-24.66,27.74-14.43,51.69-12.61s29-6.3,28.86-5.18,6.86,3.08,6.86,3.08Z"/><polygon class="cls-40" points="997.09 2067.04 1036.03 2045.78 1026.08 2012.86 1006.33 2001.8 993.16 2004.6 986.72 2025.61 988.68 2049.43 997.09 2067.04"/><path class="cls-71" d="M1041.21,1999.69l-35.44-21.29,23.67-7s14.99,3.22,15.13,4.48c.14,1.26-3.36,23.82-3.36,23.82Z"/><polygon class="cls-31" points="892.34 2022.18 892.34 2042.56 812.48 1995.7 812.48 1975.63 892.34 2022.18"/><polygon class="cls-29" points="821.52 2036.78 810.91 2043.72 892.44 2090.26 892.34 2084.48 821.52 2036.78"/><polygon class="cls-65" points="892.34 2044.77 892.34 2084.48 820.26 2043.82 820.26 2003.37 892.34 2044.77"/><polygon class="cls-48" points="881.09 2042.98 881.09 2071.77 828.56 2041.72 828.56 2013.56 881.09 2042.98"/><polygon class="cls-26" points="879.2 2044.77 879.2 2068.2 830.56 2039.83 830.56 2017.45 879.2 2044.77"/><polygon class="cls-10" points="1043.6 2013.14 992.78 1984.78 991.94 1987.82 1043.46 2016.23 1043.6 2013.14"/><polygon class="cls-13" points="1043.07 2003.21 997.35 1976.95 992.25 1984.72 1043.49 2013.3 1043.07 2003.21"/><path class="cls-84" d="M1043.53,2096.99l-.07-80.76-65.28-35.97-6.2,40.98v32.47s20.07,13.55,20.38,13.66,2.42-1.47,2.42-1.47l2.31,1.16v-50.54s2.52-11.66,12.92-6.51c10.4,5.15,10.82,18.39,10.72,22.59s-.42,51.06-.42,51.06l23.22,13.34Z"/><polygon class="cls-78" points="846.11 2155.09 879.2 2136.18 880.78 2105.92 860.18 2089.84 846 2088.16 846.11 2155.09"/><path class="cls-27" d="M892.55,2100.77v84.58s-23.01-12.4-23.01-12.4v-59.15s-3.36-17.65-15.34-18.81c0,0-7.14-1.16-7.56,11.56-.42,12.71-.53,48.54-.53,48.54l-2.1-1.58.05-80.51,48.49,27.76Z"/><polygon class="cls-8" points="844 2153.51 841.48 2154.98 840.85 2070.61 844.29 2072.77 844 2153.51"/><polygon class="cls-31" points="841.48 2154.98 820.36 2141.53 820.36 2054.54 841.17 2065.05 841.48 2154.98"/><polygon class="cls-35" points="810.91 2043.72 810.91 2054.43 892.55 2100.77 892.44 2090.26 810.91 2043.72"/><polygon class="cls-45" points="892.34 1979.1 1113.36 1852.18 1113.61 1846.61 892.34 1973.74 892.34 1979.1"/><polygon class="cls-45" points="892.44 1981.41 892.44 1986.67 1118.12 1856.8 1117.98 1851.62 892.44 1981.41"/><polygon class="cls-45" points="892.34 2014.09 892.44 2008 1113.5 1879.5 1109.3 1869.62 1126.11 1880.13 892.34 2014.09"/><polygon class="cls-40" points="1113.5 1857.64 1113.5 1879.5 892.44 2008 892.44 1986.67 1113.5 1857.64"/><polygon class="cls-5" points="892.34 2019.76 892.34 2014.09 1126.11 1880.13 1124.01 1885.94 892.34 2019.76"/><polygon class="cls-49" points="892.34 2022.18 892.34 2019.76 1124.01 1885.94 1124.01 1888.74 892.34 2022.18"/><polygon class="cls-40" points="892.34 2042.56 892.34 2022.18 1124.01 1888.74 1124.01 1908.78 892.34 2042.56"/><polygon class="cls-12" points="892.34 2044.77 892.34 2042.56 1115.6 1913.68 1115.46 1916.2 892.34 2044.77"/><polygon class="cls-29" points="892.44 2090.26 892.34 2084.48 964.73 2039.06 973.41 2043.12 892.44 2090.26"/><path class="cls-40" d="M892.34,2084.48v-39.72s223.13-128.57,223.13-128.57v40.35s-74.25,43.15-74.25,43.15c0,0-2.66-30.82-33.62-19.61-30.96,11.21-41.75,57.86-41.05,62.06l-74.21,42.34Z"/><polygon class="cls-47" points="1124.15 1955.99 1124.15 1966.35 1043.6 2013.14 1043.18 2003.06 1124.15 1955.99"/><polygon class="cls-10" points="1043.46 2016.23 1043.6 2013.14 1115.32 1971.54 1115.32 1975.18 1043.46 2016.23"/><polygon class="cls-40" points="1115.32 1975.18 1115.32 2032.16 1043.42 2073.98 1043.46 2016.23 1115.32 1975.18"/><polygon class="cls-10" points="1043.53 2075.76 1043.42 2073.98 1115.32 2032.16 1115.32 2034.58 1043.53 2075.76"/><polygon class="cls-40" points="1115.5 2055.59 1115.5 2034.58 1043.53 2075.76 1043.53 2096.99 1115.5 2055.59"/><polygon class="cls-47" points="973.17 2042.98 973.17 2053.45 892.62 2100.71 892.19 2090.53 973.17 2042.98"/><polygon class="cls-10" points="892.48 2103.83 892.62 2100.71 964.34 2058.69 964.34 2062.37 892.48 2103.83"/><polygon class="cls-40" points="964.34 2062.37 964.34 2119.92 892.44 2162.16 892.48 2103.83 964.34 2062.37"/><polygon class="cls-10" points="892.55 2163.96 892.44 2162.16 964.34 2119.92 964.34 2122.36 892.55 2163.96"/><polygon class="cls-40" points="964.52 2143.59 964.52 2122.36 892.55 2163.96 892.55 2185.4 964.52 2143.59"/></g></g></svg>